<svg xmlns="http://www.w3.org/2000/svg" xmlns:xlink="http://www.w3.org/1999/xlink" width="1328" height="560.991" viewBox="0 0 1328 560.991">
  <defs>
    <clipPath id="clip-path">
      <rect id="Rect치ngulo_412221" data-name="Rect치ngulo 412221" width="1328" height="560.991" transform="translate(136 609.005)" fill="#ecf6ff"/>
    </clipPath>
    <linearGradient id="linear-gradient" x1="0.5" y1="0.066" x2="0.5" y2="0.894" gradientUnits="objectBoundingBox">
      <stop offset="0" stop-color="#fcf9e8" stop-opacity="0"/>
      <stop offset="0.163" stop-color="#fcf9e8" stop-opacity="0.678"/>
      <stop offset="0.381" stop-color="#e8ffec"/>
      <stop offset="0.649" stop-color="#f3f3e6"/>
      <stop offset="0.882" stop-color="#fcf9e8" stop-opacity="0.216"/>
      <stop offset="1" stop-color="#fcf9e8" stop-opacity="0"/>
    </linearGradient>
    <linearGradient id="linear-gradient-2" x1="0.5" x2="0.5" y2="0.736" gradientUnits="objectBoundingBox">
      <stop offset="0" stop-color="#fff"/>
      <stop offset="1" stop-color="#ddeadf" stop-opacity="0"/>
    </linearGradient>
  </defs>
  <g id="Enmascarar_grupo_1098865" data-name="Enmascarar grupo 1098865" transform="translate(-136 -609.005)" opacity="0.34" clip-path="url(#clip-path)">
    <path id="Trazado_924361" data-name="Trazado 924361" d="M0,0H1376V605.82H0Z" transform="translate(114 590.185)" fill="url(#linear-gradient)"/>
    <g id="Grupo_1114694" data-name="Grupo 1114694" transform="translate(722.958 750.759)" opacity="0.388">
      <ellipse id="Elipse_13457" data-name="Elipse 13457" cx="229.569" cy="215.96" rx="229.569" ry="215.96" transform="translate(0 43.687)" fill="#f3bc5b" opacity="0.503"/>
      <path id="Trazado_929052" data-name="Trazado 929052" d="M229.569,0C356.357,0,459.139,96.688,459.139,215.96s-102.782,215.96-229.569,215.96S0,335.231,0,215.96,102.782,0,229.569,0Z" transform="translate(487.401 130.711)" fill="#004e3d" opacity="0.503"/>
      <ellipse id="Elipse_13459" data-name="Elipse 13459" cx="120.915" cy="113.745" rx="120.915" ry="113.745" transform="translate(558.883 0)" fill="#004e3d" opacity="0.426"/>
    </g>
    <g id="Grupo_1114695" data-name="Grupo 1114695" transform="translate(-282.272 402.931)" opacity="0.388">
      <ellipse id="Elipse_13460" data-name="Elipse 13460" cx="272.984" cy="256.801" rx="272.984" ry="256.801" transform="translate(162.575 126.059)" fill="#f3bc5b" opacity="0.503"/>
      <ellipse id="Elipse_13461" data-name="Elipse 13461" cx="272.984" cy="256.801" rx="272.984" ry="256.801" fill="#004e3d" opacity="0.503"/>
      <g id="Trazado_937819" data-name="Trazado 937819" transform="translate(258.405 442.734)" fill="#fff">
        <path d="M 143.7820281982422 270.01171875 C 134.0582427978516 270.01171875 124.3407440185547 269.0902099609375 114.8994598388672 267.2728271484375 C 105.6986389160156 265.5016784667969 96.64849090576172 262.8589782714844 88.00041961669922 259.4180603027344 C 79.50974273681641 256.0397644042969 71.32052612304688 251.8583984375 63.66031265258789 246.9901428222656 C 56.07331466674805 242.1684265136719 48.93892288208008 236.631103515625 42.45538711547852 230.5319976806641 C 35.97235107421875 224.4334259033203 30.08667182922363 217.7229614257812 24.96181297302246 210.5870361328125 C 19.78834915161133 203.3833923339844 15.34495639801025 195.6825714111328 11.75513553619385 187.6985015869141 C 8.099206924438477 179.5675048828125 5.291385173797607 171.0586395263672 3.409706830978394 162.4083557128906 C 1.478956818580627 153.5325317382812 0.4999924898147583 144.3971405029297 0.4999924898147583 135.255859375 C 0.4999924898147583 126.1145706176758 1.478956818580627 116.9791793823242 3.409706830978394 108.1033630371094 C 5.291385173797607 99.45307159423828 8.099206924438477 90.9442138671875 11.75513553619385 82.81321716308594 C 15.34495639801025 74.82914733886719 19.78834915161133 67.12832641601562 24.96181297302246 59.9246826171875 C 30.08667182922363 52.78875350952148 35.97235107421875 46.07828903198242 42.45538711547852 39.97971725463867 C 48.93892288208008 33.88060760498047 56.07331466674805 28.34328842163086 63.66031265258789 23.52157402038574 C 71.32052612304688 18.65332412719727 79.50974273681641 14.47196674346924 88.00041961669922 11.0936450958252 C 96.64849090576172 7.65275239944458 105.6986389160156 5.010037899017334 114.8994598388672 3.238895177841187 C 124.3407440185547 1.421502232551575 134.0582427978516 0.5000022053718567 143.7820281982422 0.5000022053718567 C 153.5058135986328 0.5000022053718567 163.2233123779297 1.421502232551575 172.6645965576172 3.238895177841187 C 181.8654174804688 5.010037899017334 190.9155578613281 7.65275239944458 199.5636291503906 11.0936450958252 C 208.0543212890625 14.47196674346924 216.2435302734375 18.65332412719727 223.9037475585938 23.52157402038574 C 231.4907379150391 28.34328842163086 238.6251373291016 33.88060760498047 245.1086730957031 39.97971725463867 C 251.5917053222656 46.07828903198242 257.4773864746094 52.78875350952148 262.6022338867188 59.9246826171875 C 267.7756958007812 67.12832641601562 272.2190856933594 74.82914733886719 275.8089294433594 82.81321716308594 C 279.46484375 90.9442138671875 282.2726745605469 99.45307159423828 284.1543579101562 108.1033630371094 C 286.0851135253906 116.9791793823242 287.0640563964844 126.1145706176758 287.0640563964844 135.255859375 C 287.0640563964844 144.3971405029297 286.0851135253906 153.5325317382812 284.1543579101562 162.4083557128906 C 282.2726745605469 171.0586395263672 279.46484375 179.5675048828125 275.8089294433594 187.6985015869141 C 272.2190856933594 195.6825714111328 267.7756958007812 203.3833923339844 262.6022338867188 210.5870361328125 C 257.4773864746094 217.7229614257812 251.5917053222656 224.4334259033203 245.1086730957031 230.5319976806641 C 238.6251373291016 236.631103515625 231.4907379150391 242.1684265136719 223.9037475585938 246.9901428222656 C 216.2435302734375 251.8583984375 208.0543212890625 256.0397644042969 199.5636291503906 259.4180603027344 C 190.9155578613281 262.8589782714844 181.8654174804688 265.5016784667969 172.6645965576172 267.2728271484375 C 163.2233123779297 269.0902099609375 153.5058135986328 270.01171875 143.7820281982422 270.01171875 Z" stroke="none"/>
        <path d="M 143.7820281982422 1 C 134.0898895263672 1 124.4041748046875 1.91845703125 114.9939575195312 3.729888916015625 C 105.8239135742188 5.495086669921875 96.80416870117188 8.128936767578125 88.18527221679688 11.5582275390625 C 79.72355651855469 14.92500305175781 71.5623779296875 19.092041015625 63.92849731445312 23.94357299804688 C 56.36799621582031 28.74847412109375 49.2586669921875 34.26632690429688 42.79795837402344 40.34390258789062 C 36.33834838867188 46.42047119140625 30.47402954101562 53.10653686523438 25.36795043945312 60.21635437011719 C 20.21392822265625 67.39292907714844 15.78732299804688 75.06460571289062 12.21112060546875 83.01824951171875 C 8.5694580078125 91.11764526367188 5.772613525390625 99.59324645996094 3.898284912109375 108.2096405029297 C 1.975128173828125 117.0506134033203 1 126.1502532958984 1 135.255859375 C 1 144.3614654541016 1.975128173828125 153.4611206054688 3.898284912109375 162.3020629882812 C 5.772613525390625 170.91845703125 8.5694580078125 179.3940734863281 12.21112060546875 187.4934692382812 C 15.78732299804688 195.4471130371094 20.21392822265625 203.1187896728516 25.36795043945312 210.2953643798828 C 30.47402954101562 217.4051818847656 36.33834838867188 224.0912475585938 42.79795837402344 230.1678161621094 C 49.2586669921875 236.2453918457031 56.36799621582031 241.7632446289062 63.92849731445312 246.5681457519531 C 71.5623779296875 251.419677734375 79.72355651855469 255.5867156982422 88.18527221679688 258.9534912109375 C 96.80416870117188 262.3827819824219 105.8239135742188 265.0166320800781 114.9939575195312 266.7818298339844 C 124.4041748046875 268.59326171875 134.0898895263672 269.51171875 143.7820281982422 269.51171875 C 153.4741668701172 269.51171875 163.1598815917969 268.59326171875 172.5700988769531 266.7818298339844 C 181.7401428222656 265.0166320800781 190.7598876953125 262.3827819824219 199.3787841796875 258.9534912109375 C 207.8404846191406 255.5867156982422 216.0016784667969 251.419677734375 223.6355590820312 246.5681457519531 C 231.1960601806641 241.7632446289062 238.3053894042969 236.2453918457031 244.7660980224609 230.1678161621094 C 251.2257080078125 224.0912475585938 257.0900268554688 217.4051818847656 262.1961059570312 210.2953643798828 C 267.3501281738281 203.1187896728516 271.7767333984375 195.4471130371094 275.3529357910156 187.4934692382812 C 278.9945983886719 179.3940734863281 281.7914428710938 170.91845703125 283.665771484375 162.3020629882812 C 285.5889282226562 153.4611206054688 286.5640563964844 144.3614654541016 286.5640563964844 135.255859375 C 286.5640563964844 126.1502532958984 285.5889282226562 117.0506134033203 283.665771484375 108.2096405029297 C 281.7914428710938 99.59324645996094 278.9945983886719 91.11764526367188 275.3529357910156 83.01824951171875 C 271.7767333984375 75.06460571289062 267.3501281738281 67.39292907714844 262.1961059570312 60.21635437011719 C 257.0900268554688 53.10653686523438 251.2257080078125 46.42047119140625 244.7660980224609 40.34390258789062 C 238.3053894042969 34.26632690429688 231.1960601806641 28.74847412109375 223.6355590820312 23.94357299804688 C 216.0016784667969 19.092041015625 207.8404846191406 14.92500305175781 199.3787841796875 11.5582275390625 C 190.7598876953125 8.128936767578125 181.7401428222656 5.495086669921875 172.5700988769531 3.729888916015625 C 163.1598815917969 1.91845703125 153.4741668701172 1 143.7820281982422 1 M 143.7820281982422 0 C 223.1906433105469 0 287.5640563964844 60.55610656738281 287.5640563964844 135.255859375 C 287.5640563964844 209.9556121826172 223.1906433105469 270.51171875 143.7820281982422 270.51171875 C 64.37342834472656 270.51171875 0 209.9556121826172 0 135.255859375 C 0 60.55610656738281 64.37342834472656 0 143.7820281982422 0 Z" stroke="none" fill="#707070"/>
      </g>
      <g id="Rect치ngulo_455350" data-name="Rect치ngulo 455350" transform="translate(401.937 201.072)" stroke="#707070" stroke-width="1" fill="url(#linear-gradient-2)">
        <rect width="690" height="159" stroke="none"/>
        <rect x="0.5" y="0.5" width="689" height="158" fill="none"/>
      </g>
    </g>
  </g>
</svg>
