<svg xmlns="http://www.w3.org/2000/svg" xmlns:xlink="http://www.w3.org/1999/xlink" width="400" height="360.328" viewBox="0 0 400 360.328">
  <defs>
    <clipPath id="clip-path">
      <rect id="Rectángulo_454139" data-name="Rectángulo 454139" width="400" height="360" rx="20" transform="translate(1)" fill="#004e3d"/>
    </clipPath>
    <clipPath id="clip-path-2">
      <rect id="Rectángulo_454135" data-name="Rectángulo 454135" width="199" height="200" transform="translate(-0.082)" fill="#004e3d"/>
    </clipPath>
    <clipPath id="clip-path-3">
      <rect id="Rectángulo_454136" data-name="Rectángulo 454136" width="163" height="163" transform="translate(0.255)" fill="#b2c9c4"/>
    </clipPath>
    <clipPath id="clip-path-4">
      <rect id="Rectángulo_454137" data-name="Rectángulo 454137" width="5.205" height="86.653" fill="#b2c9c4"/>
    </clipPath>
    <clipPath id="clip-path-5">
      <rect id="Rectángulo_454138" data-name="Rectángulo 454138" width="39.865" height="155.058" fill="#b2c9c4"/>
    </clipPath>
  </defs>
  <g id="Grupo_1178477" data-name="Grupo 1178477" transform="translate(-1020 -26481)">
    <rect id="Rectángulo_454134" data-name="Rectángulo 454134" width="400" height="360" rx="20" transform="translate(1020 26481.328)" fill="#f2f4ed"/>
    <g id="Enmascarar_grupo_1098927" data-name="Enmascarar grupo 1098927" transform="translate(1019 26481)" clip-path="url(#clip-path)">
      <g id="Grupo_1176129" data-name="Grupo 1176129" transform="translate(-98.918 -100)">
        <g id="Grupo_1176122" data-name="Grupo 1176122" transform="translate(-5 -15)" opacity="0.4">
          <g id="Grupo_1176121" data-name="Grupo 1176121" clip-path="url(#clip-path-2)">
            <path id="Trazado_929407" data-name="Trazado 929407" d="M96.683,199.323h-.011a1.009,1.009,0,1,1,.011,0m6.075,0h-.01a1.008,1.008,0,1,1,.01,0m-12.138-.362a1.049,1.049,0,0,1-.33-.054,1.013,1.013,0,1,1,.33.054m18.19-.011a1.009,1.009,0,0,1-.318-1.966,1.036,1.036,0,0,1,1.337.956,1.009,1.009,0,0,1-.905,1,1.127,1.127,0,0,1-.114.006m-24.218-.724a1.057,1.057,0,0,1-.173-.015,1.01,1.01,0,0,1-.847-1,1.028,1.028,0,0,1,1.264-.977,1.01,1.01,0,0,1-.244,1.989m30.246-.016a1.017,1.017,0,1,1,.255-.033,1.1,1.1,0,0,1-.255.033m-36.219-1.091a1.162,1.162,0,0,1-.172-.014,1.01,1.01,0,0,1-.848-1,1.028,1.028,0,0,1,1.264-.977,1.009,1.009,0,0,1-.244,1.988m42.191-.022a1.017,1.017,0,1,1,.255-.033,1.1,1.1,0,0,1-.255.033m5.89-1.48a1.014,1.014,0,1,1,.33-.055.837.837,0,0,1-.084.025,1.033,1.033,0,0,1-.246.031m-54.228,0a1.009,1.009,0,0,1,.489-1.958Zm-5.537-1.8a1,1,0,0,1-.319-.052,1.08,1.08,0,0,1-.141-.059,1.01,1.01,0,1,1,.461.111m65.555-.035a1.01,1.01,0,0,1-.452-1.912,1.131,1.131,0,0,1,.141-.058,1.009,1.009,0,0,1,.691,1.895.982.982,0,0,1-.38.076M61.26,191.611a1.015,1.015,0,0,1-.319-.053,1.127,1.127,0,0,1-.141-.059,1.006,1.006,0,1,1,.46.112m76.883-.034a1.01,1.01,0,0,1-.452-1.912,1.075,1.075,0,0,1,.141-.058,1.009,1.009,0,0,1,.692,1.895.986.986,0,0,1-.381.076m-82.41-2.51a1.011,1.011,0,1,1,.236-1.993,1.072,1.072,0,0,1,.324.144,1.009,1.009,0,0,1-.56,1.849m87.917-.03a1.016,1.016,0,1,1,.569-.175,1.019,1.019,0,0,1-.569.175m-93.273-2.848a1.012,1.012,0,1,1,.312-1.972,1.073,1.073,0,0,1,.249.122,1.01,1.01,0,0,1-.56,1.85m98.618-.031a1.015,1.015,0,1,1,.567-.174,1.148,1.148,0,0,1-.248.122,1.013,1.013,0,0,1-.319.052M45.206,182.983a1,1,0,0,1-.554-.169l-.008-.006a1,1,0,1,1,.562.175m108.947-.025a1.014,1.014,0,1,1,.567-.176l-.009.006a1,1,0,0,1-.558.17m-113.9-3.489a1,1,0,0,1-.558-.17,1.032,1.032,0,0,1-.162-.132,1.01,1.01,0,1,1,.721.3m118.856-.024a1.01,1.01,0,0,1-.713-1.723,1.035,1.035,0,0,1,.163-.133,1.009,1.009,0,1,1,.551,1.856M35.515,175.658a1,1,0,0,1-.558-.17,1.028,1.028,0,0,1-.288-.287,1.01,1.01,0,1,1,.846.457m128.319-.025a1.009,1.009,0,0,1-.838-1.568,1.054,1.054,0,0,1,.288-.287,1.01,1.01,0,1,1,.551,1.855M31.02,171.562a1,1,0,0,1-.708-.295l-.007-.008a1,1,0,1,1,.715.3m137.3-.021a1.013,1.013,0,1,1,.721-.3l-.008.008a1,1,0,0,1-.713.3M26.795,167.2a1.012,1.012,0,1,1,.552-1.856,1.064,1.064,0,0,1,.287.287,1.01,1.01,0,0,1-.838,1.569m145.76-.025a1.016,1.016,0,1,1,.845-.458,1.053,1.053,0,0,1-.287.288,1,1,0,0,1-.558.17M22.838,162.594a1.012,1.012,0,1,1,.552-1.857,1.053,1.053,0,0,1,.287.288,1.01,1.01,0,0,1-.838,1.569m153.673-.031a1.015,1.015,0,1,1,.845-.457,1.067,1.067,0,0,1-.287.288,1,1,0,0,1-.558.169M19.166,157.747a1,1,0,0,1-.835-.447l-.006-.009a1.006,1.006,0,1,1,.84.455m161.01-.033a.994.994,0,0,1-.558-.17,1.011,1.011,0,1,1,1.4-.288l-.006.008a1.006,1.006,0,0,1-.84.45m-164.37-5.026a1,1,0,0,1-.835-.448l0-.008a1,1,0,1,1,.84.455m167.733-.04a1.009,1.009,0,0,1-.838-1.568,1.009,1.009,0,1,1,1.684,1.11l-.006.009a1.007,1.007,0,0,1-.84.45M12.768,147.44a1.006,1.006,0,0,1-.84-.45,1.075,1.075,0,0,1-.144-.324,1.01,1.01,0,1,1,.985.775m173.819-.055a.986.986,0,0,1-.246-.031,1.009,1.009,0,0,1-.734-1.223,1.072,1.072,0,0,1,.144-.324,1.01,1.01,0,1,1,.835,1.578M10.055,142.011a1.007,1.007,0,0,1-.84-.449,1.07,1.07,0,0,1-.143-.324,1.01,1.01,0,1,1,.984.774M189.3,141.94a1.035,1.035,0,0,1-.246-.031,1.009,1.009,0,0,1-.734-1.223,1.03,1.03,0,0,1,.144-.324,1.009,1.009,0,1,1,.835,1.578M7.682,136.427a1.013,1.013,0,1,1,.9-1.47,1.075,1.075,0,0,1,.058.142,1.008,1.008,0,0,1-.957,1.328m183.993-.09a.993.993,0,0,1-.45-.108,1.014,1.014,0,1,1,1.412-.592,1.14,1.14,0,0,1-.059.142,1.006,1.006,0,0,1-.9.558M5.652,130.692a1,1,0,0,1-.952-.686c-.008-.025-.018-.058-.024-.083a1.009,1.009,0,1,1,1.262.728.984.984,0,0,1-.286.041m188.047-.1a1.034,1.034,0,0,1-.246-.031,1.008,1.008,0,0,1-.733-1.224l1.957.49a1.009,1.009,0,0,1-.978.765m.959-.7h0Zm.7-5.146a.988.988,0,0,1-.246-.031,1.008,1.008,0,0,1-.734-1.223l1.957.49a1.008,1.008,0,0,1-.977.764m.959-.7h0Zm-193.286.1a1.009,1.009,0,1,1,1.914-.639Zm-.339-5.234a1.009,1.009,0,0,1-.978-.765,1.1,1.1,0,0,1-.033-.255,1.01,1.01,0,1,1,1.256.99,1.035,1.035,0,0,1-.246.031m193.96-.106a1.009,1.009,0,0,1-1.009-1.009,1.051,1.051,0,0,1,.033-.255,1.009,1.009,0,1,1,.976,1.264m-194.891-5.9a1.014,1.014,0,1,1,.956-1.339,1.079,1.079,0,0,1,.054.33,1.009,1.009,0,0,1-1.009,1.009m195.815-.105a.984.984,0,0,1-.319-.053,1.013,1.013,0,1,1,1.33-.967,1.068,1.068,0,0,1-.054.329,1.01,1.01,0,0,1-.957.69M1.2,106.86a1.013,1.013,0,1,1,.956-1.338,1.069,1.069,0,0,1,.054.33A1.008,1.008,0,0,1,1.2,106.86m196.929-.105a1.014,1.014,0,1,1,1.01-1.019,1.068,1.068,0,0,1-.054.329,1.009,1.009,0,0,1-.957.69M1.009,100.782a1,1,0,0,1-1.009-1v-.011a1.009,1.009,0,1,1,1.009,1.015m197.3-.1a1.008,1.008,0,0,1-1.008-1.009,1.156,1.156,0,0,1,.007-.116,1.12,1.12,0,0,1-.007-.115,1.009,1.009,0,1,1,2.018-.011v.011a.906.906,0,0,0,0,.22v.011a1.009,1.009,0,0,1-1.009,1.009M1.186,94.713h0A1.008,1.008,0,0,1,.177,93.705a1.042,1.042,0,0,1,.054-.33,1.009,1.009,0,1,1,.956,1.338m196.93-.337a1.011,1.011,0,0,1-.957-.69,1.068,1.068,0,0,1-.053-.33,1.008,1.008,0,1,1,1.009,1.02M1.733,88.66h0A1.009,1.009,0,0,1,.724,87.651a1.068,1.068,0,0,1,.054-.329,1.01,1.01,0,1,1,.956,1.338m195.817-.334a1.009,1.009,0,0,1-.957-.69,1.05,1.05,0,0,1-.054-.33,1.008,1.008,0,1,1,1.01,1.02M2.651,82.655a1.035,1.035,0,0,1-.246-.031,1.014,1.014,0,1,1,1.255-.99,1.05,1.05,0,0,1-.033.255,1.008,1.008,0,0,1-.977.765m193.962-.332a1.014,1.014,0,1,1,.977-1.264,1.1,1.1,0,0,1,.033.255,1.009,1.009,0,0,1-1.009,1.009M195.3,76.388a1.011,1.011,0,1,1,.955-1.338.844.844,0,0,1,.024.084,1.008,1.008,0,0,1-.733,1.223,1.036,1.036,0,0,1-.246.031M4.917,75.942,2.96,75.453a1.008,1.008,0,1,1,1.957.489m188.716-5.4a1.012,1.012,0,1,1,.955-1.339c.009.026.018.059.024.084a1.007,1.007,0,0,1-.733,1.223.99.99,0,0,1-.246.032M6.568,70.094,4.612,69.6a1.008,1.008,0,1,1,1.956.49M7.6,65.123a1.009,1.009,0,0,1-.97-1.286,1.1,1.1,0,0,1,.134-.293A1.01,1.01,0,1,1,7.6,65.123m184-.305a1.007,1.007,0,0,1-.84-.449,1.092,1.092,0,0,1-.135-.292,1.01,1.01,0,1,1,.975.741M9.967,59.517a1,1,0,0,1-.5-.134,1.013,1.013,0,1,1,1.462-.566,1.146,1.146,0,0,1-.086.191,1.007,1.007,0,0,1-.877.509m179.258-.279a1.013,1.013,0,1,1,.871-1.52,1.138,1.138,0,0,1,.086.19,1.011,1.011,0,0,1-.957,1.329M12.676,54.069a1.014,1.014,0,1,1,.976-.74,1.077,1.077,0,0,1-.136.291,1.007,1.007,0,0,1-.84.449m173.829-.258a1.013,1.013,0,1,1,.835-1.578,1.093,1.093,0,0,1,.135.292,1.008,1.008,0,0,1-.692,1.247,1,1,0,0,1-.278.039M15.715,48.8a1.009,1.009,0,0,1-.838-1.565l.006-.008a1.009,1.009,0,1,1,.833,1.572m167.743-.235a1.011,1.011,0,1,1,.833-1.577l.006.009a1.009,1.009,0,0,1-.838,1.568M19.073,43.725a1.007,1.007,0,0,1-.838-1.564l0-.009a1.009,1.009,0,1,1,.834,1.572m161.02-.218a1.011,1.011,0,1,1,.833-1.578l.006.009a1.009,1.009,0,0,1-.838,1.569M22.735,38.876a1.009,1.009,0,0,1-.838-1.568,1.035,1.035,0,0,1,.2-.224,1.01,1.01,0,1,1,.639,1.792m153.686-.208a1.009,1.009,0,0,1-.645-.233,1.087,1.087,0,0,1-.2-.224,1.01,1.01,0,1,1,.845.457M26.684,34.257a1.009,1.009,0,0,1-.787-1.639c.024-.029.055-.064.081-.091a1.009,1.009,0,1,1,.705,1.73m145.776-.2a1,1,0,0,1-.713-.3c-.026-.027-.057-.062-.081-.091a1.01,1.01,0,1,1,.794.386M30.911,29.89a1.016,1.016,0,1,1,.794-.386,1.245,1.245,0,0,1-.149.152,1,1,0,0,1-.645.234m137.314-.185a1.012,1.012,0,1,1,.638-1.791,1.181,1.181,0,0,1,.149.152,1.009,1.009,0,0,1-.787,1.639M35.395,25.79a1.016,1.016,0,1,1,.72-.3c-.022.022-.052.049-.075.069a1.008,1.008,0,0,1-.645.233m128.333-.173a1.01,1.01,0,1,1,.639-1.79c.023.019.053.047.075.068a1.009,1.009,0,0,1-.713,1.722M40.119,21.973a1.015,1.015,0,1,1,.654-.24c-.029.023-.066.05-.1.07a1,1,0,0,1-.558.17m118.87-.163a1.012,1.012,0,1,1,.552-1.855c.03.02.067.048.095.071a1.009,1.009,0,0,1-.646,1.785M45.073,18.449a1.007,1.007,0,0,1-.565-1.844l.009-.006a1.009,1.009,0,1,1,.556,1.85M154.025,18.3a1,1,0,0,1-.558-.169,1.009,1.009,0,1,1,1.11-1.685l.009.006a1.009,1.009,0,0,1-.56,1.849m-103.8-3.054a1.01,1.01,0,0,1-.559-1.85,1.278,1.278,0,0,1,.117-.068,1.009,1.009,0,1,1,.443,1.917m98.632-.143A1,1,0,0,1,148.4,15a1.194,1.194,0,0,1-.117-.068,1.007,1.007,0,1,1,.567.175M55.567,12.358a1.008,1.008,0,0,1-.458-1.908l.01,0a1.009,1.009,0,1,1,.448,1.913m87.927-.129a1,1,0,0,1-.45-.107,1.009,1.009,0,1,1,.893-1.809l.009,0a1.009,1.009,0,0,1-.451,1.912M61.066,9.814A1.009,1.009,0,0,1,60.615,7.9a1.117,1.117,0,0,1,.215-.08,1.01,1.01,0,1,1,.236,1.992m76.9-.122a.988.988,0,0,1-.246-.031,1.1,1.1,0,0,1-.216-.08,1.009,1.009,0,1,1,.462.111M67.079,7.546l-.707-1.889a1.008,1.008,0,1,1,.707,1.889m65.21-.044a1,1,0,0,1-.354-.065,1.009,1.009,0,0,1,.663-1.905l.044.015a1.01,1.01,0,0,1-.354,1.955M72.509,5.76A1.009,1.009,0,0,1,72.182,3.8l.084-.025a1.009,1.009,0,0,1,.489,1.959,1,1,0,0,1-.247.031M126.5,5.671a1.025,1.025,0,0,1-.245-.03l.488-1.959a1.009,1.009,0,0,1-.244,1.988m-48.1-1.4a1.009,1.009,0,0,1-.253-1.986l.089-.018a1.009,1.009,0,0,1,.333,1.991,1.128,1.128,0,0,1-.168.013M120.6,4.2a.985.985,0,0,1-.166-.014l.332-1.991A1.01,1.01,0,0,1,120.6,4.2M84.538,3.141l-.177-.995-.124-1a1.009,1.009,0,0,1,.3,2M114.63,3.1a.991.991,0,0,1-.166-.013,1.009,1.009,0,0,1,.281-2l.051.007a1.009,1.009,0,0,1-.165,2m-24.243-.7a1.009,1.009,0,0,1-.124-2.01,1.033,1.033,0,0,1,1.144,1A1.008,1.008,0,0,1,90.478,2.4c-.031,0-.061,0-.092,0m18.213-.03a1.067,1.067,0,0,1-.136-.01,1.006,1.006,0,1,1,.136.01m-24.238-.23h0Zm12.09-.12A1.009,1.009,0,0,1,96.4.01a1,1,0,0,1,1.055.842,1.011,1.011,0,0,1-.83,1.162,1.2,1.2,0,0,1-.176.013m6.086-.01h-.059a1.01,1.01,0,0,1-.96-1.009A1.03,1.03,0,0,1,102.7.012a1.009,1.009,0,0,1-.165,2" transform="translate(0 0.256)" fill="#004e3d"/>
            <path id="Trazado_929408" data-name="Trazado 929408" d="M99.037,181.8h-.011a1.008,1.008,0,1,1,.011,0m6.063-.116a1.01,1.01,0,0,1-.319-1.967,1.037,1.037,0,0,1,1.338.956,1.01,1.01,0,0,1-.907,1,.878.878,0,0,1-.112.007m-12.126-.221a1.068,1.068,0,0,1-.33-.053,1.015,1.015,0,1,1,.33.053m18.171-.35a1.009,1.009,0,0,1-.318-1.966,1.036,1.036,0,0,1,1.337.956,1.008,1.008,0,0,1-.907,1,.879.879,0,0,1-.112.007m-24.193-.442a1.087,1.087,0,0,1-.174-.015,1.008,1.008,0,0,1-.845-1,1.028,1.028,0,0,1,1.264-.977,1.009,1.009,0,0,1-.245,1.988m30.18-.582a1.017,1.017,0,1,1,.255-.033,1.1,1.1,0,0,1-.255.033m-36.378-.7a1.008,1.008,0,1,1,.488-1.957Zm42.267-.779a1.014,1.014,0,1,1,.33-.055.853.853,0,0,1-.084.025,1.036,1.036,0,0,1-.246.031m-48.1-.915a1.009,1.009,0,0,1,.489-1.958Zm53.863-1.007a1.009,1.009,0,0,1-.452-1.912,1.181,1.181,0,0,1,.141-.058,1.009,1.009,0,0,1,.692,1.895.989.989,0,0,1-.38.076m-59.3-1.1a1.015,1.015,0,0,1-.319-.053,1.278,1.278,0,0,1-.141-.058,1.008,1.008,0,1,1,.46.111m64.893-1.258a1.015,1.015,0,1,1,.57-.174,1.07,1.07,0,0,1-.324.143.988.988,0,0,1-.246.031m-70.406-1.306a1.011,1.011,0,1,1,.236-1.993,1.048,1.048,0,0,1,.324.144,1.009,1.009,0,0,1-.56,1.849m75.808-1.465a1.017,1.017,0,1,1,.567-.175,1.067,1.067,0,0,1-.248.122,1.015,1.015,0,0,1-.319.053m-81.112-1.511a1,1,0,0,1-.554-.169l-.009-.006a1,1,0,1,1,.563.175m86.288-1.663a1.014,1.014,0,1,1,.566-.176l-.008.006a1,1,0,0,1-.558.17m-91.349-1.7a1,1,0,0,1-.554-.168l-.009-.006a1,1,0,1,1,.563.174m96.271-1.851a1.01,1.01,0,0,1-.713-1.723,1.037,1.037,0,0,1,.162-.133,1.009,1.009,0,1,1,.551,1.856M48.82,162.953a1,1,0,0,1-.558-.17,1.046,1.046,0,0,1-.287-.286,1.01,1.01,0,1,1,.845.456m105.7-2.032a1.01,1.01,0,0,1-.838-1.569,1.047,1.047,0,0,1,.287-.286,1.009,1.009,0,0,1,1.23,1.594,1.017,1.017,0,0,1-.679.261m-110.2-2.057a1,1,0,0,1-.707-.295l-.008-.008a1,1,0,1,1,.715.3m114.537-2.2a1.016,1.016,0,1,1,.844-.458,1.037,1.037,0,0,1-.286.288,1,1,0,0,1-.558.17m-118.7-2.215A1.012,1.012,0,1,1,40.7,152.6a1.053,1.053,0,0,1,.287.288,1.009,1.009,0,0,1-.838,1.568M162.861,152.1a1.016,1.016,0,1,1,.845-.458,1.053,1.053,0,0,1-.287.288,1,1,0,0,1-.558.17M36.315,149.734a1,1,0,0,1-.835-.448l-.006-.009a1,1,0,1,1,.84.456m130.195-2.5a1.01,1.01,0,0,1-.838-1.569,1.008,1.008,0,1,1,1.683,1.11l-.006.009a1,1,0,0,1-.839.45M32.85,144.746a1,1,0,0,1-.835-.448l-.006-.009a1,1,0,1,1,.84.456m136.931-2.634a.988.988,0,0,1-.319-.053,1.01,1.01,0,0,1-.638-1.277,1.146,1.146,0,0,1,.122-.248,1.009,1.009,0,1,1,.835,1.577m-140-2.6a1.01,1.01,0,0,1-.84-.449,1.07,1.07,0,0,1-.143-.324,1.01,1.01,0,1,1,.984.774m142.88-2.755a.99.99,0,0,1-.246-.032,1.007,1.007,0,0,1-.733-1.223,1.07,1.07,0,0,1,.143-.324,1.01,1.01,0,1,1,.835,1.579m-145.552-2.7a1.013,1.013,0,1,1,.9-1.47,1.131,1.131,0,0,1,.058.142,1.008,1.008,0,0,1-.638,1.276.981.981,0,0,1-.319.053m148.012-2.867a1,1,0,0,1-.449-.107,1.013,1.013,0,1,1,1.411-.592,1.122,1.122,0,0,1-.058.141,1.008,1.008,0,0,1-.9.559M24.859,128.424a1.013,1.013,0,1,1,.9-1.47,1.068,1.068,0,0,1,.059.141,1.011,1.011,0,0,1-.957,1.329m152.294-2.963a1.035,1.035,0,0,1-.246-.031,1.008,1.008,0,0,1-.733-1.224l1.957.49a1.008,1.008,0,0,1-.978.765m.959-.7h0ZM23.039,122.62a1,1,0,0,1-.953-.685c-.008-.026-.018-.059-.024-.084a1.009,1.009,0,1,1,1.262.728.982.982,0,0,1-.285.041m155.7-3.022a1.009,1.009,0,0,1-1.008-1.01,1.05,1.05,0,0,1,.033-.254,1.009,1.009,0,1,1,.976,1.264M21.675,116.706a1.009,1.009,0,0,1-.978-.765,1.1,1.1,0,0,1-.032-.255,1.01,1.01,0,1,1,1.256.99,1.034,1.034,0,0,1-.246.031m158.2-3.077a1.01,1.01,0,0,1-1.009-1.01,1.091,1.091,0,0,1,.032-.254,1.009,1.009,0,1,1,.977,1.264M20.76,110.7a1.013,1.013,0,1,1,.956-1.338,1.068,1.068,0,0,1,.053.33A1.007,1.007,0,0,1,20.76,110.7m159.8-3.107a1.014,1.014,0,1,1,1.009-1.019,1.077,1.077,0,0,1-.053.33,1.01,1.01,0,0,1-.957.69M20.3,104.636a1,1,0,0,1-1.008-1v-.011a1.009,1.009,0,1,1,1.008,1.015m160.483-3.115a1.01,1.01,0,0,1-1.009-1.01c0-.033,0-.064,0-.1s0-.064,0-.1a1.009,1.009,0,0,1,2.019-.011v.011c0,.031,0,.06,0,.092s0,.059,0,.09v.011a1.01,1.01,0,0,1-1.009,1.01M20.292,98.558a1,1,0,0,1-1.008-1v-.01a1.009,1.009,0,1,1,1.008,1.014m160.25-3.3a1.01,1.01,0,0,1-.957-.69,1.067,1.067,0,0,1-.053-.329,1.008,1.008,0,1,1,1.009,1.019m-159.8-2.751h0A1.008,1.008,0,0,1,19.729,91.5a1.067,1.067,0,0,1,.053-.329,1.01,1.01,0,1,1,.956,1.338m159.11-3.285a1.013,1.013,0,1,1,.976-1.264,1.05,1.05,0,0,1,.033.255,1.008,1.008,0,0,1-1.009,1.009M21.641,86.5a1.035,1.035,0,0,1-.246-.031,1.014,1.014,0,1,1,1.255-.99,1.05,1.05,0,0,1-.033.255,1.008,1.008,0,0,1-.977.765M178.7,83.256a1.014,1.014,0,1,1,.977-1.264,1.1,1.1,0,0,1,.033.255,1.009,1.009,0,0,1-1.009,1.009M23.977,79.8l-1.957-.49a1.009,1.009,0,0,1,1.957.49M177.1,77.394a1.011,1.011,0,1,1,.955-1.338c.008.025.018.058.024.084a1.008,1.008,0,0,1-.734,1.223.975.975,0,0,1-.245.031M24.8,74.772a1.011,1.011,0,0,1-.957-1.329A1.375,1.375,0,0,1,23.9,73.3a1.009,1.009,0,1,1,.9,1.47m150.263-3.1a1.006,1.006,0,0,1-.9-.559,1.133,1.133,0,0,1-.059-.142,1.008,1.008,0,1,1,.962.7M27.037,69.118a1.011,1.011,0,0,1-.957-1.329,1.124,1.124,0,0,1,.059-.141,1.009,1.009,0,1,1,.9,1.47m145.552-2.992a1.013,1.013,0,1,1,.835-1.579,1.094,1.094,0,0,1,.135.292,1.009,1.009,0,0,1-.692,1.248,1.033,1.033,0,0,1-.278.039M29.7,63.652a1.014,1.014,0,1,1,.976-.74,1.049,1.049,0,0,1-.136.291,1.007,1.007,0,0,1-.84.449m140.006-2.871a1.013,1.013,0,1,1,.835-1.578,1.075,1.075,0,0,1,.136.291,1.009,1.009,0,0,1-.693,1.248.992.992,0,0,1-.278.039M32.77,58.4a1.008,1.008,0,0,1-.838-1.564l.006-.009A1.009,1.009,0,1,1,32.77,58.4m133.659-2.73a1.011,1.011,0,1,1,.833-1.577l0,.008a1.009,1.009,0,0,1-.837,1.569M36.227,53.4a1.009,1.009,0,0,1-.838-1.568,1.088,1.088,0,0,1,.2-.224,1.01,1.01,0,1,1,.639,1.792m126.544-2.587a1,1,0,0,1-.644-.233,1.034,1.034,0,0,1-.2-.224,1.009,1.009,0,1,1,.844.457M40.05,48.681a1.009,1.009,0,0,1-.787-1.639c.024-.029.055-.064.081-.091a1.01,1.01,0,1,1,.705,1.73m118.711-2.426a1,1,0,0,1-.713-.3,1.054,1.054,0,0,1-.081-.091,1.009,1.009,0,1,1,.794.386m-114.542-2a1.015,1.015,0,1,1,.794-.385,1.318,1.318,0,0,1-.149.152,1.008,1.008,0,0,1-.645.233m110.2-2.252a1.012,1.012,0,1,1,.638-1.791,1.175,1.175,0,0,1,.149.151,1.01,1.01,0,0,1-.787,1.64M48.707,40.164a1.026,1.026,0,1,1,.645-.234,1.006,1.006,0,0,1-.645.234M149.767,38.1a1,1,0,0,1-.6-.2,1.009,1.009,0,0,1,1.148-1.658c.03.02.067.047.1.07a1.01,1.01,0,0,1-.647,1.785m-96.28-1.677a1.015,1.015,0,1,1,.654-.24c-.029.023-.066.05-.1.07a1,1,0,0,1-.558.17m91.347-1.872a1,1,0,0,1-.558-.17,1.008,1.008,0,1,1,1.11-1.684l.009,0a1.01,1.01,0,0,1-.56,1.85m-86.3-1.5a1.009,1.009,0,0,1-.56-1.849,1.2,1.2,0,0,1,.117-.069,1.01,1.01,0,1,1,.444,1.917m81.11-1.665a1,1,0,0,1-.45-.107,1.089,1.089,0,0,1-.117-.068,1.007,1.007,0,1,1,.567.175M63.832,30.058a1.008,1.008,0,0,1-.458-1.908l.01,0a1.009,1.009,0,1,1,.448,1.913m70.4-1.445a1,1,0,0,1-.354-.065c-.033-.012-.075-.031-.107-.046a1.009,1.009,0,1,1,.461.111M69.324,27.491a1.009,1.009,0,0,1-.452-1.912,1.057,1.057,0,0,1,.215-.08,1.009,1.009,0,0,1,.609,1.919.979.979,0,0,1-.372.073m59.3-1.223a.988.988,0,0,1-.246-.031,1.15,1.15,0,0,1-.216-.08,1.009,1.009,0,1,1,.462.111M75.36,25.277l-.707-1.889a1.008,1.008,0,1,1,.707,1.889m47.5-.92a1.02,1.02,0,0,1-.245-.03l.488-1.959a1.009,1.009,0,0,1-.244,1.988m-42.026-.723a1.009,1.009,0,0,1-.253-1.986l.089-.018a1.009,1.009,0,1,1,.164,2m36.132-.741a1.063,1.063,0,0,1-.2-.019,1.009,1.009,0,0,1,.311-1.993,1.055,1.055,0,0,1,.2.045,1.01,1.01,0,0,1-.319,1.967m-30.2-.517a1.013,1.013,0,1,1,.33-.054,1.057,1.057,0,0,1-.2.046.927.927,0,0,1-.125.008m24.214-.5a.987.987,0,0,1-.167-.013,1.009,1.009,0,0,1,.281-2l.052.008a1.009,1.009,0,0,1-.165,2m-18.2-.309a1.009,1.009,0,0,1-.123-2.01,1.028,1.028,0,0,1,1.144,1,1.009,1.009,0,0,1-.929,1.005c-.031,0-.06,0-.092,0m12.147-.249c-.019,0-.04,0-.059,0a1.007,1.007,0,0,1-.96-1.007,1.033,1.033,0,0,1,1.184-1,1.009,1.009,0,0,1-.165,2m-6.074-.1a1.009,1.009,0,1,1-.011-2.018h.011a1.009,1.009,0,1,1,0,2.018" transform="translate(-0.85 -0.583)" fill="#004e3d"/>
            <path id="Trazado_929409" data-name="Trazado 929409" d="M102.891,164.691h-.011a1.008,1.008,0,1,1,.011,0m-6.021-.139a1.077,1.077,0,0,1-.33-.054,1.013,1.013,0,1,1,.33.054m12.017-.295a1.01,1.01,0,0,1-.319-1.967,1.038,1.038,0,0,1,1.338.956,1.008,1.008,0,0,1-.907,1,.881.881,0,0,1-.112.007m-18-.42a1.068,1.068,0,0,1-.173-.015,1.01,1.01,0,0,1-.846-1,1.028,1.028,0,0,1,1.264-.976,1.009,1.009,0,0,1-.245,1.988m23.935-.591a1.016,1.016,0,1,1,.329-.055,1.072,1.072,0,0,1-.329.055m-30.072-.733a1.009,1.009,0,0,1,.489-1.958Zm35.883-.849a1.012,1.012,0,1,1,.33-.055c-.026.008-.059.018-.084.024a1.035,1.035,0,0,1-.246.031m-41.36-.972a1.006,1.006,0,0,1-.319-.053,1.135,1.135,0,0,1-.141-.059,1.007,1.007,0,1,1,.461.112m46.991-1.169a1.009,1.009,0,0,1-.452-1.912,1.08,1.08,0,0,1,.141-.059,1.009,1.009,0,0,1,.691,1.9.989.989,0,0,1-.38.076M73.75,158.289a1.011,1.011,0,1,1,.236-1.993,1.048,1.048,0,0,1,.324.143,1.01,1.01,0,0,1-.56,1.85m57.913-1.439a1.016,1.016,0,1,1,.568-.175,1.055,1.055,0,0,1-.249.122,1.006,1.006,0,0,1-.319.053m-63.18-1.49a1,1,0,0,1-.555-.168l-.008-.006a1,1,0,1,1,.563.174m68.294-1.7a1.014,1.014,0,1,1,.567-.176l-.009.006a1,1,0,0,1-.558.17m-73.249-1.725a1,1,0,0,1-.558-.169,1.092,1.092,0,0,1-.163-.133,1.01,1.01,0,1,1,.721.3M141.559,150a1.01,1.01,0,0,1-.838-1.569,1.037,1.037,0,0,1,.288-.286,1.01,1.01,0,1,1,.551,1.855m-82.638-1.944a1,1,0,0,1-.558-.17,1.041,1.041,0,0,1-.288-.287,1.009,1.009,0,1,1,.846.457m87.048-2.161a1.015,1.015,0,1,1,.845-.458,1.04,1.04,0,0,1-.287.288,1,1,0,0,1-.558.17m-91.26-2.145a1.012,1.012,0,1,1,.552-1.857,1.053,1.053,0,0,1,.287.288,1.01,1.01,0,0,1-.838,1.569m95.256-2.366a1.015,1.015,0,1,1,.845-.457,1.064,1.064,0,0,1-.287.287,1,1,0,0,1-.558.17m-99.04-2.33a1,1,0,0,1-.835-.448l-.006-.009a1,1,0,1,1,.84.456m102.583-2.544a1.009,1.009,0,0,1-.838-1.568,1.009,1.009,0,1,1,1.684,1.11l-.006.009a1.007,1.007,0,0,1-.84.45m-105.89-2.488a1.008,1.008,0,0,1-.84-.45,1.09,1.09,0,0,1-.121-.249,1.008,1.008,0,1,1,.962.7m108.949-2.7a1.036,1.036,0,0,1-.246-.031,1.008,1.008,0,0,1-.733-1.224,1.07,1.07,0,0,1,.143-.324,1.01,1.01,0,1,1,.835,1.579M44.808,128.692a1.006,1.006,0,0,1-.84-.45,1.071,1.071,0,0,1-.143-.324,1.009,1.009,0,1,1,.984.775m114.3-2.837a1,1,0,0,1-.449-.107,1.014,1.014,0,1,1,1.411-.593,1.3,1.3,0,0,1-.058.142,1.008,1.008,0,0,1-.9.559m-116.58-2.74a1.011,1.011,0,1,1,.319-.053,1.009,1.009,0,0,1-.319.053m118.58-2.944a.99.99,0,0,1-.246-.032,1.007,1.007,0,0,1-.733-1.223l1.956.49a1.008,1.008,0,0,1-.977.765m.959-.7h0ZM40.8,117.337a1,1,0,0,1-.952-.686c-.009-.026-.019-.059-.025-.084a1.005,1.005,0,1,1,.977.77m121.748-3.018a1.009,1.009,0,0,1-1.009-1.009,1.1,1.1,0,0,1,.033-.255,1.009,1.009,0,1,1,.977,1.264m-122.9-2.89a1.008,1.008,0,0,1-.978-.765,1.1,1.1,0,0,1-.033-.254,1.01,1.01,0,1,1,1.256.989,1.035,1.035,0,0,1-.246.031m123.766-3.074a1.014,1.014,0,1,1,1.01-1.019,1.068,1.068,0,0,1-.054.329,1.008,1.008,0,0,1-.957.69M39.057,105.431a1.013,1.013,0,1,1,.956-1.338,1.069,1.069,0,0,1,.054.33,1.008,1.008,0,0,1-1.009,1.008m124.637-3.093a1.01,1.01,0,0,1-1.009-1.01c0-.029,0-.057,0-.085s0-.065,0-.1a1.009,1.009,0,0,1,2.019-.011v.011c0,.027,0,.055,0,.081s0,.06,0,.092v.01a1.01,1.01,0,0,1-1.009,1.01M39.048,99.4a1,1,0,0,1-1.009-1v-.011A1.009,1.009,0,1,1,39.048,99.4m124.344-3.262a1.009,1.009,0,0,1-.957-.69,1.069,1.069,0,0,1-.054-.33,1.008,1.008,0,1,1,1.01,1.02M39.614,93.409a1.035,1.035,0,0,1-.246-.031,1.014,1.014,0,1,1,1.256-.989,1.091,1.091,0,0,1-.033.254,1.008,1.008,0,0,1-.978.765m122.9-3.231a1.014,1.014,0,1,1,.976-1.264,1.051,1.051,0,0,1,.032.255,1.008,1.008,0,0,1-1.008,1.009M41.737,86.717l-1.957-.49a1.009,1.009,0,0,1,1.957.49m119.322-2.388a1.011,1.011,0,1,1,.955-1.338c.009.025.019.058.025.083A1.009,1.009,0,0,1,161.3,84.3a1.035,1.035,0,0,1-.246.031M42.467,81.715a1.011,1.011,0,0,1-.957-1.329,1.064,1.064,0,0,1,.058-.141,1.009,1.009,0,1,1,.9,1.47m116.58-3.064a1.008,1.008,0,0,1-.9-.559,1.3,1.3,0,0,1-.058-.142,1.009,1.009,0,1,1,1.411.592,1,1,0,0,1-.449.108M44.73,76.131a1.015,1.015,0,1,1,.984-.775,1.07,1.07,0,0,1-.143.324,1.006,1.006,0,0,1-.84.45M156.49,73.193a1.012,1.012,0,1,1,.835-1.577,1.055,1.055,0,0,1,.122.249,1.008,1.008,0,0,1-.957,1.328m-108.967-2.4a1.015,1.015,0,1,1,.963-.7,1.134,1.134,0,0,1-.122.249,1.006,1.006,0,0,1-.84.45m105.9-2.783a1.011,1.011,0,1,1,.833-1.578l.006.009a1.009,1.009,0,0,1-.838,1.569m-102.6-2.267a1.007,1.007,0,0,1-.838-1.564c.016-.025.039-.055.057-.078a1.009,1.009,0,1,1,.781,1.642m99.041-2.6a1.01,1.01,0,1,1,.776-.363,1,1,0,0,1-.776.363m-95.275-2.1A1.009,1.009,0,0,1,53.8,59.4c.024-.029.055-.064.081-.091a1.009,1.009,0,1,1,.705,1.73m91.27-2.4a1.012,1.012,0,1,1,.638-1.791,1.178,1.178,0,0,1,.149.152,1.009,1.009,0,0,1-.787,1.639M58.789,56.724a1.015,1.015,0,1,1,.794-.385,1.318,1.318,0,0,1-.149.152,1.008,1.008,0,0,1-.645.233m82.646-2.173a1.011,1.011,0,1,1,.639-1.791c.023.02.054.047.075.069a1.009,1.009,0,0,1-.713,1.722m-78.05-1.723a1.016,1.016,0,1,1,.653-.24,1.164,1.164,0,0,1-.1.07,1,1,0,0,1-.557.17M136.642,50.9a1,1,0,0,1-.558-.169,1.009,1.009,0,1,1,1.11-1.685l.009.006a1.009,1.009,0,0,1-.56,1.849M68.332,49.39a1.009,1.009,0,0,1-.56-1.849,1.1,1.1,0,0,1,.117-.069,1.01,1.01,0,1,1,.444,1.917m63.188-1.664a1,1,0,0,1-.5-.131,1.009,1.009,0,0,1,.941-1.785,1.278,1.278,0,0,1,.117.068,1.009,1.009,0,0,1-.56,1.849M73.6,46.443a1.008,1.008,0,0,1-.458-1.908l.009,0a1.009,1.009,0,1,1,.449,1.913m52.522-1.378a1,1,0,0,1-.355-.065c-.033-.012-.075-.031-.106-.046a1.009,1.009,0,1,1,.461.111M79.105,44.026a1.009,1.009,0,0,1-.452-1.912,1.15,1.15,0,0,1,.216-.08,1.009,1.009,0,0,1,.608,1.92.992.992,0,0,1-.372.072m41.375-1.087a1,1,0,0,1-.354-.065,1.009,1.009,0,0,1,.663-1.905l.044.016a1.009,1.009,0,0,1-.354,1.954m-35.644-.788a1.008,1.008,0,0,1-.327-1.963l.084-.025a1.009,1.009,0,0,1,.489,1.959,1.041,1.041,0,0,1-.247.03m29.83-.778a.941.941,0,0,1-.126-.008,1.162,1.162,0,0,1-.2-.047,1.01,1.01,0,1,1,.33.055m-23.958-.526a1.013,1.013,0,1,1,.33-.054,1.056,1.056,0,0,1-.2.046.926.926,0,0,1-.125.008m18.019-.469a1.01,1.01,0,1,1,.114-2.012l.052.008a1.009,1.009,0,0,1-.165,2m-12.042-.263a1.009,1.009,0,0,1-.123-2.01,1.034,1.034,0,0,1,1.144,1,1.01,1.01,0,0,1-.929,1.006c-.031,0-.061,0-.092,0m6.033-.156a1.009,1.009,0,1,1-.011-2.018h.011a1.009,1.009,0,1,1,0,2.018" transform="translate(-1.677 -1.401)" fill="#004e3d"/>
            <path id="Trazado_929410" data-name="Trazado 929410" d="M99.212,147.179a1.077,1.077,0,0,1-.33-.053,1.011,1.011,0,0,1-.638-1.277.994.994,0,0,1,1.069-.684,1.009,1.009,0,0,1-.1,2.013m6,0a1.009,1.009,0,0,1-.319-1.966,1.036,1.036,0,0,1,1.338.956,1.009,1.009,0,0,1-.907,1q-.057.006-.112.006m-11.963-.8a1.066,1.066,0,0,1-.173-.014,1.012,1.012,0,0,1-.847-1,1.03,1.03,0,0,1,1.265-.977,1.009,1.009,0,0,1-.245,1.988m17.923-.015a1.018,1.018,0,1,1,.254-.033,1.093,1.093,0,0,1-.254.033m-23.723-1.6a1.015,1.015,0,0,1-.319-.053,1.117,1.117,0,0,1-.141-.058,1.008,1.008,0,1,1,.46.111m29.516-.022a1.009,1.009,0,0,1-.451-1.912,1.122,1.122,0,0,1,.141-.059,1.01,1.01,0,1,1,.311,1.971m-35.037-2.373a1.018,1.018,0,0,1-.987-1.259,1.007,1.007,0,0,1,1.223-.734,1.049,1.049,0,0,1,.324.144,1.009,1.009,0,0,1-.56,1.849m40.551-.032a1.017,1.017,0,1,1,.568-.175,1.072,1.072,0,0,1-.249.122,1.015,1.015,0,0,1-.319.053m-45.7-3.095a1,1,0,0,1-.554-.169l-.009-.006a1,1,0,1,1,.563.175m50.829-.036a1.014,1.014,0,1,1,.567-.176l-.009.006a1,1,0,0,1-.558.17m-55.5-3.758a1,1,0,0,1-.558-.17,1.054,1.054,0,0,1-.288-.287,1.01,1.01,0,1,1,.846.457m60.156-.043a1.01,1.01,0,0,1-.838-1.569,1.067,1.067,0,0,1,.288-.287,1.01,1.01,0,1,1,.551,1.856M68.011,131.05a1.012,1.012,0,1,1,.553-1.856,1.047,1.047,0,0,1,.286.287,1.01,1.01,0,0,1-.838,1.569M136.384,131a1.015,1.015,0,1,1,.845-.457,1.081,1.081,0,0,1-.287.288,1,1,0,0,1-.558.169M64.527,126.14a1,1,0,0,1-.835-.448l-.006-.008a1.006,1.006,0,1,1,.84.455m75.328-.053a1.01,1.01,0,0,1-.838-1.569,1.008,1.008,0,1,1,1.683,1.11l0,.009a1.008,1.008,0,0,1-.84.45m-78.1-5.278a1.013,1.013,0,1,1,.9-1.47,1.182,1.182,0,0,1,.058.141,1.011,1.011,0,0,1-.957,1.329m80.875-.064a.993.993,0,0,1-.45-.108,1.014,1.014,0,1,1,1.412-.592,1.138,1.138,0,0,1-.059.142,1.006,1.006,0,0,1-.9.559m-82.9-5.608a1,1,0,0,1-.952-.685c-.008-.026-.018-.059-.024-.084a1.009,1.009,0,1,1,1.262.728.984.984,0,0,1-.286.041m84.919-.066a1.021,1.021,0,0,1-.245-.031,1.008,1.008,0,0,1-.734-1.223l1.957.489a1.008,1.008,0,0,1-.978.765m.959-.7h0Zm-87.1-5.12a1.013,1.013,0,1,1,.956-1.338,1.068,1.068,0,0,1,.054.329,1.009,1.009,0,0,1-1.009,1.009m87.361-.072a1.014,1.014,0,1,1,1.009-1.02,1.068,1.068,0,0,1-.053.33,1.01,1.01,0,0,1-.957.69m-87.777-5.935a1,1,0,0,1-1.009-1v-.011a1.009,1.009,0,1,1,1.009,1.015m88.183-.069a1.01,1.01,0,0,1-1.009-1.01c0-.029,0-.057,0-.085s0-.056,0-.085a1.009,1.009,0,0,1,2.018-.011V102c0,.027,0,.054,0,.08s0,.053,0,.079v.011a1.009,1.009,0,0,1-1.008,1.01m-87.79-5.93h0a1.008,1.008,0,0,1-1.009-1.008,1.069,1.069,0,0,1,.054-.33,1.01,1.01,0,1,1,.956,1.338M145.842,97a1.01,1.01,0,0,1-.957-.69,1.077,1.077,0,0,1-.053-.33A1.01,1.01,0,1,1,145.842,97m-1.24-5.889a1.011,1.011,0,1,1,.955-1.338.851.851,0,0,1,.025.084,1.008,1.008,0,0,1-.734,1.223,1.035,1.035,0,0,1-.246.031m-83.937-.537-1.957-.49a1.009,1.009,0,1,1,1.957.49m1.022-4.905a1.011,1.011,0,0,1-.957-1.329,1.124,1.124,0,0,1,.059-.141,1.009,1.009,0,1,1,.9,1.47m80.883-.221a1.008,1.008,0,0,1-.9-.559,1.117,1.117,0,0,1-.058-.141,1.009,1.009,0,1,1,1.411.592,1,1,0,0,1-.45.107M64.448,80.319a.992.992,0,0,1-.555-.168,1,1,0,0,1-.283-1.4l.006-.008a1.009,1.009,0,1,1,1.679,1.119,1.016,1.016,0,0,1-.846.452m75.336-.194a1.011,1.011,0,1,1,.834-1.577l0,.008a1.01,1.01,0,0,1-.838,1.569M67.91,75.4a1.01,1.01,0,0,1-.838-1.569,1.054,1.054,0,0,1,.287-.288A1.01,1.01,0,1,1,67.91,75.4m68.386-.18a1,1,0,0,1-.558-.17,1.05,1.05,0,0,1-.287-.287,1.009,1.009,0,1,1,.845.457M72.008,71a1.014,1.014,0,1,1,.846-.456,1.05,1.05,0,0,1-.288.286,1,1,0,0,1-.558.17m60.17-.158a1.016,1.016,0,0,1-.847-1.575,1.006,1.006,0,0,1,1.4-.28,1.046,1.046,0,0,1,.287.286,1.01,1.01,0,0,1-.838,1.569m-55.51-3.658a1.007,1.007,0,0,1-.565-1.844l.009-.006a1.009,1.009,0,1,1,.556,1.85m50.834-.129a1,1,0,0,1-.558-.17,1.008,1.008,0,1,1,1.11-1.684l.009.006a1.009,1.009,0,0,1-.56,1.849M81.79,64.043a1.017,1.017,0,1,1,.567-.175.95.95,0,0,1-.117.068,1,1,0,0,1-.45.107m40.566-.109a1.012,1.012,0,0,1-.905-1.462,1,1,0,0,1,1.348-.454l.01,0a1.01,1.01,0,0,1-.452,1.912M87.661,61.561l-.707-1.889a1.008,1.008,0,1,1,.707,1.889m29.169-.012a1,1,0,0,1-.354-.065,1.009,1.009,0,0,1,.663-1.905l.044.016a1.009,1.009,0,0,1-.354,1.954M93.086,59.993a1.014,1.014,0,1,1,.331-.054,1.087,1.087,0,0,1-.2.045.943.943,0,0,1-.126.009m17.944-.05a.978.978,0,0,1-.2-.02,1.008,1.008,0,0,1,.31-1.992,1.056,1.056,0,0,1,.2.045,1.01,1.01,0,0,1-.319,1.967m-11.988-.78a1.009,1.009,0,0,1-.124-2.01,1.032,1.032,0,0,1,1.145,1,1.009,1.009,0,0,1-.929,1.006c-.031,0-.06,0-.092,0m6.028-.016h-.059a1.009,1.009,0,0,1-.96-1.009,1.029,1.029,0,0,1,1.184-.995,1.009,1.009,0,0,1-.165,2" transform="translate(-2.516 -2.239)" fill="#004e3d"/>
          </g>
        </g>
        <g id="Grupo_1176124" data-name="Grupo 1176124" transform="translate(426.663 439)">
          <g id="Grupo_1176123" data-name="Grupo 1176123" transform="translate(0 0)" clip-path="url(#clip-path-3)">
            <path id="Trazado_929411" data-name="Trazado 929411" d="M78.853,162.564h-.009a.823.823,0,1,1,.009,0m4.955,0H83.8a.823.823,0,1,1,.008,0m-9.9-.295a.856.856,0,0,1-.269-.044.826.826,0,1,1,.269.044m14.836-.009a.823.823,0,0,1-.26-1.6.845.845,0,0,1,1.091.78.823.823,0,0,1-.738.819.921.921,0,0,1-.093,0m-19.752-.59a.861.861,0,0,1-.141-.012.824.824,0,0,1-.691-.813.838.838,0,0,1,1.031-.8.824.824,0,0,1-.2,1.622m24.668-.013a.829.829,0,1,1,.208-.027.9.9,0,0,1-.208.027m-29.539-.89a.946.946,0,0,1-.14-.012.824.824,0,0,1-.692-.813.839.839,0,0,1,1.031-.8.823.823,0,0,1-.2,1.622m34.41-.018a.829.829,0,1,1,.208-.027.9.9,0,0,1-.208.027m4.8-1.207a.827.827,0,1,1,.269-.045.686.686,0,0,1-.069.02.843.843,0,0,1-.2.025m-44.227,0a.823.823,0,0,1,.4-1.6Zm-4.516-1.471a.82.82,0,0,1-.26-.042.883.883,0,0,1-.115-.048.823.823,0,1,1,.376.09m53.465-.029a.823.823,0,0,1-.369-1.559.922.922,0,0,1,.115-.048.823.823,0,0,1,.564,1.545.8.8,0,0,1-.31.062m-58.094-1.761a.828.828,0,0,1-.26-.043.915.915,0,0,1-.115-.048.821.821,0,1,1,.375.091m62.7-.028a.823.823,0,0,1-.369-1.559.875.875,0,0,1,.115-.048.823.823,0,0,1,.564,1.545.8.8,0,0,1-.311.062M45.455,154.2a.825.825,0,1,1,.193-1.625.874.874,0,0,1,.264.118.823.823,0,0,1-.457,1.508m71.7-.024a.829.829,0,1,1,.464-.143.831.831,0,0,1-.464.143m-76.072-2.323a.825.825,0,1,1,.254-1.608.875.875,0,0,1,.2.1.824.824,0,0,1-.457,1.508m80.431-.025a.828.828,0,1,1,.462-.142.936.936,0,0,1-.2.1.826.826,0,0,1-.26.042m-84.648-2.589a.816.816,0,0,1-.452-.138l-.006,0a.816.816,0,1,1,.458.143m88.855-.02a.827.827,0,1,1,.462-.144l-.007,0a.818.818,0,0,1-.455.139m-92.9-2.845a.812.812,0,0,1-.455-.139.841.841,0,0,1-.133-.108.823.823,0,1,1,.588.246m96.936-.019a.824.824,0,0,1-.582-1.406.844.844,0,0,1,.133-.108.823.823,0,1,1,.449,1.514m-100.8-3.089a.816.816,0,0,1-.455-.139.838.838,0,0,1-.235-.234.824.824,0,1,1,.69.373m104.654-.02a.823.823,0,0,1-.684-1.279.859.859,0,0,1,.235-.234.823.823,0,1,1,.449,1.513M25.3,139.922a.815.815,0,0,1-.578-.24l-.005-.006a.817.817,0,1,1,.583.246M137.28,139.9a.826.826,0,1,1,.588-.247l-.006.006a.819.819,0,0,1-.582.241M21.853,136.367a.825.825,0,1,1,.45-1.514.867.867,0,0,1,.234.234.824.824,0,0,1-.684,1.28m118.879-.02a.828.828,0,1,1,.689-.374.859.859,0,0,1-.234.235.818.818,0,0,1-.455.139M18.626,132.608a.826.826,0,1,1,.45-1.515.859.859,0,0,1,.234.235.824.824,0,0,1-.684,1.28m125.333-.025a.828.828,0,1,1,.689-.373.87.87,0,0,1-.234.235.818.818,0,0,1-.455.138M15.632,128.655a.816.816,0,0,1-.681-.364l0-.007a.82.82,0,1,1,.685.371m131.316-.027a.81.81,0,0,1-.455-.139.825.825,0,1,1,1.145-.235l0,.006a.82.82,0,0,1-.685.367m-134.057-4.1a.817.817,0,0,1-.681-.365l0-.006a.819.819,0,1,1,.685.371m136.8-.033a.823.823,0,0,1-.684-1.279.823.823,0,1,1,1.374.906l0,.007a.821.821,0,0,1-.685.367M10.414,120.249a.82.82,0,0,1-.685-.367.877.877,0,0,1-.118-.264.823.823,0,1,1,.8.632m141.763-.045a.8.8,0,0,1-.2-.025.823.823,0,0,1-.6-1,.875.875,0,0,1,.118-.264.823.823,0,1,1,.681,1.287M8.2,115.821a.822.822,0,0,1-.685-.367.873.873,0,0,1-.117-.264.824.824,0,1,1,.8.631m146.191-.058a.844.844,0,0,1-.2-.025.823.823,0,0,1-.6-1,.84.84,0,0,1,.118-.264.823.823,0,1,1,.681,1.287m-148.127-4.5a.826.826,0,1,1,.733-1.2.876.876,0,0,1,.048.115.822.822,0,0,1-.78,1.083m150.061-.073a.81.81,0,0,1-.367-.088.827.827,0,1,1,1.152-.483.926.926,0,0,1-.048.115.82.82,0,0,1-.736.455M4.61,106.59a.817.817,0,0,1-.777-.559c-.006-.02-.015-.048-.019-.068a.823.823,0,1,1,1.029.594.8.8,0,0,1-.233.034m153.367-.08a.844.844,0,0,1-.2-.025.822.822,0,0,1-.6-1l1.6.4a.823.823,0,0,1-.8.624m.782-.571h0Zm.571-4.2a.806.806,0,0,1-.2-.025.822.822,0,0,1-.6-1l1.6.4a.822.822,0,0,1-.8.623m.782-.57h0Zm-157.64.083a.823.823,0,1,1,1.561-.521ZM2.2,96.987a.823.823,0,0,1-.8-.624.9.9,0,0,1-.027-.208.824.824,0,1,1,1.024.807.844.844,0,0,1-.2.025M160.385,96.9a.823.823,0,0,1-.823-.823.858.858,0,0,1,.027-.208.823.823,0,1,1,.8,1.031M1.436,92.089A.827.827,0,1,1,2.216,91a.88.88,0,0,1,.044.269.823.823,0,0,1-.823.823M161.139,92a.8.8,0,0,1-.26-.043.826.826,0,1,1,1.084-.789.871.871,0,0,1-.044.268.824.824,0,0,1-.78.563M.979,87.153a.826.826,0,1,1,.78-1.091.872.872,0,0,1,.044.269.822.822,0,0,1-.823.822m160.611-.086a.827.827,0,1,1,.824-.831.871.871,0,0,1-.044.268.823.823,0,0,1-.78.563M.823,82.2A.82.82,0,0,1,0,81.377v-.009a.823.823,0,1,1,.823.828m160.917-.082a.822.822,0,0,1-.823-.823c0-.032,0-.063.005-.094a.916.916,0,0,1-.005-.094.823.823,0,1,1,1.646-.009V81.1a.739.739,0,0,0,0,.179v.009a.823.823,0,0,1-.823.823M.968,77.246h0a.822.822,0,0,1-.823-.822.849.849,0,0,1,.044-.269.823.823,0,1,1,.78,1.091m160.612-.275a.825.825,0,0,1-.78-.563.871.871,0,0,1-.043-.269.822.822,0,1,1,.823.832M1.413,72.309h0a.823.823,0,0,1-.823-.823.871.871,0,0,1,.044-.268.824.824,0,1,1,.78,1.091m159.7-.272a.823.823,0,0,1-.78-.563.857.857,0,0,1-.044-.269.822.822,0,1,1,.824.832M2.162,67.411a.844.844,0,0,1-.2-.025.827.827,0,1,1,1.024-.807.857.857,0,0,1-.027.208.822.822,0,0,1-.8.624m158.191-.271a.827.827,0,1,1,.8-1.031.9.9,0,0,1,.027.208.823.823,0,0,1-.823.823m-1.067-4.84a.825.825,0,1,1,.779-1.091.694.694,0,0,1,.019.069.822.822,0,0,1-.6,1,.844.844,0,0,1-.2.025M4.01,61.937l-1.6-.4a.822.822,0,1,1,1.6.4m153.913-4.4a.825.825,0,1,1,.779-1.092c.007.021.015.048.019.069a.821.821,0,0,1-.6,1,.807.807,0,0,1-.2.026M5.357,57.167l-1.6-.4a.822.822,0,1,1,1.6.4M6.2,53.113a.823.823,0,0,1-.791-1.049.894.894,0,0,1,.109-.239A.824.824,0,1,1,6.2,53.113m150.068-.249a.822.822,0,0,1-.685-.367.891.891,0,0,1-.11-.238.824.824,0,1,1,.8.6M8.129,48.541a.811.811,0,0,1-.407-.109.826.826,0,1,1,1.192-.462.935.935,0,0,1-.07.156.822.822,0,0,1-.715.415m146.2-.228a.826.826,0,1,1,.71-1.239.928.928,0,0,1,.07.155.824.824,0,0,1-.78,1.084M10.339,44.1a.827.827,0,1,1,.8-.6.878.878,0,0,1-.111.237.821.821,0,0,1-.685.367m141.771-.211a.826.826,0,1,1,.681-1.287.892.892,0,0,1,.11.238.822.822,0,0,1-.564,1.017.813.813,0,0,1-.227.032M12.817,39.8a.823.823,0,0,1-.684-1.276l0-.006a.823.823,0,1,1,.679,1.282M149.625,39.6a.824.824,0,1,1,.679-1.286l0,.007a.823.823,0,0,1-.684,1.279M15.555,35.661a.821.821,0,0,1-.684-1.275l0-.007a.823.823,0,1,1,.68,1.282m131.325-.178a.824.824,0,1,1,.679-1.287l0,.007a.823.823,0,0,1-.684,1.28M18.542,31.707a.823.823,0,0,1-.684-1.279.844.844,0,0,1,.163-.183.824.824,0,1,1,.521,1.462m125.343-.17a.823.823,0,0,1-.526-.19.886.886,0,0,1-.163-.183.824.824,0,1,1,.689.373m-122.122-3.6a.823.823,0,0,1-.642-1.337c.019-.023.045-.052.066-.074a.823.823,0,1,1,.575,1.411m118.892-.159a.82.82,0,0,1-.582-.241c-.021-.022-.047-.051-.066-.074a.824.824,0,1,1,.648.315M25.21,24.378a.828.828,0,1,1,.648-.315,1.015,1.015,0,0,1-.122.124.82.82,0,0,1-.526.191m111.99-.151a.825.825,0,1,1,.52-1.461.963.963,0,0,1,.122.124.823.823,0,0,1-.642,1.337M28.867,21.033a.828.828,0,1,1,.587-.246c-.018.018-.042.04-.061.056a.822.822,0,0,1-.526.19m104.665-.141a.824.824,0,1,1,.521-1.46c.019.016.043.038.061.055a.823.823,0,0,1-.582,1.4M32.72,17.921a.828.828,0,1,1,.533-.2c-.023.019-.054.041-.078.057a.812.812,0,0,1-.455.139m96.948-.133a.825.825,0,1,1,.45-1.513c.024.016.055.039.077.058a.823.823,0,0,1-.527,1.455M36.76,15.046a.822.822,0,0,1-.461-1.5l.007,0a.823.823,0,1,1,.454,1.508m88.859-.122a.817.817,0,0,1-.455-.138.823.823,0,1,1,.905-1.374l.007,0a.823.823,0,0,1-.457,1.508m-84.66-2.49a.824.824,0,0,1-.456-1.508,1.043,1.043,0,0,1,.1-.055.823.823,0,1,1,.361,1.564m80.442-.117a.819.819,0,0,1-.367-.087.973.973,0,0,1-.1-.055.822.822,0,1,1,.462.143M45.319,10.079a.822.822,0,0,1-.373-1.556l.008,0a.823.823,0,1,1,.366,1.56m71.711-.105a.817.817,0,0,1-.367-.087.823.823,0,1,1,.728-1.476l.007,0a.823.823,0,0,1-.368,1.559M49.8,8a.823.823,0,0,1-.368-1.559.911.911,0,0,1,.175-.066A.824.824,0,1,1,49.8,8m62.718-.1a.806.806,0,0,1-.2-.025.9.9,0,0,1-.176-.066.823.823,0,1,1,.377.09M54.708,6.154l-.577-1.54a.822.822,0,1,1,.577,1.54m53.184-.036a.816.816,0,0,1-.288-.053.823.823,0,0,1,.541-1.554l.036.012a.823.823,0,0,1-.288,1.594M59.137,4.7a.823.823,0,0,1-.267-1.6l.069-.02a.823.823,0,0,1,.4,1.6.812.812,0,0,1-.2.025m44.032-.073a.836.836,0,0,1-.2-.024l.4-1.6a.823.823,0,0,1-.2,1.622M63.941,3.485a.823.823,0,0,1-.207-1.62l.073-.015a.823.823,0,0,1,.271,1.624.92.92,0,0,1-.137.011m34.42-.056a.8.8,0,0,1-.136-.012L98.5,1.793a.823.823,0,0,1-.135,1.636M68.947,2.561,68.8,1.75,68.7.934a.823.823,0,0,1,.246,1.628m24.542-.03a.808.808,0,0,1-.136-.011A.823.823,0,0,1,93.583.891L93.624.9a.823.823,0,0,1-.135,1.635M73.717,1.962a.823.823,0,0,1-.1-1.639.842.842,0,0,1,.933.816.822.822,0,0,1-.757.821c-.025,0-.05,0-.075,0m14.854-.024a.87.87,0,0,1-.111-.008.82.82,0,1,1,.111.008M68.8,1.75h0Zm9.86-.1A.823.823,0,0,1,78.623.008a.811.811,0,0,1,.861.686.825.825,0,0,1-.677.948.979.979,0,0,1-.143.011m4.964-.008h-.048A.824.824,0,0,1,82.8.821.84.84,0,0,1,83.762.01a.823.823,0,0,1-.135,1.635" transform="translate(-0.115 0.422)" fill="#b2c9c4"/>
            <path id="Trazado_929412" data-name="Trazado 929412" d="M84.329,151.817H84.32a.822.822,0,1,1,.009,0m4.945-.094a.823.823,0,0,1-.26-1.6.845.845,0,0,1,1.091.78.823.823,0,0,1-.74.819.712.712,0,0,1-.091.005m-9.89-.18a.871.871,0,0,1-.269-.043.828.828,0,1,1,.269.043m14.82-.285a.823.823,0,0,1-.26-1.6.845.845,0,0,1,1.091.78.822.822,0,0,1-.74.818.715.715,0,0,1-.091.005m-19.732-.36a.888.888,0,0,1-.142-.012.822.822,0,0,1-.689-.812.838.838,0,0,1,1.031-.8.823.823,0,0,1-.2,1.622m24.614-.475a.829.829,0,1,1,.208-.027.9.9,0,0,1-.208.027m-29.669-.569a.822.822,0,1,1,.4-1.6Zm34.472-.636a.827.827,0,1,1,.269-.045.689.689,0,0,1-.069.02.844.844,0,0,1-.2.025m-39.229-.746a.823.823,0,0,1,.4-1.6Zm43.93-.821a.823.823,0,0,1-.369-1.559.963.963,0,0,1,.115-.048.823.823,0,0,1,.564,1.545.806.806,0,0,1-.31.062m-48.365-.894a.828.828,0,0,1-.26-.043,1.043,1.043,0,0,1-.115-.048.822.822,0,1,1,.375.09m52.925-1.026a.828.828,0,1,1,.465-.142.873.873,0,0,1-.264.117.806.806,0,0,1-.2.025M55.73,144.664a.825.825,0,1,1,.193-1.625.855.855,0,0,1,.264.118.823.823,0,0,1-.457,1.508m61.827-1.195a.829.829,0,1,1,.462-.143.868.868,0,0,1-.2.1.827.827,0,0,1-.26.043M51.4,142.237a.816.816,0,0,1-.452-.138l-.007,0a.817.817,0,1,1,.459.143m70.375-1.356a.827.827,0,1,1,.462-.144l-.006,0a.818.818,0,0,1-.455.139m-74.5-1.39a.815.815,0,0,1-.452-.137l-.007,0a.819.819,0,1,1,.459.142m78.517-1.51a.824.824,0,0,1-.582-1.406.847.847,0,0,1,.133-.108.823.823,0,1,1,.449,1.514m-82.42-1.538a.818.818,0,0,1-.455-.139.854.854,0,0,1-.234-.233.824.824,0,1,1,.689.372m86.206-1.657a.824.824,0,0,1-.684-1.28.853.853,0,0,1,.234-.233.823.823,0,0,1,1,1.3.83.83,0,0,1-.554.213M39.7,133.107a.814.814,0,0,1-.577-.24l-.006-.006a.817.817,0,1,1,.583.246m93.414-1.792a.828.828,0,1,1,.688-.374.846.846,0,0,1-.233.235.818.818,0,0,1-.455.139M36.3,129.509a.825.825,0,1,1,.45-1.514.859.859,0,0,1,.234.235.823.823,0,0,1-.684,1.279m100.078-1.922a.828.828,0,1,1,.689-.374.859.859,0,0,1-.234.235.818.818,0,0,1-.455.139M33.174,125.661a.815.815,0,0,1-.681-.365l0-.007a.818.818,0,1,1,.685.372m106.184-2.038a.824.824,0,0,1-.684-1.28.822.822,0,1,1,1.373.906l0,.007a.82.82,0,0,1-.685.367m-109.009-2.03a.815.815,0,0,1-.681-.365l0-.007a.818.818,0,1,1,.685.372m111.678-2.148a.806.806,0,0,1-.26-.043.824.824,0,0,1-.52-1.041.934.934,0,0,1,.1-.2.823.823,0,1,1,.681,1.286m-114.183-2.12a.824.824,0,0,1-.685-.367.873.873,0,0,1-.117-.264.824.824,0,1,1,.8.631m116.53-2.247a.807.807,0,0,1-.2-.026.822.822,0,0,1-.6-1,.873.873,0,0,1,.117-.264.823.823,0,1,1,.681,1.288m-118.709-2.2a.826.826,0,1,1,.733-1.2.922.922,0,0,1,.048.115.822.822,0,0,1-.52,1.04.8.8,0,0,1-.26.043M146.38,110.54a.814.814,0,0,1-.366-.087.827.827,0,1,1,1.151-.483.913.913,0,0,1-.048.115.822.822,0,0,1-.737.456m-122.549-2.26a.826.826,0,1,1,.732-1.2.872.872,0,0,1,.048.115.824.824,0,0,1-.78,1.084m124.208-2.416a.844.844,0,0,1-.2-.025.822.822,0,0,1-.6-1l1.6.4a.822.822,0,0,1-.8.624m.782-.57h0ZM22.346,103.547a.818.818,0,0,1-.777-.558c-.006-.021-.015-.048-.019-.069a.823.823,0,1,1,1.029.594.8.8,0,0,1-.232.034m126.985-2.465a.823.823,0,0,1-.823-.824.855.855,0,0,1,.027-.207.823.823,0,1,1,.8,1.031m-128.1-2.359a.823.823,0,0,1-.8-.624.9.9,0,0,1-.027-.208.824.824,0,1,1,1.024.807.844.844,0,0,1-.2.025m129.024-2.509a.824.824,0,0,1-.823-.824.889.889,0,0,1,.027-.207.823.823,0,1,1,.8,1.031m-129.77-2.39a.826.826,0,1,1,.78-1.091A.871.871,0,0,1,21.31,93a.822.822,0,0,1-.823.822m130.326-2.534a.827.827,0,1,1,.823-.831.879.879,0,0,1-.043.269.824.824,0,0,1-.78.562M20.112,88.88a.819.819,0,0,1-.823-.819v-.009a.823.823,0,1,1,.823.828M151,86.34a.824.824,0,0,1-.823-.824c0-.027,0-.052,0-.078s0-.052,0-.079a.823.823,0,0,1,1.647-.009v.009c0,.025,0,.049,0,.075s0,.048,0,.073v.009a.824.824,0,0,1-.823.824M20.107,83.923a.819.819,0,0,1-.823-.819V83.1a.823.823,0,1,1,.823.827m130.7-2.692a.824.824,0,0,1-.78-.563.871.871,0,0,1-.043-.268.822.822,0,1,1,.823.831M20.47,78.987h0a.822.822,0,0,1-.823-.823.87.87,0,0,1,.043-.268.824.824,0,1,1,.78,1.091m129.767-2.679a.827.827,0,1,1,.8-1.031.856.856,0,0,1,.027.208.822.822,0,0,1-.823.823M21.207,74.087a.844.844,0,0,1-.2-.025.827.827,0,1,1,1.024-.807.857.857,0,0,1-.027.208.822.822,0,0,1-.8.624M149.3,71.443a.827.827,0,1,1,.8-1.031.9.9,0,0,1,.027.208.823.823,0,0,1-.823.823M23.111,68.624l-1.6-.4a.823.823,0,0,1,1.6.4m124.884-1.962a.825.825,0,1,1,.779-1.091c.006.02.015.048.019.069a.822.822,0,0,1-.6,1,.8.8,0,0,1-.2.025M23.779,64.524A.824.824,0,0,1,23,63.44a1.12,1.12,0,0,1,.048-.115.823.823,0,1,1,.732,1.2M146.331,62a.82.82,0,0,1-.736-.456.924.924,0,0,1-.048-.115.822.822,0,1,1,.784.571M25.608,59.913a.824.824,0,0,1-.78-1.084.917.917,0,0,1,.048-.115.823.823,0,1,1,.732,1.2m118.709-2.441A.826.826,0,1,1,145,56.184a.892.892,0,0,1,.11.238.823.823,0,0,1-.564,1.018.843.843,0,0,1-.227.032M27.779,55.454a.827.827,0,1,1,.8-.6.855.855,0,0,1-.111.237.822.822,0,0,1-.685.367m114.186-2.341a.826.826,0,1,1,.681-1.287.877.877,0,0,1,.111.237.823.823,0,0,1-.565,1.018.809.809,0,0,1-.227.032M30.283,51.171A.822.822,0,0,1,29.6,49.9l0-.007a.823.823,0,1,1,.679,1.282m109.009-2.227a.824.824,0,1,1,.679-1.286l0,.006a.823.823,0,0,1-.683,1.28M33.1,47.1a.823.823,0,0,1-.684-1.279.887.887,0,0,1,.163-.183A.824.824,0,1,1,33.1,47.1m103.207-2.11a.82.82,0,0,1-.525-.19.844.844,0,0,1-.163-.183.823.823,0,1,1,.688.373M36.221,43.245a.823.823,0,0,1-.642-1.337c.019-.023.045-.052.066-.074a.823.823,0,1,1,.575,1.411m96.818-1.979a.82.82,0,0,1-.582-.241.86.86,0,0,1-.066-.074.823.823,0,1,1,.648.315M39.621,39.638a.828.828,0,1,1,.648-.314,1.075,1.075,0,0,1-.122.124.822.822,0,0,1-.526.19M129.5,37.8a.825.825,0,1,1,.52-1.461.957.957,0,0,1,.122.123A.824.824,0,0,1,129.5,37.8M43.281,36.3a.828.828,0,1,1,.587-.246.837.837,0,0,1-.587.246M125.7,34.611a.815.815,0,0,1-.486-.16.823.823,0,0,1,.936-1.352c.024.016.055.038.078.057a.824.824,0,0,1-.528,1.455M47.18,33.243a.828.828,0,1,1,.533-.2c-.023.019-.054.041-.078.057a.818.818,0,0,1-.455.139m74.5-1.526a.817.817,0,0,1-.455-.139.822.822,0,1,1,.905-1.374l.007,0a.823.823,0,0,1-.457,1.508M51.3,30.491a.823.823,0,0,1-.457-1.508.981.981,0,0,1,.1-.056.823.823,0,1,1,.362,1.564m66.152-1.358a.819.819,0,0,1-.367-.087.89.89,0,0,1-.1-.055.822.822,0,1,1,.462.143M55.616,28.056a.822.822,0,0,1-.373-1.556l.008,0a.823.823,0,1,1,.366,1.56m57.42-1.179a.816.816,0,0,1-.288-.053c-.027-.01-.061-.025-.087-.037a.823.823,0,1,1,.376.09M60.1,25.962a.823.823,0,0,1-.369-1.559.862.862,0,0,1,.175-.066.823.823,0,0,1,.5,1.565.8.8,0,0,1-.3.059m48.367-1a.806.806,0,0,1-.2-.025.938.938,0,0,1-.176-.066.823.823,0,1,1,.377.09m-43.444-.808-.577-1.54a.822.822,0,1,1,.577,1.54m38.74-.75a.832.832,0,0,1-.2-.024l.4-1.6a.823.823,0,0,1-.2,1.622m-34.276-.59a.823.823,0,0,1-.207-1.62l.073-.015a.823.823,0,1,1,.134,1.635m29.468-.6a.866.866,0,0,1-.16-.016.823.823,0,0,1,.253-1.625.86.86,0,0,1,.167.037.823.823,0,0,1-.26,1.6m-24.63-.422a.826.826,0,1,1,.269-.044.862.862,0,0,1-.167.037.756.756,0,0,1-.1.006m19.748-.4a.805.805,0,0,1-.136-.011.823.823,0,0,1,.229-1.63l.042.006a.823.823,0,0,1-.135,1.635M79.23,21.134a.823.823,0,0,1-.1-1.639.838.838,0,0,1,.933.816.823.823,0,0,1-.758.82c-.025,0-.049,0-.075,0m9.907-.2c-.016,0-.033,0-.048,0a.822.822,0,0,1-.783-.821.842.842,0,0,1,.966-.812.823.823,0,0,1-.135,1.635m-4.954-.083a.823.823,0,1,1-.009-1.646h.009a.823.823,0,1,1,0,1.646" transform="translate(-4.364 -3.803)" fill="#b2c9c4"/>
            <path id="Trazado_929413" data-name="Trazado 929413" d="M90.931,141.316h-.009a.822.822,0,1,1,.009,0M86.02,141.2a.878.878,0,0,1-.269-.044.826.826,0,1,1,.269.044m9.8-.24a.823.823,0,0,1-.26-1.6.846.846,0,0,1,1.091.78.822.822,0,0,1-.74.819.72.72,0,0,1-.091.005m-14.678-.342a.87.87,0,0,1-.141-.012.824.824,0,0,1-.69-.813.838.838,0,0,1,1.031-.8.823.823,0,0,1-.2,1.622m19.521-.482a.829.829,0,1,1,.268-.044.874.874,0,0,1-.268.044m-24.526-.6a.823.823,0,0,1,.4-1.6Zm29.266-.693a.825.825,0,1,1,.269-.044c-.021.006-.048.015-.069.02a.845.845,0,0,1-.2.025m-33.732-.792a.82.82,0,0,1-.26-.043.927.927,0,0,1-.115-.048.822.822,0,1,1,.376.091M110,137.1a.823.823,0,0,1-.369-1.559.88.88,0,0,1,.115-.048.823.823,0,0,1,.564,1.546.806.806,0,0,1-.31.062m-42.831-1.008a.825.825,0,1,1,.193-1.625.855.855,0,0,1,.264.117.824.824,0,0,1-.457,1.508M114.4,134.92a.829.829,0,1,1,.463-.143.86.86,0,0,1-.2.1.821.821,0,0,1-.26.043m-51.528-1.215a.815.815,0,0,1-.453-.137l-.006,0a.818.818,0,1,1,.459.142m55.7-1.383a.827.827,0,1,1,.462-.144l-.007,0a.818.818,0,0,1-.455.139m-59.74-1.407a.818.818,0,0,1-.455-.138.891.891,0,0,1-.133-.108.824.824,0,1,1,.588.247m63.64-1.582a.824.824,0,0,1-.684-1.28.846.846,0,0,1,.235-.233.823.823,0,1,1,.449,1.513m-67.4-1.586a.815.815,0,0,1-.455-.139.849.849,0,0,1-.235-.234.823.823,0,1,1,.69.373m70.995-1.763a.828.828,0,1,1,.689-.374.849.849,0,0,1-.234.235.818.818,0,0,1-.455.139m-74.43-1.749a.826.826,0,1,1,.45-1.515.86.86,0,0,1,.234.235.824.824,0,0,1-.684,1.28m77.689-1.93a.828.828,0,1,1,.689-.373.867.867,0,0,1-.234.234.812.812,0,0,1-.455.139m-80.775-1.9a.815.815,0,0,1-.681-.365l0-.007a.818.818,0,1,1,.685.372m83.664-2.075a.823.823,0,0,1-.684-1.279.823.823,0,1,1,1.374.906l0,.007a.822.822,0,0,1-.685.367M45.851,116.3a.822.822,0,0,1-.685-.367.889.889,0,0,1-.1-.2.822.822,0,1,1,.784.57m88.857-2.2a.845.845,0,0,1-.2-.025.822.822,0,0,1-.6-1,.873.873,0,0,1,.117-.264.823.823,0,1,1,.681,1.288M43.56,111.956a.82.82,0,0,1-.685-.367.873.873,0,0,1-.117-.264.823.823,0,1,1,.8.632m93.22-2.314a.814.814,0,0,1-.366-.087.827.827,0,1,1,1.151-.484,1.053,1.053,0,0,1-.048.115.822.822,0,0,1-.737.456M41.7,107.407a.824.824,0,1,1,.26-.043.823.823,0,0,1-.26.043m96.712-2.4a.807.807,0,0,1-.2-.026.822.822,0,0,1-.6-1l1.6.4a.822.822,0,0,1-.8.624m.782-.571h0Zm-98.905-1.74a.817.817,0,0,1-.777-.559c-.007-.021-.016-.048-.02-.069a.82.82,0,1,1,.8.628m99.3-2.462a.823.823,0,0,1-.823-.823.9.9,0,0,1,.027-.208.823.823,0,1,1,.8,1.031M39.345,97.876a.822.822,0,0,1-.8-.624.9.9,0,0,1-.027-.207.824.824,0,1,1,1.024.806.844.844,0,0,1-.2.025m100.941-2.507a.827.827,0,1,1,.824-.831.87.87,0,0,1-.044.268.822.822,0,0,1-.78.563M38.869,92.984a.826.826,0,1,1,.78-1.091.872.872,0,0,1,.044.269.822.822,0,0,1-.823.822m101.651-2.522a.824.824,0,0,1-.823-.824c0-.023,0-.047,0-.069s0-.053,0-.08a.823.823,0,0,1,1.647-.009v.009c0,.022,0,.044,0,.066s0,.049,0,.075v.008a.824.824,0,0,1-.823.824m-101.658-2.4a.82.82,0,0,1-.823-.819v-.009a.823.823,0,1,1,.823.828m101.412-2.66a.823.823,0,0,1-.78-.563.872.872,0,0,1-.044-.269.822.822,0,1,1,.824.832M39.324,83.179a.844.844,0,0,1-.2-.025.827.827,0,1,1,1.024-.806.89.89,0,0,1-.027.207.822.822,0,0,1-.8.624m100.232-2.636a.827.827,0,1,1,.8-1.031.856.856,0,0,1,.027.208.822.822,0,0,1-.823.823m-98.5-2.822-1.6-.4a.823.823,0,0,1,1.6.4m97.317-1.948a.825.825,0,1,1,.779-1.091c.007.02.016.048.02.068a.823.823,0,0,1-.6,1,.844.844,0,0,1-.2.025M41.65,73.642a.824.824,0,0,1-.78-1.084.867.867,0,0,1,.048-.115.823.823,0,1,1,.733,1.2m95.08-2.5a.822.822,0,0,1-.737-.456,1.055,1.055,0,0,1-.048-.115.823.823,0,1,1,1.151.483.814.814,0,0,1-.366.088M43.5,69.088a.828.828,0,1,1,.8-.632.873.873,0,0,1-.117.264.82.82,0,0,1-.685.367m91.15-2.4a.826.826,0,1,1,.681-1.286.86.86,0,0,1,.1.2.822.822,0,0,1-.78,1.083M45.774,64.734a.828.828,0,1,1,.785-.57.925.925,0,0,1-.1.2.82.82,0,0,1-.685.367m86.366-2.27a.824.824,0,1,1,.679-1.287l0,.007a.823.823,0,0,1-.684,1.28M48.463,60.615a.822.822,0,0,1-.684-1.275c.013-.02.032-.045.047-.064a.823.823,0,1,1,.637,1.339M129.239,58.5a.824.824,0,1,1,.633-.3.816.816,0,0,1-.633.3m-77.7-1.714a.823.823,0,0,1-.642-1.337c.019-.023.045-.052.066-.074a.823.823,0,1,1,.575,1.411m74.438-1.956a.825.825,0,1,1,.52-1.461.963.963,0,0,1,.122.124.823.823,0,0,1-.642,1.337M54.962,53.26a.828.828,0,1,1,.648-.314,1.075,1.075,0,0,1-.122.124.822.822,0,0,1-.526.19m67.4-1.772a.824.824,0,1,1,.521-1.461c.019.016.044.038.061.056a.823.823,0,0,1-.582,1.4M58.711,50.082a.829.829,0,1,1,.532-.2.95.95,0,0,1-.078.057.814.814,0,0,1-.455.139m59.747-1.572a.817.817,0,0,1-.455-.138A.823.823,0,1,1,118.908,47l.007,0a.823.823,0,0,1-.457,1.508M62.745,47.279a.823.823,0,0,1-.457-1.508.9.9,0,0,1,.1-.056.824.824,0,1,1,.362,1.564m51.535-1.357a.815.815,0,0,1-.405-.107.823.823,0,0,1,.767-1.456,1.044,1.044,0,0,1,.1.055.823.823,0,0,1-.457,1.508M67.038,44.875a.822.822,0,0,1-.373-1.556l.007,0a.823.823,0,1,1,.366,1.56m42.836-1.124a.817.817,0,0,1-.289-.053c-.027-.01-.061-.025-.087-.037a.823.823,0,1,1,.376.09M71.532,42.9a.823.823,0,0,1-.369-1.559.937.937,0,0,1,.176-.066.823.823,0,0,1,.5,1.566.809.809,0,0,1-.3.058m33.745-.887a.816.816,0,0,1-.288-.053.823.823,0,0,1,.541-1.554l.036.013a.823.823,0,0,1-.288,1.593m-29.071-.643a.822.822,0,0,1-.267-1.6l.069-.02a.823.823,0,0,1,.4,1.6.849.849,0,0,1-.2.024m24.328-.635a.768.768,0,0,1-.1-.006.949.949,0,0,1-.166-.038.824.824,0,1,1,.269.044m-19.54-.429a.826.826,0,1,1,.269-.044.862.862,0,0,1-.167.037.756.756,0,0,1-.1.006m14.7-.382a.823.823,0,1,1,.093-1.641l.042.006a.823.823,0,0,1-.135,1.635m-9.821-.214a.823.823,0,0,1-.1-1.639.843.843,0,0,1,.933.816.824.824,0,0,1-.758.821c-.025,0-.05,0-.075,0m4.92-.127a.823.823,0,1,1-.009-1.646h.009a.823.823,0,1,1,0,1.646" transform="translate(-8.497 -7.927)" fill="#b2c9c4"/>
            <path id="Trazado_929414" data-name="Trazado 929414" d="M91.442,130.572a.877.877,0,0,1-.269-.043.824.824,0,0,1-.52-1.041.811.811,0,0,1,.872-.558.823.823,0,0,1-.083,1.642m4.9,0a.823.823,0,0,1-.26-1.6.845.845,0,0,1,1.091.78.823.823,0,0,1-.74.819q-.047,0-.091,0m-9.757-.654a.871.871,0,0,1-.141-.012.825.825,0,0,1-.691-.813.84.84,0,0,1,1.031-.8.823.823,0,0,1-.2,1.622M101.2,129.9a.83.83,0,1,1,.207-.027.889.889,0,0,1-.207.027m-19.348-1.3a.827.827,0,0,1-.26-.043.911.911,0,0,1-.115-.048.822.822,0,1,1,.375.09m24.073-.018a.823.823,0,0,1-.368-1.559.919.919,0,0,1,.115-.048.824.824,0,1,1,.253,1.608m-28.576-1.935a.83.83,0,0,1-.8-1.026.821.821,0,0,1,1-.6.856.856,0,0,1,.264.118.823.823,0,0,1-.457,1.508m33.073-.026a.829.829,0,1,1,.463-.143.875.875,0,0,1-.2.1.828.828,0,0,1-.26.043m-37.269-2.524a.816.816,0,0,1-.452-.138l-.007,0a.817.817,0,1,1,.459.143m41.455-.03a.827.827,0,1,1,.462-.144l-.007,0a.818.818,0,0,1-.455.139M69.345,121a.818.818,0,0,1-.455-.139.859.859,0,0,1-.235-.234.824.824,0,1,1,.69.373m49.062-.035a.824.824,0,0,1-.684-1.28.87.87,0,0,1,.235-.234.824.824,0,1,1,.449,1.514m-52.413-3.547a.825.825,0,1,1,.451-1.514.854.854,0,0,1,.233.234.824.824,0,0,1-.684,1.28m55.764-.04a.828.828,0,1,1,.689-.373.882.882,0,0,1-.234.235.817.817,0,0,1-.455.138m-58.6-3.965a.815.815,0,0,1-.681-.365l0-.006a.82.82,0,1,1,.685.371m61.436-.043a.824.824,0,0,1-.684-1.28.822.822,0,1,1,1.373.906l0,.007a.822.822,0,0,1-.685.367m-63.7-4.3a.826.826,0,1,1,.733-1.2.964.964,0,0,1,.048.115.824.824,0,0,1-.78,1.084m65.96-.052a.81.81,0,0,1-.367-.088.827.827,0,1,1,1.152-.483.927.927,0,0,1-.048.115.82.82,0,0,1-.736.456M59.237,104.44a.818.818,0,0,1-.777-.558c-.006-.021-.015-.048-.019-.069a.823.823,0,1,1,1.029.594.8.8,0,0,1-.233.034m69.258-.054a.832.832,0,0,1-.2-.025.822.822,0,0,1-.6-1l1.6.4a.822.822,0,0,1-.8.624m.782-.57h0ZM58.239,99.64a.826.826,0,1,1,.78-1.091.871.871,0,0,1,.044.268.823.823,0,0,1-.823.823m71.25-.059a.827.827,0,1,1,.823-.832.872.872,0,0,1-.043.269.824.824,0,0,1-.78.563M57.9,94.741a.82.82,0,0,1-.823-.819v-.009a.823.823,0,1,1,.823.828m71.92-.056a.824.824,0,0,1-.823-.824c0-.023,0-.047,0-.069s0-.046,0-.069a.823.823,0,0,1,1.646-.009v.009c0,.022,0,.044,0,.066s0,.043,0,.065v.009a.823.823,0,0,1-.823.824m-71.6-4.837h0a.822.822,0,0,1-.823-.822.872.872,0,0,1,.044-.269.824.824,0,1,1,.78,1.091m71.251-.2a.824.824,0,0,1-.78-.562.879.879,0,0,1-.043-.269.824.824,0,1,1,.823.831m-1.011-4.8a.825.825,0,1,1,.779-1.091.687.687,0,0,1,.02.069.823.823,0,0,1-.6,1,.844.844,0,0,1-.2.025M60,84.41l-1.6-.4a.823.823,0,1,1,1.6.4m.833-4a.824.824,0,0,1-.78-1.084.917.917,0,0,1,.048-.115.823.823,0,1,1,.732,1.2m65.967-.18a.822.822,0,0,1-.736-.456.911.911,0,0,1-.048-.115.821.821,0,1,1,.784.57M63.089,76.043a.809.809,0,0,1-.453-.137.819.819,0,0,1-.231-1.138l0-.006a.823.823,0,1,1,1.369.913.829.829,0,0,1-.69.369m61.443-.158a.824.824,0,1,1,.68-1.286l0,.006a.824.824,0,0,1-.684,1.28M65.913,72.034a.824.824,0,0,1-.684-1.28.859.859,0,0,1,.234-.235.824.824,0,1,1,.45,1.515m55.774-.147a.818.818,0,0,1-.455-.139.856.856,0,0,1-.234-.234.823.823,0,1,1,.689.373M69.255,68.439a.827.827,0,1,1,.69-.372.857.857,0,0,1-.235.233.818.818,0,0,1-.455.139m49.073-.129a.829.829,0,0,1-.691-1.285.82.82,0,0,1,1.141-.229.854.854,0,0,1,.234.233.824.824,0,0,1-.684,1.28M73.055,65.327a.822.822,0,0,1-.461-1.5l.007,0a.823.823,0,1,1,.454,1.508m41.459-.105a.817.817,0,0,1-.455-.139.822.822,0,1,1,.905-1.374l.007,0a.823.823,0,0,1-.457,1.508M77.232,62.768a.829.829,0,1,1,.462-.143.775.775,0,0,1-.1.055.814.814,0,0,1-.367.087m33.084-.089a.825.825,0,0,1-.738-1.193.818.818,0,0,1,1.1-.37l.008,0a.823.823,0,0,1-.369,1.559m-28.3-1.936-.577-1.54a.822.822,0,1,1,.577,1.54m23.79-.01a.816.816,0,0,1-.288-.053.823.823,0,0,1,.541-1.554l.036.013a.823.823,0,0,1-.288,1.593M86.445,59.465a.827.827,0,1,1,.27-.044.886.886,0,0,1-.167.037.769.769,0,0,1-.1.007m14.634-.041a.8.8,0,0,1-.159-.016.822.822,0,0,1,.253-1.625.861.861,0,0,1,.167.037.823.823,0,0,1-.26,1.6M91.3,58.788a.823.823,0,0,1-.1-1.639.842.842,0,0,1,.934.816.823.823,0,0,1-.758.821c-.025,0-.049,0-.075,0m4.916-.013H96.17a.823.823,0,0,1-.783-.823.839.839,0,0,1,.966-.811.823.823,0,0,1-.135,1.635" transform="translate(-12.693 -12.149)" fill="#b2c9c4"/>
          </g>
        </g>
        <g id="Grupo_1176126" data-name="Grupo 1176126" transform="translate(117.302 451.832)">
          <g id="Grupo_1176125" data-name="Grupo 1176125" transform="translate(0 0)" clip-path="url(#clip-path-4)">
            <path id="Trazado_929415" data-name="Trazado 929415" d="M2.6,5.2A2.6,2.6,0,1,1,5.2,2.6,2.6,2.6,0,0,1,2.6,5.2" transform="translate(0 0)" fill="#b2c9c4"/>
            <path id="Trazado_929416" data-name="Trazado 929416" d="M2.6,25.612a2.6,2.6,0,1,1,2.6-2.6,2.6,2.6,0,0,1-2.6,2.6" transform="translate(0 -0.052)" fill="#b2c9c4"/>
            <path id="Trazado_929417" data-name="Trazado 929417" d="M2.6,46.029a2.6,2.6,0,1,1,2.6-2.6,2.6,2.6,0,0,1-2.6,2.6" transform="translate(0 -0.104)" fill="#b2c9c4"/>
            <path id="Trazado_929418" data-name="Trazado 929418" d="M2.6,66.445a2.6,2.6,0,1,1,2.6-2.6,2.6,2.6,0,0,1-2.6,2.6" transform="translate(0 -0.156)" fill="#b2c9c4"/>
            <path id="Trazado_929419" data-name="Trazado 929419" d="M2.6,86.862a2.6,2.6,0,1,1,2.6-2.6,2.6,2.6,0,0,1-2.6,2.6" transform="translate(0 -0.209)" fill="#b2c9c4"/>
          </g>
        </g>
        <g id="Grupo_1176128" data-name="Grupo 1176128" transform="translate(448.553 23.304)" opacity="0.4">
          <g id="Grupo_1176127" data-name="Grupo 1176127" clip-path="url(#clip-path-5)">
            <path id="Trazado_929420" data-name="Trazado 929420" d="M13.763,629.753a16.193,16.193,0,0,1,4.61,13.621A16.226,16.226,0,0,1,.142,625.143a16.193,16.193,0,0,1,13.621,4.61" transform="translate(0 -527.47)" fill="#b2c9c4"/>
            <path id="Trazado_929421" data-name="Trazado 929421" d="M150.573,638.764a16.192,16.192,0,0,1-13.621,4.61,16.226,16.226,0,0,1,18.231-18.231,16.193,16.193,0,0,1-4.61,13.621" transform="translate(-115.461 -527.47)" fill="#b2c9c4"/>
            <path id="Trazado_929422" data-name="Trazado 929422" d="M13.763,754.753a16.193,16.193,0,0,1,4.61,13.621A16.226,16.226,0,0,1,.142,750.143a16.193,16.193,0,0,1,13.621,4.61" transform="translate(0 -632.964)" fill="#b2c9c4"/>
            <path id="Trazado_929423" data-name="Trazado 929423" d="M150.573,763.764a16.192,16.192,0,0,1-13.621,4.61,16.226,16.226,0,0,1,18.231-18.231,16.193,16.193,0,0,1-4.61,13.621" transform="translate(-115.461 -632.964)" fill="#b2c9c4"/>
            <path id="Trazado_929424" data-name="Trazado 929424" d="M13.763,879.753a16.193,16.193,0,0,1,4.61,13.621A16.226,16.226,0,0,1,.142,875.143a16.193,16.193,0,0,1,13.621,4.61" transform="translate(0 -738.458)" fill="#b2c9c4"/>
            <path id="Trazado_929425" data-name="Trazado 929425" d="M150.573,888.764a16.193,16.193,0,0,1-13.621,4.61,16.226,16.226,0,0,1,18.231-18.231,16.193,16.193,0,0,1-4.61,13.621" transform="translate(-115.461 -738.458)" fill="#b2c9c4"/>
            <path id="Trazado_929426" data-name="Trazado 929426" d="M13.763,129.753a16.193,16.193,0,0,1,4.61,13.621A16.226,16.226,0,0,1,.142,125.143a16.192,16.192,0,0,1,13.621,4.61" transform="translate(0 -105.495)" fill="#b2c9c4"/>
            <path id="Trazado_929427" data-name="Trazado 929427" d="M150.573,138.764a16.193,16.193,0,0,1-13.621,4.61,16.226,16.226,0,0,1,18.231-18.231,16.192,16.192,0,0,1-4.61,13.621" transform="translate(-115.461 -105.495)" fill="#b2c9c4"/>
            <path id="Trazado_929428" data-name="Trazado 929428" d="M13.763,254.753a16.193,16.193,0,0,1,4.61,13.621A16.226,16.226,0,0,1,.142,250.143a16.192,16.192,0,0,1,13.621,4.61" transform="translate(0 -210.989)" fill="#b2c9c4"/>
            <path id="Trazado_929429" data-name="Trazado 929429" d="M150.573,263.764a16.193,16.193,0,0,1-13.621,4.61,16.226,16.226,0,0,1,18.231-18.231,16.192,16.192,0,0,1-4.61,13.62" transform="translate(-115.461 -210.988)" fill="#b2c9c4"/>
            <path id="Trazado_929430" data-name="Trazado 929430" d="M13.763,379.753a16.193,16.193,0,0,1,4.61,13.621A16.226,16.226,0,0,1,.142,375.143a16.192,16.192,0,0,1,13.621,4.61" transform="translate(0 -316.482)" fill="#b2c9c4"/>
            <path id="Trazado_929431" data-name="Trazado 929431" d="M150.573,388.764a16.193,16.193,0,0,1-13.621,4.61,16.226,16.226,0,0,1,18.231-18.231,16.193,16.193,0,0,1-4.61,13.621" transform="translate(-115.461 -316.482)" fill="#b2c9c4"/>
            <path id="Trazado_929432" data-name="Trazado 929432" d="M13.763,504.753a16.193,16.193,0,0,1,4.61,13.621A16.226,16.226,0,0,1,.142,500.143a16.193,16.193,0,0,1,13.621,4.61" transform="translate(0 -421.976)" fill="#b2c9c4"/>
            <path id="Trazado_929433" data-name="Trazado 929433" d="M150.573,513.764a16.193,16.193,0,0,1-13.621,4.61,16.226,16.226,0,0,1,18.231-18.231,16.193,16.193,0,0,1-4.61,13.621" transform="translate(-115.461 -421.976)" fill="#b2c9c4"/>
            <path id="Trazado_929434" data-name="Trazado 929434" d="M13.763,4.753a16.193,16.193,0,0,1,4.61,13.621,16.192,16.192,0,0,1-13.621-4.61A16.193,16.193,0,0,1,.142.143a16.192,16.192,0,0,1,13.621,4.61" transform="translate(0 -0.001)" fill="#b2c9c4"/>
            <path id="Trazado_929435" data-name="Trazado 929435" d="M150.573,13.764a16.193,16.193,0,0,1-13.621,4.61A16.226,16.226,0,0,1,155.183.143a16.192,16.192,0,0,1-4.61,13.621" transform="translate(-115.461 -0.001)" fill="#b2c9c4"/>
          </g>
        </g>
      </g>
    </g>
  </g>
</svg>
