<svg xmlns="http://www.w3.org/2000/svg" width="114" height="114" viewBox="0 0 114 114">
  <g id="Grupo_1177694" data-name="Grupo 1177694" transform="translate(-1234.5 -458)">
    <g id="Elipse_12108" data-name="Elipse 12108" transform="translate(1241.5 465)" fill="#f3bc5b" stroke="rgba(255,255,255,0.4)" stroke-width="7">
      <circle cx="50" cy="50" r="50" stroke="none"/>
      <circle cx="50" cy="50" r="53.5" fill="none"/>
    </g>
    <g id="Grupo_1178861" data-name="Grupo 1178861" transform="translate(1263.977 442.497)">
      <path id="Trazado_937327" data-name="Trazado 937327" d="M53.972,54.625H49.709l2.284-2.412a1.075,1.075,0,1,0-1.561-1.478l-3.21,3.39-3.11-3.379A1.075,1.075,0,0,0,42.529,52.2l2.23,2.423H36.547l2.284-2.412a1.075,1.075,0,1,0-1.561-1.478l-3.21,3.39-3.11-3.379A1.075,1.075,0,1,0,29.368,52.2l2.23,2.423H23.386l2.284-2.412a1.075,1.075,0,1,0-1.561-1.478l-3.21,3.39-3.11-3.379A1.075,1.075,0,0,0,16.206,52.2l2.23,2.423H10.224l2.284-2.412a1.075,1.075,0,1,0-1.561-1.478l-3.21,3.39-3.11-3.379A1.075,1.075,0,1,0,3.044,52.2l2.23,2.423h-4.2a1.075,1.075,0,0,0,0,2.15h52.9a1.075,1.075,0,0,0,0-2.15Z" transform="translate(0)" fill="#004e3d"/>
      <path id="Trazado_937328" data-name="Trazado 937328" d="M53.972,133.84H1.075A1.075,1.075,0,0,0,0,134.915V168a1.075,1.075,0,0,0,1.075,1.075H5.82a1.083,1.083,0,0,0,.765-.32l4.7-4.761,4.765,4.767a1.086,1.086,0,0,0,1.528-.008l4.593-4.688,4.644,4.692a1.086,1.086,0,0,0,1.531,0l4.616-4.7,4.619,4.7a1.085,1.085,0,0,0,1.535,0l4.665-4.761,4.682,4.762a1.086,1.086,0,0,0,.767.321h4.745A1.075,1.075,0,0,0,55.047,168V156.211a1.075,1.075,0,0,0-2.15,0v10.718H50.3V135.99H52.9v10.763a1.075,1.075,0,1,0,2.15,0V134.915A1.075,1.075,0,0,0,53.972,133.84ZM4.745,166.928H2.15V135.99H4.745ZM46.668,135.99l-2.9,2.962L40.82,135.99ZM16.715,147.532l3.887,3.954-3.923,3.978-3.907-3.948Zm-5.456,2.456-3.923-3.963,3.981-3.983L15.207,146ZM18.227,146l3.944-3.985,3.879,3.945-3.938,3.992Zm9.33,1.493,3.925,3.992-3.925,4.006-3.938-4.006Zm1.51-1.531,3.9-3.959,3.921,3.96-3.905,3.986Zm9.338,1.53,3.92,3.959-3.929,4-3.9-3.968Zm1.5-1.536,3.867-3.947,3.937,3.956-3.883,3.952Zm-1.562-9.4,3.912,3.932L38.4,144.431l-3.915-3.955Zm-2.462-.566-2.918,2.958-2.928-2.958Zm-4.428,4.489-3.9,3.953-3.876-3.942,3.893-3.933Zm-6.347-4.489-2.936,2.966L19.26,135.99Zm-4.448,4.495L16.72,144.47l-3.883-3.95,3.963-3.965Zm-6.339-4.495-2.995,3-2.946-3Zm-7.43,1.552,2.915,2.965-2.915,2.917Zm0,11.093,2.851,2.881L6.895,154.4Zm0,16.747v-5.774l2.867,2.868Zm4.377-4.437-3.936-3.937,3.923-3.964,3.91,3.95Zm5.528,5.53-4.008-4.009,3.889-3.943,3.975,4.016ZM22.161,161l-3.97-4.011,3.918-3.972,3.943,4.011Zm5.413,5.469-3.9-3.94,3.887-3.967,3.892,3.959Zm5.385-5.482-3.894-3.961,3.925-4.006,3.9,3.966Zm5.385,5.478-3.878-3.945,3.931-4,3.873,3.939Zm5.431-5.543L39.9,156.988l3.934-4,3.879,3.918Zm4.376,4.451-2.869-2.918,2.869-2.928Zm0-11.093-2.806-2.835,2.806-2.857Zm0-10.925-2.868-2.883,2.868-2.928Z" transform="translate(0 -74.471)" fill="#004e3d"/>
      <path id="Trazado_937329" data-name="Trazado 937329" d="M494.006,288.236a1.074,1.074,0,1,0-.3,1.49A1.083,1.083,0,0,0,494.006,288.236Z" transform="translate(-439.141 -211.844)" fill="#004e3d"/>
    </g>
  </g>
</svg>
