<svg xmlns="http://www.w3.org/2000/svg" width="100" height="100" viewBox="0 0 100 100">
  <g id="Grupo_1177665" data-name="Grupo 1177665" transform="translate(-637 -6992)">
    <g id="Grupo_1098742" data-name="Grupo 1098742" transform="translate(637.242 6992)">
      <rect id="Rectángulo_400898" data-name="Rectángulo 400898" width="100" height="100" rx="50" transform="translate(-0.242)" fill="#fff" opacity="0.859"/>
      <g id="Rectángulo_400907" data-name="Rectángulo 400907" transform="translate(-0.242)" fill="none" stroke="#f3bc5b" stroke-linecap="round" stroke-width="3" stroke-dasharray="0 7">
        <rect width="100" height="100" rx="50" stroke="none"/>
        <rect x="1.5" y="1.5" width="97" height="97" rx="48.5" fill="none"/>
      </g>
    </g>
    <g id="Grupo_1107006" data-name="Grupo 1107006" transform="translate(645.398 7000.157)">
      <rect id="Rectángulo_400898-2" data-name="Rectángulo 400898" width="84" height="84" rx="42" transform="translate(-0.399 -0.157)" fill="#004e3d" opacity="0.859"/>
      <rect id="Rectángulo_400907-2" data-name="Rectángulo 400907" width="84" height="84" rx="42" transform="translate(-0.398 -0.157)" fill="none"/>
    </g>
    <g id="Grupo_1177667" data-name="Grupo 1177667" transform="translate(661.751 7016.752)">
      <circle id="Elipse_13596" data-name="Elipse 13596" cx="24.509" cy="24.509" r="24.509" transform="translate(0.739 0.741)" fill="#ffe17d"/>
      <path id="Trazado_933199" data-name="Trazado 933199" d="M35.568,103.163A24.506,24.506,0,0,1,16.552,63.2,24.506,24.506,0,1,0,51.026,97.67,24.4,24.4,0,0,1,35.568,103.163Z" transform="translate(-6.761 -56.962)" fill="#ffd164"/>
      <path id="Trazado_933200" data-name="Trazado 933200" d="M198.414,344.665a35.8,35.8,0,0,1-5.929-.481c-.238-.04-.442.135-.369.317.846,2.1,3.343,3.63,6.3,3.63s5.452-1.526,6.3-3.63c.073-.182-.131-.357-.369-.317A35.8,35.8,0,0,1,198.414,344.665Z" transform="translate(-173.155 -310.232)" fill="#9c6846"/>
      <path id="Trazado_933201" data-name="Trazado 933201" d="M1.49,24.531A23.766,23.766,0,0,1,40.934,7.394a.74.74,0,0,0,.977-1.111A25.246,25.246,0,0,0,6.282,41.913a.74.74,0,1,0,1.111-.977A23.676,23.676,0,0,1,1.49,24.531Z" transform="translate(0 0)"/>
      <path id="Trazado_933202" data-name="Trazado 933202" d="M120.386,84.758a.74.74,0,1,0-1.111.977,23.766,23.766,0,0,1-33.541,33.541.74.74,0,1,0-.977,1.111,25.139,25.139,0,0,0,16.662,6.283q.381,0,.764-.011a25.246,25.246,0,0,0,18.2-41.9Z" transform="translate(-76.171 -76.171)"/>
      <path id="Trazado_933203" data-name="Trazado 933203" d="M191.671,342.09c3.193,0,6-1.645,6.985-4.094a.935.935,0,0,0-.143-.946,1.091,1.091,0,0,0-1.035-.376,36.046,36.046,0,0,1-11.614,0,1.091,1.091,0,0,0-1.035.376.935.935,0,0,0-.144.946C185.67,340.445,188.477,342.09,191.671,342.09Zm0-3.467a37.036,37.036,0,0,0,5.154-.352,6.847,6.847,0,0,1-10.308,0A37.033,37.033,0,0,0,191.671,338.624Z" transform="translate(-166.408 -303.453)"/>
      <path id="Trazado_933204" data-name="Trazado 933204" d="M132.176,235.5a4.812,4.812,0,0,0,3.739-1.858.74.74,0,1,0-1.153-.927,3.215,3.215,0,0,1-5.173,0,.74.74,0,0,0-1.153.927A4.812,4.812,0,0,0,132.176,235.5Z" transform="translate(-115.622 -209.512)"/>
      <path id="Trazado_933205" data-name="Trazado 933205" d="M312.318,233.641a.74.74,0,0,0-1.153-.927,3.215,3.215,0,0,1-5.172,0,.74.74,0,0,0-1.153.927,4.692,4.692,0,0,0,7.479,0Z" transform="translate(-274.627 -209.512)"/>
      <path id="Trazado_933206" data-name="Trazado 933206" d="M121.593,168.828a.74.74,0,0,0-.921-.5l-7.907,2.372a.74.74,0,1,0,.425,1.417l7.907-2.372A.74.74,0,0,0,121.593,168.828Z" transform="translate(-101.168 -151.701)"/>
      <path id="Trazado_933207" data-name="Trazado 933207" d="M313.293,172.152a.74.74,0,0,0,.212-1.448l-7.907-2.372a.74.74,0,0,0-.425,1.417l7.907,2.372A.738.738,0,0,0,313.293,172.152Z" transform="translate(-274.6 -151.7)"/>
    </g>
  </g>
</svg>
