<svg xmlns="http://www.w3.org/2000/svg" xmlns:xlink="http://www.w3.org/1999/xlink" width="200" height="200" viewBox="0 0 200 200">
  <defs>
    <clipPath id="clip-path">
      <rect id="Rectángulo_455037" data-name="Rectángulo 455037" width="200" height="200" rx="20" transform="translate(1010 16466.5)" fill="#b2be91"/>
    </clipPath>
  </defs>
  <g id="Enmascarar_grupo_1098997" data-name="Enmascarar grupo 1098997" transform="translate(-1010 -16466.5)" clip-path="url(#clip-path)">
    <g id="_423034372_3cf31496-7e65-4942-be13-0eb33f1c989c" data-name="423034372_3cf31496-7e65-4942-be13-0eb33f1c989c" transform="translate(978.116 16463.178)">
      <g id="Ñëîé_1" transform="translate(-0.116)">
        <g id="Grupo_1177719" data-name="Grupo 1177719">
          <rect id="Rectángulo_454749" data-name="Rectángulo 454749" width="315" height="194.332" fill="#f7f1da"/>
          <circle id="Elipse_13604" data-name="Elipse 13604" cx="28.802" cy="28.802" r="28.802" transform="translate(195.127 36.617)" fill="#fff" opacity="0.39"/>
          <circle id="Elipse_13605" data-name="Elipse 13605" cx="35.217" cy="35.217" r="35.217" transform="translate(188.712 30.202)" fill="#fff" opacity="0.39"/>
          <circle id="Elipse_13606" data-name="Elipse 13606" cx="22.528" cy="22.528" r="22.528" transform="translate(201.401 42.891)" fill="#fff"/>
          <path id="Trazado_933425" data-name="Trazado 933425" d="M290.722,392.549v-13.23h-8.742v13.23h-2.846V387.7l-4.076-4.133v-41.7h-3.065v2.967H246.5v-2.967H243.43v31.229l-4.744,3.869v9.319h-5.5V366.3l-4.371-1.994V353.235H216.476v5.439L212.1,356.68v29.6h-2.121v-2.534H206v2.534h-4.8v-5.693h-1.5V374.4h-6.235v-1.644h-3.471V374.4h-1.35v6.186h-1.5v26.423h-2.806v-5h-3.407v5h-1.644v-40.1h-2.47v-3.043h-4.693v3.043h-2.9V341.322L139.788,356.68V402h-4.5V382.656H134.1v-1.3h-3.408v1.3h-1.154V356.7h-4.174v-7.788h-1.165V356.7H120.02V373.47h-3.856v6.184h-3.826V316.527h-3.943v-1.284h-6.085v1.284H98.366v4.321H86.6v-2.556H83.2v2.556H80.711v71.7H75.7v-3.093H72.164v-6.8h-2.25v-1.694H67.728v1.694h-2.25V344.829H63.131v-1.406H59.724v1.406H48.83v-4.821H41.5v-6.984H39.83v6.984H38.095v4.821H33.852v44.627H29.866v3.093H25.86v-8.127H0v46.94H314.96V392.549Z" transform="translate(0.041 -282.147)" fill="#e5dbcf"/>
          <path id="Trazado_933426" data-name="Trazado 933426" d="M2632.216,1097.674a17.161,17.161,0,0,1-2.359,5.964l10.561.975a10.813,10.813,0,0,1-1.255-2.252l-.005-.015c-.006-.016-.012-.032-.018-.049a15.32,15.32,0,0,1-.832-3.683c-.594-5.947-.608-10.62-.608-10.622a8.777,8.777,0,0,1,.32-1.729c1.177-3.574,7.425-9.784,7.523-9.881h0q.771-.775,1.539-1.551l-.351-.562a25.869,25.869,0,0,0-3.588,2.51,30.262,30.262,0,0,1,1.322-6.423l-.456-.356a47.767,47.767,0,0,0-2.362,8.013c-1.5,1.271-2.84,2.477-3.594,3.069a6.454,6.454,0,0,1-.519.423l-.139.1-.006,0,.994-14.036c-.252.16-.5.319-.755.48a1.384,1.384,0,0,1-1.609-.147l-1.6,13.944c-.473,2.742-1.031,2.651-1.233,2.506l-.079-.075a16.51,16.51,0,0,0-1.805-1.458c-.142-1.412-.66-4.75-2.5-6.933l-.247.356a9.4,9.4,0,0,1,1.242,5.605,30.359,30.359,0,0,0-3.528-1.781c-.177-.076-.445.742-.445.742,4.724,3.032,6.284,6.574,6.8,8.684a22.747,22.747,0,0,1-.4,8.174Z" transform="translate(-2350.105 -955.494)" fill="#664334"/>
          <path id="Trazado_933427" data-name="Trazado 933427" d="M2507.107,834.46a2.337,2.337,0,0,0,.293.657.947.947,0,0,0-.157,0,2.368,2.368,0,0,0-1.362.948,2.564,2.564,0,0,0,1.066.639c0,.039-.005.078-.006.117a2.334,2.334,0,0,0,.6,1.627,2.733,2.733,0,0,0-.229,1.36,2.2,2.2,0,0,0,1.588-.48.943.943,0,0,0,.093-.116c.075.009.152.016.229.018a2.334,2.334,0,0,0,.865-.14,4.665,4.665,0,0,0,.541,1.255,2.784,2.784,0,0,0-.206,1.317,2.6,2.6,0,0,0,1.177-.193,4.668,4.668,0,0,0,1.184.727,1.963,1.963,0,0,0-.329.906,1.562,1.562,0,0,0,1.173-.125.861.861,0,0,0,.307-.461,4.723,4.723,0,0,0,.54.047,4.657,4.657,0,0,0,1.726-.278,2.191,2.191,0,0,0,.512.511,1.631,1.631,0,0,0,.467-1,4.694,4.694,0,0,0,.808-.677.646.646,0,0,0,.039.075,1.684,1.684,0,0,0,1.034.567,1.561,1.561,0,0,0-.048-1.179.852.852,0,0,0-.382-.314,4.653,4.653,0,0,0,.413-.91,3.644,3.644,0,0,0,2.4.3.861.861,0,0,0,.507.351,1.684,1.684,0,0,0,1.124-.36,1.953,1.953,0,0,0-.4-.512,3.679,3.679,0,0,0,.549-.445l.079-.014c.009.019.02.038.03.055a1.684,1.684,0,0,0,1.035.567,1.738,1.738,0,0,0,.041-.987,4.016,4.016,0,0,0,1.27-1.005,1.978,1.978,0,0,0,.87.376,1.561,1.561,0,0,0-.048-1.179.784.784,0,0,0-.2-.212,1.1,1.1,0,1,1,2.067-.734,4,4,0,0,0,.882-.074.732.732,0,0,0,.076.172,1.684,1.684,0,0,0,1.035.567,1.612,1.612,0,0,0-.018-1.126,4,4,0,0,0,.673-.448,1.685,1.685,0,0,0,1.034.566,1.56,1.56,0,0,0-.048-1.179.788.788,0,0,0-.22-.225,3.975,3.975,0,0,0,.686-2.047,2.252,2.252,0,0,0,.414.115,1.563,1.563,0,0,0-.048-1.179.81.81,0,0,0-.243-.24c.119-.038.235-.08.349-.128a3.1,3.1,0,0,0,.543,1.264.893.893,0,0,0-.066.077,2.367,2.367,0,0,0-.213,1.645,2.2,2.2,0,0,0,1.52-.667c.009-.011.016-.024.024-.036a3.092,3.092,0,0,0,.985.25,4,4,0,0,0,.464,3.5,1.215,1.215,0,0,0,.167.841,1.659,1.659,0,0,0,.8.566,2.263,2.263,0,0,0-.059.547,1.561,1.561,0,0,0,1.148-.27.671.671,0,0,0,.08-.089,4,4,0,0,0,2.313.018,1.062,1.062,0,0,0,.192.291,2.368,2.368,0,0,0,1.588.481,2.271,2.271,0,0,0-.347-1.54,4.012,4.012,0,0,0,.588-.607,3.129,3.129,0,0,0,.679,1.181,1.856,1.856,0,0,0,.23,1.026,1.924,1.924,0,0,0,.62-.369,3.1,3.1,0,0,0,.947.318.846.846,0,0,0,.059.721,1.684,1.684,0,0,0,1.035.567,1.562,1.562,0,0,0-.048-1.179.7.7,0,0,0-.078-.1,3.121,3.121,0,0,0,.365-.076,2.59,2.59,0,0,0,1.341.657,2.38,2.38,0,0,0,.04-1.459,3.131,3.131,0,0,0,.247-.275,3.2,3.2,0,0,0,.679.205,2.792,2.792,0,0,0,.138-.7,1.212,1.212,0,0,0,.8.042c.708-.232,1.118-1.226,1.118-1.226a2.2,2.2,0,0,0-1.627-.326,1.15,1.15,0,0,0-.441.283c0-.044.006-.087.007-.131a3.289,3.289,0,0,0-.009-.334,2.821,2.821,0,0,0,.806-1.022,2.47,2.47,0,0,0-1.293-.422,3.141,3.141,0,0,0-.541-.635q.167-.16.322-.332a1.193,1.193,0,0,0,.885.48,2.369,2.369,0,0,0,1.468-.774,2.2,2.2,0,0,0-1.42-.858.936.936,0,0,0-.125.005,5.885,5.885,0,0,0,.49-1.211,1.116,1.116,0,0,0,.449-.03c.715-.212,1.153-1.193,1.153-1.193a2.777,2.777,0,0,0-.649-.317,2.351,2.351,0,0,0,1.269-1.271.983.983,0,0,0,.2-.036c.715-.212,1.153-1.193,1.153-1.193a2.46,2.46,0,0,0-1.305-.422,2.332,2.332,0,0,0-.166-.374,1.651,1.651,0,0,0,.221-.882,1.7,1.7,0,0,0-.791.2q-.057-.048-.118-.091a1.093,1.093,0,0,0,.222-.344,2.367,2.367,0,0,0-.241-1.641,2.2,2.2,0,0,0-1.282,1.053,1.145,1.145,0,0,0-.062.5,2.338,2.338,0,0,0-.7.105,4,4,0,0,0,.345-2.007.7.7,0,0,0,.471-.613,1.422,1.422,0,0,0-.594-.083,3.979,3.979,0,0,0-.338-.849,1.539,1.539,0,0,0,.848-.125,1.186,1.186,0,0,0-1.026-.688.906.906,0,0,0,.4-.534,2.454,2.454,0,0,0-1.157-.059l.016-.02a2.369,2.369,0,0,0,.228-1.643,2.2,2.2,0,0,0-1.525.653.974.974,0,0,0-.1.166,3.077,3.077,0,0,0-.451-.915,2.338,2.338,0,0,0-1.058,1.074l-.067.006a2.984,2.984,0,0,0-.316-1.082,2.2,2.2,0,0,0-1.282,1.053,1.117,1.117,0,0,0-.066.434,3.188,3.188,0,0,0-.37-.673,2.6,2.6,0,0,0-.9.776l-.025-.042a.839.839,0,1,0-1.064-1.143,6.335,6.335,0,0,0,1.123-.9,1.21,1.21,0,0,0,.906.123c.715-.212,1.153-1.193,1.153-1.193a2.685,2.685,0,0,0-.973-.4,6.273,6.273,0,0,0,.371-.836.97.97,0,0,0,.1.074,2.368,2.368,0,0,0,1.656.108,2.283,2.283,0,0,0-.679-1.414,2.953,2.953,0,0,0,.894-.753,2.211,2.211,0,0,0-1.471-.734,1.185,1.185,0,0,0,.307-.546,2.367,2.367,0,0,0-.489-1.585,2.706,2.706,0,0,0-.431.28,6.3,6.3,0,0,0-.654-1.187,3.126,3.126,0,0,0,.781-.514,2.2,2.2,0,0,0-1.348-.966,1.2,1.2,0,0,0-.683.153l-.043-.034a1.036,1.036,0,0,0,.459-.45,2.029,2.029,0,0,0-.1-1.419,1.882,1.882,0,0,0-1.165.815,1,1,0,0,0-.084.474c-.161-.087-.325-.168-.495-.241a3.511,3.511,0,0,0,.725-1.907.938.938,0,0,0,.319-.128,2.029,2.029,0,0,0,.645-1.267,2.126,2.126,0,0,0-1.156-.025,3.542,3.542,0,0,0-1.007-1.485.959.959,0,0,0,.023-.179,2.367,2.367,0,0,0-.776-1.467,2.64,2.64,0,0,0-.72.878,3.507,3.507,0,0,0-.414-.077,2.789,2.789,0,0,0-.729-1.113,2.32,2.32,0,0,0-.843,1.273c-.044.015-.087.031-.13.048a1.025,1.025,0,0,0,.04-.246,2.368,2.368,0,0,0-.776-1.467,2.463,2.463,0,0,0-.8,1.1,3.124,3.124,0,0,0-.843-.46,2.659,2.659,0,0,0-.3,1.067,9.367,9.367,0,0,0-.954-.895,1.129,1.129,0,0,0,.12-.455,2.367,2.367,0,0,0-.776-1.467,2.569,2.569,0,0,0-.759.969,9.279,9.279,0,0,0-.885-.424,3.149,3.149,0,0,0-.146-.869,2.673,2.673,0,0,0-1.008.387.806.806,0,0,0-.08-.69,1.608,1.608,0,0,0-1.008-.5,1.544,1.544,0,0,0,.055,1.07,9.4,9.4,0,0,0-1.123-.1c-.225-.006-.448,0-.668.005a2.9,2.9,0,0,0-.121-1.221,2.3,2.3,0,0,0-1.366.723,3,3,0,0,0-.964-.564,2.253,2.253,0,0,0-.236,1.581,9.254,9.254,0,0,0-1.1.471,3.082,3.082,0,0,0-.608-.8,2.482,2.482,0,0,0-.8,1.082,3.035,3.035,0,0,0-1.064-.165,2.375,2.375,0,0,0,.263,1.446q-.3.281-.567.588a3.123,3.123,0,0,0-.583-.755,2.2,2.2,0,0,0-.856,1.421,1.166,1.166,0,0,0,.132.541,3.137,3.137,0,0,0-.529-.009,2.74,2.74,0,0,0,.091.938,3.159,3.159,0,0,0-.871-.064,2.2,2.2,0,0,0,.463,1.593.958.958,0,0,0,.134.109c-.01.037-.019.074-.028.111a1.014,1.014,0,0,0-.266-.028,2.368,2.368,0,0,0-1.415.867,2.235,2.235,0,0,0,1.426.765c-.009.133-.017.267-.021.4a9.393,9.393,0,0,0,.06,1.347,3.124,3.124,0,0,0-.942.095,2.3,2.3,0,0,0,.65,1.4,2.344,2.344,0,0,0-2.1,1.5,1.181,1.181,0,0,0-.4-.482,2.368,2.368,0,0,0-1.655-.12,2.693,2.693,0,0,0,.313,1,5.511,5.511,0,0,0-2.24.646.961.961,0,0,0-.04-.088,2.368,2.368,0,0,0-1.393-.9,2.426,2.426,0,0,0-.152,1.4l-.01,0a2.368,2.368,0,0,0-1.6.431,2.275,2.275,0,0,0,1.107,1.123,5.513,5.513,0,0,0-.772,2.112,2.51,2.51,0,0,0-1.553-.061,2.195,2.195,0,0,0,.751,1.479,1.212,1.212,0,0,0,.8.169c.021.152.048.3.082.45a2.353,2.353,0,0,0-.372.387.856.856,0,0,0-.253-.165,1.884,1.884,0,0,0-1.309.173,2.006,2.006,0,0,0,.556.871,1.913,1.913,0,0,0-.733.689,1.561,1.561,0,0,0,1.11.4.736.736,0,0,0,.2-.066,2.343,2.343,0,0,0,3.444,1.56,1.848,1.848,0,0,0,.085,1.053,1.562,1.562,0,0,0,.993-.636.739.739,0,0,0,.067-.19,5.565,5.565,0,0,0,3.4-.05,2.345,2.345,0,0,0,.412,1.659,2.19,2.19,0,0,0-.669.276,1.965,1.965,0,0,0,.346.532,4.935,4.935,0,0,0-1.6.294c0-.013.009-.027.012-.04a1.684,1.684,0,0,0-.314-1.137,1.562,1.562,0,0,0-.812.855.858.858,0,0,0,.054.528,3.974,3.974,0,0,0-2.312-1.01,1.945,1.945,0,0,0-.336-.916,1.562,1.562,0,0,0-.813.855.684.684,0,0,0-.019.127,3.961,3.961,0,0,0-.842.273,2.9,2.9,0,0,0-.866-.872,2.2,2.2,0,0,0-.59,1.551,1.055,1.055,0,0,0,.108.321l-.033.038a.791.791,0,0,0-.166-.094,1.884,1.884,0,0,0-1.309.173,1.769,1.769,0,0,0,.8,1.023,4,4,0,0,0,1.335,4.713,2.359,2.359,0,0,0-.241.458c-.02-.016-.04-.031-.06-.044a2.367,2.367,0,0,0-1.655-.12,2.2,2.2,0,0,0,.751,1.479,1.212,1.212,0,0,0,.885.154Zm26.938-31.394a.633.633,0,0,0,.1,0l-.049.071Z" transform="translate(-2242.227 -713.875)" fill="#3db038"/>
          <path id="Trazado_933428" data-name="Trazado 933428" d="M244.977,1115.468a15.543,15.543,0,0,0,2.021,5.45l-9.586.677a9.8,9.8,0,0,0,1.181-2.016l.005-.013.017-.044a13.883,13.883,0,0,0,.826-3.32c.654-5.376.759-9.61.759-9.611a7.935,7.935,0,0,0-.257-1.572c-1-3.261-6.535-9.009-6.623-9.1h0q-.683-.717-1.364-1.436l.329-.5a23.44,23.44,0,0,1,3.2,2.344,27.424,27.424,0,0,0-1.072-5.845l.42-.313a43.278,43.278,0,0,1,1.983,7.306c1.336,1.181,2.524,2.3,3.2,2.85a5.891,5.891,0,0,0,.462.393l.124.092.005,0-.626-12.736c.226.15.451.3.675.45a1.254,1.254,0,0,0,1.461-.1l1.18,12.665c.375,2.493.882,2.422,1.068,2.294l.073-.066a14.953,14.953,0,0,1,1.664-1.285,12.315,12.315,0,0,1,2.4-6.232l.217.328a8.519,8.519,0,0,0-1.235,5.054,27.5,27.5,0,0,1,3.231-1.545c.162-.065.388.681.388.681-4.339,2.654-5.822,5.833-6.329,7.735a20.616,20.616,0,0,0,.206,7.414Z" transform="translate(-207.563 -973.844)" fill="#664334"/>
          <path id="Trazado_933429" data-name="Trazado 933429" d="M143.317,849.005a1.99,1.99,0,0,0,.623-1.368,2.145,2.145,0,0,0-1.493.172c-.018.013-.036.027-.053.042a2.129,2.129,0,0,0-.236-.405,3.621,3.621,0,0,0,1.027-4.318,1.6,1.6,0,0,0,.688-.958,1.708,1.708,0,0,0-1.192-.106.721.721,0,0,0-.147.091l-.031-.033a.96.96,0,0,0,.085-.295,1.99,1.99,0,0,0-.594-1.381,2.624,2.624,0,0,0-.75.823,3.6,3.6,0,0,0-.773-.215.626.626,0,0,0-.022-.114,1.415,1.415,0,0,0-.769-.743,1.765,1.765,0,0,0-.269.843,3.6,3.6,0,0,0-2.054,1,.778.778,0,0,0,.029-.48,1.415,1.415,0,0,0-.769-.743,1.526,1.526,0,0,0-.24,1.042c0,.012.008.024.013.036a4.472,4.472,0,0,0-1.464-.2,1.78,1.78,0,0,0,.293-.495,1.984,1.984,0,0,0-.616-.224,2.125,2.125,0,0,0,.309-1.518,5.043,5.043,0,0,0,3.083-.086.666.666,0,0,0,.068.169,1.416,1.416,0,0,0,.924.538,1.675,1.675,0,0,0,.037-.957,2.123,2.123,0,0,0,3.058-1.545.663.663,0,0,0,.182.052,1.415,1.415,0,0,0,.989-.406,1.732,1.732,0,0,0-.69-.6,1.818,1.818,0,0,0,.47-.81,1.708,1.708,0,0,0-1.192-.106.779.779,0,0,0-.223.159,2.134,2.134,0,0,0-.352-.336c.025-.135.043-.272.057-.41a1.1,1.1,0,0,0,.716-.184,1.99,1.99,0,0,0,.623-1.368,2.273,2.273,0,0,0-1.4.115,5,5,0,0,0-.781-1.883,2.061,2.061,0,0,0,.959-1.059,2.145,2.145,0,0,0-1.467-.329l-.009,0a2.2,2.2,0,0,0-.192-1.264,2.146,2.146,0,0,0-1.226.87.845.845,0,0,0-.033.081,4.994,4.994,0,0,0-2.053-.5,2.44,2.44,0,0,0,.245-.913,2.145,2.145,0,0,0-1.493.172,1.072,1.072,0,0,0-.34.452,2.124,2.124,0,0,0-1.959-1.276,2.086,2.086,0,0,0,.534-1.3,2.828,2.828,0,0,0-.857-.05,8.471,8.471,0,0,0,0-1.222c-.009-.122-.02-.242-.034-.363a2.026,2.026,0,0,0,1.261-.748,2.145,2.145,0,0,0-1.314-.73.923.923,0,0,0-.24.036c-.01-.033-.019-.066-.03-.1a.877.877,0,0,0,.118-.1,1.99,1.99,0,0,0,.358-1.46,2.864,2.864,0,0,0-.786.091,2.483,2.483,0,0,0,.046-.853,2.825,2.825,0,0,0-.478.029,1.051,1.051,0,0,0,.1-.495,1.99,1.99,0,0,0-.83-1.253,2.824,2.824,0,0,0-.5.706q-.257-.267-.536-.511a2.151,2.151,0,0,0,.182-1.319,2.747,2.747,0,0,0-.957.191,2.25,2.25,0,0,0-.765-.948,2.8,2.8,0,0,0-.52.75,8.4,8.4,0,0,0-1.015-.384,2.043,2.043,0,0,0-.274-1.423,2.719,2.719,0,0,0-.851.548,2.089,2.089,0,0,0-1.264-.6,2.627,2.627,0,0,0-.062,1.11c-.2,0-.4.007-.606.021a8.466,8.466,0,0,0-1.013.133,1.4,1.4,0,0,0,.008-.971,1.456,1.456,0,0,0-.893.5.731.731,0,0,0-.045.628,2.424,2.424,0,0,0-.928-.312,2.86,2.86,0,0,0-.1.793,8.349,8.349,0,0,0-.785.418,2.331,2.331,0,0,0-.725-.849,2.146,2.146,0,0,0-.646,1.358,1.02,1.02,0,0,0,.127.407,8.477,8.477,0,0,0-.829.847,2.406,2.406,0,0,0-.317-.954,2.824,2.824,0,0,0-.745.449,2.234,2.234,0,0,0-.771-.968,2.145,2.145,0,0,0-.646,1.358.911.911,0,0,0,.045.221l-.12-.038a2.1,2.1,0,0,0-.812-1.12,2.524,2.524,0,0,0-.617,1.035,3.178,3.178,0,0,0-.372.085,2.391,2.391,0,0,0-.686-.767,2.145,2.145,0,0,0-.646,1.358.875.875,0,0,0,.028.161,3.205,3.205,0,0,0-.854,1.383,1.925,1.925,0,0,0-1.046.067,1.839,1.839,0,0,0,.633,1.123.849.849,0,0,0,.294.1,3.181,3.181,0,0,0,.73,1.7c-.15.073-.3.152-.439.237a.9.9,0,0,0-.094-.426,1.706,1.706,0,0,0-1.086-.693,1.838,1.838,0,0,0-.034,1.288.938.938,0,0,0,.433.389l-.038.033a1.087,1.087,0,0,0-.624-.112,1.99,1.99,0,0,0-1.184.927,2.835,2.835,0,0,0,.727.435,5.714,5.714,0,0,0-.547,1.1,2.466,2.466,0,0,0-.4-.237,2.146,2.146,0,0,0-.382,1.454,1.072,1.072,0,0,0,.3.482,2,2,0,0,0-1.3.721,2.678,2.678,0,0,0,.839.648,2.069,2.069,0,0,0-.56,1.306,2.145,2.145,0,0,0,1.495-.161.836.836,0,0,0,.085-.07,5.672,5.672,0,0,0,.369.742,2.435,2.435,0,0,0-.866.4s.434.872,1.09,1.036a1.1,1.1,0,0,0,.816-.146,5.751,5.751,0,0,0,1.051.774,2.318,2.318,0,0,0-1.1-.273,2.338,2.338,0,0,0,.178,1.348l-.021.039a2.355,2.355,0,0,0-.848-.667,2.894,2.894,0,0,0-.309.623,1.009,1.009,0,0,0-.076-.39,1.99,1.99,0,0,0-1.2-.9,2.711,2.711,0,0,0-.245.992l-.06,0a2.12,2.12,0,0,0-1-.932,2.789,2.789,0,0,0-.373.846.888.888,0,0,0-.1-.146,1.99,1.99,0,0,0-1.406-.532,2.145,2.145,0,0,0,.269,1.479l.015.017a2.224,2.224,0,0,0-1.046.1.821.821,0,0,0,.384.468,1.075,1.075,0,0,0-.9.662,1.393,1.393,0,0,0,.773.08,3.6,3.6,0,0,0-.274.781,1.287,1.287,0,0,0-.535.1.638.638,0,0,0,.45.537,3.653,3.653,0,0,0,.005.416,3.61,3.61,0,0,0,.384,1.388,2.121,2.121,0,0,0-.633-.068,1.032,1.032,0,0,0-.076-.446,1.99,1.99,0,0,0-1.2-.9,2.146,2.146,0,0,0-.155,1.5.994.994,0,0,0,.214.3c-.036.028-.07.057-.1.087a1.539,1.539,0,0,0-.724-.148,1.5,1.5,0,0,0,.234.79,2.122,2.122,0,0,0-.136.345,2.229,2.229,0,0,0-1.166.432s.434.871,1.09,1.036a.9.9,0,0,0,.187.025,2.13,2.13,0,0,0,1.2,1.1,2.521,2.521,0,0,0-.576.312s.434.872,1.09,1.036a1.014,1.014,0,0,0,.408.01,5.347,5.347,0,0,0,.49,1.078.841.841,0,0,0-.114,0,1.99,1.99,0,0,0-1.253.831,2.146,2.146,0,0,0,1.358.644,1.081,1.081,0,0,0,.783-.469q.146.15.3.288a2.846,2.846,0,0,0-.465.6,2.238,2.238,0,0,0-1.155.432,2.555,2.555,0,0,0,.769.894,2.89,2.89,0,0,0,0,.3c0,.04.007.079.011.119a1.04,1.04,0,0,0-.41-.239,1.99,1.99,0,0,0-1.46.357s.409.884,1.059,1.067a1.1,1.1,0,0,0,.72-.069,2.516,2.516,0,0,0,.152.627,2.9,2.9,0,0,0,.607-.212,2.823,2.823,0,0,0,.234.24,2.159,2.159,0,0,0,.092,1.32,2.347,2.347,0,0,0,1.189-.647,2.791,2.791,0,0,0,.334.055.632.632,0,0,0-.067.095,1.415,1.415,0,0,0,0,1.069,1.525,1.525,0,0,0,.915-.553.766.766,0,0,0,.025-.655,2.812,2.812,0,0,0,.845-.324,1.746,1.746,0,0,0,.576.31,1.682,1.682,0,0,0,.169-.938,2.832,2.832,0,0,0,.569-1.1,3.646,3.646,0,0,0,.555.527,2.06,2.06,0,0,0-.255,1.408,2.145,2.145,0,0,0,1.419-.5.964.964,0,0,0,.163-.271,3.623,3.623,0,0,0,2.094-.105.625.625,0,0,0,.076.077,1.415,1.415,0,0,0,1.05.2,2.055,2.055,0,0,0-.075-.493,1.5,1.5,0,0,0,.7-.543,1.1,1.1,0,0,0,.119-.768,3.622,3.622,0,0,0,.286-3.186,2.8,2.8,0,0,0,.882-.265c.008.011.015.022.024.032a1.99,1.99,0,0,0,1.4.545,2.145,2.145,0,0,0-.256-1.481.8.8,0,0,0-.062-.068,2.806,2.806,0,0,0,.443-1.166c.1.039.212.073.321.1a.728.728,0,0,0-.211.227,1.415,1.415,0,0,0,0,1.069,2.047,2.047,0,0,0,.37-.12,3.6,3.6,0,0,0,.7,1.826.719.719,0,0,0-.191.213,1.415,1.415,0,0,0,0,1.069,1.527,1.527,0,0,0,.914-.552,3.626,3.626,0,0,0,.626.38,1.462,1.462,0,0,0,.027,1.02,1.525,1.525,0,0,0,.915-.553.653.653,0,0,0,.062-.159,3.615,3.615,0,0,0,2.386-.46,3.6,3.6,0,0,0,.316,1.078.708.708,0,0,0-.175.2,1.415,1.415,0,0,0,0,1.069,1.794,1.794,0,0,0,.773-.374,3.634,3.634,0,0,0,1.188.861,1.575,1.575,0,0,0,.075.892,1.525,1.525,0,0,0,.915-.553c.009-.016.018-.033.025-.051l.072.009a3.33,3.33,0,0,0,.514.382,1.771,1.771,0,0,0-.34.479,1.525,1.525,0,0,0,1.031.283.781.781,0,0,0,.446-.338,3.3,3.3,0,0,0,2.165-.364,4.211,4.211,0,0,0,.409.808.773.773,0,0,0-.334.3,1.415,1.415,0,0,0,0,1.069,1.525,1.525,0,0,0,.915-.553.61.61,0,0,0,.032-.069,4.253,4.253,0,0,0,.758.582,1.478,1.478,0,0,0,.461.892,1.984,1.984,0,0,0,.444-.483,4.224,4.224,0,0,0,1.573.185,4.28,4.28,0,0,0,.487-.063.78.78,0,0,0,.3.406,1.415,1.415,0,0,0,1.067.068,1.777,1.777,0,0,0-.333-.808,4.234,4.234,0,0,0,1.044-.7,2.355,2.355,0,0,0,1.073.129,2.523,2.523,0,0,0-.237-1.184,4.219,4.219,0,0,0,.442-1.157,2.12,2.12,0,0,0,.789.093c.07,0,.139-.013.207-.025a.858.858,0,0,0,.088.1,1.99,1.99,0,0,0,1.456.373,2.475,2.475,0,0,0-.26-1.222,2.116,2.116,0,0,0,.477-1.5c0-.036-.006-.071-.01-.106a2.323,2.323,0,0,0,.94-.62,2.145,2.145,0,0,0-1.269-.806.862.862,0,0,0-.143.005,2.117,2.117,0,0,0,.241-.606,1.1,1.1,0,0,0,.8-.173Zm-26.431-27.146-.047-.063a.575.575,0,0,0,.087,0l-.039.066Z" transform="translate(-90.111 -730.81)" fill="#3db038"/>
          <path id="Trazado_933430" data-name="Trazado 933430" d="M314.96,1284.727v21.943H0v-26.316a8.054,8.054,0,0,1,2.6,3.639,4.225,4.225,0,0,1,6.357.72,6.222,6.222,0,0,1,9.193-3.507,4.917,4.917,0,0,1,7.878-5.64,13.271,13.271,0,0,1,20.665-4.419,4.914,4.914,0,0,1,7.341,1,2.937,2.937,0,0,1,4.321,3.927,5.174,5.174,0,0,1,7.244,2.913,4.917,4.917,0,0,1,8.465-1.9,3.878,3.878,0,0,1-.057-.654,3.789,3.789,0,0,1,6.305-2.836,10.22,10.22,0,0,1,15.669-.755,3.79,3.79,0,0,1,6.436,2,7.294,7.294,0,0,1,10.632,8.164,3.788,3.788,0,0,1,5.078-1.022,5.9,5.9,0,0,1,10.351-4.963,6.25,6.25,0,0,1,11.864,2.585,3.79,3.79,0,0,1,4.872,5.239,6.305,6.305,0,0,1,1.851-.277,6.225,6.225,0,0,1,2.214.406,5.173,5.173,0,0,1,7.87-1.983,8.039,8.039,0,0,1,14.739,1,4.225,4.225,0,0,1,6.357.72,6.222,6.222,0,0,1,9.193-3.507,4.889,4.889,0,0,1-.483-2.011c0-.037,0-.075,0-.113v-.009a4.9,4.9,0,0,1,1.062-3.054c.07-.087.142-.173.218-.256a4.916,4.916,0,0,1,7.083-.2,13.272,13.272,0,0,1,20.361-4.674c.1.083.2.168.3.254.094-.083.191-.161.292-.235a4.822,4.822,0,0,1,1.387-.728,4.924,4.924,0,0,1,3.236.041,4.932,4.932,0,0,1,2.426,1.918,2.937,2.937,0,0,1,4.321,3.927,5.179,5.179,0,0,1,7.244,2.913,4.923,4.923,0,0,1,5.75-3.5c.134.028.266.062.4.1a4.921,4.921,0,0,1,2.319,1.5,3.878,3.878,0,0,1-.057-.654,3.789,3.789,0,0,1,6.305-2.836,10.217,10.217,0,0,1,15.669-.755,3.79,3.79,0,0,1,6.436,2,7.334,7.334,0,0,1,1.059-.487,7.295,7.295,0,0,1,9.574,8.65,3.788,3.788,0,0,1,5.078-1.022,5.915,5.915,0,0,1-.131-1.236c0-.122,0-.243.011-.365a5.9,5.9,0,0,1,10.471-3.363,6.249,6.249,0,0,1,11.864,2.585,3.79,3.79,0,0,1,4.872,5.239c.15-.045.3-.086.454-.121Z" transform="translate(0.041 -1134.82)" fill="#3db038"/>
          <rect id="Rectángulo_454750" data-name="Rectángulo 454750" width="314.96" height="50.005" transform="translate(0.041 159.968)" fill="#88d643"/>
          <path id="Trazado_933431" data-name="Trazado 933431" d="M2770.819,542.729h-14.145s-.535-.517-.4-.933a2.25,2.25,0,0,1,2-.992,1.482,1.482,0,0,1-.348-1.5,1.525,1.525,0,0,1,2.3-.48,1.91,1.91,0,0,1,.8,1.376s-.8-2.048.768-2.592a2.03,2.03,0,0,1,2.72,1.952,1.614,1.614,0,0,1,1.92-.928,1.214,1.214,0,0,1,.864,1.849s.192-.685,1.568-.37a.976.976,0,0,1,.736,1.5,1.719,1.719,0,0,1,1.568.4c.64.653-.352.721-.352.721Z" transform="translate(-2466.845 -481.055)" fill="#fff"/>
          <path id="Trazado_933432" data-name="Trazado 933432" d="M2569.82,92.6h-24.667s-.933-.9-.689-1.626,1.638-1.674,3.48-1.73a2.585,2.585,0,0,1-.606-2.623c.551-1.507,2.671-1.786,4.011-.837a3.333,3.333,0,0,1,1.4,2.4s-1.4-3.572,1.339-4.52a3.539,3.539,0,0,1,4.743,3.4,2.814,2.814,0,0,1,3.349-1.618c2.511.558,1.73,2.708,1.507,3.224,0,0,.335-1.194,2.734-.646a1.7,1.7,0,0,1,1.284,2.613,3,3,0,0,1,2.735.7c1.116,1.139-.614,1.258-.614,1.258Z" transform="translate(-2277.252 -74.692)" fill="#fff"/>
          <path id="Trazado_933433" data-name="Trazado 933433" d="M242.975,291.075h-26.73s-1.011-.976-.747-1.762,1.775-1.814,3.771-1.875a2.8,2.8,0,0,1-.657-2.842c.6-1.633,2.895-1.935,4.346-.907a3.611,3.611,0,0,1,1.512,2.6s-1.512-3.87,1.451-4.9,5.443,1.633,5.14,3.689a3.049,3.049,0,0,1,3.628-1.754c2.721.6,1.875,2.935,1.633,3.493,0,0,.363-1.294,2.963-.7a1.845,1.845,0,0,1,1.391,2.831,3.248,3.248,0,0,1,2.963.762c1.21,1.234-.665,1.363-.665,1.363Z" transform="translate(-192.794 -251.644)" fill="#fff"/>
          <path id="Trazado_933434" data-name="Trazado 933434" d="M1225.071,266.552h-37.3s-1.41-1.362-1.043-2.46,2.477-2.532,5.262-2.616a3.909,3.909,0,0,1-.917-3.966c.833-2.279,4.04-2.7,6.065-1.266a5.039,5.039,0,0,1,2.11,3.629s-2.11-5.4,2.025-6.836,7.6,2.279,7.174,5.148a4.255,4.255,0,0,1,5.063-2.447c3.8.844,2.616,4.1,2.279,4.875,0,0,.506-1.805,4.135-.977a2.574,2.574,0,0,1,1.941,3.951A4.533,4.533,0,0,1,1226,264.65c1.688,1.722-.928,1.9-.928,1.9Z" transform="translate(-1062.041 -226.187)" fill="#fff"/>
          <path id="Trazado_933435" data-name="Trazado 933435" d="M690.928,108.585H676.2s-.557-.538-.412-.971a2.344,2.344,0,0,1,2.078-1.033,1.544,1.544,0,0,1-.362-1.566,1.588,1.588,0,0,1,2.395-.5,1.99,1.99,0,0,1,.833,1.433s-.833-2.133.8-2.7a2.113,2.113,0,0,1,2.833,2.033,1.68,1.68,0,0,1,2-.966,1.264,1.264,0,0,1,.9,1.925s.2-.713,1.633-.386a1.016,1.016,0,0,1,.766,1.56,1.79,1.79,0,0,1,1.633.42c.666.68-.367.751-.367.751Z" transform="translate(-604.776 -92.297)" fill="#fff"/>
          <path id="Trazado_933436" data-name="Trazado 933436" d="M109.009,1592.76c0,.186.639.337,1.427.337s1.427-.151,1.427-.337-.639-.337-1.427-.337S109.009,1592.574,109.009,1592.76Z" transform="translate(-97.524 -1425.24)" fill="#7a6a67"/>
          <path id="Trazado_933437" data-name="Trazado 933437" d="M2553.76,1699.48c0,.186.639.337,1.427.337s1.427-.151,1.427-.337-.639-.337-1.427-.337S2553.76,1699.294,2553.76,1699.48Z" transform="translate(-2285.609 -1520.756)" fill="#7a6a67"/>
          <g id="Grupo_1177718" data-name="Grupo 1177718" transform="translate(0.041 164.432)">
            <path id="Trazado_933438" data-name="Trazado 933438" d="M1903.269,1595.17v5.766l-128.649-4.98S1857.714,1597.178,1903.269,1595.17Z" transform="translate(-1588.309 -1592.131)" fill="#adea71"/>
            <path id="Trazado_933439" data-name="Trazado 933439" d="M2743.286,1662.69a5.436,5.436,0,0,1-.716,2.4,1.9,1.9,0,0,0-.205.383,3.737,3.737,0,0,0-.094-1.61,3.843,3.843,0,0,1,.739-2.679s-1.934,1.452-1.524,2.817a5.565,5.565,0,0,1,.21,2.223,9.652,9.652,0,0,1-.4-1.024,3.2,3.2,0,0,0-1.817-1.666,2.78,2.78,0,0,1,1.183,1.68,2.018,2.018,0,0,0,.767,1.558h1.241a1.434,1.434,0,0,1,.047-.717,6.739,6.739,0,0,0,.758-1.971,4.143,4.143,0,0,0-.188-1.392Z" transform="translate(-2451.87 -1651.213)" fill="#3db038"/>
            <path id="Trazado_933440" data-name="Trazado 933440" d="M107.6,1569.449,0,1582.234v-7.412l49.321-3.789-42.2-4.813Z" transform="translate(0 -1566.22)" fill="#adea71"/>
            <path id="Trazado_933441" data-name="Trazado 933441" d="M379.759,1653.351a7.462,7.462,0,0,1-.982,3.291,2.634,2.634,0,0,0-.281.526,5.125,5.125,0,0,0-.128-2.209c-.468-1.608,1.014-3.676,1.014-3.676s-2.653,1.992-2.091,3.865a7.635,7.635,0,0,1,.289,3.05,13.134,13.134,0,0,1-.549-1.4,4.383,4.383,0,0,0-2.493-2.286,3.814,3.814,0,0,1,1.623,2.3,2.768,2.768,0,0,0,1.052,2.137h1.7a1.967,1.967,0,0,1,.064-.983,9.236,9.236,0,0,0,1.04-2.7,5.685,5.685,0,0,0-.258-1.91Z" transform="translate(-335.215 -1642.353)" fill="#3db038"/>
            <path id="Trazado_933442" data-name="Trazado 933442" d="M506.686,1754.775c0,.14.482.254,1.076.254s1.076-.114,1.076-.254-.482-.254-1.076-.254S506.686,1754.635,506.686,1754.775Z" transform="translate(-453.491 -1734.752)" fill="#7a6a67"/>
          </g>
          <rect id="Rectángulo_454751" data-name="Rectángulo 454751" width="314.96" height="36.735" transform="translate(0.041 173.237)" fill="#65657f"/>
          <path id="Trazado_933443" data-name="Trazado 933443" d="M575.534,1462.231a.633.633,0,0,1-.482.41c-.422.062-.927-.146-1.653-1.06,0,0,1.362-.557,1.963.067l.026.027c-.1-.341-.165-.644-.211-.9a.643.643,0,0,1-.519-.27c-.256-.372-.3-.949.234-2.067,0,0,1.166,1.033.855,1.9a.554.554,0,0,1-.34.392c.041.229.1.5.184.8.109-.4.488-.766,1.566-1.07,0,0-.011,1.43-.8,1.736a.529.529,0,0,1-.582-.06,10.9,10.9,0,0,0,.627,1.458.535.535,0,0,1,.013-.083c.093-.381.445-.739,1.475-1.042,0,0,0,1.353-.735,1.65a.482.482,0,0,1-.463,0,12.068,12.068,0,0,0,.974,1.418l-.185.147a12.249,12.249,0,0,1-1-1.458c0,.028,0,.058,0,.09a.6.6,0,0,1-.383.461c-.384.126-.889.015-1.715-.72,0,0,1.179-.741,1.842-.257l.027.02a11.178,11.178,0,0,1-.713-1.644c0,.018-.006.037-.01.057Z" transform="translate(-513.158 -1305.323)" fill="#88d643"/>
          <path id="Trazado_933444" data-name="Trazado 933444" d="M2436.33,1474.625a.5.5,0,0,0,.384.327c.335.049.737-.116,1.315-.843,0,0-1.083-.443-1.562.053l-.021.021c.078-.271.131-.512.168-.715a.512.512,0,0,0,.413-.215c.2-.3.235-.755-.186-1.644,0,0-.928.822-.68,1.509a.441.441,0,0,0,.271.311c-.033.182-.08.4-.146.639-.086-.315-.388-.609-1.246-.851,0,0,.009,1.138.633,1.38a.421.421,0,0,0,.464-.048,8.714,8.714,0,0,1-.5,1.16.471.471,0,0,0-.01-.066c-.074-.3-.354-.588-1.173-.829,0,0,0,1.076.585,1.312a.383.383,0,0,0,.369,0,9.59,9.59,0,0,1-.774,1.128l.147.117a9.666,9.666,0,0,0,.795-1.16c0,.023,0,.046,0,.072a.477.477,0,0,0,.3.367c.305.1.707.012,1.364-.573,0,0-.938-.589-1.465-.2l-.021.016a8.873,8.873,0,0,0,.567-1.307c0,.015,0,.03.008.046Z" transform="translate(-2178.827 -1317.11)" fill="#88d643"/>
          <path id="Trazado_933445" data-name="Trazado 933445" d="M2267.387,1491.527a3.54,3.54,0,0,1-.466,1.561,1.241,1.241,0,0,0-.133.249,2.427,2.427,0,0,0-.061-1.048,2.5,2.5,0,0,1,.481-1.744s-1.259.945-.992,1.833a3.621,3.621,0,0,1,.137,1.447,6.247,6.247,0,0,1-.26-.666,2.079,2.079,0,0,0-1.183-1.084,1.809,1.809,0,0,1,.77,1.093,1.313,1.313,0,0,0,.5,1.014h.807a.934.934,0,0,1,.031-.466,4.38,4.38,0,0,0,.493-1.283A2.7,2.7,0,0,0,2267.387,1491.527Z" transform="translate(-2027.083 -1334.058)" fill="#88d643"/>
          <path id="Trazado_933446" data-name="Trazado 933446" d="M743.856,638.785q-.387-.192-.814-.453Q743.437,638.549,743.856,638.785Z" transform="translate(-664.992 -571.316)" fill="#2aab28"/>
          <path id="Trazado_933447" data-name="Trazado 933447" d="M1610.95,1025.589l.043-.036Z" transform="translate(-1441.781 -917.883)" fill="#f9a78f"/>
          <path id="Trazado_933448" data-name="Trazado 933448" d="M1611.36,1025.205l.047-.04Z" transform="translate(-1442.148 -917.536)" fill="#f9a78f"/>
          <rect id="Rectángulo_454752" data-name="Rectángulo 454752" width="3.128" height="5.108" transform="translate(100.725 48.556)" fill="#fff"/>
          <rect id="Rectángulo_454753" data-name="Rectángulo 454753" width="3.128" height="5.108" transform="translate(118.018 113.876)" fill="#fff"/>
          <rect id="Rectángulo_454754" data-name="Rectángulo 454754" width="3.128" height="5.108" transform="translate(249.113 70.737)" fill="#fff"/>
          <rect id="Rectángulo_454755" data-name="Rectángulo 454755" width="3.128" height="5.108" transform="translate(260.518 80.789)" fill="#fff"/>
          <rect id="Rectángulo_454756" data-name="Rectángulo 454756" width="3.128" height="5.108" transform="translate(95.098 55.699)" fill="#fff"/>
          <path id="Trazado_933449" data-name="Trazado 933449" d="M2532.658,725.962h-3.128v-5.108h3.128v5.108Z" transform="translate(-2263.923 -645.174)" fill="#fff"/>
          <rect id="Rectángulo_454757" data-name="Rectángulo 454757" width="3.128" height="5.108" transform="translate(216.265 86.047)" fill="#fff"/>
          <rect id="Rectángulo_454758" data-name="Rectángulo 454758" width="3.128" height="5.108" transform="translate(225.772 113.876)" fill="#fff"/>
          <rect id="Rectángulo_454759" data-name="Rectángulo 454759" width="3.128" height="5.108" transform="translate(84.954 74.883)" fill="#fff"/>
          <rect id="Rectángulo_454760" data-name="Rectángulo 454760" width="3.128" height="5.108" transform="translate(39.585 69.705)" fill="#fff"/>
          <rect id="Rectángulo_454761" data-name="Rectángulo 454761" width="3.128" height="5.108" transform="translate(9.051 130.387)" fill="#fff"/>
          <path id="Trazado_933450" data-name="Trazado 933450" d="M473.31,1550.893a.478.478,0,0,1-.364.31c-.318.046-.7-.11-1.247-.8,0,0,1.027-.42,1.481.05l.02.02c-.073-.257-.124-.486-.159-.678a.485.485,0,0,1-.391-.2c-.193-.281-.223-.716.176-1.559,0,0,.88.779.645,1.431a.417.417,0,0,1-.257.3c.031.173.076.376.139.606.082-.3.368-.578,1.182-.807,0,0-.008,1.079-.6,1.309a.4.4,0,0,1-.439-.046,8.235,8.235,0,0,0,.473,1.1.386.386,0,0,1,.01-.062c.07-.287.336-.558,1.113-.786,0,0,0,1.02-.555,1.244a.363.363,0,0,1-.35,0,9.086,9.086,0,0,0,.734,1.07l-.14.111a9.232,9.232,0,0,1-.754-1.1c0,.021,0,.043,0,.068a.453.453,0,0,1-.289.348c-.289.095-.67.011-1.293-.543,0,0,.89-.559,1.389-.194l.02.015a8.446,8.446,0,0,1-.538-1.24c0,.014,0,.028-.007.043Z" transform="translate(-422.136 -1385.509)" fill="#88d643"/>
          <path id="Trazado_933451" data-name="Trazado 933451" d="M1749.526,1573a2.67,2.67,0,0,1-.352,1.178.928.928,0,0,0-.1.188,1.835,1.835,0,0,0-.046-.79,1.886,1.886,0,0,1,.363-1.315s-.949.713-.748,1.383a2.734,2.734,0,0,1,.1,1.091,4.7,4.7,0,0,1-.2-.5,1.569,1.569,0,0,0-.892-.818,1.365,1.365,0,0,1,.581.825.991.991,0,0,0,.376.765h.609a.7.7,0,0,1,.023-.352,3.309,3.309,0,0,0,.372-.968A2.037,2.037,0,0,0,1749.526,1573Z" transform="translate(-1564.135 -1407.196)" fill="#88d643"/>
          <path id="Trazado_933452" data-name="Trazado 933452" d="M1714.44,672.879v.006S1714.447,672.879,1714.44,672.879Z" transform="translate(-1534.406 -602.236)" fill="#834b3d"/>
          <path id="Trazado_933453" data-name="Trazado 933453" d="M1714.03,688.707v.015s0-.01,0-.015Z" transform="translate(-1534.039 -616.402)" fill="#834b3d"/>
          <path id="Trazado_933454" data-name="Trazado 933454" d="M1827.2,306.893h0Z" transform="translate(-1635.324 -274.671)" fill="#2e2b32"/>
        </g>
        <ellipse id="Elipse_13607" data-name="Elipse 13607" cx="127.278" cy="8.085" rx="127.278" ry="8.085" transform="translate(30.242 184.658)" fill="#3e3e54"/>
        <g id="Grupo_1177741" data-name="Grupo 1177741" transform="translate(36.073 42.307)">
          <path id="Trazado_933455" data-name="Trazado 933455" d="M2105.64,780.533c9.069,2.5,19.637,31.39,21.764,40.2,3.327,13.782-11.226-10.637-11.226-10.637l-8.049-23.2Z" transform="translate(-1920.608 -740.895)" fill="#a2e5ff"/>
          <g id="Grupo_1177723" data-name="Grupo 1177723">
            <path id="Trazado_933456" data-name="Trazado 933456" d="M825.9,797.186s.232,4.065,1.9,6.372a5.066,5.066,0,0,1,.545,1.018,9.922,9.922,0,0,1,.249-4.277c.906-3.113-1.963-7.117-1.963-7.117s5.137,3.857,4.049,7.483a14.785,14.785,0,0,0-.56,5.9,25.488,25.488,0,0,0,1.063-2.719c1.025-3.076,4.828-4.426,4.828-4.426s-2.9,1.915-3.143,4.462c-.293,3.076-2.037,4.138-2.037,4.138h-3.3a3.81,3.81,0,0,0-.124-1.9c-.342-.879-1.721-2.893-2.014-5.237A11.01,11.01,0,0,1,825.9,797.186Z" transform="translate(-774.748 -752.216)" fill="#3db038"/>
            <path id="Trazado_933457" data-name="Trazado 933457" d="M542.612,912.595c-1.189,1.333-4.37,1.958-7.887,2.342h0c-5.379.588-11.541.614-12.555,1.751-.692.776,2.619,7.168,5.265,10.326a1.048,1.048,0,0,1,.05,1.269c-.047.068-.087.134-.122.2h0a2.3,2.3,0,0,0,0,2.532c.694,1.386,1.58,1.334,1.764,2.2a1.238,1.238,0,0,1,.022.136,2.072,2.072,0,0,1,.01.351v0c-.006.064-.016.131-.028.2a3.138,3.138,0,0,1-.825,1.786,1.44,1.44,0,0,1-.585.371c-1.306.74-3.781,1.557-4.919,1.178a5.867,5.867,0,0,1-.706-2.818,5.236,5.236,0,0,1,.856-2.844,5.784,5.784,0,0,1-2.177-2.88s0,0,0,0l-.264-.753a0,0,0,0,1,0,0c-1.436-4.057-5.341-11.787-5.524-12.212-1.068-2.469-.074-4.455,1.611-6.02,1.076-1,7.722-3.367,12.4-4.952,2.655-.9,4.675-1.548,4.675-1.548S545.622,909.224,542.612,912.595Z" transform="translate(-496.553 -850.688)" fill="#934744"/>
            <path id="Trazado_933458" data-name="Trazado 933458" d="M344.287,423.942a.644.644,0,0,0-1.076.481,7.169,7.169,0,0,0,1.9,5.076c2.625,2.646,4.036,2.736,4.036,2.736l2.75-2.327a13.557,13.557,0,0,0-4.25-3.963,25.722,25.722,0,0,1-3.365-2Z" transform="translate(-343.211 -421.593)" fill="#934744"/>
            <path id="Trazado_933459" data-name="Trazado 933459" d="M1179.153,902.089s-2.653,17.193-4.7,22.851l-.087.238a4.152,4.152,0,0,0-3,4.037v0a2.167,2.167,0,0,0,.047.982,2.141,2.141,0,0,1,.059.86q-.021.1-.045.191a2.727,2.727,0,0,1-1.215,1.8c-1.686,1.084-4.777.118-5.62-.725a.456.456,0,0,1-.107-.271h0a5.714,5.714,0,0,1,.766-2.441,6.327,6.327,0,0,1,2.365-2.362,4.508,4.508,0,0,1,.288-4.01c.022-.042.047-.085.071-.129l0-.006c.28-.511.918-2.126,1.3-2.986.017-.038.034-.075.05-.113.351-.789.446-1.854.765-2.84.011-.033.022-.067.033-.1s.026-.079.033-.1l.005-.015,0-.015v0c1.192-3.78,1.83-12.96-1.158-16.645-4.052-5-5.489-9.281-5.86-12.448a11.652,11.652,0,0,1,.585-5.875l5.659-3.611,9.39,10.232a15.085,15.085,0,0,0-1.018,4.516,19.6,19.6,0,0,0,1.383,8.991Z" transform="translate(-1076.974 -828.442)" fill="#934744"/>
            <path id="Trazado_933460" data-name="Trazado 933460" d="M1371.955,747.22s-16.482-2.278-14.384-14.928c3.248-19.578-5.63-17.878-6.713-18.419s-1.174-2.708-1.174-2.708,10.969-1.342,16.372,11.316c2.287,5.358.361,10.925,4.093,15.53-2.2-.482-3.262-3.19-3.262-3.19.271,1.724,2.6,6.8,4.646,8.367a8.175,8.175,0,0,1-4.454-2.588c.7,3.616,4.649,6.461,4.865,6.614l.007.005,0,0Z" transform="translate(-1244.018 -678.772)" fill="#e0d8b8"/>
            <path id="Trazado_933461" data-name="Trazado 933461" d="M459.642,512.967c-.238,1.97-.687,7.28-1.347,10.34h0a58.937,58.937,0,0,0-1.384,8.881c-.361,6.862,1.324,7.54-.361,8.986a2.294,2.294,0,0,0-.776,1.408,3.171,3.171,0,0,0-.039.385c0,.037,0,.075,0,.113a3.979,3.979,0,0,0,.032.518,2.054,2.054,0,0,1,.09.514c.055.947-.43,2.809-5.349,2.122,0,0-1.716-.185-1.565-1.389.036-.286.091-.694.178-1.183a8.4,8.4,0,0,1,.354-1.219,7.527,7.527,0,0,1,2.477-3.407h0c-.036-.015-.328-.227-.5-3.278h0c-.015-.556-.047-3.311-.09-4-.1-1.549-.255-3.387-.406-5.321-.192-2.472-.617-7.578-.658-9.97-.079-4.478-2.516-9.143-4.87-12.412a22.781,22.781,0,0,0-3.316-3.795,33.163,33.163,0,0,1-4.455-4.815s-.175.105-.511.293A64.2,64.2,0,0,1,430.8,498.8c-1.274.537-2.7,1.1-4.265,1.653a70.446,70.446,0,0,1-19.557,4.034,56.914,56.914,0,0,1-7.245-.07q-.317-.022-.634-.051c-.185-.016-.371-.033-.555-.051l-.143-.014s-3.023,9.426-4.214,13.062c-4.209,12.844-.3,18.7-1.018,19.6-2.01,2.511-.677,3.527-.446,5.323.005.038.01.076.014.115.021.212.045.421.068.618a2.162,2.162,0,0,1,0,.483,2.12,2.12,0,0,1-1.613,1.837,8.457,8.457,0,0,1-5.357-.156h0a5.559,5.559,0,0,1,.06-3.137,5.286,5.286,0,0,1,2.292-2.814.516.516,0,0,1-.21-.063h0c-.322-.161-.9-.736-.943-2.775v0c.036-.481.054-.978.05-1.49,0-.081-.01-.161,0-.243.745-10.391-.658-18.283-1.809-26.8a14.055,14.055,0,0,0-.6-2.65,14.049,14.049,0,0,1-1.885-1.548h0a20.11,20.11,0,0,1-5.734-10.184,20.985,20.985,0,0,1-.446-3.075c0-.049-.007-.1-.012-.148-.776-10.038-11.18-23.084-11.66-23.563-.053-.053-.157-.018-.3.088h0a12.37,12.37,0,0,0-2.59,1.191c-.525.467-4.914,8.735-5.985,10.165-.035.047-.066.085-.093.117a.363.363,0,0,0-.027.034c-.953,1.177-1.953,2.145-2.781,2.283a4.913,4.913,0,0,1-1.861-.095c-.333-.072-.659-.165-.971-.258-1.068-.318-1.99-.647-2.584-.25-1.084.722-3.388-.571-2.889-4.093.218-1.535.434-3.05.643-4.52l.036.028,2.769-13.523s-1.041-.077-.706-2.946c0-.022.006-.046.008-.069.006-.049.013-.1.019-.152,0-.014,0-.028.005-.041a16.6,16.6,0,0,1,1.688-5.6,14.381,14.381,0,0,1,.977-1.53q.148-.2.308-.4c.094-.118.192-.234.292-.349a8.589,8.589,0,0,1,6.26-3.078,10.307,10.307,0,0,1,1.042,0c4.936.241,38.036,24.794,46.342,26.48a22.169,22.169,0,0,0,4.14.357c1.245.009,2.583-.046,3.969-.147,3.516-.256,7.337-.81,10.7-1.4h0c5.376-.933,9.6-1.945,9.6-1.945a24.664,24.664,0,0,1,12.415.631,16.569,16.569,0,0,1,1.671.693s6.621,2.889,8.667,9.751-1.324,16.854-.722,20.827,4.213,9.344,4.695,12.113a7.01,7.01,0,0,1-.037,1.913Z" transform="translate(-344.623 -439.403)" fill="#aa5e57"/>
            <path id="Trazado_933462" data-name="Trazado 933462" d="M375.91,452.5c-4.374,3.281-6.1,3.727-5.432,5.618.527,1.493,3.466.482,4.469-.642s.482-4.214,3.05-4.775S376.33,452.187,375.91,452.5Z" transform="translate(-367.491 -447.096)" fill="#e0d8b8"/>
            <path id="Trazado_933463" data-name="Trazado 933463" d="M462.787,441.948a9.159,9.159,0,0,1,6.441,5.139c1.806,4.334,4.838,3.25,4.115.542s6.472,14.381,8.447,14.562c1.357.124,1.637-3.249,1.637-3.249s2.408,5.837,4.936,6.2a1.789,1.789,0,0,0,2.287-1.986s4.153,6.932,6.862,6.837.6-4.85.6-4.85,4.432,4.85,7.343,4.85c2.184,0,2.184-2.308,2.184-2.308s-39.617-28.527-44.854-25.735Z" transform="translate(-450.233 -437.684)" fill="#e0d8b8"/>
            <path id="Trazado_933464" data-name="Trazado 933464" d="M858.022,891.8q-.593-.043-1.189-.1a12.81,12.81,0,0,0,3.519-9.73,15.629,15.629,0,0,0-1.088-5.076l.872-.391a16.264,16.264,0,0,1,1.17,5.385,13.985,13.985,0,0,1-3.283,9.914Z" transform="translate(-802.909 -826.787)" fill="#934744"/>
            <path id="Trazado_933465" data-name="Trazado 933465" d="M399.838,403.144a.644.644,0,0,0-1.076.481,7.168,7.168,0,0,0,1.9,5.076c2.625,2.646,4.036,2.736,4.036,2.736l2.75-2.327a13.557,13.557,0,0,0-4.25-3.963A25.709,25.709,0,0,1,399.838,403.144Z" transform="translate(-392.93 -402.978)" fill="#aa5e57"/>
            <path id="Trazado_933466" data-name="Trazado 933466" d="M1191.926,837.667a12.77,12.77,0,0,1-3.555-8.29,12.178,12.178,0,0,1,.459-4.074l.906.3a11.47,11.47,0,0,0-.409,3.766,11.679,11.679,0,0,0,3.293,7.639l-.694.656Z" transform="translate(-1099.628 -780.964)" fill="#934744"/>
            <path id="Trazado_933467" data-name="Trazado 933467" d="M412.372,551.3s2.359-3.313,3.706-3.875.562,2.471-.9,3.257a5.136,5.136,0,0,1-2.808.618Z" transform="translate(-405.111 -532.201)" fill="#3a3434"/>
            <path id="Trazado_933468" data-name="Trazado 933468" d="M372.652,742.219c-.305.018-1.806.321-1.806,1.244s-.12,1.445,1.485,1.164S375.983,742.019,372.652,742.219Z" transform="translate(-367.943 -706.593)" fill="#3a3434"/>
            <path id="Trazado_933469" data-name="Trazado 933469" d="M411.053,424.96h0a9.656,9.656,0,0,0-4.619-2.287c.052.026,5.237,2.683,6.341,6.077l.75-.244a8.888,8.888,0,0,0-2.472-3.546Z" transform="translate(-399.796 -420.605)" fill="#934744"/>
            <path id="Trazado_933470" data-name="Trazado 933470" d="M426.353,468.307c-.127.113-.251.228-.37.343a7.9,7.9,0,0,0,2.293,1.559c.087.037.172.071.252.1a4.587,4.587,0,0,0,.841.234,2.315,2.315,0,0,0,.35.037l.007-.956c-1.2.048-3.373-1.318-3.373-1.318Z" transform="translate(-417.293 -461.448)" fill="#934744"/>
            <path id="Trazado_933471" data-name="Trazado 933471" d="M534.767,561.165a10.516,10.516,0,0,1,1.565,3.609,6.384,6.384,0,0,1-2.443,6.692l.6.743a7.3,7.3,0,0,0,2.953-6.332c-.158-2.61-2.675-4.712-2.675-4.712Z" transform="translate(-513.87 -544.557)" fill="#934744"/>
            <g id="Grupo_1177720" data-name="Grupo 1177720" transform="translate(95.193 29.96)" opacity="0.63">
              <path id="Trazado_933472" data-name="Trazado 933472" d="M1250.63,691.214a1.564,1.564,0,0,1,1.193-2.83c3.36.714,8.964,2.675,10.835,7.932,2.738,7.692.939,13.544-.924,12.58-2.336-1.208.229-4.333-2.832-11.516-1.871-4.391-5.549-4.346-8.272-6.165Z" transform="translate(-1249.93 -688.345)" fill="#cc7a76"/>
            </g>
            <g id="Grupo_1177721" data-name="Grupo 1177721" transform="translate(60.774 31.862)" opacity="0.63">
              <path id="Trazado_933473" data-name="Trazado 933473" d="M922.085,708.23a88.289,88.289,0,0,0,19.345-1.71c1.986-.424,1.926,1.791.511,2.163A31.914,31.914,0,0,1,922.085,708.23Z" transform="translate(-922.085 -706.466)" fill="#cc7a76"/>
            </g>
            <path id="Trazado_933474" data-name="Trazado 933474" d="M593.553,1189.505v0c-.006.064-.016.131-.028.2a3.137,3.137,0,0,1-.825,1.786,1.439,1.439,0,0,1-.585.371c-1.306.74-3.781,1.556-4.919,1.178a5.867,5.867,0,0,1-.706-2.818,46.322,46.322,0,0,0,7.031-1.208,1.216,1.216,0,0,1,.022.136A2.067,2.067,0,0,1,593.553,1189.505Z" transform="translate(-560.949 -1106.494)" fill="#3a3434"/>
            <g id="Grupo_1177722" data-name="Grupo 1177722" transform="translate(25.541 29.162)" opacity="0.64">
              <path id="Trazado_933475" data-name="Trazado 933475" d="M586.55,681.868s4.6,6.411,6.049,11.106.632,10.383,3.25,14.988,4.491,6.23,6.308,5.508a2.454,2.454,0,0,0,.644-4.244c-1.535-1.083-6.049-7.223-6.681-13.634s-8.578-14.675-8.578-14.675-1.354-.764-.993.951Z" transform="translate(-586.489 -680.747)" fill="#934744"/>
            </g>
            <path id="Trazado_933476" data-name="Trazado 933476" d="M900.164,930.49a73.722,73.722,0,0,1-30.157,8.741,56.92,56.92,0,0,1-7.245-.07q-.317-.022-.634-.051l2.929-4.737a80.047,80.047,0,0,0,34.3-4.953l.807,1.07Z" transform="translate(-807.649 -874.151)" fill="#934744"/>
            <path id="Trazado_933477" data-name="Trazado 933477" d="M397.593,767.342c.312.093.638.186.972.258a33.858,33.858,0,0,1,2.475-3.11,7.027,7.027,0,0,0-3.446,2.852Z" transform="translate(-391.884 -726.536)" fill="#934744"/>
            <path id="Trazado_933478" data-name="Trazado 933478" d="M371.681,548.529c0,.012,0,.024,0,.037-.005.038-.01.076-.015.115C371.668,548.632,371.675,548.581,371.681,548.529Z" transform="translate(-368.675 -533.248)" fill="#aa5e57"/>
            <path id="Trazado_933479" data-name="Trazado 933479" d="M1210.04,1279.145c.28-.51.918-2.126,1.3-2.986C1211.043,1276.842,1210.426,1278.468,1210.04,1279.145Z" transform="translate(-1119.035 -1184.487)" fill="#a2b3ba"/>
            <path id="Trazado_933480" data-name="Trazado 933480" d="M1230.84,1245.867l.009-.03S1230.845,1245.851,1230.84,1245.867Z" transform="translate(-1137.651 -1157.348)" fill="#a2b3ba"/>
            <path id="Trazado_933481" data-name="Trazado 933481" d="M1230.931,1245.81v0Z" transform="translate(-1137.731 -1157.324)" fill="#a2b3ba"/>
            <path id="Trazado_933482" data-name="Trazado 933482" d="M1401.558,1391.033a3.939,3.939,0,0,1-.032-.518Z" transform="translate(-1290.417 -1286.837)" fill="#aa5e57"/>
            <path id="Trazado_933483" data-name="Trazado 933483" d="M756.231,1353.22l.21.063A.516.516,0,0,1,756.231,1353.22Z" transform="translate(-712.869 -1253.457)" fill="#3a3434"/>
            <path id="Trazado_933484" data-name="Trazado 933484" d="M741.135,1382.073a2.12,2.12,0,0,1-1.613,1.837,8.456,8.456,0,0,1-5.357-.156h0a5.559,5.559,0,0,1,.06-3.137,31.954,31.954,0,0,0,6.909,1.458Z" transform="translate(-692.947 -1277.976)" fill="#3a3434"/>
            <path id="Trazado_933485" data-name="Trazado 933485" d="M1183.7,1368.226a2.728,2.728,0,0,1-1.215,1.8c-1.686,1.084-4.777.118-5.62-.725a.455.455,0,0,1-.107-.271h0a5.71,5.71,0,0,1,.765-2.441A15.707,15.707,0,0,0,1183.7,1368.226Z" transform="translate(-1089.25 -1265.419)" fill="#3a3434"/>
            <path id="Trazado_933486" data-name="Trazado 933486" d="M1338.318,1388.247s-1.716-.185-1.565-1.389c.036-.286.091-.694.178-1.183a8.4,8.4,0,0,1,.354-1.219,46.805,46.805,0,0,0,6.382,1.668c.055.947-.43,2.809-5.349,2.122Z" transform="translate(-1232.436 -1281.414)" fill="#3a3434"/>
            <path id="Trazado_933487" data-name="Trazado 933487" d="M1416.24,736.892s6.23,2.188,7.584,12.2C1423.824,749.094,1421.025,741.131,1416.24,736.892Z" transform="translate(-1303.586 -701.836)" fill="#c6be9e"/>
            <path id="Trazado_933488" data-name="Trazado 933488" d="M1447.2,803.156s1.166,4.722,0,13.935A16.632,16.632,0,0,0,1447.2,803.156Z" transform="translate(-1331.296 -761.143)" fill="#c6be9e"/>
            <path id="Trazado_933489" data-name="Trazado 933489" d="M594.053,510.673s3.648,8.027,4.056,9.513A17.5,17.5,0,0,0,594.053,510.673Z" transform="translate(-567.718 -499.367)" fill="#c6be9e"/>
            <path id="Trazado_933490" data-name="Trazado 933490" d="M512.059,459.36s4.114,4.3,4.61,5.079C516.669,464.439,516.185,461.979,512.059,459.36Z" transform="translate(-494.332 -453.441)" fill="#c6be9e"/>
            <path id="Trazado_933491" data-name="Trazado 933491" d="M637.719,540.96s6.834,8.374,7.782,10.008A21.451,21.451,0,0,0,637.719,540.96Z" transform="translate(-606.8 -526.474)" fill="#c6be9e"/>
            <path id="Trazado_933492" data-name="Trazado 933492" d="M793.369,637.649s6.273,4.993,7.218,6.028A15.912,15.912,0,0,0,793.369,637.649Z" transform="translate(-746.108 -613.012)" fill="#c6be9e"/>
          </g>
          <path id="Trazado_933493" data-name="Trazado 933493" d="M0,0H6.811V44.277a1.369,1.369,0,0,1-1.369,1.369H1.369A1.369,1.369,0,0,1,0,44.277V0Z" transform="translate(129.843 100.214) rotate(180)" fill="#9191b7"/>
          <path id="Trazado_933494" data-name="Trazado 933494" d="M0,0H6.811V44.277a1.369,1.369,0,0,1-1.369,1.369H1.369A1.369,1.369,0,0,1,0,44.277V0Z" transform="translate(18.772 100.214) rotate(180)" fill="#9191b7"/>
          <path id="Trazado_933495" data-name="Trazado 933495" d="M0,0H6.811V44.277a1.369,1.369,0,0,1-1.369,1.369H1.369A1.369,1.369,0,0,1,0,44.277V0Z" transform="translate(74.308 100.214) rotate(180)" fill="#9191b7"/>
          <path id="Trazado_933496" data-name="Trazado 933496" d="M413.989,948.885v6.28a1.582,1.582,0,0,0,1.58,1.581H539.351a1.581,1.581,0,0,0,1.581-1.581v-6.28a1.581,1.581,0,0,0-1.581-1.58H415.569A1.582,1.582,0,0,0,413.989,948.885Z" transform="translate(-406.558 -890.158)" fill="#ceceed"/>
          <path id="Trazado_933497" data-name="Trazado 933497" d="M413.989,1068.077v6.279a1.581,1.581,0,0,0,1.58,1.581H539.351a1.58,1.58,0,0,0,1.581-1.581v-6.279a1.58,1.58,0,0,0-1.581-1.58H415.569A1.581,1.581,0,0,0,413.989,1068.077Z" transform="translate(-406.558 -996.836)" fill="#ceceed"/>
          <path id="Trazado_933498" data-name="Trazado 933498" d="M413.989,1187.256v6.279a1.581,1.581,0,0,0,1.58,1.581H539.351a1.58,1.58,0,0,0,1.581-1.581v-6.279a1.58,1.58,0,0,0-1.581-1.58H415.569A1.581,1.581,0,0,0,413.989,1187.256Z" transform="translate(-406.558 -1103.503)" fill="#ceceed"/>
          <rect id="Rectángulo_454762" data-name="Rectángulo 454762" width="126.941" height="17.31" transform="translate(134.373 116.08) rotate(180)" fill="#20ba27"/>
          <path id="Trazado_933499" data-name="Trazado 933499" d="M1681.334,782.362v71.146h9.724c.177-.354,36.393-2.562,36.47-2.443.09.136.18.273.266.412.069.11.137.22.2.33l.132.22c.03.051.061.1.09.155s.067.114.1.172.066.115.1.173c.011.02.023.039.033.059l.083.152c.039.069.075.137.112.207l.087.164.024.045c.038.073.075.146.112.219s.083.164.123.247c.05.1.1.2.149.307.057.119.113.24.168.361.044.1.087.194.13.293l.053.124c.007.014.013.029.02.043.036.082.071.165.106.25.051.124.1.249.151.374s.093.236.138.355a.115.115,0,0,0,.005.014c.046.123.093.248.135.372q.137.382.261.772c.034.1.067.209.1.313q.123.4.231.816.1.387.191.778c.031.13.058.262.086.394s.054.263.079.4.051.265.073.4h46.505a4.109,4.109,0,0,0,4.116-4.116V825.856a2.19,2.19,0,0,0-2.189-2.189h-.044v-.5c0-.078,0-.158-.006-.235s-.006-.155-.012-.234a6.536,6.536,0,0,0-.116-.88c-.008-.041-.017-.082-.027-.122s-.014-.065-.022-.1l-.037-.147,0-.01c-.016-.062-.034-.124-.052-.185s-.037-.122-.058-.183-.039-.116-.06-.174c0-.014-.009-.028-.014-.041-.039-.109-.082-.216-.127-.322-.025-.059-.05-.116-.077-.174-.052-.115-.109-.228-.169-.34-.03-.056-.06-.111-.09-.166l0,0c-.031-.053-.063-.107-.094-.159s-.066-.108-.1-.16-.069-.106-.1-.157-.072-.1-.109-.155l-.113-.151a6.7,6.7,0,0,0-4.081-2.5c-1.139-.213-2.58-.47-4.209-.75l-.153-.027c-4.989-.857-14.861-1.924-20.072-2.592a8.75,8.75,0,0,1-1.9-.462c-.094-.034-.189-.07-.283-.108a8.813,8.813,0,0,1-.807-.373,8.925,8.925,0,0,1-1.533-1.023h0a8.669,8.669,0,0,1-1.085-1.071h0a8.818,8.818,0,0,1-1.443-2.35l-13.131-31.429a7.784,7.784,0,0,0-7.182-4.783H1692.1a10.763,10.763,0,0,0-10.765,10.765Z" transform="translate(-1540.849 -732.897)" fill="#20ba27"/>
          <path id="Trazado_933500" data-name="Trazado 933500" d="M393.1,1510.823v6.637a2.183,2.183,0,0,0,2.183,2.183H628.676a2.083,2.083,0,0,0,2.083-2.083v-6.836a2.083,2.083,0,0,0-2.083-2.083H395.285A2.183,2.183,0,0,0,393.1,1510.823Z" transform="translate(-387.864 -1392.561)" fill="#606091"/>
          <path id="Trazado_933501" data-name="Trazado 933501" d="M1809.559,1176.67a.389.389,0,0,1-.072,0l-4.309-.649c-.776-.159-1.085-.486-1.085-1.085v-1.059a1.085,1.085,0,0,1,1.085-1.085h4.345a1.085,1.085,0,0,1,1.085,1.085v1.713a1.085,1.085,0,0,1-1.048,1.084Z" transform="translate(-1650.72 -1091.967)" fill="#282f39"/>
          <path id="Trazado_933502" data-name="Trazado 933502" d="M1950.844,1442.882l2.47-3.657,4.6-4.347,9.27-3.657,5.3-.741,10.969,3.255,7.461,6.71,4.889,9.272H1947.78Z" transform="translate(-1779.322 -1322.606)" fill="#272742"/>
          <path id="Trazado_933503" data-name="Trazado 933503" d="M1360.92,1500.54l.376.158.04.032Q1361.134,1500.632,1360.92,1500.54Z" transform="translate(-1254.074 -1385.311)" fill="#606091"/>
          <circle id="Elipse_13608" data-name="Elipse 13608" cx="20.725" cy="20.725" r="20.725" transform="translate(163.24 131.854) rotate(-45)" fill="#4a4a72"/>
          <circle id="Elipse_13609" data-name="Elipse 13609" cx="12.725" cy="12.725" r="12.725" transform="translate(174.554 131.854) rotate(-45)" fill="#71719e"/>
          <circle id="Elipse_13610" data-name="Elipse 13610" cx="9.675" cy="9.675" r="9.675" transform="matrix(0.263, -0.965, 0.965, 0.263, 180.673, 138.646)" fill="#daedf2"/>
          <path id="Trazado_933504" data-name="Trazado 933504" d="M1778.263,870.616v-25.8a43.225,43.225,0,0,0-3.07-16l-8.067-20.247a6.747,6.747,0,0,0-6.268-4.25h-26.4a7.282,7.282,0,0,0-7.282,7.282v66.663" transform="translate(-1581.879 -762.184)" fill="none" stroke="#0a7c15" stroke-miterlimit="10" stroke-width="9"/>
          <g id="Grupo_1177725" data-name="Grupo 1177725" transform="translate(184.918 124.224)">
            <path id="Trazado_933505" data-name="Trazado 933505" d="M2142.27,1627.595a3.672,3.672,0,1,0,3.672-3.672A3.677,3.677,0,0,0,2142.27,1627.595Zm1.178,0a2.494,2.494,0,1,1,2.494,2.494A2.5,2.5,0,0,1,2143.448,1627.595Z" transform="translate(-2138.311 -1619.964)" fill="#272742"/>
            <g id="Grupo_1177724" data-name="Grupo 1177724">
              <path id="Trazado_933506" data-name="Trazado 933506" d="M2169.791,1586.21a.938.938,0,1,0,.938.938A.938.938,0,0,0,2169.791,1586.21Z" transform="translate(-2162.103 -1586.21)" fill="#272742"/>
              <path id="Trazado_933507" data-name="Trazado 933507" d="M2123.9,1604.766a.938.938,0,1,0,1.327,0A.938.938,0,0,0,2123.9,1604.766Z" transform="translate(-2121.621 -1602.572)" fill="#272742"/>
              <path id="Trazado_933508" data-name="Trazado 933508" d="M2105.5,1649.41a.938.938,0,1,0,.938.938A.938.938,0,0,0,2105.5,1649.41Z" transform="translate(-2104.562 -1642.775)" fill="#272742"/>
              <path id="Trazado_933509" data-name="Trazado 933509" d="M2123.127,1694.917a.938.938,0,1,0,1.327,0A.938.938,0,0,0,2123.127,1694.917Z" transform="translate(-2120.932 -1683.258)" fill="#272742"/>
              <circle id="Elipse_13611" data-name="Elipse 13611" cx="0.938" cy="0.938" r="0.938" transform="translate(6.528 15.139) rotate(-82.982)" fill="#272742"/>
              <path id="Trazado_933510" data-name="Trazado 933510" d="M2213.268,1695.688a.938.938,0,1,0,1.327,0,.938.938,0,0,0-1.327,0Z" transform="translate(-2201.609 -1683.948)" fill="#272742"/>
              <circle id="Elipse_13612" data-name="Elipse 13612" cx="0.938" cy="0.938" r="0.938" transform="translate(12.997 7.688) rotate(-45)" fill="#272742"/>
              <path id="Trazado_933511" data-name="Trazado 933511" d="M2214.047,1605.547a.938.938,0,1,0,1.327,0A.938.938,0,0,0,2214.047,1605.547Z" transform="translate(-2202.307 -1603.271)" fill="#272742"/>
            </g>
          </g>
          <g id="Grupo_1177726" data-name="Grupo 1177726" transform="translate(123.677 60.839)">
            <path id="Trazado_933512" data-name="Trazado 933512" d="M1522.807,985.558a.787.787,0,1,1-.787-.787A.787.787,0,0,1,1522.807,985.558Z" transform="translate(-1521.233 -984.53)" fill="#313151"/>
            <circle id="Elipse_13613" data-name="Elipse 13613" cx="0.787" cy="0.787" r="0.787" transform="translate(3.706 0.602) rotate(-22.5)" fill="#313151"/>
          </g>
          <g id="Grupo_1177727" data-name="Grupo 1177727" transform="translate(68.025 60.838)">
            <circle id="Elipse_13614" data-name="Elipse 13614" cx="0.787" cy="0.787" r="0.787" transform="translate(3.822 0.605) rotate(-22.609)" fill="#313151"/>
            <circle id="Elipse_13615" data-name="Elipse 13615" cx="0.787" cy="0.787" r="0.787" transform="matrix(0.161, -0.987, 0.987, 0.161, 0, 1.679)" fill="#313151"/>
          </g>
          <g id="Grupo_1177728" data-name="Grupo 1177728" transform="translate(12.493 60.838)">
            <circle id="Elipse_13616" data-name="Elipse 13616" cx="0.787" cy="0.787" r="0.787" transform="translate(3.818 0.605) rotate(-22.609)" fill="#313151"/>
            <circle id="Elipse_13617" data-name="Elipse 13617" cx="0.787" cy="0.787" r="0.787" transform="translate(0 1.686) rotate(-81.101)" fill="#313151"/>
          </g>
          <g id="Grupo_1177729" data-name="Grupo 1177729" transform="translate(123.677 73.593)">
            <path id="Trazado_933513" data-name="Trazado 933513" d="M1522.807,1104.739a.787.787,0,1,1-.787-.787A.787.787,0,0,1,1522.807,1104.739Z" transform="translate(-1521.233 -1103.952)" fill="#313151"/>
            <circle id="Elipse_13618" data-name="Elipse 13618" cx="0.787" cy="0.787" r="0.787" transform="translate(3.947 0)" fill="#313151"/>
          </g>
          <g id="Grupo_1177730" data-name="Grupo 1177730" transform="translate(68.141 73.593)">
            <circle id="Elipse_13619" data-name="Elipse 13619" cx="0.787" cy="0.787" r="0.787" transform="translate(3.947)" fill="#313151"/>
            <circle id="Elipse_13620" data-name="Elipse 13620" cx="0.787" cy="0.787" r="0.787" fill="#313151"/>
          </g>
          <g id="Grupo_1177731" data-name="Grupo 1177731" transform="translate(12.606 73.593)">
            <circle id="Elipse_13621" data-name="Elipse 13621" cx="0.787" cy="0.787" r="0.787" transform="translate(3.947)" fill="#313151"/>
            <circle id="Elipse_13622" data-name="Elipse 13622" cx="0.787" cy="0.787" r="0.787" fill="#313151"/>
          </g>
          <g id="Grupo_1177732" data-name="Grupo 1177732" transform="translate(123.677 85.864)">
            <path id="Trazado_933514" data-name="Trazado 933514" d="M1522.807,1223.919a.787.787,0,1,1-.787-.787A.787.787,0,0,1,1522.807,1223.919Z" transform="translate(-1521.233 -1222.891)" fill="#313151"/>
            <circle id="Elipse_13623" data-name="Elipse 13623" cx="0.787" cy="0.787" r="0.787" transform="translate(3.706 0.602) rotate(-22.5)" fill="#313151"/>
          </g>
          <g id="Grupo_1177733" data-name="Grupo 1177733" transform="translate(68.024 85.863)">
            <circle id="Elipse_13624" data-name="Elipse 13624" cx="0.787" cy="0.787" r="0.787" transform="translate(3.822 0.605) rotate(-22.609)" fill="#313151"/>
            <circle id="Elipse_13625" data-name="Elipse 13625" cx="0.787" cy="0.787" r="0.787" transform="matrix(0.161, -0.987, 0.987, 0.161, 0, 1.679)" fill="#313151"/>
          </g>
          <g id="Grupo_1177734" data-name="Grupo 1177734" transform="translate(12.493 85.863)">
            <circle id="Elipse_13626" data-name="Elipse 13626" cx="0.787" cy="0.787" r="0.787" transform="translate(3.818 0.605) rotate(-22.609)" fill="#313151"/>
            <circle id="Elipse_13627" data-name="Elipse 13627" cx="0.787" cy="0.787" r="0.787" transform="translate(0 1.686) rotate(-81.101)" fill="#313151"/>
          </g>
          <g id="Grupo_1177735" data-name="Grupo 1177735" transform="translate(11.961 102.149)">
            <rect id="Rectángulo_454763" data-name="Rectángulo 454763" width="117.882" height="1.89" transform="translate(117.882 1.89) rotate(180)" fill="#0a7c15" opacity="0.39"/>
            <rect id="Rectángulo_454764" data-name="Rectángulo 454764" width="117.882" height="1.89" transform="translate(117.882 6.22) rotate(180)" fill="#0a7c15" opacity="0.39"/>
            <rect id="Rectángulo_454765" data-name="Rectángulo 454765" width="117.882" height="1.89" transform="translate(117.882 10.551) rotate(180)" fill="#0a7c15" opacity="0.39"/>
          </g>
          <g id="Grupo_1177736" data-name="Grupo 1177736" transform="translate(17.014 108.58)">
            <path id="Trazado_933515" data-name="Trazado 933515" d="M984.721,1454.36c0-.051,0-.092.006-.125s.015-.064.023-.1c.02-.073.042-.145.066-.217.264-.462.531-.916.818-1.365a21.33,21.33,0,0,0,1.719-3.349c.186-.444.354-.9.544-1.342.046-.1.117-.247.15-.319.121-.261.248-.521.382-.776a14.655,14.655,0,0,1,.933-1.53l.213-.315c.145-.209.326-.4.49-.595q.553-.65,1.149-1.262c.2-.209.4-.421.616-.619.085-.079.172-.154.26-.228.858-.587,1.751-1.122,2.58-1.75l.373-.288q.162-.12.327-.236.347-.243.707-.467a13.958,13.958,0,0,1,1.247-.69q.181-.088.365-.171.456-.2-.176.071c.047-.109.653-.247.772-.288.55-.19,1.11-.35,1.673-.5a2.878,2.878,0,0,0,1.26-.7h10.762l12.333,4.542,8.443,13.989H984.362A3.231,3.231,0,0,0,984.721,1454.36Z" transform="translate(-934.064 -1437.205)" fill="#272742"/>
            <path id="Trazado_933516" data-name="Trazado 933516" d="M536.3,1437.819a14.119,14.119,0,0,0,3.4,1.693c.258.1.517.2.774.306l.156.063.06.026c.439.208.861.438,1.284.677.517.292,1.037.579,1.547.883a6.878,6.878,0,0,1,1.488.971c.061.065.119.127.154.159.176.166.341.344.5.524a3.651,3.651,0,0,1,.549.657q-.385-.5-.08-.1l.264.352c.764,1.022,1.545,2.026,2.365,3l.02.025c.044.06.09.119.133.18.158.219.31.443.455.671s.282.46.41.7c.093.172.369.545.364.74q-.254-.616-.066-.141.078.207.148.417c.069.2.135.4.211.591.275.707.587,1.4.9,2.092q.087.193.173.387.2.463-.062-.151a2.377,2.377,0,0,1,.284.788c.012.04.1.339.158.562l0,.05q.011.212,0,.424a2.871,2.871,0,0,0,.325,1.376H505.27l4.113-9.266,11.35-9.266h14.86a5.955,5.955,0,0,0,.707.613Z" transform="translate(-505.27 -1437.207)" fill="#272742"/>
          </g>
          <circle id="Elipse_13628" data-name="Elipse 13628" cx="20.725" cy="20.725" r="20.725" transform="translate(10.991 131.854) rotate(-45)" fill="#4a4a72"/>
          <circle id="Elipse_13629" data-name="Elipse 13629" cx="12.725" cy="12.725" r="12.725" transform="translate(22.304 131.854) rotate(-45)" fill="#71719e"/>
          <circle id="Elipse_13630" data-name="Elipse 13630" cx="9.675" cy="9.675" r="9.675" transform="translate(26.619 131.854) rotate(-45)" fill="#daedf2"/>
          <circle id="Elipse_13631" data-name="Elipse 13631" cx="20.725" cy="20.725" r="20.725" transform="translate(61.947 131.855) rotate(-45)" fill="#4a4a72"/>
          <circle id="Elipse_13632" data-name="Elipse 13632" cx="12.725" cy="12.725" r="12.725" transform="translate(73.261 131.855) rotate(-45)" fill="#71719e"/>
          <circle id="Elipse_13633" data-name="Elipse 13633" cx="9.675" cy="9.675" r="9.675" transform="translate(78.231 127.664) rotate(-27.163)" fill="#daedf2"/>
          <path id="Trazado_933517" data-name="Trazado 933517" d="M1940.51,1444.365h1.843a23.3,23.3,0,0,1,6.648-11.64h0a23.575,23.575,0,0,1,3.4-2.682h0c.135-.088.269-.174.406-.259h0q.308-.19.621-.373h0c.278-.161.562-.316.847-.467.072-.038.144-.076.217-.112q.324-.165.652-.32c.074-.035.148-.071.222-.1.146-.068.294-.133.443-.2h0c.149-.065.3-.128.448-.19h0q.337-.139.682-.267l.231-.084c.153-.056.307-.11.461-.162a23.314,23.314,0,0,1,25.717,7.706c.2.252.392.51.58.77q.424.586.811,1.2c.085.136.17.273.254.412q.251.414.482.838t.448.862q.216.435.413.88t.377.9c.12.3.233.609.34.919.052.154.1.31.156.465q.3.937.526,1.906h1.842a25.125,25.125,0,0,0-24.535-19.864h0a25.126,25.126,0,0,0-24.535,19.864Z" transform="translate(-1772.815 -1317.254)" fill="#606091"/>
          <path id="Trazado_933518" data-name="Trazado 933518" d="M978.728,1444.365h1.843a23.3,23.3,0,0,1,6.647-11.64h0a23.575,23.575,0,0,1,3.4-2.682h0c.135-.088.269-.174.406-.259h0q.308-.19.621-.373h0c.278-.161.562-.316.847-.467.072-.038.144-.076.217-.112q.324-.165.652-.32c.074-.035.148-.071.222-.1.146-.068.294-.133.443-.2h0c.149-.065.3-.128.448-.19h0q.337-.139.682-.267l.231-.084c.153-.056.307-.11.461-.162a23.314,23.314,0,0,1,25.717,7.706c.2.252.392.51.58.77q.424.586.811,1.2c.085.136.17.273.254.412q.251.414.482.838t.448.862q.216.435.413.88t.377.9c.12.3.233.609.34.919.052.154.1.31.156.465q.3.937.526,1.906h1.842a25.125,25.125,0,0,0-24.535-19.864h0a25.125,25.125,0,0,0-24.535,19.864Z" transform="translate(-912.007 -1317.254)" fill="#606091"/>
          <path id="Trazado_933519" data-name="Trazado 933519" d="M493.365,1444.365h1.843a23.3,23.3,0,0,1,6.648-11.64h0a23.579,23.579,0,0,1,3.4-2.682h0c.135-.088.269-.174.406-.259h0q.308-.19.621-.373h0c.278-.161.562-.316.847-.467.072-.038.144-.076.217-.112q.323-.165.652-.32c.075-.035.148-.071.222-.1.146-.068.294-.133.443-.2h0c.149-.065.3-.128.448-.19h0q.337-.139.682-.267l.231-.084c.153-.056.307-.11.461-.162a23.313,23.313,0,0,1,25.717,7.706c.2.252.392.51.581.77q.424.586.81,1.2c.085.136.17.273.254.412q.251.414.482.838t.448.862q.216.435.413.88t.377.9c.12.3.233.609.34.919.052.154.1.31.156.465q.3.937.526,1.906h1.842A25.125,25.125,0,0,0,517.9,1424.5h0a25.125,25.125,0,0,0-24.535,19.864Z" transform="translate(-477.601 -1317.254)" fill="#606091"/>
          <path id="Trazado_933520" data-name="Trazado 933520" d="M1842.5,838.809l-21.98,26.495-4.949,0,23.242-27.758h.807a3.92,3.92,0,0,1,2.88,1.261Z" transform="translate(-1660.994 -791.925)" fill="#fff"/>
          <path id="Trazado_933521" data-name="Trazado 933521" d="M1935.2,906.987,1913.65,907,1932,884.14l6.857,17.491a3.924,3.924,0,0,1-3.651,5.356Z" transform="translate(-1748.775 -833.624)" fill="#fff"/>
          <path id="Trazado_933522" data-name="Trazado 933522" d="M1791.071,837.549l-23.242,27.758-1.674,0a3.923,3.923,0,0,1-3.926-3.923V841.473a3.923,3.923,0,0,1,3.923-3.924Z" transform="translate(-1613.251 -791.925)" fill="#a2e5ff"/>
          <path id="Trazado_933523" data-name="Trazado 933523" d="M1886.4,853.187l-18.346,22.861-5.348,0,21.98-26.495a3.886,3.886,0,0,1,.772,1.231Z" transform="translate(-1703.182 -802.671)" fill="#a2e5ff"/>
          <g id="Grupo_1177738" data-name="Grupo 1177738" transform="translate(32.67 124.224)">
            <path id="Trazado_933524" data-name="Trazado 933524" d="M692.1,1627.595a3.672,3.672,0,1,0,3.672-3.672A3.676,3.676,0,0,0,692.1,1627.595Zm1.178,0a2.494,2.494,0,1,1,2.494,2.494A2.5,2.5,0,0,1,693.277,1627.595Z" transform="translate(-688.14 -1619.964)" fill="#272742"/>
            <g id="Grupo_1177737" data-name="Grupo 1177737">
              <path id="Trazado_933525" data-name="Trazado 933525" d="M719.621,1586.21a.938.938,0,1,0,.938.938A.938.938,0,0,0,719.621,1586.21Z" transform="translate(-711.933 -1586.21)" fill="#272742"/>
              <path id="Trazado_933526" data-name="Trazado 933526" d="M673.725,1604.766a.938.938,0,1,0,1.327,0A.938.938,0,0,0,673.725,1604.766Z" transform="translate(-671.449 -1602.572)" fill="#272742"/>
              <path id="Trazado_933527" data-name="Trazado 933527" d="M655.33,1649.41a.938.938,0,1,0,.938.938A.938.938,0,0,0,655.33,1649.41Z" transform="translate(-654.392 -1642.775)" fill="#272742"/>
              <path id="Trazado_933528" data-name="Trazado 933528" d="M672.949,1694.917a.938.938,0,1,0,1.327,0A.938.938,0,0,0,672.949,1694.917Z" transform="translate(-670.754 -1683.258)" fill="#272742"/>
              <path id="Trazado_933529" data-name="Trazado 933529" d="M718.523,1713.7a.938.938,0,1,0,.939.938A.938.938,0,0,0,718.523,1713.7Z" transform="translate(-710.951 -1700.315)" fill="#272742"/>
              <path id="Trazado_933530" data-name="Trazado 933530" d="M763.093,1695.688a.938.938,0,1,0,1.327,0,.938.938,0,0,0-1.327,0Z" transform="translate(-751.434 -1683.948)" fill="#272742"/>
              <path id="Trazado_933531" data-name="Trazado 933531" d="M782.814,1650.51a.938.938,0,1,0,.938.938A.938.938,0,0,0,782.814,1650.51Z" transform="translate(-768.492 -1643.759)" fill="#272742"/>
              <path id="Trazado_933532" data-name="Trazado 933532" d="M763.868,1605.547a.938.938,0,1,0,1.327,0A.939.939,0,0,0,763.868,1605.547Z" transform="translate(-752.129 -1603.271)" fill="#272742"/>
            </g>
          </g>
          <path id="Trazado_933533" data-name="Trazado 933533" d="M1753.62,833.781v19.912a4.8,4.8,0,0,0,1.415,3.414l.007.006a4.788,4.788,0,0,0,3.4,1.407h0l2.961,0,7.106-.005h0l9.968-.006,13.487-.009a4.827,4.827,0,0,0,3.381-1.385,4.83,4.83,0,0,0,1.11-5.2l-7.8-19.889a4.8,4.8,0,0,0-4.493-3.065h-25.725a4.833,4.833,0,0,0-4.825,4.689c0,.046,0,.093,0,.139Zm7.259,22.931h-2.432a3.02,3.02,0,0,1-3.021-3.021V833.781a3.024,3.024,0,0,1,3.021-3.022h25.725a3.009,3.009,0,0,1,2.812,1.918l1.13,2.884,6.669,17.007a3.03,3.03,0,0,1,.213,1.111,3.038,3.038,0,0,1-2.582,2.982,3.3,3.3,0,0,1-.442.031h-1.112l-14.179.009-5.536,0h0l-4.433,0h-.891l-4.941,0Z" transform="translate(-1605.546 -784.232)" fill="#313151"/>
          <g id="Grupo_1177740" data-name="Grupo 1177740" transform="translate(83.626 124.224)">
            <path id="Trazado_933534" data-name="Trazado 933534" d="M1177.46,1627.595a3.672,3.672,0,1,0,3.672-3.672A3.677,3.677,0,0,0,1177.46,1627.595Zm1.178,0a2.494,2.494,0,1,1,2.494,2.494A2.5,2.5,0,0,1,1178.638,1627.595Z" transform="translate(-1173.501 -1619.964)" fill="#272742"/>
            <g id="Grupo_1177739" data-name="Grupo 1177739">
              <path id="Trazado_933535" data-name="Trazado 933535" d="M1204.98,1586.21a.938.938,0,1,0,.938.938A.938.938,0,0,0,1204.98,1586.21Z" transform="translate(-1197.292 -1586.21)" fill="#272742"/>
              <path id="Trazado_933536" data-name="Trazado 933536" d="M1159.087,1604.766a.938.938,0,1,0,1.327,0A.938.938,0,0,0,1159.087,1604.766Z" transform="translate(-1156.811 -1602.572)" fill="#272742"/>
              <path id="Trazado_933537" data-name="Trazado 933537" d="M1140.69,1649.41a.938.938,0,1,0,.938.938A.938.938,0,0,0,1140.69,1649.41Z" transform="translate(-1139.752 -1642.775)" fill="#272742"/>
              <path id="Trazado_933538" data-name="Trazado 933538" d="M1158.307,1694.917a.938.938,0,1,0,1.327,0A.938.938,0,0,0,1158.307,1694.917Z" transform="translate(-1156.113 -1683.258)" fill="#272742"/>
              <circle id="Elipse_13634" data-name="Elipse 13634" cx="0.938" cy="0.938" r="0.938" transform="matrix(0.025, -1, 1, 0.025, 6.613, 15.237)" fill="#272742"/>
              <path id="Trazado_933539" data-name="Trazado 933539" d="M1248.457,1695.688a.938.938,0,1,0,1.327,0,.939.939,0,0,0-1.327,0Z" transform="translate(-1236.799 -1683.948)" fill="#272742"/>
              <path id="Trazado_933540" data-name="Trazado 933540" d="M1268.18,1650.51a.938.938,0,1,0,.938.938A.939.939,0,0,0,1268.18,1650.51Z" transform="translate(-1253.856 -1643.759)" fill="#272742"/>
              <path id="Trazado_933541" data-name="Trazado 933541" d="M1249.227,1605.547a.938.938,0,1,0,1.327,0A.938.938,0,0,0,1249.227,1605.547Z" transform="translate(-1237.487 -1603.271)" fill="#272742"/>
            </g>
          </g>
          <path id="Trazado_933542" data-name="Trazado 933542" d="M2035.486,931.221a1.02,1.02,0,0,1,1.021,1.02V945.77a1.02,1.02,0,0,1-1.021,1.02h-3.205a1.1,1.1,0,0,1-1.1-1.1V932.32a1.1,1.1,0,0,1,1.1-1.1h3.205Z" transform="translate(-1853.968 -875.763)" fill="#313151"/>
          <path id="Trazado_933543" data-name="Trazado 933543" d="M2065.841,1026.588a.777.777,0,0,1-.777-.777v-6.531a.582.582,0,0,0-.581-.581h-3.718a.777.777,0,0,1,0-1.554h3.718a2.138,2.138,0,0,1,2.135,2.136v6.531A.777.777,0,0,1,2065.841,1026.588Z" transform="translate(-1879.749 -952.665)" fill="#313151"/>
          <path id="Trazado_933544" data-name="Trazado 933544" d="M2310.248,1162.41v3.872l1.632,2.447,26.985,3.956v26.075h5.709v-23.12a2.19,2.19,0,0,0-2.189-2.19h-.044v-.5c0-.078,0-.158-.006-.235s-.006-.155-.012-.234a6.557,6.557,0,0,0-.116-.88c-.008-.041-.018-.082-.027-.122s-.014-.065-.022-.1c-.012-.049-.024-.1-.037-.147l0-.01c-.016-.062-.034-.124-.052-.185s-.037-.122-.058-.183-.039-.116-.06-.174c0-.014-.009-.028-.014-.041-.04-.109-.082-.216-.128-.322-.025-.059-.05-.116-.077-.174q-.079-.172-.168-.34c-.03-.056-.06-.111-.091-.166,0,0,0,0,0,0-.031-.053-.062-.107-.094-.159s-.066-.108-.1-.16-.069-.106-.1-.157-.072-.1-.109-.155-.075-.1-.113-.151a6.7,6.7,0,0,0-4.082-2.5c-1.139-.213-2.579-.47-4.208-.75l-.153-.027c-4.989-.857-14.861-1.924-20.071-2.592a8.751,8.751,0,0,1-1.9-.462c-.095-.034-.189-.07-.283-.108Z" transform="translate(-2103.735 -1082.68)" fill="#0a7c15" opacity="0.39"/>
          <rect id="Rectángulo_454766" data-name="Rectángulo 454766" width="3.058" height="14.066" rx="1.529" transform="translate(180.878 70.22) rotate(180)" fill="#a2e5ff"/>
          <path id="Trazado_933545" data-name="Trazado 933545" d="M2302.56,1158.86v3.269a4.426,4.426,0,0,0,3.865,4.383l25.559,3.363,3.476.522v-.626c0-.078,0-.158-.006-.235s-.006-.155-.012-.234l-3.458-.521-25.422-3.35a3.333,3.333,0,0,1-2.913-3.3v-2.788a8.736,8.736,0,0,1-1.089-.481Z" transform="translate(-2096.854 -1079.502)" fill="#0a7c15"/>
          <rect id="Rectángulo_454767" data-name="Rectángulo 454767" width="34.669" height="15.2" rx="6.817" transform="translate(158.519 134.763) rotate(180)" fill="#ceceed"/>
          <path id="Trazado_933546" data-name="Trazado 933546" d="M1557.552,1614.21v6.674a.859.859,0,0,1-.769.926h-33.131a.858.858,0,0,1-.769-.926v-6.674h34.669Z" transform="translate(-1399.033 -1487.047)" fill="#a3a3ce"/>
          <path id="Trazado_933547" data-name="Trazado 933547" d="M1773.16,1550.174h0a.875.875,0,0,0,.875-.875V1534.03a.875.875,0,0,0-.875-.875h0a.875.875,0,0,0-.875.875V1549.3A.875.875,0,0,0,1773.16,1550.174Z" transform="translate(-1622.251 -1414.502)" fill="#4a4a72"/>
          <path id="Trazado_933548" data-name="Trazado 933548" d="M1587.9,1550.175h0a.875.875,0,0,0,.875-.875v-15.269a.875.875,0,0,0-.875-.875h0a.875.875,0,0,0-.875.875V1549.3A.875.875,0,0,0,1587.9,1550.175Z" transform="translate(-1456.442 -1414.502)" fill="#4a4a72"/>
          <path id="Trazado_933549" data-name="Trazado 933549" d="M2521.339,1363.13h-6.592a1.133,1.133,0,0,1-1.134-1.134v-4.048a1.133,1.133,0,0,1,1.133-1.134h6.592a1.134,1.134,0,0,1,1.134,1.134V1362a1.134,1.134,0,0,1-1.134,1.134Z" transform="translate(-2285.75 -1256.675)" fill="#313151"/>
          <path id="Trazado_933550" data-name="Trazado 933550" d="M2525.337,1369.559h-3.091a.484.484,0,0,1-.484-.484v-3.638a.484.484,0,0,1,.484-.484h3.091v4.605Z" transform="translate(-2293.044 -1263.959)" fill="#ffa300"/>
          <path id="Trazado_933551" data-name="Trazado 933551" d="M2558.9,1369.559h-3.091v-4.605h3.091a.484.484,0,0,1,.484.484v3.638a.484.484,0,0,1-.484.484Z" transform="translate(-2323.518 -1263.959)" fill="#fff"/>
        </g>
      </g>
    </g>
  </g>
</svg>
