<svg xmlns="http://www.w3.org/2000/svg" width="100" height="100" viewBox="0 0 100 100">
  <g id="Grupo_1177699" data-name="Grupo 1177699" transform="translate(-637 -6992)">
    <g id="Grupo_1098742" data-name="Grupo 1098742" transform="translate(637.242 6992)">
      <rect id="Rectángulo_400898" data-name="Rectángulo 400898" width="100" height="100" rx="50" transform="translate(-0.242)" fill="#fff" opacity="0.859"/>
      <g id="Rectángulo_400907" data-name="Rectángulo 400907" transform="translate(-0.242)" fill="none" stroke="#f3bc5b" stroke-linecap="round" stroke-width="3" stroke-dasharray="0 7">
        <rect width="100" height="100" rx="50" stroke="none"/>
        <rect x="1.5" y="1.5" width="97" height="97" rx="48.5" fill="none"/>
      </g>
    </g>
    <g id="Grupo_1107006" data-name="Grupo 1107006" transform="translate(645.398 7000.157)">
      <rect id="Rectángulo_400898-2" data-name="Rectángulo 400898" width="84" height="84" rx="42" transform="translate(-0.399 -0.157)" fill="#004e3d" opacity="0.859"/>
      <rect id="Rectángulo_400907-2" data-name="Rectángulo 400907" width="84" height="84" rx="42" transform="translate(-0.398 -0.157)" fill="none"/>
    </g>
    <g id="bull-market_3133459" transform="translate(663.201 7018.49)">
      <path id="Trazado_933413" data-name="Trazado 933413" d="M40.26,27.282a3.127,3.127,0,0,0,5.086-2.445V21.7a4.7,4.7,0,0,0-4.7-4.7H18.7A4.7,4.7,0,0,0,14,21.7v3.135a3.127,3.127,0,0,0,5.086,2.445Z" transform="translate(-3.029 -3.678)" fill="#926153"/>
      <path id="Trazado_933414" data-name="Trazado 933414" d="M46.452,42.534A1.579,1.579,0,0,1,44.885,44.1H6.486v.784a1.567,1.567,0,1,1-3.135,0V44.1H2.567a1.567,1.567,0,0,1,0-3.135h.784V2.567A1.572,1.572,0,0,1,4.918,1a1.532,1.532,0,0,1,1.1.462,1.532,1.532,0,0,1,.462,1.1v38.4h38.4A1.572,1.572,0,0,1,46.452,42.534Z" transform="translate(-0.216 -0.216)" fill="#c4ddf0"/>
      <path id="Trazado_933415" data-name="Trazado 933415" d="M39.9,16.631a11.089,11.089,0,0,1,2.045,6.434,16.67,16.67,0,0,1-3.378,9.506.759.759,0,0,0-.086.8,3.056,3.056,0,0,1,.329,1.356c0,2.594-3.511,4.7-7.837,4.7s-7.837-2.108-7.837-4.7a3.056,3.056,0,0,1,.329-1.356.774.774,0,0,0-.086-.807A16.627,16.627,0,0,1,20,23.065a11.089,11.089,0,0,1,2.045-6.434l2.813-2.751a10.873,10.873,0,0,1,12.225,0Z" transform="translate(-4.327 -2.596)" fill="#a97866"/>
      <ellipse id="Elipse_13600" data-name="Elipse 13600" cx="2" cy="1.5" rx="2" ry="1.5" transform="translate(21.51 29.51)" fill="#926153"/>
      <circle id="Elipse_13601" data-name="Elipse 13601" cx="1.5" cy="1.5" r="1.5" transform="translate(28.51 29.51)" fill="#926153"/>
      <path id="Trazado_933416" data-name="Trazado 933416" d="M22.944,16.569c-3.37-.835-6.269-4.287-7.658-6.2a1.489,1.489,0,0,1,.382-2.116h0a1.489,1.489,0,0,1,1.891.19,21.354,21.354,0,0,0,6.559,4.714,1.751,1.751,0,0,1,.9,2.412L25,15.607a1.817,1.817,0,0,1-2.052.962Z" transform="translate(-3.245 -1.731)" fill="#f9d6bd"/>
      <path id="Trazado_933417" data-name="Trazado 933417" d="M42.24,16.569c3.37-.835,6.269-4.287,7.658-6.2a1.489,1.489,0,0,0-.382-2.116h0a1.489,1.489,0,0,0-1.891.19,21.354,21.354,0,0,1-6.559,4.714,1.751,1.751,0,0,0-.9,2.412l.018.036a1.817,1.817,0,0,0,2.052.962Z" transform="translate(-8.649 -1.731)" fill="#f9d6bd"/>
      <circle id="Elipse_13602" data-name="Elipse 13602" cx="1.5" cy="1.5" r="1.5" transform="translate(19.51 18.51)" fill="#fff"/>
      <circle id="Elipse_13603" data-name="Elipse 13603" cx="1.5" cy="1.5" r="1.5" transform="translate(30.51 18.51)" fill="#fff"/>
      <path id="Trazado_933418" data-name="Trazado 933418" d="M29.351,37A2.351,2.351,0,1,0,31.7,39.351,2.351,2.351,0,0,0,29.351,37Zm0,3.135a.784.784,0,1,1,.784-.784A.784.784,0,0,1,29.351,40.135Z" transform="translate(-5.841 -8.005)"/>
      <path id="Trazado_933419" data-name="Trazado 933419" d="M37.351,37A2.351,2.351,0,1,0,39.7,39.351,2.351,2.351,0,0,0,37.351,37Zm0,3.135a.784.784,0,1,1,.784-.784A.784.784,0,0,1,37.351,40.135Z" transform="translate(-7.572 -8.005)"/>
      <path id="Trazado_933420" data-name="Trazado 933420" d="M28.7,25.351A2.351,2.351,0,1,0,26.351,27.7,2.351,2.351,0,0,0,28.7,25.351Zm-3.135,0a.784.784,0,1,1,.784.784A.784.784,0,0,1,25.567,25.351Z" transform="translate(-5.192 -4.976)"/>
      <path id="Trazado_933421" data-name="Trazado 933421" d="M40.351,23A2.351,2.351,0,1,0,42.7,25.351,2.351,2.351,0,0,0,40.351,23Zm0,3.135a.784.784,0,1,1,.784-.784A.784.784,0,0,1,40.351,26.135Z" transform="translate(-8.221 -4.976)"/>
      <path id="Trazado_933422" data-name="Trazado 933422" d="M44.669,39.967H7.053V33.7a.784.784,0,0,0-1.567,0V40.75a.784.784,0,0,0,.784.784h38.4a.784.784,0,0,1,.784.784.766.766,0,0,1-.241.559.752.752,0,0,1-.543.225H6.269a.784.784,0,0,0-.784.784v.784a.784.784,0,0,1-1.567,0v-.784a.784.784,0,0,0-.784-.784H2.351a.784.784,0,0,1,0-1.567h.784a.784.784,0,0,0,.784-.784V2.351A.784.784,0,0,1,4.7,1.567a.764.764,0,0,1,.558.241.746.746,0,0,1,.226.543V30.563a.784.784,0,1,0,1.567,0V2.351A2.289,2.289,0,0,0,6.368.7,2.3,2.3,0,0,0,4.7,0,2.351,2.351,0,0,0,2.351,2.351V39.967a2.351,2.351,0,0,0,0,4.7,2.351,2.351,0,0,0,4.7,0H44.669a2.351,2.351,0,0,0,0-4.7Z"/>
      <path id="Trazado_933423" data-name="Trazado 933423" d="M37.187,35.348a.784.784,0,0,0,.351-1.489A12.116,12.116,0,0,0,32.485,33a12.111,12.111,0,0,0-5.052.862.784.784,0,0,0,.7,1.4,10.941,10.941,0,0,1,4.356-.7,10.945,10.945,0,0,1,4.352.705A.784.784,0,0,0,37.187,35.348Z" transform="translate(-5.841 -7.136)"/>
      <path id="Trazado_933424" data-name="Trazado 933424" d="M48.616,0H45.481a.784.784,0,1,0,0,1.567h1.243L42.769,5.522a2.263,2.263,0,0,0-1.972.639,21.864,21.864,0,0,1-5.616,4.227,11.6,11.6,0,0,0-12.313,0,21.878,21.878,0,0,1-5.616-4.227A2.278,2.278,0,0,0,13.786,9.1a24.515,24.515,0,0,0,3.128,3.56,5.494,5.494,0,0,0-4.347,5.365v3.135a3.923,3.923,0,0,0,3.918,3.918,3.851,3.851,0,0,0,1.468-.3,18.124,18.124,0,0,0,1.69,3.872L11.23,37.062a.784.784,0,1,0,1.108,1.108L20.511,30c.1.143.2.293.3.433a3.852,3.852,0,0,0-.409,1.7c0,3.076,3.787,5.486,8.62,5.486s8.62-2.41,8.62-5.486a3.846,3.846,0,0,0-.4-1.684A18.308,18.308,0,0,0,40.1,24.777a3.832,3.832,0,0,0,1.467.3,3.923,3.923,0,0,0,3.918-3.918V18.024a5.494,5.494,0,0,0-4.347-5.365A24.515,24.515,0,0,0,44.262,9.1a2.241,2.241,0,0,0-.086-2.768l3.656-3.656V3.918a.784.784,0,0,0,1.567,0V.784A.784.784,0,0,0,48.616,0ZM15.055,8.18a.712.712,0,0,1,1.08-.919,22.985,22.985,0,0,0,6.348,4.672.788.788,0,0,0,.251.114c.078.033.152.074.23.105a.934.934,0,0,1,.528.542,1.012,1.012,0,0,1-.06.828,1.039,1.039,0,0,1-1.163.555,7.41,7.41,0,0,1-1.7-.67s-.006-.008-.01-.01l-.038-.016a18.264,18.264,0,0,1-5.462-5.2Zm1.431,15.33a2.351,2.351,0,0,1-2.351-2.351V18.024a3.923,3.923,0,0,1,3.918-3.918h.659c.093.063.19.122.284.183a11.833,11.833,0,0,0-1.727,6.18,14.215,14.215,0,0,0,.294,2.769A2.3,2.3,0,0,1,16.486,23.51ZM36,29.5a1.536,1.536,0,0,0-.167,1.617,2.3,2.3,0,0,1,.245,1.012c0,2.124-3.229,3.918-7.053,3.918s-7.053-1.795-7.053-3.918a2.265,2.265,0,0,1,.242-1,1.55,1.55,0,0,0-.157-1.638,15.9,15.9,0,0,1-3.22-9.027,10.266,10.266,0,0,1,1.533-5.417,8.553,8.553,0,0,0,1.52.549,2.552,2.552,0,0,0,.62.078,2.619,2.619,0,0,0,2.339-1.489,2.564,2.564,0,0,0,.106-2.049,2.514,2.514,0,0,0-.53-.836,10.049,10.049,0,0,1,9.2,0,2.539,2.539,0,0,0-.53.836,2.608,2.608,0,0,0,3.062,3.454,8.492,8.492,0,0,0,1.52-.549,10.266,10.266,0,0,1,1.536,5.423A15.947,15.947,0,0,1,36,29.5Zm4-15.395a3.923,3.923,0,0,1,3.918,3.918v3.135a2.351,2.351,0,0,1-2.351,2.351,2.3,2.3,0,0,1-1.078-.271,14.221,14.221,0,0,0,.294-2.769,11.833,11.833,0,0,0-1.724-6.18c.095-.061.191-.119.284-.183Zm3-5.926a18.259,18.259,0,0,1-5.457,5.2.313.313,0,0,0-.04.018s-.006.008-.011.011a7.436,7.436,0,0,1-1.7.669,1.05,1.05,0,0,1-1.183-.592.991.991,0,0,1-.041-.791.934.934,0,0,1,.528-.542c.112-.045.219-.1.33-.151a.761.761,0,0,0,.157-.073A22.985,22.985,0,0,0,41.91,7.261a.7.7,0,0,1,.5-.208.725.725,0,0,1,.4.121.705.705,0,0,1,.181,1.006Z" transform="translate(-2.38 0)"/>
    </g>
  </g>
</svg>
