<svg xmlns="http://www.w3.org/2000/svg" width="124" height="124" viewBox="0 0 124 124">
  <g id="Grupo_1175977" data-name="Grupo 1175977" transform="translate(-1234.5 -458)">
    <g id="Elipse_12108" data-name="Elipse 12108" transform="translate(1241.5 465)" fill="#f3bc5b" stroke="rgba(255,255,255,0.4)" stroke-width="7">
      <circle cx="55" cy="55" r="55" stroke="none"/>
      <circle cx="55" cy="55" r="58.5" fill="none"/>
    </g>
    <g id="_23-Training" data-name="23-Training" transform="translate(1264.211 488)">
      <path id="Trazado_930672" data-name="Trazado 930672" d="M61,2H23a1,1,0,0,0-1,1V7a1,1,0,0,0,1,1h2v3a1,1,0,0,0,2,0V8H57V29a1,1,0,0,1-1,1H28a1,1,0,0,1-1-1V23a1,1,0,0,0-2,0v6a3,3,0,0,0,3,3H41v4.184a3,3,0,1,0,2,0V32H56a3,3,0,0,0,3-3V8h2a1,1,0,0,0,1-1V3a1,1,0,0,0-1-1ZM42,40a1,1,0,1,1,1-1,1,1,0,0,1-1,1ZM60,6H24V4H60ZM36.322,52.152a6,6,0,1,0-8.644,0A6.007,6.007,0,0,0,23,58v3a1,1,0,0,0,2,0V58a4,4,0,0,1,4-4h6a4,4,0,0,1,4,4v3a1,1,0,0,0,2,0V58a6.007,6.007,0,0,0-4.678-5.848ZM32,44a4,4,0,1,1-4,4,4,4,0,0,1,4-4ZM16.322,52.152a6,6,0,1,0-8.644,0A6.007,6.007,0,0,0,3,58v3a1,1,0,0,0,2,0V58a4,4,0,0,1,4-4h6a4,4,0,0,1,4,4v3a1,1,0,0,0,2,0V58a6.007,6.007,0,0,0-4.678-5.848ZM12,44a4,4,0,1,1-4,4,4,4,0,0,1,4-4Zm44.322,8.152a6,6,0,1,0-8.644,0A6.007,6.007,0,0,0,43,58v3a1,1,0,0,0,2,0V58a4,4,0,0,1,4-4h6a4,4,0,0,1,4,4v3a1,1,0,0,0,2,0V58a6.007,6.007,0,0,0-4.678-5.848ZM52,44a4,4,0,1,1-4,4,4,4,0,0,1,4-4ZM6,32v5a1,1,0,0,0,2,0V23a1,1,0,0,0-2,0v7H5a1,1,0,0,1-1-1V20a4,4,0,0,1,4-4H27a1,1,0,0,1,0,2H19a1,1,0,0,0-1,1V37a1,1,0,0,0,2,0V20h7a3,3,0,0,0,0-6H17.459A6,6,0,1,0,8.54,14H8a6.007,6.007,0,0,0-6,6v9a3,3,0,0,0,3,3ZM9,10a4,4,0,1,1,4,4A4,4,0,0,1,9,10Zm4,20a1,1,0,0,1,1,1v6a1,1,0,0,1-2,0V31a1,1,0,0,1,1-1ZM53,13a1,1,0,0,1-1,1H32a1,1,0,0,1,0-2H52a1,1,0,0,1,1,1Zm0,6a1,1,0,0,1-1,1H42a1,1,0,0,1,0-2H52a1,1,0,0,1,1,1ZM31,19a1,1,0,0,1,1-1h6a1,1,0,0,1,0,2H32a1,1,0,0,1-1-1Zm0,6a1,1,0,0,1,1-1H52a1,1,0,0,1,0,2H32a1,1,0,0,1-1-1Z" fill="#004e3d"/>
    </g>
  </g>
</svg>
