<svg xmlns="http://www.w3.org/2000/svg" width="114" height="114" viewBox="0 0 114 114">
  <g id="Grupo_1178470" data-name="Grupo 1178470" transform="translate(-1234.5 -458)">
    <g id="Elipse_12108" data-name="Elipse 12108" transform="translate(1241.5 465)" fill="#f3bc5b" stroke="rgba(255,255,255,0.4)" stroke-width="7">
      <circle cx="50" cy="50" r="50" stroke="none"/>
      <circle cx="50" cy="50" r="53.5" fill="none"/>
    </g>
    <g id="Grupo_1178862" data-name="Grupo 1178862" transform="translate(1261.988 419.153)">
      <path id="Trazado_937352" data-name="Trazado 937352" d="M54.125,74.979H4.9a4.9,4.9,0,0,0-4.9,4.9v34.589a2.251,2.251,0,0,0,2.248,2.248H56.776a2.251,2.251,0,0,0,2.248-2.248V79.878A4.9,4.9,0,0,0,54.125,74.979ZM4.9,76.708H54.125a3.174,3.174,0,0,1,3.17,3.17V97.344H54.989V81.608A2.6,2.6,0,0,0,52.4,79.014H6.629a2.6,2.6,0,0,0-2.594,2.594v6.586a.865.865,0,0,0,1.729,0V81.608a.866.866,0,0,1,.865-.865H52.4a.866.866,0,0,1,.865.865V97.344H47.849A2.251,2.251,0,0,0,45.6,99.592v.534H13.423v-.534a2.251,2.251,0,0,0-2.248-2.248H5.764V92.229a.865.865,0,1,0-1.729,0v5.115H1.729V79.878a3.174,3.174,0,0,1,3.17-3.17Zm8.524,25.147H45.6v2.255a.519.519,0,0,1-.519.519H13.942a.519.519,0,0,1-.519-.519Zm43.353,13.131H2.248a.519.519,0,0,1-.519-.519v-2.93H41.252a.865.865,0,1,0,0-1.729H1.729V99.073h9.446a.519.519,0,0,1,.519.519v4.519a2.251,2.251,0,0,0,2.248,2.248h31.14a2.251,2.251,0,0,0,2.248-2.248V99.592a.519.519,0,0,1,.519-.519h9.446v10.735H45.287a.865.865,0,0,0,0,1.729H57.295v2.93A.519.519,0,0,1,56.776,114.986Z" transform="translate(0 0)" fill="#004e3d"/>
      <path id="Trazado_937353" data-name="Trazado 937353" d="M75.865,148.726h1.153v1.153a.865.865,0,0,0,1.729,0v-1.153H79.9a.865.865,0,0,0,0-1.729H78.747v-1.153a.865.865,0,0,0-1.729,0V147H75.865a.865.865,0,0,0,0,1.729Z" transform="translate(-66.354 -61.93)" fill="#004e3d"/>
      <path id="Trazado_937354" data-name="Trazado 937354" d="M153.865,148.726h1.153v1.153a.865.865,0,0,0,1.729,0v-1.153H157.9a.865.865,0,1,0,0-1.729h-1.153v-1.153a.865.865,0,0,0-1.729,0V147h-1.153a.865.865,0,0,0,0,1.729Z" transform="translate(-135.362 -61.93)" fill="#004e3d"/>
      <path id="Trazado_937355" data-name="Trazado 937355" d="M231.865,148.726h1.153v1.153a.865.865,0,1,0,1.729,0v-1.153H235.9a.865.865,0,0,0,0-1.729h-1.153v-1.153a.865.865,0,0,0-1.729,0V147h-1.153a.865.865,0,0,0,0,1.729Z" transform="translate(-204.37 -61.93)" fill="#004e3d"/>
      <path id="Trazado_937356" data-name="Trazado 937356" d="M309.865,148.726h1.153v1.153a.865.865,0,1,0,1.729,0v-1.153H313.9a.865.865,0,1,0,0-1.729h-1.153v-1.153a.865.865,0,1,0-1.729,0V147h-1.153a.865.865,0,0,0,0,1.729Z" transform="translate(-273.378 -61.93)" fill="#004e3d"/>
      <path id="Trazado_937357" data-name="Trazado 937357" d="M387.865,148.726h1.153v1.153a.865.865,0,1,0,1.729,0v-1.153H391.9a.865.865,0,1,0,0-1.729h-1.153v-1.153a.865.865,0,1,0-1.729,0V147h-1.153a.865.865,0,1,0,0,1.729Z" transform="translate(-342.386 -61.93)" fill="#004e3d"/>
      <path id="Trazado_937358" data-name="Trazado 937358" d="M75.865,210.726h1.153v1.153a.865.865,0,0,0,1.729,0v-1.153H79.9a.865.865,0,0,0,0-1.729H78.747v-1.153a.865.865,0,0,0-1.729,0V209H75.865a.865.865,0,1,0,0,1.729Z" transform="translate(-66.354 -116.783)" fill="#004e3d"/>
      <path id="Trazado_937359" data-name="Trazado 937359" d="M153.865,210.726h1.153v1.153a.865.865,0,0,0,1.729,0v-1.153H157.9a.865.865,0,1,0,0-1.729h-1.153v-1.153a.865.865,0,0,0-1.729,0V209h-1.153a.865.865,0,0,0,0,1.729Z" transform="translate(-135.362 -116.783)" fill="#004e3d"/>
      <path id="Trazado_937360" data-name="Trazado 937360" d="M231.865,210.726h1.153v1.153a.865.865,0,1,0,1.729,0v-1.153H235.9a.865.865,0,1,0,0-1.729h-1.153v-1.153a.865.865,0,0,0-1.729,0V209h-1.153a.865.865,0,0,0,0,1.729Z" transform="translate(-204.37 -116.783)" fill="#004e3d"/>
      <path id="Trazado_937361" data-name="Trazado 937361" d="M309.865,210.726h1.153v1.153a.865.865,0,1,0,1.729,0v-1.153H313.9a.865.865,0,1,0,0-1.729h-1.153v-1.153a.865.865,0,1,0-1.729,0V209h-1.153a.865.865,0,0,0,0,1.729Z" transform="translate(-273.378 -116.783)" fill="#004e3d"/>
      <path id="Trazado_937362" data-name="Trazado 937362" d="M387.865,210.726h1.153v1.153a.865.865,0,1,0,1.729,0v-1.153H391.9a.865.865,0,1,0,0-1.729h-1.153v-1.153a.865.865,0,1,0-1.729,0V209h-1.153a.865.865,0,1,0,0,1.729Z" transform="translate(-342.386 -116.783)" fill="#004e3d"/>
    </g>
  </g>
</svg>
