<svg xmlns="http://www.w3.org/2000/svg" width="100" height="100" viewBox="0 0 100 100">
  <g id="Grupo_1177666" data-name="Grupo 1177666" transform="translate(-637 -6992)">
    <g id="Grupo_1098742" data-name="Grupo 1098742" transform="translate(637.242 6992)">
      <rect id="Rectángulo_400898" data-name="Rectángulo 400898" width="100" height="100" rx="50" transform="translate(-0.242)" fill="#fff" opacity="0.859"/>
      <g id="Rectángulo_400907" data-name="Rectángulo 400907" transform="translate(-0.242)" fill="none" stroke="#f3bc5b" stroke-linecap="round" stroke-width="3" stroke-dasharray="0 7">
        <rect width="100" height="100" rx="50" stroke="none"/>
        <rect x="1.5" y="1.5" width="97" height="97" rx="48.5" fill="none"/>
      </g>
    </g>
    <g id="Grupo_1107006" data-name="Grupo 1107006" transform="translate(645.398 7000.157)">
      <rect id="Rectángulo_400898-2" data-name="Rectángulo 400898" width="84" height="84" rx="42" transform="translate(-0.399 -0.157)" fill="#004e3d" opacity="0.859"/>
      <rect id="Rectángulo_400907-2" data-name="Rectángulo 400907" width="84" height="84" rx="42" transform="translate(-0.398 -0.157)" fill="none"/>
    </g>
    <g id="Grupo_1177668" data-name="Grupo 1177668" transform="translate(639.953 7000.533)">
      <path id="Trazado_933208" data-name="Trazado 933208" d="M31.722,69.859,21.469,56.96a1.728,1.728,0,0,1,.339-2.475l12.55-7.1a8.109,8.109,0,0,0,2.991-7.633,8.109,8.109,0,0,1,.026-2.682l1.961-11.044a3.919,3.919,0,0,1,.919-1.906l5.734-6.5a2.811,2.811,0,0,1,3.14-.756l4.044,1.594L46.51,24.857a1.054,1.054,0,0,0-.086,1.417q.03.038.065.073a1.054,1.054,0,0,0,1.491.021l7.562-7.284a2.038,2.038,0,0,1,.6-.4l4.442-1.937a2.908,2.908,0,0,1,3.228.581,2.86,2.86,0,0,1,.2,3.809l-1.5,1.974a.355.355,0,0,0,.437.534L64.9,22.7a1.9,1.9,0,0,1,2.3.515l.736.911a1.9,1.9,0,0,1,.127,2.207l-1.222,1.93a.433.433,0,0,0,.373.665,2.143,2.143,0,0,1,3.013.321l.247.306a2.572,2.572,0,0,1,.36,2.636l-.717,1.659a.355.355,0,0,0,.4.487l.093-.02a1.973,1.973,0,0,1,2.163,1,2.032,2.032,0,0,1,.14,1.518l-1.151,4.018A9.049,9.049,0,0,1,68.751,45.4L34.136,70.148A1.728,1.728,0,0,1,31.722,69.859Z" fill="#fff" stroke="#000" stroke-width="2"/>
      <path id="Trazado_933209" data-name="Trazado 933209" d="M233.219,135.1a9.545,9.545,0,1,0,9.545,9.545A9.545,9.545,0,0,0,233.219,135.1Zm3.873,3.732-3.8,3.8-3.858-3.858a7,7,0,0,1,7.659.057Zm-10.856,5.813a6.931,6.931,0,0,1,1.335-4.108l3.908,3.908-4.073,4.073A6.934,6.934,0,0,1,226.237,144.648Zm2.958,5.708,4.1-4.1,4.036,4.036a6.99,6.99,0,0,1-8.133.061Zm9.894-1.923-3.986-3.986,3.824-3.824a6.993,6.993,0,0,1,.161,7.81Z" transform="translate(-179.831 -105.287)" fill="#f33"/>
    </g>
  </g>
</svg>
