<svg xmlns="http://www.w3.org/2000/svg" width="124" height="124" viewBox="0 0 124 124">
  <g id="Grupo_1175975" data-name="Grupo 1175975" transform="translate(-1234.5 -458)">
    <g id="Elipse_12108" data-name="Elipse 12108" transform="translate(1241.5 465)" fill="#f3bc5b" stroke="rgba(255,255,255,0.4)" stroke-width="7">
      <circle cx="55" cy="55" r="55" stroke="none"/>
      <circle cx="55" cy="55" r="58.5" fill="none"/>
    </g>
    <g id="Grupo_1176761" data-name="Grupo 1176761" transform="translate(1266.5 490)">
      <path id="Trazado_930642" data-name="Trazado 930642" d="M21.021,28.977A11.322,11.322,0,0,0,12.493,25a11.318,11.318,0,0,0-8.527,3.977,14.637,14.637,0,0,0,0,18.9l8.527,9.633,8.527-9.633A14.636,14.636,0,0,0,21.021,28.977Zm-1.5,17.573-7.029,7.941L5.464,46.55a12.58,12.58,0,0,1,0-16.247A9.347,9.347,0,0,1,12.493,27a9.346,9.346,0,0,1,7.029,3.3A12.581,12.581,0,0,1,19.523,46.55Z" fill="#004e3d"/>
      <path id="Trazado_930643" data-name="Trazado 930643" d="M48.747,24.507l6.464-7.286a10.989,10.989,0,0,0,0-14.216,8.456,8.456,0,0,0-12.929,0,10.989,10.989,0,0,0,0,14.216ZM43.778,4.333a6.457,6.457,0,0,1,9.937,0,8.936,8.936,0,0,1,0,11.56l-4.968,5.6-4.969-5.6A8.936,8.936,0,0,1,43.778,4.333Z" fill="#004e3d"/>
      <path id="Trazado_930644" data-name="Trazado 930644" d="M52.6,54.517a1,1,0,0,0-1.195.756,3.469,3.469,0,0,1-.663,1.392A1,1,0,1,0,52.318,57.9a5.51,5.51,0,0,0,1.042-2.188A1,1,0,0,0,52.6,54.517Z" fill="#004e3d"/>
      <path id="Trazado_930645" data-name="Trazado 930645" d="M32,31a3.517,3.517,0,0,1-1.252-.23,1,1,0,0,0-.713,1.869A5.521,5.521,0,0,0,31.993,33h.357a1,1,0,1,0,0-2Z" fill="#004e3d"/>
      <path id="Trazado_930646" data-name="Trazado 930646" d="M29.621,24.676a1,1,0,0,0,.528-.151,3.452,3.452,0,0,1,1.454-.5,1,1,0,0,0-.219-1.989,5.423,5.423,0,0,0-2.294.794,1,1,0,0,0,.531,1.849Z" fill="#004e3d"/>
      <path id="Trazado_930647" data-name="Trazado 930647" d="M18.064,58h-2a1,1,0,0,0,0,2h2a1,1,0,0,0,0-2Z" fill="#004e3d"/>
      <path id="Trazado_930648" data-name="Trazado 930648" d="M35.993,40c-.086,0-.171,0-.256.006a1,1,0,0,0,.04,2h.042l1.959,0a1,1,0,0,0,0-2Z" fill="#004e3d"/>
      <path id="Trazado_930649" data-name="Trazado 930649" d="M35.493,24h2a1,1,0,0,0,0-2h-2a1,1,0,0,0,0,2Z" fill="#004e3d"/>
      <path id="Trazado_930650" data-name="Trazado 930650" d="M47.778,40a1,1,0,0,0,0,2h2a1,1,0,0,0,0-2Z" fill="#004e3d"/>
      <path id="Trazado_930651" data-name="Trazado 930651" d="M51.351,32a1,1,0,0,0-1-1h-2a1,1,0,0,0,0,2h2A1,1,0,0,0,51.351,32Z" fill="#004e3d"/>
      <path id="Trazado_930652" data-name="Trazado 930652" d="M41.778,42h2a1,1,0,0,0,0-2h-2a1,1,0,0,0,0,2Z" fill="#004e3d"/>
      <path id="Trazado_930653" data-name="Trazado 930653" d="M43.493,24a1,1,0,0,0,0-2h-2a1,1,0,0,0,0,2Z" fill="#004e3d"/>
      <path id="Trazado_930654" data-name="Trazado 930654" d="M36.351,31a1,1,0,0,0,0,2h2a1,1,0,0,0,0-2Z" fill="#004e3d"/>
      <path id="Trazado_930655" data-name="Trazado 930655" d="M45.351,32a1,1,0,0,0-1-1h-2a1,1,0,0,0,0,2h2A1,1,0,0,0,45.351,32Z" fill="#004e3d"/>
      <path id="Trazado_930656" data-name="Trazado 930656" d="M59.426,35.632a1,1,0,1,0-1.975.317,3.3,3.3,0,0,1,.042.552,3.5,3.5,0,0,1-.142.988,1,1,0,0,0,.679,1.241,1.015,1.015,0,0,0,.281.04,1,1,0,0,0,.96-.719,5.509,5.509,0,0,0,.222-1.543A5.316,5.316,0,0,0,59.426,35.632Z" fill="#004e3d"/>
      <path id="Trazado_930657" data-name="Trazado 930657" d="M42.064,58h-2a1,1,0,0,0,0,2h2a1,1,0,0,0,0-2Z" fill="#004e3d"/>
      <path id="Trazado_930658" data-name="Trazado 930658" d="M36.064,58h-2a1,1,0,0,0,0,2h2a1,1,0,0,0,0-2Z" fill="#004e3d"/>
      <path id="Trazado_930659" data-name="Trazado 930659" d="M47.065,50a1,1,0,0,0-1-1h-2a1,1,0,0,0,0,2h2A1,1,0,0,0,47.065,50Z" fill="#004e3d"/>
      <path id="Trazado_930660" data-name="Trazado 930660" d="M41.065,50a1,1,0,0,0-1-1h-2a1,1,0,0,0,0,2h2A1,1,0,0,0,41.065,50Z" fill="#004e3d"/>
      <path id="Trazado_930661" data-name="Trazado 930661" d="M47.993,58h-1.93a1,1,0,0,0,0,2h1.971l.029-1v1a.97.97,0,0,0,.965-1A1.029,1.029,0,0,0,47.993,58Z" fill="#004e3d"/>
      <path id="Trazado_930662" data-name="Trazado 930662" d="M51.531,52.719a1,1,0,0,0,.785-1.618,5.543,5.543,0,0,0-1.879-1.528,1,1,0,1,0-.891,1.791,3.508,3.508,0,0,1,1.2.974A1,1,0,0,0,51.531,52.719Z" fill="#004e3d"/>
      <path id="Trazado_930663" data-name="Trazado 930663" d="M55.345,39.729A3.472,3.472,0,0,1,53.993,40h-.215a1,1,0,0,0,0,2h.215a5.46,5.46,0,0,0,2.125-.427,1,1,0,0,0-.773-1.844Z" fill="#004e3d"/>
      <path id="Trazado_930664" data-name="Trazado 930664" d="M28.029,29.855a1,1,0,0,0,.638-1.263,3.494,3.494,0,0,1-.174-1.088,3.922,3.922,0,0,1,.028-.449,1,1,0,0,0-1.984-.25,5.823,5.823,0,0,0-.044.694,5.5,5.5,0,0,0,.273,1.718,1,1,0,0,0,.95.688A.971.971,0,0,0,28.029,29.855Z" fill="#004e3d"/>
      <path id="Trazado_930665" data-name="Trazado 930665" d="M24.064,58h-2a1,1,0,0,0,0,2h2a1,1,0,0,0,0-2Z" fill="#004e3d"/>
      <path id="Trazado_930666" data-name="Trazado 930666" d="M34.122,50.594a1,1,0,0,0,.417-1.909,3.538,3.538,0,0,1-1.228-.936,1,1,0,1,0-1.531,1.287A5.538,5.538,0,0,0,33.707,50.5,1.007,1.007,0,0,0,34.122,50.594Z" fill="#004e3d"/>
      <path id="Trazado_930667" data-name="Trazado 930667" d="M56.746,31.738a5.438,5.438,0,0,0-2.317-.722,1,1,0,0,0-.156,1.994,3.443,3.443,0,0,1,1.47.458,1,1,0,1,0,1-1.73Z" fill="#004e3d"/>
      <path id="Trazado_930668" data-name="Trazado 930668" d="M30.064,58h-2a1,1,0,0,0,0,2h2a1,1,0,0,0,0-2Z" fill="#004e3d"/>
      <path id="Trazado_930669" data-name="Trazado 930669" d="M32.555,44.839a3.474,3.474,0,0,1,.619-1.413,1,1,0,0,0-1.611-1.185,5.48,5.48,0,0,0-.973,2.222,1,1,0,0,0,.794,1.171,1,1,0,0,0,1.171-.8Z" fill="#004e3d"/>
      <path id="Trazado_930670" data-name="Trazado 930670" d="M48.993,15a5.5,5.5,0,1,0-5.5-5.5A5.507,5.507,0,0,0,48.993,15Zm0-9a3.5,3.5,0,1,1-3.5,3.5A3.5,3.5,0,0,1,48.993,6Z" fill="#004e3d"/>
      <path id="Trazado_930671" data-name="Trazado 930671" d="M12.493,31a6,6,0,1,0,6,6A6.006,6.006,0,0,0,12.493,31Zm0,10a4,4,0,1,1,4-4A4,4,0,0,1,12.493,41Z" fill="#004e3d"/>
    </g>
  </g>
</svg>
