<svg xmlns="http://www.w3.org/2000/svg" width="114" height="114" viewBox="0 0 114 114">
  <g id="Grupo_1177705" data-name="Grupo 1177705" transform="translate(-1234.5 -458)">
    <g id="Elipse_12108" data-name="Elipse 12108" transform="translate(1241.5 465)" fill="#f3bc5b" stroke="rgba(255,255,255,0.4)" stroke-width="7">
      <circle cx="50" cy="50" r="50" stroke="none"/>
      <circle cx="50" cy="50" r="53.5" fill="none"/>
    </g>
    <path id="Trazado_937330" data-name="Trazado 937330" d="M72.7,159.606H71.231l1.467-1.467v-2.022L70.681,154.1l2.017-2.017v-2.022l-2.018-2.018,2.018-2.018V144l-2.017-2.017,2.017-2.018v-2.022l-1.467-1.467H72.7v-1.429H63.265a.714.714,0,0,0-.714.714v2.05H61.3v-2.7H59.867v2.7H58.612v-2.05a.714.714,0,0,0-.714-.714H14.8a.714.714,0,0,0-.714.714v2.05H12.831v-2.7H11.4v2.7H10.148v-2.05a.714.714,0,0,0-.714-.714H0v1.429H1.467L0,137.944v2.022l2.017,2.018L0,144v2.022l2.018,2.018L0,150.059v2.022L2.017,154.1,0,156.116v2.022l1.467,1.467H0v1.429H9.433a.714.714,0,0,0,.714-.714v-2.05H11.4v6.6h1.429v-6.6h1.255v2.05a.714.714,0,0,0,.714.714H57.9a.714.714,0,0,0,.714-.714v-2.05h1.255v6.6H61.3v-6.6h1.255v2.05a.714.714,0,0,0,.714.714H72.7ZM7.525,136.477l-1.468,1.468-1.468-1.468ZM4.038,148.042l2.019-2.019,2.019,2.019L6.056,150.06ZM8.075,154.1l-2.019,2.019L4.038,154.1l2.019-2.018ZM4.038,141.984l2.019-2.019,2.019,2.019L6.056,144Zm-3.029-3.029,2.019-2.019,2.019,2.019-2.019,2.019Zm0,6.057,2.019-2.018,2.019,2.018-2.019,2.019Zm0,6.057,2.019-2.019,2.019,2.019-2.019,2.018Zm0,6.057,2.019-2.019,2.019,2.019-2.019,2.019Zm3.579,2.479,1.468-1.468,1.468,1.468Zm4.131-.826-1.653-1.653,1.653-1.653Zm0-6.057L7.066,151.07l1.653-1.653Zm0-6.057-1.653-1.653,1.653-1.653Zm0-6.057-1.653-1.653L8.719,137.3ZM11.4,156.841H10.148v-17.6H11.4Zm2.683,0H12.831v-17.6h1.255Zm41.9-20.364-1.468,1.468-1.468-1.468Zm-6.516,8.536,2.019-2.018,2.019,2.018-2.019,2.019Zm1.008,3.029-2.019,2.019-2.019-2.019,2.019-2.019ZM48.464,144l-2.019-2.018,2.019-2.019,2.019,2.019Zm-1.01,1.01-2.019,2.019-2.019-2.019,2.019-2.018Zm-3.029,3.029-2.019,2.019-2.019-2.019,2.019-2.019ZM42.406,144l-2.019-2.018,2.019-2.019,2.019,2.019Zm-1.01,1.01-2.019,2.019-2.019-2.019,2.019-2.018Zm-3.029,3.029-2.019,2.019-2.019-2.019,2.019-2.019ZM36.349,144l-2.019-2.018,2.019-2.019,2.019,2.019Zm-1.01,1.01-2.019,2.019L31.3,145.013l2.019-2.018Zm-3.029,3.029-2.019,2.019-2.019-2.019,2.019-2.019ZM30.292,144l-2.019-2.018,2.019-2.019,2.019,2.019Zm-1.01,1.01-2.019,2.019-2.019-2.019,2.019-2.018Zm-3.029,3.029-2.019,2.019-2.019-2.019,2.019-2.019ZM24.235,144l-2.019-2.018,2.019-2.019,2.019,2.019Zm-1.01,1.01-2.019,2.019-2.019-2.019,2.019-2.018ZM18.177,144l-2.019-2.018,2.019-2.019,2.019,2.019Zm2.019,4.039-2.019,2.019-2.019-2.019,2.019-2.019Zm0,6.057-2.019,2.019L16.159,154.1l2.019-2.018Zm-1.008-3.029,2.019-2.019,2.019,2.019-2.019,2.018Zm5.047,1.01,2.019,2.018-2.019,2.019L22.216,154.1Zm1.01-1.01,2.019-2.019,2.019,2.019-2.019,2.018Zm5.047,1.01L32.31,154.1l-2.019,2.019L28.273,154.1Zm1.01-1.01,2.019-2.019,2.019,2.019-2.019,2.018Zm5.047,1.01,2.019,2.018-2.019,2.019L34.331,154.1Zm1.01-1.01,2.019-2.019L41.4,151.07l-2.019,2.018Zm5.047,1.01,2.019,2.018-2.019,2.019L40.388,154.1Zm1.01-1.01,2.019-2.019,2.019,2.019-2.019,2.018Zm5.047,1.01,2.019,2.018-2.019,2.019L46.445,154.1Zm1.01-1.01,2.019-2.019,2.019,2.019-2.019,2.018Zm5.047,1.01L56.54,154.1l-2.019,2.019L52.5,154.1ZM52.5,148.042l2.019-2.019,2.019,2.019-2.019,2.019Zm0-6.057,2.019-2.019,2.019,2.019L54.521,144Zm1.008-3.029-2.019,2.019-2.019-2.019,2.019-2.019Zm-3.579-2.479-1.468,1.468L47,136.477Zm-2.479,2.479-2.019,2.019-2.019-2.019,2.019-2.019Zm-3.579-2.479-1.468,1.468-1.468-1.468ZM41.4,138.956l-2.019,2.019-2.019-2.019,2.019-2.019Zm-3.579-2.479-1.468,1.468-1.468-1.468Zm-2.479,2.479-2.019,2.019L31.3,138.956l2.019-2.019Zm-3.579-2.479-1.468,1.468-1.468-1.468Zm-2.479,2.479-2.019,2.019-2.019-2.019,2.019-2.019ZM25.7,136.477l-1.468,1.468-1.468-1.468Zm-2.478,2.479-2.019,2.019-2.019-2.019,2.019-2.019Zm-3.579-2.479-1.468,1.468-1.468-1.468Zm-4.131.826,1.653,1.653-1.653,1.653Zm0,6.058,1.653,1.653-1.653,1.653Zm0,6.057,1.653,1.653-1.653,1.653Zm0,6.057,1.653,1.653-1.653,1.653Zm1.194,4.131,1.468-1.468,1.468,1.468Zm2.479-2.479,2.019-2.019,2.019,2.019-2.019,2.019Zm3.579,2.479,1.468-1.468,1.468,1.468Zm2.479-2.479,2.019-2.019,2.019,2.019-2.019,2.019Zm3.579,2.479,1.468-1.468,1.468,1.468Zm2.479-2.479,2.019-2.019,2.019,2.019-2.019,2.019Zm3.579,2.479,1.468-1.468,1.468,1.468Zm2.479-2.479,2.019-2.019,2.019,2.019-2.019,2.019Zm3.579,2.479,1.468-1.468,1.468,1.468Zm2.479-2.479,2.019-2.019,2.019,2.019-2.019,2.019ZM47,159.606l1.468-1.468,1.468,1.468Zm2.479-2.479,2.019-2.019,2.019,2.019-2.019,2.019Zm3.579,2.479,1.468-1.468,1.468,1.468Zm4.131-.826-1.653-1.653,1.653-1.653Zm0-6.057-1.653-1.653,1.653-1.653Zm0-6.057-1.653-1.653,1.653-1.653Zm0-6.057-1.653-1.653,1.653-1.653Zm2.683,16.233H58.612v-17.6h1.255Zm2.683,0H61.3v-17.6h1.255Zm9.138-5.771-2.019,2.018-2.019-2.018,2.019-2.019Zm-3.029-3.029-2.019,2.019-2.019-2.019,2.019-2.019Zm-4.037-6.057,2.019-2.019,2.019,2.019L66.642,144ZM68.661,154.1l-2.019,2.019L64.624,154.1l2.019-2.018Zm3.029-9.086-2.019,2.019-2.019-2.019,2.019-2.018Zm0-6.057-2.019,2.019-2.019-2.019,2.019-2.019Zm-3.579-2.479-1.468,1.468-1.468-1.468Zm-4.131.826,1.653,1.653-1.653,1.653Zm0,6.058,1.653,1.653-1.653,1.653Zm0,6.057,1.653,1.653-1.653,1.653Zm0,6.057,1.653,1.653-1.653,1.653Zm1.194,4.131,1.468-1.468,1.468,1.468Zm2.479-2.479,2.019-2.019,2.019,2.019-2.019,2.019Z" transform="translate(1255.151 365.039)" fill="#004e3d"/>
  </g>
</svg>
