<svg xmlns="http://www.w3.org/2000/svg" width="70" height="70" viewBox="0 0 70 70">
  <g id="Grupo_1178472" data-name="Grupo 1178472" transform="translate(-704.668 -6155)">
    <path id="Trazado_925100" data-name="Trazado 925100" d="M7.778,0H62.222A7.778,7.778,0,0,1,70,7.778V62.222A7.778,7.778,0,0,1,62.222,70H7.778A7.778,7.778,0,0,1,0,62.222V7.778A7.778,7.778,0,0,1,7.778,0Z" transform="translate(704.668 6155)" fill="#b2be91"/>
    <g id="Grupo_1178871" data-name="Grupo 1178871" transform="translate(664.305 6165.297)">
      <g id="Grupo_1178870" data-name="Grupo 1178870" transform="translate(56.795 0.724)">
        <path id="Trazado_937363" data-name="Trazado 937363" d="M92.221,251.83l1.119-20.859a6.472,6.472,0,0,1,6.462-6.125h16.444a6.472,6.472,0,0,1,6.462,6.125l1.119,20.859Z" transform="translate(-89.456 -203.874)" fill="#b1d8fc"/>
        <path id="Trazado_937364" data-name="Trazado 937364" d="M320.567,230.971a6.472,6.472,0,0,0-6.462-6.125H311.21a6.472,6.472,0,0,1,6.462,6.125l1.119,20.859h2.895Z" transform="translate(-287.315 -203.874)" fill="#88c7fc"/>
        <g id="Grupo_1178869" data-name="Grupo 1178869" transform="translate(0)">
          <g id="Grupo_1178868" data-name="Grupo 1178868" transform="translate(0 25.729)">
            <path id="Trazado_937365" data-name="Trazado 937365" d="M100.705,296.127v-8.055a7.719,7.719,0,0,0-5.8-7.478l-6.578-1.685a1.93,1.93,0,0,1-1.451-1.869v-2.9H77.4v2.9a1.93,1.93,0,0,1-1.451,1.869l-6.578,1.685a7.719,7.719,0,0,0-5.8,7.478v8.055a.965.965,0,0,0,.965.965H99.74A.965.965,0,0,0,100.705,296.127Z" transform="translate(-63.569 -274.14)" fill="#f48996"/>
            <g id="Grupo_1178863" data-name="Grupo 1178863" transform="translate(20.409 0)">
              <path id="Trazado_937366" data-name="Trazado 937366" d="M286,280.594l-6.578-1.685a1.93,1.93,0,0,1-1.451-1.869v-2.9h-2.895v4.347a1.93,1.93,0,0,0,1.451,1.869l6.578,1.685a7.719,7.719,0,0,1,5.8,7.478v7.572h1.93a.965.965,0,0,0,.965-.965v-8.055A7.72,7.72,0,0,0,286,280.594Z" transform="translate(-275.081 -274.14)" fill="#ef7280"/>
            </g>
            <path id="Trazado_937367" data-name="Trazado 937367" d="M196.971,278.706a6.914,6.914,0,0,0,11.392,0,1.929,1.929,0,0,1-.96-1.667v-2.9h-9.472v2.9A1.929,1.929,0,0,1,196.971,278.706Z" transform="translate(-184.099 -274.14)" fill="#ffdecf"/>
            <path id="Trazado_937368" data-name="Trazado 937368" d="M276.533,280.356l.59.151a6.958,6.958,0,0,0,1.813-1.8,1.929,1.929,0,0,1-.96-1.667v-2.9h-2.895v4.347A1.93,1.93,0,0,0,276.533,280.356Z" transform="translate(-254.673 -274.14)" fill="#ffcdbe"/>
            <path id="Trazado_937369" data-name="Trazado 937369" d="M252,341.5a81.351,81.351,0,0,0,8.314-14.887.864.864,0,0,0-.469-1.139l-3.235-1.318a.864.864,0,0,0-1.112.443c-1.029,2.265-2.221,4.65-3.605,7.115a93.421,93.421,0,0,1-6.326,9.785l-.563.724h6.465Z" transform="translate(-227.493 -319.277)" fill="#3c6d91"/>
            <path id="Trazado_937370" data-name="Trazado 937370" d="M293.271,325.479l-3.235-1.318a.864.864,0,0,0-1.112.443l-.11.238,1.562.636a.864.864,0,0,1,.469,1.139,81.345,81.345,0,0,1-8.314,14.887l-.532.724h2.895l.532-.724a81.35,81.35,0,0,0,8.314-14.887A.863.863,0,0,0,293.271,325.479Z" transform="translate(-260.923 -319.277)" fill="#345e80"/>
            <g id="Grupo_1178867" data-name="Grupo 1178867" transform="translate(4.295 11.427)">
              <g id="Grupo_1178864" data-name="Grupo 1178864" transform="translate(0.749)">
                <path id="Trazado_937371" data-name="Trazado 937371" d="M115.975,403.361a13.7,13.7,0,0,1,26.778,0l.12.724h-4.632l-.191-.724a9.156,9.156,0,0,0-17.372,0l-.191.724H115.84Z" transform="translate(-115.84 -392.56)" fill="#e9f5ff"/>
              </g>
              <g id="Grupo_1178865" data-name="Grupo 1178865" transform="translate(2.501)">
                <path id="Trazado_937372" data-name="Trazado 937372" d="M142.877,439.62a9.171,9.171,0,0,0-8.686,6.26L134,446.6h2.895l.191-.724a9.183,9.183,0,0,1,7.239-6.145A9.178,9.178,0,0,0,142.877,439.62Z" transform="translate(-134 -435.079)" fill="#d7ebfd"/>
                <path id="Trazado_937373" data-name="Trazado 937373" d="M255.837,403.361A13.705,13.705,0,0,0,241,392.636a13.7,13.7,0,0,1,11.942,10.725l.12.724h2.895Z" transform="translate(-230.675 -392.56)" fill="#d7ebfd"/>
              </g>
              <g id="Grupo_1178866" data-name="Grupo 1178866" transform="translate(0 1.604)">
                <path id="Trazado_937374" data-name="Trazado 937374" d="M351.877,415.935h0a1.535,1.535,0,0,1-1.958-.665,23.233,23.233,0,0,1-1.114-2.308c-.241-.578-.446-1.136-.621-1.67a1.534,1.534,0,0,1,.845-1.884,2.686,2.686,0,0,1,3.485,1.272q.158.321.312.661.273.6.491,1.179A2.684,2.684,0,0,1,351.877,415.935Z" transform="translate(-324.946 -409.184)" fill="#ffdecf"/>
                <path id="Trazado_937375" data-name="Trazado 937375" d="M358.68,412.523q-.22-.574-.491-1.179-.153-.34-.312-.661a2.686,2.686,0,0,0-3.485-1.272,1.534,1.534,0,0,0-.349.212,2.668,2.668,0,0,1,.939,1.06q.158.321.312.661.273.6.491,1.179a2.677,2.677,0,0,1-.507,2.739l.005.01a1.535,1.535,0,0,0,1.958.665h0A2.684,2.684,0,0,0,358.68,412.523Z" transform="translate(-330.31 -409.185)" fill="#ffcdbe"/>
                <path id="Trazado_937376" data-name="Trazado 937376" d="M109.695,415.935h0a1.535,1.535,0,0,0,1.958-.665,23.257,23.257,0,0,0,1.114-2.308c.241-.578.446-1.136.621-1.67a1.534,1.534,0,0,0-.845-1.884,2.686,2.686,0,0,0-3.485,1.272q-.158.321-.312.661-.273.6-.491,1.179A2.684,2.684,0,0,0,109.695,415.935Z" transform="translate(-108.079 -409.184)" fill="#ffdecf"/>
                <path id="Trazado_937377" data-name="Trazado 937377" d="M118.943,409.411a2.688,2.688,0,0,0-2.546.212,1.532,1.532,0,0,1,.5,1.672c-.176.533-.381,1.092-.621,1.67a23.227,23.227,0,0,1-1.109,2.3,2.685,2.685,0,0,0,.932.674h0a1.535,1.535,0,0,0,1.958-.665,23.237,23.237,0,0,0,1.114-2.308c.241-.578.446-1.136.621-1.67A1.533,1.533,0,0,0,118.943,409.411Z" transform="translate(-114.479 -409.186)" fill="#ffcdbe"/>
              </g>
            </g>
          </g>
          <path id="Trazado_937378" data-name="Trazado 937378" d="M168.665,21.344H147.78V13.507A6.007,6.007,0,0,1,153.787,7.5h8.87a6.007,6.007,0,0,1,6.007,6.007Z" transform="translate(-139.654 -7.5)" fill="#3c6d91"/>
          <path id="Trazado_937379" data-name="Trazado 937379" d="M274.86,7.5h-2.895a6.007,6.007,0,0,1,6.007,6.007v7.837h2.895V13.507A6.007,6.007,0,0,0,274.86,7.5Z" transform="translate(-251.856 -7.5)" fill="#345e80"/>
          <path id="Trazado_937380" data-name="Trazado 937380" d="M158.222,111.233a10.208,10.208,0,0,1-4.736-.789,10.468,10.468,0,0,1-5.707-9.33V95.76a23.4,23.4,0,0,0,8.828-1.814,23.047,23.047,0,0,0,4.078-2.226.671.671,0,0,1,.821.048,19.712,19.712,0,0,0,7.157,3.992v5.354A10.467,10.467,0,0,1,163,110.421,10.2,10.2,0,0,1,158.222,111.233Z" transform="translate(-139.654 -83.487)" fill="#ffdecf"/>
          <path id="Trazado_937381" data-name="Trazado 937381" d="M158.222,111.233a10.208,10.208,0,0,1-4.736-.789,10.468,10.468,0,0,1-5.707-9.33V95.76a23.4,23.4,0,0,0,8.828-1.814,23.047,23.047,0,0,0,4.078-2.226.671.671,0,0,1,.821.048,19.712,19.712,0,0,0,7.157,3.992v5.354A10.467,10.467,0,0,1,163,110.421,10.2,10.2,0,0,1,158.222,111.233Z" transform="translate(-139.654 -83.487)" fill="#ffdecf"/>
          <path id="Trazado_937382" data-name="Trazado 937382" d="M222.1,129.277v-5.354a19.8,19.8,0,0,1-2.891-1.15l0,6.5a9.376,9.376,0,0,1-12.283,9.33h0a10.442,10.442,0,0,0,15.177-9.33Z" transform="translate(-193.088 -111.65)" fill="#ffcdbe"/>
          <path id="Trazado_937383" data-name="Trazado 937383" d="M364.609,140.207h-.388v-5.388h.388a2.694,2.694,0,1,1,0,5.388Z" transform="translate(-335.21 -122.534)" fill="#ffdecf"/>
          <path id="Trazado_937384" data-name="Trazado 937384" d="M118.53,140.207h.388v-5.388h-.388a2.694,2.694,0,1,0,0,5.388Z" transform="translate(-110.793 -122.534)" fill="#ffcdbe"/>
        </g>
      </g>
      <path id="Trazado_937385" data-name="Trazado 937385" d="M75.363,41.7A9.766,9.766,0,0,0,71.021,42.7a.724.724,0,1,0,.638,1.3,8.331,8.331,0,0,1,3.7-.858,8.44,8.44,0,0,1,2.239.3c-1.057,1.638-2.171,3.25-3.32,4.8a.724.724,0,1,0,1.164.86c1.229-1.663,2.419-3.392,3.544-5.147A8.43,8.43,0,0,1,82,46.374c-.428.646-.861,1.28-1.292,1.889a.724.724,0,1,0,1.182.835c.321-.454.642-.921.963-1.4a8.5,8.5,0,0,1,.511,1.208.724.724,0,1,0,1.373-.459A9.908,9.908,0,0,0,75.363,41.7Zm-7.305,3.235a9.821,9.821,0,0,0-2.067,3.52.724.724,0,1,0,1.373.459,8.385,8.385,0,0,1,1.765-3,.724.724,0,1,0-1.07-.974Zm11.4-29.83a.724.724,0,0,0-.724.724v1.637a.724.724,0,1,0,1.447,0V15.824A.724.724,0,0,0,79.454,15.1Zm-2.8,7.35a2.744,2.744,0,0,1-1.317.331,2.692,2.692,0,0,1-1.261-.331.724.724,0,1,0-.7,1.269,4.142,4.142,0,0,0,1.942.509,4.253,4.253,0,0,0,2.028-.509.724.724,0,1,0-.7-1.269ZM91.075,33.481l-.306-5.7A7.156,7.156,0,0,0,86.1,21.426a11.144,11.144,0,0,0,.389-2.121,3.417,3.417,0,0,0,.041-6.8V6.731A6.738,6.738,0,0,0,79.8,0H70.927A6.738,6.738,0,0,0,64.2,6.731V12.5a3.417,3.417,0,0,0,.041,6.8,11.138,11.138,0,0,0,.389,2.121,7.156,7.156,0,0,0-4.671,6.356l-.306,5.7a8.438,8.438,0,0,0-3.579,6.9v8.3a.724.724,0,1,0,1.447,0v-8.3a6.992,6.992,0,0,1,5.259-6.776c.06-.015,6.592-1.688,6.647-1.707a7.634,7.634,0,0,0,11.876,0c.079.025,2.277.589,2.36.608-.907,1.931-1.884,3.84-2.913,5.691a14.411,14.411,0,0,0-13.885,1.728,2.256,2.256,0,0,0-1.02-.883,3.4,3.4,0,0,0-4.424,1.616c-.111.225-.219.455-.322.683-.18.4-.351.809-.508,1.219a3.4,3.4,0,0,0,1.245,4.012,14.4,14.4,0,0,0-.569,1.954.724.724,0,0,0,1.415.305,12.93,12.93,0,0,1,.508-1.749A2.246,2.246,0,0,0,65.3,45.919a24.078,24.078,0,0,0,1.149-2.379c.234-.563.45-1.142.641-1.722a2.277,2.277,0,0,0,.073-.292,12.972,12.972,0,0,1,16.408,0,2.3,2.3,0,0,0,.073.292c.191.58.406,1.159.641,1.722a24.092,24.092,0,0,0,1.149,2.38,2.247,2.247,0,0,0,2.107,1.164,12.939,12.939,0,0,1,.508,1.749.724.724,0,0,0,1.415-.305,14.385,14.385,0,0,0-.569-1.954,3.4,3.4,0,0,0,1.245-4.012c-.157-.41-.327-.82-.508-1.219-.1-.228-.211-.457-.322-.683a3.393,3.393,0,0,0-1.421-1.485c.775-1.516,1.508-3.067,2.187-4.627a6.953,6.953,0,0,1,3.135,5.834v8.3a.724.724,0,1,0,1.447,0v-8.3A8.389,8.389,0,0,0,91.075,33.481ZM86.529,13.959a1.97,1.97,0,0,1,0,3.883ZM64.2,17.842a1.97,1.97,0,0,1,0-3.883Zm1.514,23.524c-.179.545-.382,1.089-.6,1.618a22.61,22.61,0,0,1-1.079,2.236A.808.808,0,0,1,63,45.572a1.955,1.955,0,0,1-1.056-2.493c.146-.383.306-.767.475-1.14.1-.213.2-.428.3-.639a1.959,1.959,0,0,1,2.546-.929A.806.806,0,0,1,65.711,41.366ZM69.9,29.352A1.206,1.206,0,0,1,69,30.52l-6.578,1.686a8.466,8.466,0,0,0-1.273.438l.257-4.784a5.716,5.716,0,0,1,3.713-5.071,11.252,11.252,0,0,0,4.789,5.32Zm5.46,3.938a6.194,6.194,0,0,1-4.7-2.16,2.649,2.649,0,0,0,.685-1.778v-.56a11.138,11.138,0,0,0,8.024,0v.56a2.649,2.649,0,0,0,.685,1.778,6.194,6.194,0,0,1-4.7,2.16Zm0-5.2a9.741,9.741,0,0,1-9.719-9.742V13.7a24.177,24.177,0,0,0,6.363-1.108.724.724,0,0,0-.438-1.38,22.722,22.722,0,0,1-5.925,1.038V6.731a5.289,5.289,0,0,1,5.283-5.283H79.8a5.289,5.289,0,0,1,5.283,5.283v5.256a19.02,19.02,0,0,1-3.375-1.629,19.046,19.046,0,0,1-2.583-1.9,1.4,1.4,0,0,0-1.706-.1A22.454,22.454,0,0,1,74.607,10a.724.724,0,0,0,.636,1.3A23.912,23.912,0,0,0,78.2,9.576a20.508,20.508,0,0,0,2.749,2.016,20.489,20.489,0,0,0,4.13,1.931v4.828a9.741,9.741,0,0,1-9.719,9.742ZM88.008,41.3c.1.211.205.426.3.639.169.374.328.757.475,1.14a1.955,1.955,0,0,1-1.056,2.493.808.808,0,0,1-1.032-.353,22.625,22.625,0,0,1-1.08-2.236c-.22-.529-.423-1.073-.6-1.617a.806.806,0,0,1,.447-.994,1.96,1.96,0,0,1,2.546.929Zm.939-7.792c-.76,1.773-1.593,3.539-2.479,5.257a3.411,3.411,0,0,0-1.585.28,2.256,2.256,0,0,0-1.02.883,14.392,14.392,0,0,0-1.8-1.119c1.207-2.179,2.351-4.453,3.389-6.73a.14.14,0,0,1,.181-.072l3.236,1.318a.131.131,0,0,1,.076.183ZM86.18,30.666a1.583,1.583,0,0,0-1.866.516l-2.584-.662a1.206,1.206,0,0,1-.907-1.168V28.108a11.252,11.252,0,0,0,4.789-5.32,5.716,5.716,0,0,1,3.713,5.071l.225,4.187c-.116-.062-3.236-1.326-3.369-1.38ZM71.271,15.1a.724.724,0,0,0-.724.724v1.637a.724.724,0,0,0,1.447,0V15.824A.724.724,0,0,0,71.271,15.1Z" transform="translate(0 0)"/>
    </g>
  </g>
</svg>
