<svg xmlns="http://www.w3.org/2000/svg" width="85" height="98" viewBox="0 0 85 98">
  <g id="Grupo_1179065" data-name="Grupo 1179065" transform="translate(-63.664 -6445)">
    <rect id="Rectángulo_402033" data-name="Rectángulo 402033" width="85" height="98" rx="10" transform="translate(63.664 6445)" fill="#f3bc5b"/>
    <g id="Grupo_1178943" data-name="Grupo 1178943" transform="translate(61.173 6466)">
      <path id="Trazado_937561" data-name="Trazado 937561" d="M115.86,128.152l-19.666,1.513-19.666-1.513V110a19.666,19.666,0,0,1,39.332,0Z" transform="translate(-50.787 -80.435)" fill="#fd8087"/>
      <path id="Trazado_937562" data-name="Trazado 937562" d="M102.719,100.447a19.647,19.647,0,0,1,8.758,16.366v7.2a10.958,10.958,0,0,1-10.958,10.958H76.528v2.192l19.666,1.513,19.666-1.513V119A19.674,19.674,0,0,0,102.719,100.447Z" transform="translate(-50.787 -89.44)" fill="#fe646f"/>
      <circle id="Elipse_13656" data-name="Elipse 13656" cx="10.589" cy="10.589" r="10.589" transform="translate(34.818 22.001)" fill="#2abcc8"/>
      <path id="Trazado_937563" data-name="Trazado 937563" d="M212.88,245.976H209.1v-3.782H204.56v3.782h-3.782v4.538h3.782V254.3H209.1v-3.782h3.782Z" transform="translate(-161.422 -215.655)" fill="#fff"/>
      <ellipse id="Elipse_13657" data-name="Elipse 13657" cx="7.564" cy="3.026" rx="7.564" ry="3.026" transform="translate(37.843 12.924)" fill="#fdb4ba"/>
      <path id="Trazado_937564" data-name="Trazado 937564" d="M105.079,438.5,83.9,440.01,62.722,438.5v-3.026h42.357Z" transform="translate(-38.494 -387.754)" fill="#0681af"/>
      <path id="Trazado_937565" data-name="Trazado 937565" d="M83.52,467.621H35.111l1.513-4.538H82.007Z" transform="translate(-13.908 -412.34)" fill="#b4d2e2"/>
      <g id="Grupo_1178942" data-name="Grupo 1178942" transform="translate(20.312 0.822)">
        <path id="Trazado_937566" data-name="Trazado 937566" d="M243.707,13.551a1.513,1.513,0,0,1-1.513-1.513V9.013a1.513,1.513,0,0,1,3.026,0v3.026A1.513,1.513,0,0,1,243.707,13.551Z" transform="translate(-218.612 -7.5)" fill="#fdb97e"/>
        <path id="Trazado_937567" data-name="Trazado 937567" d="M32.429,135.529a1.513,1.513,0,0,1-2.067.554l-2.62-1.513a1.513,1.513,0,1,1,1.513-2.62l2.62,1.513A1.513,1.513,0,0,1,32.429,135.529Z" transform="translate(-26.985 -118.133)" fill="#fdb97e"/>
        <path id="Trazado_937568" data-name="Trazado 937568" d="M353.393,24a1.513,1.513,0,0,0,2.067-.554l3.092-5.356a1.513,1.513,0,0,0-2.62-1.513l-3.092,5.356A1.513,1.513,0,0,0,353.393,24Z" transform="translate(-316.953 -14.909)" fill="#fdb97e"/>
        <path id="Trazado_937569" data-name="Trazado 937569" d="M108.877,24a1.513,1.513,0,0,1-2.067-.554l-3.092-5.356a1.513,1.513,0,1,1,2.62-1.513l3.092,5.356A1.513,1.513,0,0,1,108.877,24Z" transform="translate(-95.129 -14.909)" fill="#fdb97e"/>
        <path id="Trazado_937570" data-name="Trazado 937570" d="M433.691,135.529a1.513,1.513,0,0,0,2.066.554l2.62-1.513a1.513,1.513,0,0,0-1.513-2.62l-2.62,1.513A1.513,1.513,0,0,0,433.691,135.529Z" transform="translate(-388.945 -118.133)" fill="#fdb97e"/>
      </g>
      <path id="Trazado_937571" data-name="Trazado 937571" d="M76.108,124.24a.822.822,0,0,0-.78-.562h-.691v-2.2a.822.822,0,0,0-.822-.822h-.691V103.321A20.489,20.489,0,0,0,39.779,87.369a.822.822,0,1,0,1.032,1.279,18.845,18.845,0,0,1,30.669,14.673v17.331H33.793V103.321a18.862,18.862,0,0,1,4.384-12.085.822.822,0,1,0-1.26-1.055,20.508,20.508,0,0,0-4.768,13.139v17.331h-.691a.822.822,0,0,0-.822.822v2.2h-.691a.822.822,0,0,0-.78.562l-1.513,4.538a.822.822,0,0,0,.78,1.082H76.841a.822.822,0,0,0,.78-1.082Zm-46.535,3.976.965-2.895h7.5a.822.822,0,0,0,0-1.644H32.28V122.3H72.994v1.382H41.869a.822.822,0,0,0,0,1.644H74.736l.965,2.895Z" transform="translate(-7.23 -73.756)"/>
      <path id="Trazado_937572" data-name="Trazado 937572" d="M237.03,7.695a2.337,2.337,0,0,0,2.335-2.335V2.335a2.335,2.335,0,1,0-4.669,0V5.36A2.337,2.337,0,0,0,237.03,7.695Zm-.691-5.36a.691.691,0,1,1,1.382,0V5.36a.691.691,0,1,1-1.382,0Z" transform="translate(-191.622)"/>
      <path id="Trazado_937573" data-name="Trazado 937573" d="M23.278,130.122a2.335,2.335,0,1,0,2.335-4.044l-2.62-1.513a2.335,2.335,0,1,0-2.335,4.044Zm-2.051-3.88a.692.692,0,0,1,.944-.253l2.62,1.513a.691.691,0,0,1-.691,1.2l-2.62-1.513A.692.692,0,0,1,21.227,126.242Z" transform="translate(0 -110.638)"/>
      <path id="Trazado_937574" data-name="Trazado 937574" d="M346.3,18.04a2.336,2.336,0,0,0,3.189-.854l3.092-5.356A2.335,2.335,0,0,0,348.535,9.5l-3.092,5.356a2.334,2.334,0,0,0,.855,3.189Zm.569-2.367,3.092-5.356a.691.691,0,0,1,1.2.691l-3.092,5.356a.691.691,0,1,1-1.2-.691Z" transform="translate(-289.955 -7.416)"/>
      <path id="Trazado_937575" data-name="Trazado 937575" d="M99.414,17.173a2.335,2.335,0,1,0,4.044-2.335l-3.092-5.356a2.335,2.335,0,1,0-4.044,2.335Zm-1.738-6.7a.691.691,0,0,1,1.266-.167l3.092,5.356a.691.691,0,0,1-.253.944h0a.691.691,0,0,1-.944-.253L97.745,11A.687.687,0,0,1,97.676,10.471Z" transform="translate(-68.132 -7.403)"/>
      <path id="Trazado_937576" data-name="Trazado 937576" d="M432.971,125.42a2.337,2.337,0,0,0-3.189-.854l-2.62,1.513a2.335,2.335,0,0,0,2.335,4.044l2.62-1.513A2.338,2.338,0,0,0,432.971,125.42Zm-1.676,1.766-2.62,1.513a.691.691,0,0,1-.691-1.2l2.62-1.513a.691.691,0,1,1,.691,1.2Z" transform="translate(-361.96 -110.638)"/>
      <path id="Trazado_937577" data-name="Trazado 937577" d="M197.882,248.44h4.538a.822.822,0,0,0,.822-.822v-2.96h2.96a.822.822,0,0,0,.822-.822V239.3a.822.822,0,0,0-.822-.822h-2.96v-2.96a.822.822,0,0,0-.822-.822h-4.538a.822.822,0,0,0-.822.822v2.96H194.1a.822.822,0,0,0-.822.822v4.538a.822.822,0,0,0,.822.822h2.96v2.96A.822.822,0,0,0,197.882,248.44Zm-2.96-5.426V240.12h2.96a.822.822,0,0,0,.822-.822v-2.96H201.6v2.96a.822.822,0,0,0,.822.822h2.96v2.895h-2.96a.822.822,0,0,0-.822.822v2.96H198.7v-2.96a.822.822,0,0,0-.822-.822Z" transform="translate(-154.744 -208.977)"/>
      <path id="Trazado_937578" data-name="Trazado 937578" d="M182.2,117.195a17.385,17.385,0,0,0,11.307,0c1.762-.7,2.732-1.735,2.732-2.9s-.97-2.2-2.732-2.9a17.385,17.385,0,0,0-11.307,0c-1.762.7-2.732,1.735-2.732,2.9S180.442,116.49,182.2,117.195Zm5.654-5.106c4.053,0,6.742,1.326,6.742,2.2s-2.689,2.2-6.742,2.2-6.742-1.326-6.742-2.2S183.8,112.089,187.858,112.089Z" transform="translate(-142.451 -98.343)"/>
      <path id="Trazado_937579" data-name="Trazado 937579" d="M163.272,216.1a11.413,11.413,0,0,0,9.705-17.416.822.822,0,1,0-1.4.866,9.773,9.773,0,1,1-2.366-2.614.822.822,0,0,0,1-1.3,11.306,11.306,0,0,0-6.943-2.355,11.411,11.411,0,1,0,0,22.823Z" transform="translate(-117.865 -172.098)"/>
    </g>
  </g>
</svg>
