<svg xmlns="http://www.w3.org/2000/svg" width="70" height="70" viewBox="0 0 70 70">
  <g id="Grupo_1175543" data-name="Grupo 1175543" transform="translate(-269 -958.087)">
    <circle id="Elipse_5614" data-name="Elipse 5614" cx="35" cy="35" r="35" transform="translate(269 958.087)" fill="#fff"/>
    <g id="Grupo_1178974" data-name="Grupo 1178974" transform="translate(284.755 973.842)">
      <g id="Grupo_1178947" data-name="Grupo 1178947" transform="translate(3.205 0)">
        <g id="Grupo_1178946" data-name="Grupo 1178946">
          <path id="Trazado_937586" data-name="Trazado 937586" d="M4.182,12.846a.8.8,0,0,1-.707-.425C1.632,8.973,1.512,4.971,3.124.529A.794.794,0,0,1,3.916,0a.8.8,0,0,1,.738.6,14.24,14.24,0,0,0,6.393,7.706.8.8,0,1,1-.834,1.371A16.684,16.684,0,0,1,4,3.2a11.785,11.785,0,0,0,.895,8.469.8.8,0,0,1-.709,1.18Z" transform="translate(-1.998 0)" fill="#004e3d"/>
        </g>
      </g>
      <g id="Grupo_1178949" data-name="Grupo 1178949" transform="translate(26.045 0.001)">
        <g id="Grupo_1178948" data-name="Grupo 1178948">
          <path id="Trazado_937587" data-name="Trazado 937587" d="M23.714,12.829A.8.8,0,0,1,23,11.652a11.86,11.86,0,0,0,.879-8.461,16.8,16.8,0,0,1-6.433,6.625.8.8,0,1,1-.818-1.381A14.342,14.342,0,0,0,23.225.6a.8.8,0,0,1,.738-.6.85.85,0,0,1,.792.526c1.607,4.417,1.495,8.412-.332,11.874A.8.8,0,0,1,23.714,12.829Z" transform="translate(-16.24 -0.001)" fill="#004e3d"/>
        </g>
      </g>
      <g id="Grupo_1178951" data-name="Grupo 1178951" transform="translate(-0.001 11.227)">
        <g id="Grupo_1178950" data-name="Grupo 1178950">
          <path id="Trazado_937588" data-name="Trazado 937588" d="M6.72,15.034a.807.807,0,0,1-.361-.087A17.468,17.468,0,0,1,.115,9.017.8.8,0,0,1,.472,7.872c2.613-1.172,5.8-.948,8.022-.555A.8.8,0,0,1,8.212,8.9,14.086,14.086,0,0,0,2.044,9a15.286,15.286,0,0,0,5.037,4.516.8.8,0,0,1-.361,1.519Z" transform="translate(0.001 -7.001)" fill="#004e3d"/>
        </g>
      </g>
      <g id="Grupo_1178953" data-name="Grupo 1178953" transform="translate(29.335 11.229)">
        <g id="Grupo_1178952" data-name="Grupo 1178952">
          <path id="Trazado_937589" data-name="Trazado 937589" d="M20.727,15.034a.8.8,0,0,1-.359-1.517A15.3,15.3,0,0,0,25.407,9a14.058,14.058,0,0,0-6.173-.1.8.8,0,0,1-.282-1.578c2.218-.395,5.406-.621,8.022.555a.8.8,0,0,1,.358,1.145,17.438,17.438,0,0,1-6.245,5.931.836.836,0,0,1-.359.083Z" transform="translate(-18.291 -7.002)" fill="#004e3d"/>
        </g>
      </g>
      <g id="Grupo_1178955" data-name="Grupo 1178955" transform="translate(8.02 28.867)">
        <g id="Grupo_1178954" data-name="Grupo 1178954">
          <path id="Trazado_937590" data-name="Trazado 937590" d="M16.226,27.623C10.783,27.623,5,25.935,5,22.811S10.783,18,16.226,18s11.226,1.687,11.226,4.811S21.669,27.623,16.226,27.623Zm0-8.019c-5.963,0-9.623,1.868-9.623,3.208s3.66,3.208,9.623,3.208,9.623-1.868,9.623-3.208S22.189,19.6,16.226,19.6Z" transform="translate(-5 -18)" fill="#004e3d"/>
        </g>
      </g>
      <g id="Grupo_1178957" data-name="Grupo 1178957" transform="translate(5.904 6.415)">
        <g id="Grupo_1178956" data-name="Grupo 1178956">
          <path id="Trazado_937591" data-name="Trazado 937591" d="M26.629,30.494a.8.8,0,0,1-.7-1.187c2.827-5.183,3.422-12.626,2.353-16.548C26.522,6.3,19.821,5.6,17.023,5.6s-9.5.7-11.255,7.154C4.7,16.681,5.293,24.124,8.12,29.307a.8.8,0,1,1-1.41.768C3.694,24.543,3.07,16.559,4.222,12.336,5.639,7.116,10.426,4,17.023,4s11.383,3.116,12.8,8.338c1.152,4.221.526,12.2-2.491,17.738A.8.8,0,0,1,26.629,30.494Z" transform="translate(-3.681 -4)" fill="#004e3d"/>
        </g>
      </g>
      <g id="Grupo_1178959" data-name="Grupo 1178959" transform="translate(10.425 8.556)">
        <g id="Grupo_1178958" data-name="Grupo 1178958">
          <path id="Trazado_937592" data-name="Trazado 937592" d="M15.317,27.249a.8.8,0,0,1-.664-.356c-.071-.106-1.738-2.683-1.738-9.265,0-5.958-6.049-10.814-6.112-10.861a.8.8,0,0,1,1-1.261c.273.218,6.718,5.4,6.718,12.121,0,6.016,1.458,8.359,1.472,8.383a.8.8,0,0,1-.674,1.238Z" transform="translate(-6.5 -5.335)" fill="#004e3d"/>
        </g>
      </g>
      <g id="Grupo_1178961" data-name="Grupo 1178961" transform="translate(18.445 8.555)">
        <g id="Grupo_1178960" data-name="Grupo 1178960">
          <path id="Trazado_937593" data-name="Trazado 937593" d="M12.3,27.251a.793.793,0,0,1-.444-.135A.8.8,0,0,1,11.635,26c.011-.018,1.469-2.361,1.469-8.376,0-6.725,6.446-11.9,6.718-12.121a.8.8,0,0,1,1,1.257c-.061.05-6.11,4.922-6.11,10.864,0,6.582-1.668,9.159-1.738,9.265A.8.8,0,0,1,12.3,27.251Z" transform="translate(-11.5 -5.335)" fill="#004e3d"/>
        </g>
      </g>
      <g id="Grupo_1178963" data-name="Grupo 1178963" transform="translate(12.831 32.075)">
        <g id="Grupo_1178962" data-name="Grupo 1178962">
          <path id="Trazado_937594" data-name="Trazado 937594" d="M9.6,23.208a1.6,1.6,0,1,1,1.6-1.6A1.6,1.6,0,0,1,9.6,23.208Zm0-1.605.8,0Z" transform="translate(-8 -20)" fill="#004e3d"/>
        </g>
      </g>
      <g id="Grupo_1178965" data-name="Grupo 1178965" transform="translate(22.453 32.075)">
        <g id="Grupo_1178964" data-name="Grupo 1178964">
          <path id="Trazado_937595" data-name="Trazado 937595" d="M15.6,23.208a1.6,1.6,0,1,1,1.6-1.6A1.6,1.6,0,0,1,15.6,23.208Zm0-1.605.8,0Z" transform="translate(-14 -20)" fill="#004e3d"/>
        </g>
      </g>
      <g id="Grupo_1178967" data-name="Grupo 1178967" transform="translate(24.057 17.642)">
        <g id="Grupo_1178966" data-name="Grupo 1178966">
          <path id="Trazado_937596" data-name="Trazado 937596" d="M19.01,15.811a.805.805,0,0,1-.568-.234l-3.208-3.208a.8.8,0,1,1,1.134-1.134l3.208,3.208a.8.8,0,0,1-.566,1.368Z" transform="translate(-15 -11.001)" fill="#004e3d"/>
        </g>
      </g>
      <g id="Grupo_1178969" data-name="Grupo 1178969" transform="translate(24.057 17.642)">
        <g id="Grupo_1178968" data-name="Grupo 1178968">
          <path id="Trazado_937597" data-name="Trazado 937597" d="M15.8,15.811a.8.8,0,0,1-.568-1.368l3.208-3.208a.8.8,0,0,1,1.134,1.134l-3.208,3.208a.8.8,0,0,1-.566.234Z" transform="translate(-15 -11.001)" fill="#004e3d"/>
        </g>
      </g>
      <g id="Grupo_1178971" data-name="Grupo 1178971" transform="translate(9.623 17.642)">
        <g id="Grupo_1178970" data-name="Grupo 1178970">
          <path id="Trazado_937598" data-name="Trazado 937598" d="M10.01,15.811a.805.805,0,0,1-.568-.234L6.234,12.369a.8.8,0,1,1,1.134-1.134l3.208,3.208a.8.8,0,0,1-.566,1.368Z" transform="translate(-6 -11.001)" fill="#004e3d"/>
        </g>
      </g>
      <g id="Grupo_1178973" data-name="Grupo 1178973" transform="translate(9.623 17.642)">
        <g id="Grupo_1178972" data-name="Grupo 1178972">
          <path id="Trazado_937599" data-name="Trazado 937599" d="M6.8,15.811a.8.8,0,0,1-.568-1.368l3.208-3.208a.8.8,0,1,1,1.134,1.134L7.368,15.577a.8.8,0,0,1-.566.234Z" transform="translate(-6 -11.001)" fill="#004e3d"/>
        </g>
      </g>
    </g>
  </g>
</svg>
