<svg xmlns="http://www.w3.org/2000/svg" width="70" height="70" viewBox="0 0 70 70">
  <g id="Grupo_1175542" data-name="Grupo 1175542" transform="translate(-269 -958.087)">
    <circle id="Elipse_5614" data-name="Elipse 5614" cx="35" cy="35" r="35" transform="translate(269 958.087)" fill="#fff"/>
    <g id="Grupo_1178945" data-name="Grupo 1178945" transform="translate(280.966 882.266)">
      <path id="Trazado_937582" data-name="Trazado 937582" d="M0,0H1.35V1.35H0Z" transform="translate(38.667 106.358) rotate(-45)" fill="#004e3d"/>
      <path id="Trazado_937583" data-name="Trazado 937583" d="M36.893,114.211c.687-.116,1.38-.2,2.063-.286,2.672-.33,5.2-.642,6.94-2.6l.171-.192v-4.1h-.675c-.846,0-1.692-1.37-2.51-2.694a12.418,12.418,0,0,0-2.052-2.746l1.78-3.5-.655-.287a4,4,0,0,0-4.473,1.052c-5.861-2.412-8.233-1.74-10.74-1.029a12.983,12.983,0,0,1-4.755.647,32.763,32.763,0,0,1-4.179-.657c-1.378-.274-2.8-.556-4.205-.7l-.141,1.342c1.341.141,2.736.418,4.084.686a33.661,33.661,0,0,0,4.362.68,14.321,14.321,0,0,0,5.2-.7c2.314-.656,4.329-1.227,9.457.816a8.957,8.957,0,0,0-.656,1.115l1.209.6c.925-1.862,2.3-2.9,3.585-2.8l-2.259,4.44,1.2.612.542-1.066a14.342,14.342,0,0,1,1.543,2.2c.863,1.4,1.75,2.834,2.983,3.229v2.328c-1.408,1.416-3.51,1.676-5.928,1.974a26.134,26.134,0,0,0-4.082.728l.194-1.093-1.329-.236L33.2,114.1l-1.979,3.7L31,121.126H29.565L29,114.379l-.075-.131a7.485,7.485,0,0,1-1.137-2.753l-1.335.2a7.324,7.324,0,0,0,.9,2.513c-4.463,1.392-8.717.715-12.84-.044a10.517,10.517,0,0,0,2.429-4.084l-1.284-.417a10.527,10.527,0,0,1-4.135,5.317c-1.435,1.114-2.791,2.166-2.276,4.151l.518,2H6.951q.007-.535.02-1.112A32.064,32.064,0,0,0,6.7,113.7c-.173-.894-.423-1.826-.687-2.813-.9-3.364-1.825-6.82-.092-9.548l0,0h0A6.905,6.905,0,0,1,7.8,99.414a6.984,6.984,0,0,1,4.32-1.039l.035-1.349a8.253,8.253,0,0,0-5.133,1.286,8.219,8.219,0,0,0-2.244,2.3,1.365,1.365,0,0,1-1.576.54,1.675,1.675,0,0,1-1.18-1.6,1.734,1.734,0,0,1,1.732-1.732v-1.35A3.085,3.085,0,0,0,.676,99.549,3.016,3.016,0,0,0,2.8,102.44a2.868,2.868,0,0,0,.856.134c.087,0,.174-.005.259-.014-.783,2.813.059,5.96.787,8.68.258.964.5,1.874.666,2.721a31.165,31.165,0,0,1,.251,6.026c-.008.394-.015.773-.02,1.14H2.024A2.027,2.027,0,0,0,0,123.15v2.024H40.669v-1.35H1.35v-.675a.676.676,0,0,1,.675-.675H44.043a.676.676,0,0,1,.675.675v.675h-2.7v1.35h4.049V123.15a2.027,2.027,0,0,0-2.024-2.024h-8.7v-2.388ZM27.737,115.5l.474,5.626H14.547c-.086-.391-.175-.764-.262-1.126a15,15,0,0,1-.577-4.613C17.964,116.175,22.751,117.045,27.737,115.5Zm-17.186,3.291c-.28-1.079.348-1.621,1.793-2.743a17.191,17.191,0,0,0,.628,4.268c.064.264.128.534.192.81H11.157Zm21.8,2.335.193-2.952,1.773-3.314c.339-.125.684-.231,1.034-.323l-1.364,3.976v2.613H32.354Z" fill="#004e3d"/>
      <path id="Trazado_937584" data-name="Trazado 937584" d="M368.472,143.552h1.35v1.35h-1.35Z" transform="translate(-335.319 -42.849)" fill="#004e3d"/>
      <path id="Trazado_937585" data-name="Trazado 937585" d="M338.472,136.052h1.35v1.35h-1.35Z" transform="translate(-308.018 -36.023)" fill="#004e3d"/>
    </g>
  </g>
</svg>
