<svg xmlns="http://www.w3.org/2000/svg" width="124" height="124" viewBox="0 0 124 124">
  <g id="Grupo_1175975" data-name="Grupo 1175975" transform="translate(-1234.5 -458)">
    <g id="Elipse_12108" data-name="Elipse 12108" transform="translate(1241.5 465)" fill="#f3bc5b" stroke="rgba(255,255,255,0.4)" stroke-width="7">
      <circle cx="55" cy="55" r="55" stroke="none"/>
      <circle cx="55" cy="55" r="58.5" fill="none"/>
    </g>
    <g id="chat_15371490" transform="translate(1254.107 477.607)">
      <g id="Grupo_1178759" data-name="Grupo 1178759" transform="translate(10 10)">
        <path id="Trazado_937116" data-name="Trazado 937116" d="M38.152,33.7H25.441L15.021,39.717V33.7A5.284,5.284,0,0,1,10,28.435V15.267A5.283,5.283,0,0,1,15.267,10H54.346a5.283,5.283,0,0,1,5.267,5.267V20.58" transform="translate(-10 -10)" fill="none" stroke="#004e3d" stroke-linecap="round" stroke-linejoin="round" stroke-miterlimit="22.926" stroke-width="3.5" fill-rule="evenodd"/>
        <path id="Trazado_937117" data-name="Trazado 937117" d="M38.152,276.319H15.267A5.283,5.283,0,0,0,10,281.586v13.168a5.283,5.283,0,0,0,5.267,5.267H44.172l10.419,6.016v-6.022a5.284,5.284,0,0,0,5.021-5.261v-5.312" transform="translate(-10 -241.251)" fill="none" stroke="#004e3d" stroke-linecap="round" stroke-linejoin="round" stroke-miterlimit="22.926" stroke-width="3.5" fill-rule="evenodd"/>
        <line id="Línea_27041" data-name="Línea 27041" y2="0.001" transform="translate(7.901 11.851)" fill="none" stroke="#004e3d" stroke-linecap="round" stroke-linejoin="round" stroke-miterlimit="2.613" stroke-width="3.5"/>
        <line id="Línea_27042" data-name="Línea 27042" y2="0.001" transform="translate(14.485 11.851)" fill="none" stroke="#004e3d" stroke-linecap="round" stroke-linejoin="round" stroke-miterlimit="2.613" stroke-width="3.5"/>
        <line id="Línea_27043" data-name="Línea 27043" y2="0.001" transform="translate(21.068 11.851)" fill="none" stroke="#004e3d" stroke-linecap="round" stroke-linejoin="round" stroke-miterlimit="2.613" stroke-width="3.5"/>
        <line id="Línea_27044" data-name="Línea 27044" y2="0.001" transform="translate(27.652 11.851)" fill="none" stroke="#004e3d" stroke-linecap="round" stroke-linejoin="round" stroke-miterlimit="2.613" stroke-width="3.5"/>
        <line id="Línea_27045" data-name="Línea 27045" y2="0.001" transform="translate(27.652 46.919)" fill="none" stroke="#004e3d" stroke-linecap="round" stroke-linejoin="round" stroke-miterlimit="2.613" stroke-width="3.5"/>
        <line id="Línea_27046" data-name="Línea 27046" y2="0.001" transform="translate(21.068 46.919)" fill="none" stroke="#004e3d" stroke-linecap="round" stroke-linejoin="round" stroke-miterlimit="2.613" stroke-width="3.5"/>
        <line id="Línea_27047" data-name="Línea 27047" y2="0.001" transform="translate(14.485 46.919)" fill="none" stroke="#004e3d" stroke-linecap="round" stroke-linejoin="round" stroke-miterlimit="2.613" stroke-width="3.5"/>
        <line id="Línea_27048" data-name="Línea 27048" y2="0.001" transform="translate(7.901 46.919)" fill="none" stroke="#004e3d" stroke-linecap="round" stroke-linejoin="round" stroke-miterlimit="2.613" stroke-width="3.5"/>
        <path id="Trazado_937118" data-name="Trazado 937118" d="M276.191,233.159H263.178a13.013,13.013,0,1,0,26.026,0Z" transform="translate(-229.84 -203.774)" fill="none" stroke="#004e3d" stroke-linecap="round" stroke-linejoin="round" stroke-miterlimit="22.926" stroke-width="3.5" fill-rule="evenodd"/>
        <path id="Trazado_937119" data-name="Trazado 937119" d="M280.965,278.905a35.694,35.694,0,0,1,10.844-1.559,36.281,36.281,0,0,1,10.406,1.42" transform="translate(-245.285 -242.142)" fill="none" stroke="#004e3d" stroke-linecap="round" stroke-linejoin="round" stroke-miterlimit="22.926" stroke-width="3.5" fill-rule="evenodd"/>
        <path id="Trazado_937120" data-name="Trazado 937120" d="M257.1,103.706a18.435,18.435,0,1,1-8.1-8.438" transform="translate(-194.086 -82.209)" fill="none" stroke="#004e3d" stroke-linecap="round" stroke-linejoin="round" stroke-miterlimit="22.926" stroke-width="3.5" fill-rule="evenodd"/>
        <line id="Línea_27049" data-name="Línea 27049" y2="0.001" transform="translate(51.424 22.81)" fill="none" stroke="#004e3d" stroke-linecap="round" stroke-linejoin="round" stroke-miterlimit="2.613" stroke-width="3.5"/>
        <line id="Línea_27050" data-name="Línea 27050" y2="0.001" transform="translate(41.278 22.81)" fill="none" stroke="#004e3d" stroke-linecap="round" stroke-linejoin="round" stroke-miterlimit="2.613" stroke-width="3.5"/>
        <line id="Línea_27051" data-name="Línea 27051" x2="0.001" transform="translate(59.649 16.619)" fill="none" stroke="#004e3d" stroke-linecap="round" stroke-linejoin="round" stroke-miterlimit="2.613" stroke-width="3.5"/>
      </g>
    </g>
  </g>
</svg>
