<svg xmlns="http://www.w3.org/2000/svg" width="70" height="70" viewBox="0 0 70 70">
  <g id="Grupo_1175544" data-name="Grupo 1175544" transform="translate(-269 -958.087)">
    <circle id="Elipse_5614" data-name="Elipse 5614" cx="35" cy="35" r="35" transform="translate(269 958.087)" fill="#fff"/>
    <g id="Grupo_1178975" data-name="Grupo 1178975" transform="translate(280.812 918.858)">
      <path id="Trazado_937600" data-name="Trazado 937600" d="M46.33,163.279l.046-.183L45.2,159.232l.16-6.151a2.138,2.138,0,0,0-1.5-2.324l-7.57-1.891-.329,1.318,7.57,1.891c.448.112.481.716.474.971l-.141,5.414-10.976-2.741a4.075,4.075,0,0,0-7.8-1.947l-1.315-.328,2.421-4.845c.114-.228.427-.746.875-.634l7.57,1.891.329-1.318-7.57-1.891a2.139,2.139,0,0,0-2.42,1.344l-2.612,5.227H5.435a2.138,2.138,0,0,0-2.022,1.891l-1.335,6.006L0,164.578v8.34a2.04,2.04,0,0,0,2.038,2.038H4.076a2.04,2.04,0,0,0,2.038-2.038v-.679h5.958V170.88H1.359v-3.4a3.379,3.379,0,0,0,2.038.681H6.114v-2.717H22.106v2.717h2.717a3.379,3.379,0,0,0,2.038-.681v3.4H16.148v1.359h5.958v.679a2.04,2.04,0,0,0,2.038,2.038h2.038a2.04,2.04,0,0,0,2.038-2.038v-6.461l10.368,2.589-.165.659a2.042,2.042,0,0,0,1.483,2.471l1.977.494a2.042,2.042,0,0,0,2.471-1.483l1.975-7.907Zm-19.469,9.64a.68.68,0,0,1-.679.679H24.144a.68.68,0,0,1-.679-.679v-.679h3.4Zm-1.743-10.869,1.223,2.038H1.879L3.1,162.049ZM6.986,160.691a2.718,2.718,0,0,1,5.263,0Zm17.821-5.582,0-.007,19.173,4.788.693,2.274L25.3,157.326Zm16.745,7.677,3.179.794a2.044,2.044,0,0,1-2.191.853l-1.318-.329Zm-14.13-9.71a2.718,2.718,0,0,1,4.116,2.308l-5.106-1.275a2.7,2.7,0,0,1,.99-1.033ZM4.739,155.4c.055-.249.234-.827.7-.827H22.785c.462,0,.64.578.7.827l1.175,5.287H13.635a4.075,4.075,0,0,0-8.036,0H3.564Zm.016,16.836v.679a.68.68,0,0,1-.679.679H2.038a.68.68,0,0,1-.679-.679v-.679Zm0-5.435H3.4a2.041,2.041,0,0,1-1.921-1.359h3.28Zm20.068,0H23.465v-1.359h3.28a2.041,2.041,0,0,1-1.921,1.359Zm18.213,4.054a.683.683,0,0,1-.824.494l-1.977-.494a.683.683,0,0,1-.495-.824l.165-.659,3.3.823Zm.494-1.977L28.22,165.057v-.479l-1.647-2.746,11.684,2.93.33-1.318-12.631-3.168-.326-1.469,14.6,3.647-.658,2.636,2.636.658a3.364,3.364,0,0,0,2.143-.169Z" transform="translate(0 -85.813)" fill="#004e3d"/>
      <path id="Trazado_937601" data-name="Trazado 937601" d="M148.28,414.776h1.359v1.359H148.28Z" transform="translate(-134.849 -329.708)" fill="#004e3d"/>
      <path id="Trazado_937602" data-name="Trazado 937602" d="M82.5,369.776H95.775v1.359H82.5Z" transform="translate(-75.028 -288.784)" fill="#004e3d"/>
      <path id="Trazado_937603" data-name="Trazado 937603" d="M152.5,64.83l-2.988-4.267,3.6.022.761-5.381,3.742,3.941,2.918-2.107.014,1.723,1.359-.011-.036-4.353-4.088,2.951-4.861-5.119-.988,6.99-5.042-.031,4.5,6.421Z" transform="translate(-133.587)" fill="#004e3d"/>
      <path id="Trazado_937604" data-name="Trazado 937604" d="M199.06,249.776h1.359v1.359H199.06Z" transform="translate(-181.03 -179.653)" fill="#004e3d"/>
      <path id="Trazado_937605" data-name="Trazado 937605" d="M229.06,249.776h1.359v1.359H229.06Z" transform="translate(-208.313 -179.653)" fill="#004e3d"/>
      <path id="Trazado_937606" data-name="Trazado 937606" d="M0,0H1.359V1.359H0Z" transform="translate(40.67 68.356) rotate(-75.992)" fill="#004e3d"/>
      <path id="Trazado_937607" data-name="Trazado 937607" d="M0,0H1.359V1.359H0Z" transform="translate(38.034 67.698) rotate(-75.992)" fill="#004e3d"/>
    </g>
  </g>
</svg>
