<svg xmlns="http://www.w3.org/2000/svg" width="60" height="60" viewBox="0 0 60 60">
  <g id="Grupo_1177105" data-name="Grupo 1177105" transform="translate(-198.711 -31420)">
    <path id="Trazado_925100" data-name="Trazado 925100" d="M6.667,0H53.333A6.667,6.667,0,0,1,60,6.667V53.333A6.667,6.667,0,0,1,53.333,60H6.667A6.667,6.667,0,0,1,0,53.333V6.667A6.667,6.667,0,0,1,6.667,0Z" transform="translate(198.711 31420)" fill="#dae4e3"/>
    <g id="Layer_28" data-name="Layer 28" transform="translate(204.471 31427.713)">
      <path id="Trazado_937538" data-name="Trazado 937538" d="M49.025,11.646H47.156V5.66A2.66,2.66,0,0,0,44.5,3h-.565a2.66,2.66,0,0,0-2.66,2.66v5.986H39.435a.665.665,0,0,0-.665.665V15.43a.665.665,0,0,0,.665.665h2.541V35.927a.745.745,0,0,0,0,.206l1.6,4.975a.708.708,0,0,0,1.33,0l1.59-4.975a.732.732,0,0,0,0-.206V16.075h2.541a.665.665,0,0,0,.665-.665v-3.1a.665.665,0,0,0-.678-.665ZM42.641,5.66a1.33,1.33,0,0,1,1.33-1.33h.565a1.33,1.33,0,0,1,1.33,1.33v5.986H42.641Zm2.514,30.187-.911,2.873-.924-2.893V16.075h1.849ZM48.36,14.765H40.1V12.976h8.26Z" transform="translate(-10.035)" fill="#004e3d"/>
      <path id="Trazado_937539" data-name="Trazado 937539" d="M26.614,21.593a2.973,2.973,0,0,0-2.973-2.973H23.2V15.235a.665.665,0,0,0-.665-.665h-9.65a.665.665,0,0,0-.665.665V18.62h-.439A2.973,2.973,0,0,0,8.81,21.593V42.476a2.973,2.973,0,0,0,2.973,2.973H23.641a2.973,2.973,0,0,0,2.973-2.973ZM10.14,28.157h5.068a3.252,3.252,0,0,0-.173.885,2.66,2.66,0,1,0,5.321,0,3.252,3.252,0,0,0-.113-.885H25.31v9.264H10.14Zm8.918.885a1.33,1.33,0,0,1-2.66,0,12.57,12.57,0,0,1,1.33-3.252,12.423,12.423,0,0,1,1.33,3.252ZM13.552,15.9h8.32v2.72h-8.32Zm-1.769,4.05H23.641a1.649,1.649,0,0,1,1.643,1.643v5.234H19.7c-.532-1.19-1.2-2.394-1.41-2.753a.665.665,0,0,0-1.151,0,28.581,28.581,0,0,0-1.41,2.753H10.14V21.593a1.649,1.649,0,0,1,1.643-1.643ZM23.641,44.119H11.783a1.649,1.649,0,0,1-1.643-1.643V38.752H25.284v3.724a1.649,1.649,0,0,1-1.643,1.643Z" transform="translate(0 -3.875)" fill="#004e3d"/>
      <path id="Trazado_937540" data-name="Trazado 937540" d="M17.445,43.16h5.873a.665.665,0,1,0,0-1.33H17.445a.665.665,0,1,0,0,1.33Z" transform="translate(-2.669 -13.006)" fill="#004e3d"/>
      <path id="Trazado_937541" data-name="Trazado 937541" d="M23.318,45.34H17.445a.665.665,0,1,0,0,1.33h5.873a.665.665,0,1,0,0-1.33Z" transform="translate(-2.669 -14.181)" fill="#004e3d"/>
    </g>
  </g>
</svg>
