<svg xmlns="http://www.w3.org/2000/svg" width="60" height="60" viewBox="0 0 60 60">
  <g id="Grupo_1177116" data-name="Grupo 1177116" transform="translate(-1143.711 -31420)">
    <path id="Trazado_929555" data-name="Trazado 929555" d="M6.667,0H53.333A6.667,6.667,0,0,1,60,6.667V53.333A6.667,6.667,0,0,1,53.333,60H6.667A6.667,6.667,0,0,1,0,53.333V6.667A6.667,6.667,0,0,1,6.667,0Z" transform="translate(1143.711 31420)" fill="#dae4e3"/>
    <g id="Grupo_1177115" data-name="Grupo 1177115" transform="translate(1149.927 31401.996)">
      <g id="Grupo_1177112" data-name="Grupo 1177112" transform="translate(6.084 33.328)">
        <g id="Grupo_1177111" data-name="Grupo 1177111">
          <path id="Trazado_932869" data-name="Trazado 932869" d="M66.183,98.025h-.008a.7.7,0,1,0,.008,0Z" transform="translate(-65.482 -98.025)" fill="#004e3d"/>
        </g>
      </g>
      <g id="Grupo_1177114" data-name="Grupo 1177114" transform="translate(0 26.702)">
        <g id="Grupo_1177113" data-name="Grupo 1177113" transform="translate(0 0)">
          <path id="Trazado_932870" data-name="Trazado 932870" d="M47.306,56.134c-.012-.01-1.2-1.134-.769-4.734.646-5.441-.011-9.093-1.953-10.855a4.756,4.756,0,0,0-4.208-1.027,4.719,4.719,0,0,0-.5-.518c-2.363-2.068-5.883-2.392-11.078-1.019-2.484.656-4.093.874-5.064.685a2,2,0,0,1-.759-.3,17.082,17.082,0,0,1-1.584-1.979c-2.4-3.229-6.4-8.632-11.4-9.541A8.472,8.472,0,0,0,1.99,29.778.7.7,0,0,0,2.2,30.811l1.823,1.017a2.9,2.9,0,0,0-.156.361L3.5,33.24a1.537,1.537,0,0,1-.259.465L.323,37.316a1.439,1.439,0,0,0,.1,1.929.677.677,0,0,0,.065.057l.663.516a2.2,2.2,0,0,0,1.519.605,2.171,2.171,0,0,0,.883-.186l.016-.007,5.114-2.424,5.342,10.859L15.484,65.8l-1.715,2.4a.7.7,0,0,0,.567,1.1h2.983a.7.7,0,0,0,.7-.653l.524-8.245c.146-2.3.39-4.632.724-6.916l.187-1.282a11.5,11.5,0,0,0,3.349.5,13.488,13.488,0,0,0,5.577-1.268,16.813,16.813,0,0,0,3.316-2,28.267,28.267,0,0,0,6.7,9.458l1.131,6.849-1.459,2.51a.7.7,0,0,0,.6,1.047H41.65a.7.7,0,0,0,.7-.7V56.678a.7.7,0,0,0-.385-.623,4.083,4.083,0,0,1-1.979-3.44,9.189,9.189,0,0,1,.8-4.586,9.82,9.82,0,0,0,.952-4.873,7.52,7.52,0,0,0-.255-1.478,1.906,1.906,0,0,1,.607.508c1.121,1.4,1.285,4.668.487,9.723a4.736,4.736,0,0,0,.931,3.989,4.387,4.387,0,0,0,3.362,1.478.7.7,0,0,0,.435-1.241Zm-43.64-26.1a7.736,7.736,0,0,1,1.208-.908l.5,1.356-.327.213c-.029.019-.056.04-.084.06Zm13,37.883h-.975l1.07-1.5ZM39.53,47.428A10.511,10.511,0,0,0,38.6,52.75a5.524,5.524,0,0,0,2.358,4.334v10.83H39.878l.976-1.68a.7.7,0,0,0,.085-.464l-1.212-7.341a.7.7,0,0,0-.23-.412c-5.458-4.742-7.6-11.9-7.619-11.974a.7.7,0,1,0-1.338.39c.025.086.211.71.589,1.674a15.251,15.251,0,0,1-3.37,2.082,10.977,10.977,0,0,1-8.107.628l.314-2.148a.7.7,0,0,0-1.379-.2l-.7,4.825c-.339,2.322-.587,4.687-.735,7.03l-.312,4.918L15.4,48.416a.7.7,0,0,0-.069-.249L9.818,36.955a2.181,2.181,0,0,0,.288-.569l.538-1.613a.7.7,0,0,0-1.322-.441l-.538,1.613a.8.8,0,0,1-.431.475l-.016.007L2.981,38.967A.8.8,0,0,1,2.1,38.8a.678.678,0,0,0-.065-.057l-.639-.5a.049.049,0,0,1,.007-.052l2.922-3.612a2.927,2.927,0,0,0,.493-.885l.365-1.051a1.548,1.548,0,0,1,.615-.786l.061-.04a.7.7,0,0,0,1.3-.506l-.8-2.186a6.383,6.383,0,0,1,2.59,1.7.7.7,0,0,0,.509.254,4.408,4.408,0,0,1,.5.067A.7.7,0,1,0,10.2,29.78c-.151-.027-.28-.046-.383-.059a7.87,7.87,0,0,0-2.183-1.573,6.932,6.932,0,0,1,2.1.067c2.508.456,4.811,2.281,6.749,4.335A21.275,21.275,0,0,0,13.113,30.7a.7.7,0,1,0-.552,1.28,26.167,26.167,0,0,1,7.833,5.675c.239.244.442.488.637.724,1.346,1.623,2.387,2.467,8.117.953,4.706-1.243,7.822-1.014,9.8.721C40.6,41.493,40.851,44.665,39.53,47.428Zm5.038,7.563a3.459,3.459,0,0,1-.614-2.866c.558-3.532,1.084-8.495-.777-10.813q-.066-.083-.135-.159a2.874,2.874,0,0,1,.606.424c1.544,1.4,2.079,4.831,1.506,9.658a9.744,9.744,0,0,0,.32,4.441A2.715,2.715,0,0,1,44.568,54.992Z" transform="translate(0 -26.702)" fill="#004e3d"/>
        </g>
      </g>
    </g>
  </g>
</svg>
