<svg xmlns="http://www.w3.org/2000/svg" width="70" height="70" viewBox="0 0 70 70">
  <g id="Grupo_1101085" data-name="Grupo 1101085" transform="translate(-269 -958.087)">
    <circle id="Elipse_5614" data-name="Elipse 5614" cx="35" cy="35" r="35" transform="translate(269 958.087)" fill="#fff"/>
    <g id="Grupo_1178944" data-name="Grupo 1178944" transform="translate(274.349 951.611)">
      <path id="Trazado_937580" data-name="Trazado 937580" d="M53.828,48.617c-.653.036-.433.43-.943,1.086a.864.864,0,0,1-1.071.288c-.941-.356-.489-1.587-.054-2.236,2.29-3.165,2.037-8.878-.654-11.364A7.232,7.232,0,0,0,47.24,34.5a7.61,7.61,0,0,0-4.774-2.106c-.814-1.826-3.209-1.275-4.221.045a21.537,21.537,0,0,1-8.064-.068,5.1,5.1,0,0,0-1.091-1.539,1.954,1.954,0,0,0-3,.291,4.7,4.7,0,0,0-.8-.132,1.613,1.613,0,0,1-1.2-.651,4.131,4.131,0,0,0-1.647-1.393,1.692,1.692,0,0,1-.88-.916A3.148,3.148,0,0,0,20,26.293a1.233,1.233,0,0,1-.622-.6,3.014,3.014,0,0,0-1.161-1.381.527.527,0,0,0-.556.9,1.942,1.942,0,0,1,.75.905,2.283,2.283,0,0,0,1.14,1.136,2.087,2.087,0,0,1,1.041,1.174,2.74,2.74,0,0,0,1.424,1.484,3.092,3.092,0,0,1,1.226,1.048,2.664,2.664,0,0,0,1.976,1.087,3.442,3.442,0,0,1,.954.2c.081.045.84.509,1.194,2.357a3.658,3.658,0,0,1-1.922-.566.531.531,0,0,0-.836.368,1.181,1.181,0,0,1-.578.753,4.606,4.606,0,0,1-1.892-2.12.527.527,0,0,0-1.018.191,2.837,2.837,0,0,1-.279,1.26,10.661,10.661,0,0,1-1.946-4.9.527.527,0,0,0-.978-.2,2.288,2.288,0,0,1-.688.78c-1.216-2.2-.643-5.589-.63-5.676a4.966,4.966,0,0,0-2.353-5.29.527.527,0,0,0-.632.133,7.368,7.368,0,0,0-1.466,3.1,1.9,1.9,0,0,0-1.552-.343,2.985,2.985,0,0,1,.043-1.438,6.74,6.74,0,0,1,.6.438.527.527,0,0,0,.67-.813A7.112,7.112,0,0,0,10.58,19.4a.527.527,0,0,0-.707.263A4.152,4.152,0,0,0,9.6,22.441a3.411,3.411,0,0,0-1.652,1.887c-.266.595-.413.922-1.106,1.016a.53.53,0,0,0-.322.874A3.683,3.683,0,0,0,8.564,27.3a40.023,40.023,0,0,0-3.609,4.756c-.267.406.16.749.387,1.041a2.833,2.833,0,0,0-.182,3.468l.925,1.252a2.179,2.179,0,0,0,1.74.872c.431.021.978-.151.866-.688a.527.527,0,0,0-.633-.393,1.1,1.1,0,0,1-1.125-.417c-.788-1.153-1.754-1.771-.869-3.274a25.892,25.892,0,0,1,4.013,5.211c1.074,1.973,4.137,3.819,6.733,3.129l.135.522a11.122,11.122,0,0,1-3.9,2.543A2.134,2.134,0,0,0,11.6,47.066a8.872,8.872,0,0,1-.522,2.115,2.124,2.124,0,0,0,.372,2.21,31.9,31.9,0,0,1,3.107,4.046.539.539,0,0,0,.351.25,5.221,5.221,0,0,1,2.884,1.754.528.528,0,0,0,.432.226c.431.074,1.921-1.68,1.609-4.393A1.776,1.776,0,0,0,18.53,51.79l-1.512-.414c-.132-.144-.388-.429-.7-.806a.9.9,0,0,1,.181-1.312,2.651,2.651,0,0,1,.986-.391.527.527,0,0,0,.415-.619c-.216-.882-1.564-.126-1.994.138a1.965,1.965,0,0,0-.4,2.852c.3.371.561.659.708.821a2.95,2.95,0,0,1-1.043,2.366,37.3,37.3,0,0,0-2.927-3.73,1.076,1.076,0,0,1-.188-1.119,9.642,9.642,0,0,0,.591-2.376,1.088,1.088,0,0,1,.743-.882,11.71,11.71,0,0,0,3.854-2.378,17.069,17.069,0,0,0,3.218,6.508c2.318,3.351,1.746,8.749,1.627,9.672a7.64,7.64,0,0,0-1.522,3.865.53.53,0,0,0,.525.575h3.545a1.65,1.65,0,0,0,1.642-1.539,16.418,16.418,0,0,0-.035-2.7l.208-5.772A5.785,5.785,0,0,0,26.2,52.6a6.458,6.458,0,0,1-.039-3.745A45.937,45.937,0,0,0,27.347,43.2a.527.527,0,1,0-1.044-.143,45.7,45.7,0,0,1-1.153,5.5,7.492,7.492,0,0,0,.044,4.362,4.735,4.735,0,0,1,.2,1.6l-.184,5.108a4.664,4.664,0,0,0-2.008,0c.178-1.868.348-6.661-1.933-9.849a15.333,15.333,0,0,1-2.89-5.645c-.2-.74-.389-1.508-.585-2.26,1.119-.605,2.342-1.892,2.913-4.605a.527.527,0,0,0-1.031-.217c-.53,2.524-1.728,4-3.462,4.258A5.629,5.629,0,0,1,11,38.618a20.71,20.71,0,0,0-1.1-1.757c.151-.922.8-2.009,1.594-2.173a9.85,9.85,0,0,0,2.138-.764,22.93,22.93,0,0,1,2.52,5.914.527.527,0,1,0,1.01-.3,24.886,24.886,0,0,0-2.634-6.168,3.1,3.1,0,0,0,.861-1.133.527.527,0,0,0-.973-.405,2.3,2.3,0,0,1-.861.951,9.671,9.671,0,0,1-2.273.873,3.3,3.3,0,0,0-2.169,2.136c-.456-.587-.9-1.107-1.281-1.538.244-.045,1.716-.94,1.965-1.07a1.627,1.627,0,0,0,.656-2.129,1.5,1.5,0,0,1,.316-1.737,1.905,1.905,0,0,1,2.245-.348.527.527,0,0,0,.6-.054,2.305,2.305,0,0,0,.572-2.555,3.013,3.013,0,0,0-.471-.844,9.911,9.911,0,0,1-.714-1.669,7.471,7.471,0,0,1,1.147-3.469,4.006,4.006,0,0,1,1.418,3.96c-.048.281-.7,4.33,1.034,6.789.314.4.8.243,1.47-.27a9.144,9.144,0,0,0,2.531,4.849c.572.372.911-.143,1.313-1.024a4.409,4.409,0,0,0,2.147,1.6.527.527,0,0,0,.218-.047,2.833,2.833,0,0,0,1.148-1.011,5.615,5.615,0,0,0,2.089.44c.2,1.357-.484,3.093,1.314,5.387,1.163,1.295,2.7,1.349,4.464,1.3a18.054,18.054,0,0,1-.448,4.561c-1.972.435-3.33,1.208-5.142,1.371a.527.527,0,1,0,.075,1.051,10.7,10.7,0,0,0,2.744-.637,1.782,1.782,0,0,0,1.764,1.575,5.63,5.63,0,0,1,1.909-.056A2.912,2.912,0,0,0,37.6,47.506c.322.019.573.047.738.069a25.238,25.238,0,0,0,4.012,4.9,5.33,5.33,0,0,0-1.4,4.462A3.282,3.282,0,0,1,41,58.215a5.476,5.476,0,0,1-.938,2.311,4.751,4.751,0,0,0-1.532-.1,9.25,9.25,0,0,0,.2-5.919,20.509,20.509,0,0,1-.953-2.335c-.107-.4-.206-.8-.3-1.206a.527.527,0,1,0-1.029.227,11.332,11.332,0,0,0,.974,2.963,3.79,3.79,0,0,1,.291.644,8.266,8.266,0,0,1-.5,6.038A5.893,5.893,0,0,0,35.778,64a.53.53,0,0,0,.526.565h2.2c1.786-.026,2.172-1.769,2.26-3.233.608-.627,1.7-3.031,1.21-4.641a4.331,4.331,0,0,1,.931-3.251A11.489,11.489,0,0,0,44.1,56.5a4.118,4.118,0,0,1-.3,4.417,5.31,5.31,0,0,0-1.386,3.106.527.527,0,0,0,.527.54h2.607a1.828,1.828,0,0,0,1.777-1.435L47.7,61.4c.008-.021,1.025-2.481,1.031-2.5a4.269,4.269,0,0,0,.227-1.646,3.708,3.708,0,0,0-.692-2.14,5.053,5.053,0,0,1-.907-1.967,13.928,13.928,0,0,1,.638-4.576A25.653,25.653,0,0,0,49.34,40.5a4.785,4.785,0,0,1,.476,3.44.527.527,0,1,0,1.036.192c.625-3.367-1.157-4.983-1.636-5.35a8.253,8.253,0,0,0-.959-2.932c3.777,1.069,5.42,7.163,2.628,11.321a4.207,4.207,0,0,0-.665,1.693,1.973,1.973,0,0,0,3.15,1.847,2.5,2.5,0,0,1-1.06,2.079,2.456,2.456,0,0,1-3.363-.388.527.527,0,0,0-.861.607,3.5,3.5,0,0,0,4.8.663c.913-.6,1.9-1.882,1.417-4.62a.527.527,0,0,0-.475-.433ZM17.251,52.533l1,.274a.726.726,0,0,1,.538.6,4.344,4.344,0,0,1-.58,2.89,6.006,6.006,0,0,0-2.078-1.329,3.917,3.917,0,0,0,1.12-2.437Zm7.97,8.184a15.851,15.851,0,0,1,.005,2.239.594.594,0,0,1-.591.554H21.7A6.732,6.732,0,0,1,22.9,60.792a3.722,3.722,0,0,1,2.318-.075ZM7.992,26.026c1.064-.744.791-1.943,1.973-2.588.725-.421,1.581-.56,1.9.341q-1.233,1.236-2.3,2.4a2,2,0,0,1-1.576-.152Zm5.193.686a1.334,1.334,0,0,1-.067,1.158c-2.141-.835-4.7,1.306-3.621,3.637a.581.581,0,0,1-.226.763l-1.594.911a.834.834,0,0,1-.924-.064c-.14-.112-.583-.675-.7-.814a50.172,50.172,0,0,1,6.2-7.421,5.563,5.563,0,0,0,.621,1.283,1.969,1.969,0,0,1,.309.547Zm25.323,36.8H36.924a5.244,5.244,0,0,1,.972-1.858h1.787C39.574,62.385,39.474,63.507,38.509,63.509ZM34.49,33.841a21.151,21.151,0,0,0,3.194-.239,2.9,2.9,0,0,0-.082.919c0,.239-.007,2.109-.018,3.462a.893.893,0,0,1-.89.883l-4.2,0a1.407,1.407,0,0,1-1.419-1.387,13.018,13.018,0,0,0-.458-3.966A23.691,23.691,0,0,0,34.49,33.841Zm-4.889,6.5a5.271,5.271,0,0,1-1-3.608c0-3.247-.935-4.605-1.543-5.145a.912.912,0,0,1,1.314.009c1.864,1.747,1.656,5.8,1.653,5.843a2.461,2.461,0,0,0,2.472,2.485s4.2-.006,4.2,0a1.95,1.95,0,0,0,1.942-1.929c.012-1.45.018-3.493.018-3.493a2.021,2.021,0,0,1,1.515-2.146.988.988,0,0,1,1.159.206,2.4,2.4,0,0,0-1.593,2.33v3.722a2.261,2.261,0,0,1-2.53,2.683H32.074a3.2,3.2,0,0,1-2.473-.953Zm5.884,6.081A5.732,5.732,0,0,0,34,46.565a20.237,20.237,0,0,0,.338-4.218h1.426a18.036,18.036,0,0,1-.278,4.075Zm.366,2.384a1.768,1.768,0,0,1-1.485.368,4.945,4.945,0,0,0-1.918.022.772.772,0,0,1-.916-.83,17.433,17.433,0,0,1,5.006-.883,2.113,2.113,0,0,1-.687,1.323Zm9.7,14.7H43.539a4.657,4.657,0,0,1,.918-1.742h2.082l-.245,1.139a.768.768,0,0,1-.748.6ZM46.987,48.25c-2.337,7.859,1.775,6.3.753,10.275l-.866,2.1a5.817,5.817,0,0,0-1.684-.1A4.77,4.77,0,0,0,45,55.948a8.483,8.483,0,0,1-.963-2.429,4.286,4.286,0,0,0-1.209-2.083,22.3,22.3,0,0,1-3.693-4.586,3.064,3.064,0,0,1-.107-2.348.527.527,0,0,0-.963-.428,4.082,4.082,0,0,0-.165,2.395c-.355-.028-.808-.048-1.343-.04a19.381,19.381,0,0,0,.261-4.081c2.88.172,4.148-1.659,3.974-3.766V34.889a1.466,1.466,0,0,1,1.344-1.46c6.676.193,7.275,7.486,4.853,14.821Z" transform="translate(0)" fill="#004e3d"/>
      <path id="Trazado_937581" data-name="Trazado 937581" d="M49.939,88.374l-.3.343a.527.527,0,0,0,.788.7l.3-.343A.527.527,0,0,0,49.939,88.374Z" transform="translate(-38.099 -58.654)" fill="#004e3d"/>
    </g>
  </g>
</svg>
