<svg xmlns="http://www.w3.org/2000/svg" width="295" height="190" viewBox="0 0 295 190">
  <g id="Grupo_1179007" data-name="Grupo 1179007" transform="translate(-1124.711 -17165)">
    <rect id="Rect치ngulo_455043" data-name="Rect치ngulo 455043" width="295" height="190" rx="20" transform="translate(1124.711 17165)" fill="#f3bc5b"/>
    <g id="Capa_2_1_" transform="translate(1151.711 16943.057)">
      <g id="Capa_1-2" transform="translate(0 264.943)">
        <rect id="Rect치ngulo_455298" data-name="Rect치ngulo 455298" width="240.919" height="103.183" transform="translate(0 0)" fill="none"/>
        <path id="Trazado_937655" data-name="Trazado 937655" d="M1.208,488.807h2.06v11.1H1.208Z" transform="translate(-0.732 -400.681)" fill="#2f7338"/>
        <path id="Trazado_937656" data-name="Trazado 937656" d="M11.274,495.528h1.744v.951h0a2.476,2.476,0,0,1,2.378-1.268c1.744,0,2.536,1.426,2.536,3.17v5.23H16.188v-4.438c0-.951,0-2.377-1.268-2.377s-1.744,1.744-1.744,2.853v3.962h-1.9Z" transform="translate(-6.836 -404.549)" fill="#2f7338"/>
        <path id="Trazado_937657" data-name="Trazado 937657" d="M37.124,497.8a5.7,5.7,0,0,0-1.744-.317c-.476,0-1.109.158-1.109.951,0,1.268,3.328.476,3.328,3.487,0,1.9-1.585,2.695-3.17,2.695a10.694,10.694,0,0,1-2.219-.317l.159-1.744a4.216,4.216,0,0,0,1.9.476c.476,0,1.268-.158,1.268-.951,0-1.584-3.329-.475-3.329-3.487a2.5,2.5,0,0,1,2.536-2.536h.317a9.269,9.269,0,0,1,2.06.317V497.8Z" transform="translate(-19.53 -405.074)" fill="#2f7338"/>
        <path id="Trazado_937658" data-name="Trazado 937658" d="M48.937,494.222H47.51v-1.585h1.427v-1.585l1.9-.634V492.8h1.744v1.584H50.839v3.8c0,.634.159,1.268.951,1.268a1.189,1.189,0,0,0,.792-.158v1.744a4.4,4.4,0,0,1-1.427.158,2.426,2.426,0,0,1-2.378-2.695Z" transform="translate(-28.807 -401.658)" fill="#2f7338"/>
        <path id="Trazado_937659" data-name="Trazado 937659" d="M63.616,487.2h1.9v2.06h-1.9V487.2Zm0,3.487h1.9v8.242h-1.9v-8.242Z" transform="translate(-38.573 -399.704)" fill="#2f7338"/>
        <path id="Trazado_937660" data-name="Trazado 937660" d="M73.095,494.222H71.668v-1.585h1.427v-1.585l1.9-.634V492.8H76.74v1.584H75v3.8c0,.634.159,1.268.951,1.268a1.19,1.19,0,0,0,.792-.158v1.744a4.4,4.4,0,0,1-1.427.158c-1.585,0-2.377-1.109-2.377-2.695Z" transform="translate(-43.455 -401.658)" fill="#2f7338"/>
        <path id="Trazado_937661" data-name="Trazado 937661" d="M94.834,503.894H93.09v-1.109h0a2.794,2.794,0,0,1-2.377,1.268c-1.744,0-2.536-1.427-2.536-3.17v-5.231h1.744v4.438c0,.951,0,2.378,1.268,2.378s1.744-1.744,1.744-2.695V495.81h1.9v8.083Z" transform="translate(-53.465 -404.831)" fill="#2f7338"/>
        <path id="Trazado_937662" data-name="Trazado 937662" d="M109.332,494.222H107.9v-1.585h1.427v-1.585l1.9-.634V492.8h1.744v1.584h-1.744v3.8c0,.634.159,1.268.951,1.268a1.19,1.19,0,0,0,.792-.158v1.744a4.4,4.4,0,0,1-1.427.158c-1.585,0-2.378-1.109-2.378-2.695Z" transform="translate(-65.427 -401.658)" fill="#2f7338"/>
        <path id="Trazado_937663" data-name="Trazado 937663" d="M126.947,495.651a3.924,3.924,0,0,1,3.962,3.962v.476a3.9,3.9,0,0,1-7.767.793v-.634a3.941,3.941,0,0,1,3.329-4.438A.582.582,0,0,1,126.947,495.651Zm0,6.816c1.427,0,1.9-1.427,1.9-2.853s-.634-2.377-1.9-2.377-1.9,1.268-1.9,2.377C125.045,500.882,125.52,502.467,126.947,502.467Z" transform="translate(-74.642 -404.831)" fill="#2f7338"/>
        <path id="Trazado_937664" data-name="Trazado 937664" d="M163.585,499.1a10.72,10.72,0,0,1-2.219.317,5.1,5.1,0,0,1-5.547-4.438v-1.109c0-3.8,2.06-5.864,5.547-5.864a5.065,5.065,0,0,1,2.219.476l-.159,1.9a3.639,3.639,0,0,0-2.219-.634c-2.06,0-3.328,1.744-3.328,3.962a3.539,3.539,0,0,0,3.011,3.962h.317a5.589,5.589,0,0,0,2.219-.476Z" transform="translate(-94.479 -400.193)" fill="#2f7338"/>
        <path id="Trazado_937665" data-name="Trazado 937665" d="M181.058,495.651a3.7,3.7,0,0,1,3.8,3.962v.476a4,4,0,0,1-3.487,4.279,3.8,3.8,0,0,1-4.279-3.487v-.793a3.941,3.941,0,0,1,3.329-4.438Zm0,6.816c1.427,0,1.9-1.427,1.9-2.853s-.634-2.377-1.9-2.377-1.9,1.109-1.9,2.377S179.632,502.467,181.058,502.467Z" transform="translate(-107.356 -404.831)" fill="#2f7338"/>
        <path id="Trazado_937666" data-name="Trazado 937666" d="M200.913,486.391h1.9v11.887h-1.9Z" transform="translate(-121.822 -399.216)" fill="#2f7338"/>
        <path id="Trazado_937667" data-name="Trazado 937667" d="M213.268,495.651a3.7,3.7,0,0,1,3.8,3.962v.476a3.9,3.9,0,0,1-7.766.793v-.634a3.941,3.941,0,0,1,3.329-4.438A1.2,1.2,0,0,1,213.268,495.651Zm0,6.816c1.427,0,1.9-1.427,1.9-2.853s-.634-2.377-1.9-2.377-1.9,1.268-1.9,2.377C211.525,500.882,211.842,502.467,213.268,502.467Z" transform="translate(-126.886 -404.831)" fill="#2f7338"/>
        <path id="Trazado_937668" data-name="Trazado 937668" d="M232.88,495.81h1.743v1.109h0a2.53,2.53,0,0,1,2.219-1.268,2.244,2.244,0,0,1,2.219,1.427,2.391,2.391,0,0,1,2.219-1.427c1.744,0,2.377,1.427,2.377,3.17v5.231h-1.9v-4.914c0-.792,0-1.9-1.109-1.9s-1.427,1.744-1.427,2.695v3.962h-2.06V498.98c0-.792,0-1.9-1.109-1.9s-1.427,1.743-1.427,2.695v3.962h-1.9V495.81Z" transform="translate(-141.108 -404.831)" fill="#2f7338"/>
        <path id="Trazado_937669" data-name="Trazado 937669" d="M265.334,486.391h1.9v4.755h0a2.53,2.53,0,0,1,2.219-1.268c2.219,0,3.012,2.06,3.012,4.279s-.792,4.279-3.012,4.279a2.529,2.529,0,0,1-2.219-1.268h0v.951h-1.9Zm3.646,10.461c1.268,0,1.585-1.585,1.585-2.695s-.317-2.536-1.585-2.536-1.744,1.427-1.744,2.536.476,2.695,1.744,2.695Z" transform="translate(-160.883 -399.216)" fill="#2f7338"/>
        <path id="Trazado_937670" data-name="Trazado 937670" d="M287.881,487.2h1.9v2.06h-1.9Zm0,3.487h1.9v8.242h-1.9Z" transform="translate(-174.554 -399.704)" fill="#2f7338"/>
        <path id="Trazado_937671" data-name="Trazado 937671" d="M297.336,496.286a7.467,7.467,0,0,1,2.536-.634c2.219,0,3.17,1.109,3.17,3.487v3.17a7.729,7.729,0,0,0,.158,1.9h-1.585a3.1,3.1,0,0,0-.158-1.268h0a2.684,2.684,0,0,1-2.219,1.427,2.341,2.341,0,0,1-2.536-2.219v-.158a2.477,2.477,0,0,1,1.268-2.378,6.572,6.572,0,0,1,2.536-.476h.951c0-1.268-.476-1.744-1.585-1.744a3.131,3.131,0,0,0-2.219.951Zm2.378,6.34a1.412,1.412,0,0,0,1.268-.793,1.951,1.951,0,0,0,.317-1.584h-.793c-.792,0-2.06.158-2.06,1.426,0,.634.475.951,1.268.951Z" transform="translate(-179.888 -404.831)" fill="#2f7338"/>
        <path id="Trazado_937672" data-name="Trazado 937672" d="M317.676,495.566h1.9v.951h0a2.8,2.8,0,0,1,2.378-1.268c1.744,0,2.536,1.426,2.536,3.17v5.23h-1.9v-4.438c0-.951,0-2.377-1.268-2.377s-1.744,1.585-1.744,2.695v3.962h-1.9v-7.925Z" transform="translate(-192.62 -404.587)" fill="#2f7338"/>
        <path id="Trazado_937673" data-name="Trazado 937673" d="M342.514,495.651a3.7,3.7,0,0,1,3.8,3.962v.476a3.9,3.9,0,0,1-7.766.793v-.793a3.94,3.94,0,0,1,3.328-4.438Zm0,6.816c1.427,0,1.9-1.427,1.9-2.853s-.634-2.377-1.9-2.377-1.9,1.268-1.9,2.377C340.612,500.882,340.928,502.467,342.514,502.467Z" transform="translate(-205.253 -404.831)" fill="#2f7338"/>
        <path id="Trazado_937674" data-name="Trazado 937674" d="M373.737,488.807h2.219l3.963,11.1H377.7l-.951-2.536h-4.121l-.951,2.536h-2.06Zm1.109,2.219h0l-1.426,4.6h2.853Z" transform="translate(-224.113 -400.681)" fill="#2f7338"/>
        <path id="Trazado_937675" data-name="Trazado 937675" d="M404.53,495.566v7.291c0,2.219-.792,4.279-3.8,4.279a4.653,4.653,0,0,1-2.536-.634l.159-1.744a5.539,5.539,0,0,0,2.06.793c2.06,0,2.219-1.744,2.219-3.17h0a2.53,2.53,0,0,1-2.219,1.268c-2.219,0-3.011-1.9-3.011-4.121s.951-4.279,3.17-4.279a2.356,2.356,0,0,1,2.219,1.268h0v-1.109Zm-1.9,3.963c0-1.427-.476-2.536-1.585-2.536s-1.744,1.268-1.744,2.536.476,2.536,1.585,2.536S402.629,500.955,402.629,499.528Z" transform="translate(-240.959 -404.587)" fill="#2f7338"/>
        <path id="Trazado_937676" data-name="Trazado 937676" d="M420.75,495.81h1.743v1.9h0a2.2,2.2,0,0,1,2.06-2.06h.634v2.06a2.008,2.008,0,0,0-.951-.159c-1.585,0-1.585,2.06-1.585,3.329v3.011h-1.9Z" transform="translate(-255.118 -404.831)" fill="#2f7338"/>
        <path id="Trazado_937677" data-name="Trazado 937677" d="M436.974,495.651a3.924,3.924,0,0,1,3.963,3.962v.476a3.9,3.9,0,0,1-7.767.793v-.634a3.941,3.941,0,0,1,3.328-4.438A.582.582,0,0,1,436.974,495.651Zm0,6.816c1.427,0,1.9-1.427,1.9-2.853s-.634-2.377-1.9-2.377-1.9,1.268-1.9,2.377C435.071,500.882,435.388,502.467,436.974,502.467Z" transform="translate(-262.624 -404.831)" fill="#2f7338"/>
        <path id="Trazado_937678" data-name="Trazado 937678" d="M456.182,495.772h1.9v1.109h0a2.251,2.251,0,0,1,2.219-1.268c2.219,0,3.17,2.06,3.17,4.279s-.792,4.279-3.17,4.279a2.572,2.572,0,0,1-2.219-1.109h0v4.279h-1.9Zm2.06,4.121c0,1.109.476,2.695,1.744,2.695s1.585-1.585,1.585-2.695-.317-2.536-1.585-2.536S458.242,498.625,458.242,499.893Z" transform="translate(-276.602 -404.793)" fill="#2f7338"/>
        <path id="Trazado_937679" data-name="Trazado 937679" d="M483.862,503.576a4.649,4.649,0,0,1-2.536.634c-2.378,0-3.8-1.585-3.8-4.279,0-2.378,1.109-4.279,3.328-4.279,2.695,0,3.487,2.06,3.487,4.913h-5.072a1.965,1.965,0,0,0,1.9,2.06h.159a4.788,4.788,0,0,0,2.536-.793v1.744Zm-1.268-4.438c0-1.109-.475-1.9-1.585-1.9s-1.585.792-1.743,1.9Z" transform="translate(-289.541 -404.831)" fill="#2f7338"/>
        <path id="Trazado_937680" data-name="Trazado 937680" d="M503.126,497.553a3.735,3.735,0,0,0-1.268-.317c-1.268,0-1.9,1.109-1.9,2.536,0,1.585.634,2.695,2.06,2.695a4.625,4.625,0,0,0,1.427-.317l.158,1.744a7.945,7.945,0,0,1-1.9.317c-2.377,0-3.645-1.9-3.645-4.279s1.268-4.279,3.487-4.279a4.019,4.019,0,0,1,1.9.317Z" transform="translate(-301.99 -404.831)" fill="#2f7338"/>
        <path id="Trazado_937681" data-name="Trazado 937681" d="M521.623,503.894h-1.744v-1.109h0a2.794,2.794,0,0,1-2.377,1.268c-1.744,0-2.536-1.427-2.536-3.17v-5.231h1.9v4.438c0,.951,0,2.378,1.268,2.378s1.743-1.744,1.743-2.695V495.81h1.9Z" transform="translate(-312.245 -404.831)" fill="#2f7338"/>
        <path id="Trazado_937682" data-name="Trazado 937682" d="M536.451,496.286a7.462,7.462,0,0,1,2.536-.634c2.219,0,3.17,1.109,3.17,3.487v5.072h-1.744c0-.476-.158-.793-.158-1.268h0a2.684,2.684,0,0,1-2.219,1.427,2.5,2.5,0,0,1-2.536-2.536,2.53,2.53,0,0,1,1.268-2.219,6.574,6.574,0,0,1,2.536-.476h1.109c0-1.268-.476-1.744-1.744-1.744a3.13,3.13,0,0,0-2.219.951v-2.06Zm2.219,6.34a1.892,1.892,0,0,0,1.427-.793,3.2,3.2,0,0,0,.475-1.743h-.792c-.793,0-2.219.159-2.219,1.427-.159.793.476,1.11,1.11,1.11Z" transform="translate(-324.695 -404.831)" fill="#2f7338"/>
        <path id="Trazado_937683" data-name="Trazado 937683" d="M557.242,495.81h1.744v1.9h0a2.351,2.351,0,0,1,2.06-2.06h.634v2.06a1.722,1.722,0,0,0-.792-.159c-1.585,0-1.585,2.06-1.585,3.329v3.011h-1.9Z" transform="translate(-337.879 -404.831)" fill="#2f7338"/>
        <path id="Trazado_937684" data-name="Trazado 937684" d="M571.334,487.2h1.9v2.06h-1.9Zm0,3.487h1.9v8.242h-1.9Z" transform="translate(-346.423 -399.704)" fill="#2f7338"/>
        <path id="Trazado_937685" data-name="Trazado 937685" d="M583.933,495.651a3.924,3.924,0,0,1,3.962,3.962v.476a3.9,3.9,0,0,1-7.766.793v-.634a3.94,3.94,0,0,1,3.328-4.438A.582.582,0,0,1,583.933,495.651Zm0,6.816c1.426,0,1.9-1.427,1.9-2.853s-.634-2.377-1.9-2.377-1.9,1.268-1.9,2.377C582.19,500.882,582.507,502.467,583.933,502.467Z" transform="translate(-351.732 -404.831)" fill="#2f7338"/>
        <path id="Trazado_937686" data-name="Trazado 937686" d="M416.678,335.876h.159l2.378.951.634.317-.158-.159,8.876-3.8-2.694-.792-10.778-2.219-11.254,1.585,3.8,1.427Z" transform="translate(-244.865 -304.493)" fill="#2f7338"/>
        <path id="Trazado_937687" data-name="Trazado 937687" d="M442.729,330.277l12.363-3.328H438.608l-6.181,1.268h0l10.778,2.219-.635-.159Z" transform="translate(-262.198 -302.54)" fill="#85bb40"/>
        <path id="Trazado_937688" data-name="Trazado 937688" d="M458.685,342.1l3.328-1.744-8.4-2.378-.634-.158-8.876,3.8.158.159h.317l.476.317,8.559,3.8h0l2.219.951,6.182-3.963-1.426-.317Z" transform="translate(-269.278 -309.131)" fill="#bfc630"/>
        <path id="Trazado_937689" data-name="Trazado 937689" d="M475.154,322.751l-4.438,1.268-12.363,3.328h-.159l.635.159,2.694.792.634.158,8.4,2.378.792-.476,15.057-8.242Z" transform="translate(-277.822 -299.61)" fill="#009748"/>
        <path id="Trazado_937690" data-name="Trazado 937690" d="M504.127,316.48l-3.8,2.219-15.057,8.242-.792.476-3.328,1.743,1.9.475,1.426.317,3.17-1.9h0l8.559,1.426.951-.792.317-.317,14.106-10.144.159-.158h.158l2.219-1.585Z" transform="translate(-291.738 -296.192)" fill="#85bb40"/>
        <path id="Trazado_937691" data-name="Trazado 937691" d="M529.484,354.949l-.634.634-.317.317-9.034-2.378-8.559,7.766h.159l1.743.634,10.619,3.487-1.585,1.743-.634.476,2.536.793,12.363-12.046-2.378-.317Z" transform="translate(-309.803 -318.652)" fill="#bfc630"/>
        <path id="Trazado_937692" data-name="Trazado 937692" d="M535.086,318.065h-.158l-.159.158-14.106,10.144-.317.317-.951.792,1.268.158,2.536.476,2.06.317h.158l-.792.634,9.034,2.378.317-.317.634-.634,16.484-16.009Z" transform="translate(-314.93 -296.192)" fill="#009748"/>
        <path id="Trazado_937693" data-name="Trazado 937693" d="M351.7,346.743l8.717-4.121-9.986-6.815-11.412,2.219,12.521,12.522,3.012-1.427-1.11-.951Z" transform="translate(-205.559 -307.911)" fill="#2f7338"/>
        <path id="Trazado_937694" data-name="Trazado 937694" d="M383.23,332.693l-3.8-1.427-5.389-1.9-10.461,1.427,1.744,1.11,9.986,6.815,1.268-.634.476-.159,2.853,1.9.951-.317.159-.159,9.193-3.328.476-.158,1.584-.475Z" transform="translate(-220.451 -304.004)" fill="#85bb40"/>
        <path id="Trazado_937695" data-name="Trazado 937695" d="M395.477,360.616l-.158-.159h0l-7.291-5.072-3.17-2.061h0l-.317-.158-.159-.159h.159l-2.853-1.9-.476.159-1.268.634-8.717,4.121,1.743,1.427,1.11.951,10.619,9.669.951-.634Z" transform="translate(-225.09 -317.187)" fill="#bfc630"/>
        <path id="Trazado_937696" data-name="Trazado 937696" d="M451.586,360.89l2.378-1.585h.158l-2.219-.951h0l.317.159v.158l-10.936,6.974,12.522,8.242.634-.476.317-.159,9.193-7.608Z" transform="translate(-267.568 -321.582)" fill="#85bb40"/>
        <path id="Trazado_937697" data-name="Trazado 937697" d="M432.427,374.862h0l.158.159h0Z" transform="translate(-262.198 -331.591)" fill="#8abf45"/>
        <path id="Trazado_937698" data-name="Trazado 937698" d="M489.893,373.885l-1.743-.634h-.159l-.476.317-2.06,1.9-2.219-.792-9.193,7.608-.317.159-.634.476h0l2.695,1.9,10.778,6.974,11.729-12.2.634-.476,1.585-1.743Z" transform="translate(-286.855 -330.615)" fill="#009748"/>
        <path id="Trazado_937699" data-name="Trazado 937699" d="M493.766,348.25h0l-2.06-.317-2.536-.475L487.9,347.3l-8.559-1.426h0l-3.17,1.9-6.182,3.963h-.158l-2.378,1.585,12.363,4.755,2.219.792,2.06-1.9.476-.317,8.559-7.766.792-.634Z" transform="translate(-283.437 -314.014)" fill="#2f7338"/>
        <path id="Trazado_937700" data-name="Trazado 937700" d="M444.822,347.886h0Z" transform="translate(-269.522 -315.235)" fill="#13a654"/>
        <path id="Trazado_937701" data-name="Trazado 937701" d="M429.688,350.054l-8.559-3.8-.476-.317h-.317l-.634-.317-2.378-.951h-.159l-1.584.476-.476.158-9.193,3.328-.159.159-.951.317h-.159l.159.159.317.158h0l3.17,2.061,7.291,5.072.158.159.158-.159.793-.476.317-.159h0l2.06,1.427L430,350.371v-.158Z" transform="translate(-245.353 -313.282)" fill="#009748"/>
        <path id="Trazado_937702" data-name="Trazado 937702" d="M473.092,397.813h0l.317.316Z" transform="translate(-286.855 -345.507)" fill="#3d7f3c"/>
        <path id="Trazado_937703" data-name="Trazado 937703" d="M469.963,407.664l-10.778-6.974-1.744-1.268L445.713,412.1l14.9,15.216,15.533-15.533Z" transform="translate(-270.254 -346.483)" fill="#bfc630"/>
        <path id="Trazado_937704" data-name="Trazado 937704" d="M474.532,398.934l-.634-.317Z" transform="translate(-287.344 -345.995)" fill="#3d7f3c"/>
        <path id="Trazado_937705" data-name="Trazado 937705" d="M433.86,383.237l-.317-.316-12.522-8.242-2.06-1.427h0l-.317.159-.793.476-.158.159h0l-9.827,6.815.317.476,14.582,15.057v-.158l11.729-12.68Z" transform="translate(-247.306 -330.615)" fill="#2f7338"/>
        <path id="Trazado_937706" data-name="Trazado 937706" d="M404.686,365.541h0l-.475.158.475-.158a7.655,7.655,0,0,0-1.109.475c-.476.476.158.476.476.317s.951-.317,1.109-.634,0-.159-.476-.159" transform="translate(-244.601 -325.916)" fill="#3d7f3c"/>
        <path id="Trazado_937707" data-name="Trazado 937707" d="M403.624,370.03h.158c-.792,0-.792,1.743.317,1.427,0-.158-.158-.476,0-.634s.476-.159.476-.475-.634-.317-.951-.317" transform="translate(-244.49 -328.662)" fill="#3d7f3c"/>
        <path id="Trazado_937708" data-name="Trazado 937708" d="M400.044,367.614h0c-.476.159-.634.159-.634.634s0,.476.317.317a1.237,1.237,0,0,0,.634-.634c0-.159,0-.317-.317-.317" transform="translate(-242.179 -327.197)" fill="#3d7f3c"/>
        <path id="Trazado_937709" data-name="Trazado 937709" d="M398.995,372.849l-.476.476c-.158.158-.158.476-.317.634a.535.535,0,0,0,.793.476c.158-.634.317-1.268,0-1.585" transform="translate(-241.446 -330.371)" fill="#3d7f3c"/>
        <path id="Trazado_937710" data-name="Trazado 937710" d="M403.132,362.833l.159-.634c0-.317-.317-.476-.634-.317h.159c-.634.476-1.109,1.585,0,1.109.158,0,.158.159.317-.158" transform="translate(-243.84 -323.683)" fill="#3d7f3c"/>
        <path id="Trazado_937711" data-name="Trazado 937711" d="M394.747,368.822h0c-.476.476-.793.951-.634,1.427.317,0,.475-.159.792-.159,0-.159.317-.792.317-.951s-.318-.317-.476-.317" transform="translate(-238.942 -327.929)" fill="#3d7f3c"/>
        <path id="Trazado_937712" data-name="Trazado 937712" d="M473.384,431.639c0-.159-.159-.317-.159-.476s-.634.158-.792.317c-.476.634.158.951.792.951s.634,0,.634-.475-.317-.158-.476-.317" transform="translate(-286.355 -365.703)" fill="#08a554"/>
        <path id="Trazado_937713" data-name="Trazado 937713" d="M487.6,435c0-.159.159-.476,0-.634-.158-.317-.475-.317-.792-.317-.158.158-.634.317-.476.792s.792.317.792.793c.475-.159.475-.317.475-.634" transform="translate(-294.862 -367.479)" fill="#08a554"/>
        <path id="Trazado_937714" data-name="Trazado 937714" d="M473.079,422.517c.158,0,.476.476.634.159v-.317a1.91,1.91,0,0,0-.792-.792c-.158,0-.634.158-.634.476s.634.317.792.476" transform="translate(-286.367 -359.91)" fill="#08a554"/>
        <path id="Trazado_937715" data-name="Trazado 937715" d="M475.8,428.009c-.158,0,0,.317,0,.476.159.476.159.634.634.793.158,0,.158-.634,0-.793s-.317-.476-.634-.476" transform="translate(-288.455 -363.817)" fill="#08a554"/>
        <path id="Trazado_937716" data-name="Trazado 937716" d="M480.914,429.924h0c-.476-.317-.476.634-.317.951s.634.792.951.634a1.048,1.048,0,0,0,.158-.951c-.158-.158-.475-.158-.792-.634" transform="translate(-291.348 -364.939)" fill="#08a554"/>
        <path id="Trazado_937717" data-name="Trazado 937717" d="M479.753,423.8a.583.583,0,0,0-.158-.476,4.2,4.2,0,0,0-.793-.951.958.958,0,0,0-.476.951c.158.317.634.476.793.634s.634.159.634-.158" transform="translate(-290.029 -360.399)" fill="#08a554"/>
        <path id="Trazado_937718" data-name="Trazado 937718" d="M486.341,427.191c.317,0,.634.158.476-.317s-.634-.476-1.109-.476c-.158,0-.317,0-.317.159a.721.721,0,0,0,0,.792c.159.317.159.317.317.158a.824.824,0,0,1,.634-.316" transform="translate(-294.24 -362.84)" fill="#08a554"/>
        <path id="Trazado_937719" data-name="Trazado 937719" d="M471.9,381.646c-.158,0-.317.159-.476.159-.317,0-.475.317,0,.951s.476.476.634,0l.158-.476s.317-.158,0-.476-.317-.159-.317-.159" transform="translate(-285.661 -335.681)" fill="#3d7f3c"/>
        <path id="Trazado_937720" data-name="Trazado 937720" d="M463.707,377.68h-.158a.155.155,0,0,0-.158.159c-.476.317-.317.792.158,1.427.158.159.158.476.476-.159a2.254,2.254,0,0,0,.317-.951c-.159-.317-.317-.476-.634-.476" transform="translate(-280.798 -333.3)" fill="#3d7f3c"/>
        <path id="Trazado_937721" data-name="Trazado 937721" d="M475.3,376.875h-.476c-.634.159-.634.951.317.951s.951-.634.158-.951" transform="translate(-287.64 -332.812)" fill="#3d7f3c"/>
        <path id="Trazado_937722" data-name="Trazado 937722" d="M468.3,372.975c.634-.158,1.427-.792.317-.951s-.951,1.268-.317.951" transform="translate(-283.649 -329.863)" fill="#3d7f3c"/>
        <path id="Trazado_937723" data-name="Trazado 937723" d="M469.677,378.682a2.7,2.7,0,0,0-.158-1.109c-.317-.158-.317,0-.476,0h-.158c-.317,0-.476.317-.317,1.109.158.317.476.317.793.159.158,0,.158,0,.317-.159" transform="translate(-284.074 -333.192)" fill="#3d7f3c"/>
        <path id="Trazado_937724" data-name="Trazado 937724" d="M463.641,372.012c-.159,0-.159-1.109-.951-.158s.792,1.109,1.268.476l-.317-.317" transform="translate(-280.415 -329.534)" fill="#3d7f3c"/>
        <path id="Trazado_937725" data-name="Trazado 937725" d="M511.4,356.414a1.439,1.439,0,0,0-1.109-.476.155.155,0,0,0-.159.159c.317.317.476.634.951.792.317.159.317-.317.317-.476" transform="translate(-309.315 -320.117)" fill="#91bf3f"/>
        <path id="Trazado_937726" data-name="Trazado 937726" d="M504.973,354.73h0c-.317,0-.475.158-.475.317s.317.158.634.158c1.11,0,.159-.475-.159-.475" transform="translate(-305.897 -319.385)" fill="#91bf3f"/>
        <path id="Trazado_937727" data-name="Trazado 937727" d="M501.7,362.279c-.158-.159-.158,0-.317.158h0c-.476.317,0,2.06.634.951a2.932,2.932,0,0,0-.317-1.109" transform="translate(-303.89 -323.922)" fill="#91bf3f"/>
        <path id="Trazado_937728" data-name="Trazado 937728" d="M505.692,358.354h0l-.317.159c-.159.158-.476.317-.476.634,0,.158.317.317.476.317s.158,0,.158-.159a.6.6,0,0,0,.159-.951" transform="translate(-306.141 -321.582)" fill="#91bf3f"/>
        <path id="Trazado_937729" data-name="Trazado 937729" d="M501.65,355.44h-.317c-.158,0-.317.158-.158.317s.476,0,.634,0c.634-.317.159-.476-.158-.317" transform="translate(-303.843 -319.777)" fill="#91bf3f"/>
        <path id="Trazado_937730" data-name="Trazado 937730" d="M494.037,362.942c-.317.317-.634.634-.476.951.159.476.951-.634,1.109-1.11h0c-.317,0-.475.159-.634.159" transform="translate(-299.241 -324.267)" fill="#91bf3f"/>
        <path id="Trazado_937731" data-name="Trazado 937731" d="M493.17,358.915c0-.158-.159-.158-.317-.158a.583.583,0,0,0-.476.158c-.476.476-.951,1.585,0,1.109.317-.158.951-.634.793-1.109" transform="translate(-298.215 -321.826)" fill="#91bf3f"/>
        <path id="Trazado_937732" data-name="Trazado 937732" d="M497.239,356.341c-.476.158-1.427,1.109-.158.792.317-.159.792-.476.792-.634s-.476-.158-.634-.158" transform="translate(-301.017 -320.361)" fill="#91bf3f"/>
        <path id="Trazado_937733" data-name="Trazado 937733" d="M501.308,357.549c-.476.158-1.268,1.743-.317,1.109.317-.159.634-.951.317-1.109" transform="translate(-303.5 -321.094)" fill="#91bf3f"/>
        <path id="Trazado_937734" data-name="Trazado 937734" d="M506.616,329.364a2.007,2.007,0,0,0-.951.159c-.476.159-.317.476.158.634s.634-.158.792-.317c0-.158.159-.158.159-.317a.156.156,0,0,1-.159-.159" transform="translate(-306.431 -304.004)" fill="#91bf3f"/>
        <path id="Trazado_937735" data-name="Trazado 937735" d="M486.355,331.09c-.158.317.951,0,.951-.317h0c.317-.317-.951,0-.951.317" transform="translate(-294.888 -304.779)" fill="#91bf3f"/>
        <path id="Trazado_937736" data-name="Trazado 937736" d="M485.122,334.6a2.036,2.036,0,0,0-1.585.634c-.159.317.951-.158,1.585-.634h0" transform="translate(-293.179 -307.178)" fill="#91bf3f"/>
        <path id="Trazado_937737" data-name="Trazado 937737" d="M483.2,332.988c-.951.158-2.536.792-1.427.634.476-.158,1.109-.317,1.585-.476.158,0,0-.158-.158-.158" transform="translate(-291.886 -306.201)" fill="#91bf3f"/>
        <path id="Trazado_937738" data-name="Trazado 937738" d="M481.51,332.659a10.936,10.936,0,0,0,1.268-.476h-.317c-.476.158-1.109.476-.951.476" transform="translate(-291.944 -305.713)" fill="#91bf3f"/>
        <path id="Trazado_937739" data-name="Trazado 937739" d="M490.367,330.4c.158.159.634-.158.951-.317.158,0,.158-.158.317-.158a.155.155,0,0,0-.158-.159c-.634.159-1.268.476-1.11.634" transform="translate(-297.315 -304.248)" fill="#91bf3f"/>
        <path id="Trazado_937740" data-name="Trazado 937740" d="M491.429,333.208a1.753,1.753,0,0,0-1.268,0l-.158.159c0,.317.158.634,1.426,0,.159.158.317-.159,0-.159" transform="translate(-297.109 -306.263)" fill="#91bf3f"/>
        <path id="Trazado_937741" data-name="Trazado 937741" d="M492.248,330.975c-.634.158-.634.317-.634.476s.951-.159,1.268-.476h-.634" transform="translate(-298.086 -304.981)" fill="#91bf3f"/>
        <path id="Trazado_937742" data-name="Trazado 937742" d="M500.751,330.975h-.158a2.932,2.932,0,0,0-1.109.317c-.159,0-.159.159,0,.159.475.158,1.9-.159,1.268-.476" transform="translate(-302.785 -304.981)" fill="#91bf3f"/>
        <path id="Trazado_937743" data-name="Trazado 937743" d="M496.322,328.559c-.317,0-1.585.317-.951.476.792-.159,1.109-.476.951-.476" transform="translate(-300.257 -303.516)" fill="#91bf3f"/>
        <path id="Trazado_937744" data-name="Trazado 937744" d="M498.481,329.888h0c.158-.317-.317-.159-.634,0s0,.158.158.158h.158a.554.554,0,0,0,.317-.158" transform="translate(-301.783 -304.211)" fill="#91bf3f"/>
        <path id="Trazado_937745" data-name="Trazado 937745" d="M504.314,328.559a2.357,2.357,0,0,0-1.427.317.552.552,0,0,0,.317.159c.158,0,.476-.159.634-.159h.476c0-.158.158-.158,0-.317" transform="translate(-304.921 -303.516)" fill="#91bf3f"/>
        <path id="Trazado_937746" data-name="Trazado 937746" d="M501.58,327.913h0c.317-.159.159-.159,0-.159h-.317a.873.873,0,0,0-.793.476,10.031,10.031,0,0,1,1.11-.317" transform="translate(-303.455 -303.028)" fill="#91bf3f"/>
        <path id="Trazado_937747" data-name="Trazado 937747" d="M430.815,374.459Z" transform="translate(-261.221 -331.347)" fill="#8abf45"/>
        <path id="Trazado_937748" data-name="Trazado 937748" d="M443.211,346.836l-.317-.158Z" transform="translate(-268.545 -314.502)" fill="#13a654"/>
        <path id="Trazado_937749" data-name="Trazado 937749" d="M472.287,397.813h0l.317.158Z" transform="translate(-286.367 -345.507)" fill="#3d7f3c"/>
        <path id="Trazado_937750" data-name="Trazado 937750" d="M473.568,398.532l-.476-.317Z" transform="translate(-286.855 -345.751)" fill="#3d7f3c"/>
        <path id="Trazado_937751" data-name="Trazado 937751" d="M215.167,328.685h0l-8.876,24.884h17.593Zm-6.5-12.2H222.3l23.458,60.388H232.443l-5.231-13.789H202.962l-5.231,13.789H185.21Z" transform="translate(-112.3 -296.192)" fill="#2f7338"/>
        <path id="Trazado_937752" data-name="Trazado 937752" d="M93.23,364.224a33.176,33.176,0,0,1-13,2.377c-12.838,0-20.446-9.193-20.446-21.556s7.767-21.873,20.129-21.873a24.71,24.71,0,0,1,13,3.17h0l1.109.634,1.268-10.144-1.427-.634h0a43.292,43.292,0,0,0-13.631-2.536c-20.446,0-33.126,11.57-33.126,32.334s13.473,30.273,33.126,30.273a68.727,68.727,0,0,0,13.789-1.9l1.427-.476-1.268-9.986Z" transform="translate(-28.563 -294.483)" fill="#2f7338"/>
        <path id="Trazado_937753" data-name="Trazado 937753" d="M1.208,316.48H13.254v60.388H1.208V316.48Z" transform="translate(-0.732 -296.192)" fill="#2f7338"/>
      </g>
    </g>
  </g>
</svg>
