<svg xmlns="http://www.w3.org/2000/svg" width="100" height="100" viewBox="0 0 100 100">
  <g id="Grupo_1177666" data-name="Grupo 1177666" transform="translate(-637 -6992)">
    <g id="Grupo_1098742" data-name="Grupo 1098742" transform="translate(637.242 6992)">
      <rect id="Rectángulo_400898" data-name="Rectángulo 400898" width="100" height="100" rx="50" transform="translate(-0.242)" fill="#fff" opacity="0.859"/>
      <g id="Rectángulo_400907" data-name="Rectángulo 400907" transform="translate(-0.242)" fill="none" stroke="#f3bc5b" stroke-linecap="round" stroke-width="3" stroke-dasharray="0 7">
        <rect width="100" height="100" rx="50" stroke="none"/>
        <rect x="1.5" y="1.5" width="97" height="97" rx="48.5" fill="none"/>
      </g>
    </g>
    <g id="Grupo_1107006" data-name="Grupo 1107006" transform="translate(645.398 7000.157)">
      <rect id="Rectángulo_400898-2" data-name="Rectángulo 400898" width="84" height="84" rx="42" transform="translate(-0.399 -0.157)" fill="#004e3d" opacity="0.859"/>
      <rect id="Rectángulo_400907-2" data-name="Rectángulo 400907" width="84" height="84" rx="42" transform="translate(-0.398 -0.157)" fill="none"/>
    </g>
    <g id="Grupo_1178939" data-name="Grupo 1178939" transform="translate(632.052 7016.186)">
      <g id="Grupo_1178937" data-name="Grupo 1178937" transform="translate(33.161 0.752)">
        <path id="Trazado_937516" data-name="Trazado 937516" d="M424.861,136.5h-.007l-.3.176v5.193h4.55l.249-.212v-.665A4.506,4.506,0,0,0,424.861,136.5Z" transform="translate(-385.77 -123.489)" fill="#ffa90f"/>
        <path id="Trazado_937517" data-name="Trazado 937517" d="M153.6,8.18l-.322-.723h-22.05a1.666,1.666,0,0,0-1.666,1.666V12l.693.568h18.486l6.069,5.9v7.513h4.319l.481-.351V13.788l-.749-.331Z" transform="translate(-120.522 -7.457)" fill="#62ddfc"/>
        <g id="Grupo_1178936" data-name="Grupo 1178936" transform="translate(9.037 0)">
          <path id="Trazado_937518" data-name="Trazado 937518" d="M134.726,9.123a1.666,1.666,0,0,1,1.666-1.666h-5.167a1.666,1.666,0,0,0-1.666,1.666V12l.693.568h5.167L134.726,12V9.123Z" transform="translate(-129.559 -7.457)" fill="#00d2fc"/>
        </g>
        <path id="Trazado_937519" data-name="Trazado 937519" d="M44.444,136.5h-.092a4.42,4.42,0,0,0-4.407,4.407v.75l.435.12h4.4v-4.995Z" transform="translate(-39.945 -123.489)" fill="#ffa90f"/>
        <path id="Trazado_937520" data-name="Trazado 937520" d="M364.741,7.457v4.665a1.666,1.666,0,0,0,1.666,1.666h4.665Z" transform="translate(-331.988 -7.457)" fill="#00d2fc"/>
        <path id="Trazado_937521" data-name="Trazado 937521" d="M108.668,53.452l-.388-.954H86.23a1.666,1.666,0,0,0-1.666,1.666V66.127l.653.653h27.6l1.794-.653v-7.3l-.935-.436Z" transform="translate(-80.065 -47.956)" fill="#dbedff"/>
        <path id="Trazado_937522" data-name="Trazado 937522" d="M89.732,54.163A1.666,1.666,0,0,1,91.4,52.5H86.231a1.666,1.666,0,0,0-1.666,1.666V66.126l.653.653h5.167l-.653-.653Z" transform="translate(-80.066 -47.955)" fill="#b5dcff"/>
        <path id="Trazado_937523" data-name="Trazado 937523" d="M319.746,52.5v4.665a1.666,1.666,0,0,0,1.666,1.666h4.665Z" transform="translate(-291.531 -47.956)" fill="#b5dcff"/>
        <path id="Trazado_937524" data-name="Trazado 937524" d="M367.464,12.122V10.18l-2.723-2.723v4.665a1.666,1.666,0,0,0,1.666,1.666h2.723A1.666,1.666,0,0,1,367.464,12.122Z" transform="translate(-331.988 -7.457)" fill="#00c2fb"/>
        <path id="Trazado_937525" data-name="Trazado 937525" d="M322.469,57.163V55.221L319.746,52.5v4.665a1.666,1.666,0,0,0,1.666,1.666h2.723A1.666,1.666,0,0,1,322.469,57.163Z" transform="translate(-291.531 -47.956)" fill="#8bcaff"/>
        <path id="Trazado_937526" data-name="Trazado 937526" d="M83.528,187.649H39.945v30.608a1.339,1.339,0,0,0,1.339,1.339h40.9a1.339,1.339,0,0,0,1.339-1.339Z" transform="translate(-39.945 -169.478)" fill="#ffd086"/>
        <path id="Trazado_937527" data-name="Trazado 937527" d="M46.369,218.257V187.649H39.945v30.608a1.339,1.339,0,0,0,1.339,1.339h6.424A1.339,1.339,0,0,1,46.369,218.257Z" transform="translate(-39.945 -169.478)" fill="#ffc365"/>
        <path id="Trazado_937528" data-name="Trazado 937528" d="M272.953,320H256.9a.857.857,0,0,0-.857.857v12.633a.857.857,0,0,0,.857.857h16.05a.857.857,0,0,0,.857-.857V320.859A.857.857,0,0,0,272.953,320Z" transform="translate(-234.254 -288.485)" fill="#dbedff"/>
        <path id="Trazado_937529" data-name="Trazado 937529" d="M260.074,333.493V320.859a.857.857,0,0,1,.857-.857H256.9a.857.857,0,0,0-.857.857v12.633a.857.857,0,0,0,.857.857h4.028A.857.857,0,0,1,260.074,333.493Z" transform="translate(-234.254 -288.485)" fill="#b5dcff"/>
      </g>
      <g id="Grupo_1178938" data-name="Grupo 1178938" transform="translate(32.4 0)">
        <path id="Trazado_937530" data-name="Trazado 937530" d="M36.9,13.057a5.17,5.17,0,0,0-4.5,5.119V49.535a2.1,2.1,0,0,0,2.1,2.1H75.4a2.1,2.1,0,0,0,2.1-2.1V35.846a.756.756,0,1,0-1.513,0V49.535a.584.584,0,0,1-.583.583H34.5a.584.584,0,0,1-.583-.583V19.683H75.983V32.316a.756.756,0,0,0,1.513,0V18.262A5.256,5.256,0,0,0,73,13.067V7.088a.76.76,0,0,0-.221-.535L66.444.221A.764.764,0,0,0,65.909,0H43.859a2.425,2.425,0,0,0-2.422,2.422v2.12H39.322A2.425,2.425,0,0,0,36.9,6.964Zm0,5.114H33.913A3.657,3.657,0,0,1,36.9,14.586ZM73,14.6a3.743,3.743,0,0,1,2.986,3.57H73ZM66.665,2.582l3.749,3.749h-2.84a.911.911,0,0,1-.91-.91Zm-23.716-.16a.911.911,0,0,1,.91-.91H65.153V5.422a2.425,2.425,0,0,0,2.422,2.422h3.909V18.171H68.459V11.63a.76.76,0,0,0-.221-.535L61.906,4.763a.765.765,0,0,0-.535-.221H42.949Zm22.928,8.451h-2.84a.911.911,0,0,1-.91-.91V7.124ZM38.412,6.964a.911.911,0,0,1,.91-.91H60.615V9.964a2.425,2.425,0,0,0,2.422,2.422h3.909v5.785H38.412Z" transform="translate(-32.4 0)"/>
        <path id="Trazado_937531" data-name="Trazado 937531" d="M295.026,425.126H284.337a.756.756,0,1,0,0,1.513h10.689a.756.756,0,0,0,0-1.513Z" transform="translate(-258.252 -382.256)"/>
        <path id="Trazado_937532" data-name="Trazado 937532" d="M295.026,397.5H284.337a.756.756,0,1,0,0,1.513h10.689a.756.756,0,0,0,0-1.513Z" transform="translate(-258.252 -357.415)"/>
        <path id="Trazado_937533" data-name="Trazado 937533" d="M295.026,369.873H284.337a.756.756,0,1,0,0,1.513h10.689a.756.756,0,0,0,0-1.513Z" transform="translate(-258.252 -332.575)"/>
        <path id="Trazado_937534" data-name="Trazado 937534" d="M295.026,342.246H284.337a.756.756,0,1,0,0,1.513h10.689a.756.756,0,0,0,0-1.513Z" transform="translate(-258.252 -307.734)"/>
        <path id="Trazado_937535" data-name="Trazado 937535" d="M140.152,149.617H119.346a.756.756,0,1,0,0,1.513h20.805a.756.756,0,0,0,0-1.513Z" transform="translate(-109.899 -134.53)"/>
        <path id="Trazado_937536" data-name="Trazado 937536" d="M119.345,123.5h17.511a.756.756,0,1,0,0-1.513H119.345a.756.756,0,1,0,0,1.513Z" transform="translate(-109.898 -109.689)"/>
        <path id="Trazado_937537" data-name="Trazado 937537" d="M256.374,312.545h-6.26a1.615,1.615,0,0,0-1.613,1.613v12.633a1.615,1.615,0,0,0,1.613,1.613h16.05a1.615,1.615,0,0,0,1.613-1.613V314.158a1.615,1.615,0,0,0-1.613-1.613H259.9a.756.756,0,0,0,0,1.513h6.26a.1.1,0,0,1,.1.1v12.633a.1.1,0,0,1-.1.1h-16.05a.1.1,0,0,1-.1-.1V314.158a.1.1,0,0,1,.1-.1h6.26a.756.756,0,0,0,0-1.513Z" transform="translate(-226.708 -281.028)"/>
      </g>
    </g>
  </g>
</svg>
