<svg xmlns="http://www.w3.org/2000/svg" width="199.816" height="117.023" viewBox="0 0 199.816 117.023">
  <g id="OBJECTS" transform="translate(0 -62.185)">
    <g id="Grupo_1178913" data-name="Grupo 1178913" transform="translate(0 62.703)">
      <path id="Trazado_937386" data-name="Trazado 937386" d="M0,316.051s89.874-19.82,199.816-35.458v58.455H0Z" transform="translate(0 -222.542)" fill="#f4dbda"/>
      <g id="Grupo_1178912" data-name="Grupo 1178912" transform="translate(19.834)">
        <ellipse id="Elipse_13645" data-name="Elipse 13645" cx="77.871" cy="8.488" rx="77.871" ry="8.488" transform="translate(4.886 91.725) rotate(-7.666)" fill="#1d1d1b"/>
        <g id="Grupo_1178911" data-name="Grupo 1178911">
          <path id="Trazado_937387" data-name="Trazado 937387" d="M616.753,298.773l-.535,6.6h-6.541l-.237-6.231-1.2.091V301.1l-2.73,3.174a1.613,1.613,0,0,1,.951,1.457,1.678,1.678,0,0,1-.951,1.487h9.931l-.059,2.914-13.618.535-2.676-11.477L616.754,298v.772Z" transform="translate(-459.315 -235.313)" fill="#1d1d1b" stroke="#1d1d1b" stroke-linecap="round" stroke-linejoin="round" stroke-miterlimit="10" stroke-width="0.75"/>
          <path id="Trazado_937388" data-name="Trazado 937388" d="M579.691,301.282a4,4,0,0,1,3.622-1.962c2.379.231,4.1,3.383,4.579,6.892s0,11.655,0,11.655H583.9Z" transform="translate(-445.083 -236.268)" fill="#9d4747"/>
          <g id="Grupo_1178873" data-name="Grupo 1178873" transform="translate(119.493 65.209)">
            <path id="Trazado_937389" data-name="Trazado 937389" d="M537.326,307.463h-6.464c-4.365,0-7.9,4.782-7.9,10.681s3.538,10.681,7.9,10.681h6.464c4.365,0,7.9-4.782,7.9-10.681S541.69,307.463,537.326,307.463Z" transform="translate(-522.958 -307.463)" fill="#4f5151"/>
            <path id="Trazado_937390" data-name="Trazado 937390" d="M555.125,328.826c-4.365,0-7.9-4.782-7.9-10.681s3.538-10.681,7.9-10.681" transform="translate(-540.758 -307.464)" fill="none" stroke="#1d1d1b" stroke-linecap="round" stroke-linejoin="round" stroke-miterlimit="10" stroke-width="0.75"/>
            <path id="Trazado_937391" data-name="Trazado 937391" d="M547.933,358.235c-4.365,0-7.9-4.782-7.9-10.681" transform="translate(-535.482 -336.873)" fill="none" stroke="#1d1d1b" stroke-linecap="round" stroke-linejoin="round" stroke-miterlimit="10" stroke-width="0.75"/>
            <path id="Trazado_937392" data-name="Trazado 937392" d="M536.935,358.235c-4.365,0-7.9-4.782-7.9-10.681" transform="translate(-527.414 -336.873)" fill="none" stroke="#1d1d1b" stroke-linecap="round" stroke-linejoin="round" stroke-miterlimit="10" stroke-width="0.75"/>
            <ellipse id="Elipse_13646" data-name="Elipse 13646" cx="3.952" cy="5.34" rx="3.952" ry="5.34" transform="translate(10.416 5.341)" fill="#e2edf4"/>
            <path id="Trazado_937393" data-name="Trazado 937393" d="M573.908,341.233c0,1.268-.76,2.3-1.7,2.3s-1.7-1.028-1.7-2.3.76-2.3,1.7-2.3S573.908,339.966,573.908,341.233Z" transform="translate(-557.842 -330.552)" fill="#4f5151"/>
          </g>
          <path id="Trazado_937394" data-name="Trazado 937394" d="M405.884,262.14l39.838-1.191.3,12.607,1.784,1.725-8.623,1.011-.059,11.358-1.487-.357V288.9l-29.5,4.341-.654-1.9h-1.606l-.535-14.748Z" transform="translate(-317.189 -208.132)" fill="#3d3d3f"/>
          <path id="Trazado_937395" data-name="Trazado 937395" d="M479.123,257.6l-68.507,2.082-.357,14.449,5.88-.448V280.5l19.69-2.26v-6.053l-2.1.16,45.158-3.443Zm-50.489,12.353a1.227,1.227,0,0,1,1.227-1.227h.639a1.227,1.227,0,0,1,1.227,1.227v.282a1.227,1.227,0,0,1-1.227,1.227h-.639a1.227,1.227,0,0,1-1.227-1.227Zm-12.726,1.4a1.227,1.227,0,0,1-1.227,1.227h-.639a1.227,1.227,0,0,1-1.227-1.227v-.282a1.227,1.227,0,0,1,1.227-1.227h.639a1.227,1.227,0,0,1,1.227,1.227Zm30.447-2.073a1.227,1.227,0,0,1-1.227,1.227h-.639a1.227,1.227,0,0,1-1.227-1.227V269a1.227,1.227,0,0,1,1.227-1.227h.639A1.227,1.227,0,0,1,446.355,269Z" transform="translate(-320.791 -205.678)" fill="#fa5c62"/>
          <path id="Trazado_937396" data-name="Trazado 937396" d="M238.748,77.073l24.621-.713v50.37l-52.294.653,18.729-49.417Z" transform="translate(-174.675 -72.722)" fill="#7fafb5"/>
          <g id="Grupo_1178874" data-name="Grupo 1178874" transform="translate(54.281 16.604)">
            <path id="Trazado_937397" data-name="Trazado 937397" d="M283.405,125.025s10.166.593,12.009,1.069,5.747,2.72,6.531,5.612L279.6,130.137l-1.41-4.46Z" transform="translate(-278.186 -125.025)" fill="#3d3d3f"/>
            <path id="Trazado_937398" data-name="Trazado 937398" d="M284.406,127.01l7.785-1.66-4.9-.326-3.809,1.6Z" transform="translate(-282.069 -125.025)" fill="#1d1d1b"/>
          </g>
          <path id="Trazado_937399" data-name="Trazado 937399" d="M407.357,76.36l70.2,11.061.446,37.2-70.647,2.112Z" transform="translate(-318.662 -72.722)" fill="#9fd0d9"/>
          <g id="Grupo_1178875" data-name="Grupo 1178875" transform="translate(75.428 54.008)">
            <path id="Trazado_937400" data-name="Trazado 937400" d="M373.238,265.42l-.535,14.449-11.857-1.308.915-12.9Z" transform="translate(-359.971 -265.42)" fill="#9d4747"/>
            <path id="Trazado_937401" data-name="Trazado 937401" d="M370.293,316.052l.535,14.748-13.267-2.081.875-13.974Z" transform="translate(-357.561 -301.603)" fill="#4f5151"/>
            <path id="Trazado_937402" data-name="Trazado 937402" d="M370.828,369.277h1.606l.654,1.9-14.651-2.854-.875-1.13Z" transform="translate(-357.561 -340.081)" fill="#1d1d1b" stroke="#1d1d1b" stroke-linecap="round" stroke-linejoin="round" stroke-miterlimit="10" stroke-width="0.75"/>
          </g>
          <line id="Línea_27052" data-name="Línea 27052" y1="2.975" x2="68.546" transform="translate(89.688 56.563)" fill="none" stroke="#1d1d1b" stroke-linecap="round" stroke-linejoin="round" stroke-miterlimit="10" stroke-width="0.75"/>
          <path id="Trazado_937403" data-name="Trazado 937403" d="M526.549,322.007V308.94l8.385-.67.769.743-8.391.685-.272,12.426Z" transform="translate(-406.099 -242.846)" fill="#1d1d1b" stroke="#1d1d1b" stroke-linecap="round" stroke-linejoin="round" stroke-miterlimit="10" stroke-width="0.75"/>
          <g id="Grupo_1178910" data-name="Grupo 1178910">
            <g id="Grupo_1178877" data-name="Grupo 1178877" transform="translate(56.455 66.167)">
              <path id="Trazado_937404" data-name="Trazado 937404" d="M333.086,312.1s4.549,1.056,5.887,7.3a27.78,27.78,0,0,1,.312,10.838l-20.041-4.572,1.71-10.949,9.143-3.657Z" transform="translate(-310.48 -311.059)" fill="#9d4747"/>
              <g id="Grupo_1178876" data-name="Grupo 1178876" transform="translate(0 6.002)">
                <path id="Trazado_937405" data-name="Trazado 937405" d="M303.853,333.59h-7.876c-5.318,0-9.629,5.4-9.629,12.051s4.311,12.051,9.629,12.051h7.876c5.318,0,9.629-5.4,9.629-12.051S309.171,333.59,303.853,333.59Z" transform="translate(-286.347 -333.59)" fill="#4f5151"/>
                <path id="Trazado_937406" data-name="Trazado 937406" d="M325.539,357.692c-5.318,0-9.629-5.4-9.629-12.051s4.311-12.051,9.629-12.051" transform="translate(-308.034 -333.589)" fill="none" stroke="#1d1d1b" stroke-linecap="round" stroke-linejoin="round" stroke-miterlimit="10" stroke-width="0.75"/>
                <path id="Trazado_937407" data-name="Trazado 937407" d="M316.776,390.874c-5.318,0-9.629-5.4-9.629-12.051" transform="translate(-301.605 -366.772)" fill="none" stroke="#1d1d1b" stroke-linecap="round" stroke-linejoin="round" stroke-miterlimit="10" stroke-width="0.75"/>
                <path id="Trazado_937408" data-name="Trazado 937408" d="M303.376,390.874c-5.318,0-9.629-5.4-9.629-12.051" transform="translate(-291.775 -366.772)" fill="none" stroke="#1d1d1b" stroke-linecap="round" stroke-linejoin="round" stroke-miterlimit="10" stroke-width="0.75"/>
                <ellipse id="Elipse_13647" data-name="Elipse 13647" cx="4.815" cy="6.026" rx="4.815" ry="6.026" transform="translate(12.691 6.026)" fill="#e2edf4"/>
                <ellipse id="Elipse_13648" data-name="Elipse 13648" cx="2.069" cy="2.59" rx="2.069" ry="2.59" transform="translate(15.436 9.462)" fill="#4f5151"/>
              </g>
            </g>
            <g id="Grupo_1178879" data-name="Grupo 1178879" transform="translate(13.201 63.404)">
              <path id="Trazado_937409" data-name="Trazado 937409" d="M170.737,301.727s4.549,1.056,5.887,7.3a27.78,27.78,0,0,1,.312,10.838l-20.041-4.572,1.71-10.949,9.143-3.657Z" transform="translate(-148.13 -300.686)" fill="#9d4747"/>
              <g id="Grupo_1178878" data-name="Grupo 1178878" transform="translate(0 6.002)">
                <path id="Trazado_937410" data-name="Trazado 937410" d="M141.5,323.217h-7.876c-5.318,0-9.629,5.4-9.629,12.051s4.311,12.051,9.629,12.051H141.5c5.318,0,9.629-5.4,9.629-12.051S146.821,323.217,141.5,323.217Z" transform="translate(-123.997 -323.217)" fill="#4f5151"/>
                <path id="Trazado_937411" data-name="Trazado 937411" d="M163.19,347.319c-5.318,0-9.629-5.4-9.629-12.051s4.311-12.051,9.629-12.051" transform="translate(-145.684 -323.216)" fill="none" stroke="#1d1d1b" stroke-linecap="round" stroke-linejoin="round" stroke-miterlimit="10" stroke-width="0.75"/>
                <path id="Trazado_937412" data-name="Trazado 937412" d="M154.426,380.5c-5.318,0-9.629-5.4-9.629-12.051" transform="translate(-139.255 -356.399)" fill="none" stroke="#1d1d1b" stroke-linecap="round" stroke-linejoin="round" stroke-miterlimit="10" stroke-width="0.75"/>
                <path id="Trazado_937413" data-name="Trazado 937413" d="M141.026,380.5c-5.318,0-9.629-5.4-9.629-12.051" transform="translate(-129.425 -356.399)" fill="none" stroke="#1d1d1b" stroke-linecap="round" stroke-linejoin="round" stroke-miterlimit="10" stroke-width="0.75"/>
                <ellipse id="Elipse_13649" data-name="Elipse 13649" cx="4.815" cy="6.026" rx="4.815" ry="6.026" transform="translate(12.691 6.026)" fill="#e2edf4"/>
                <ellipse id="Elipse_13650" data-name="Elipse 13650" cx="2.069" cy="2.59" rx="2.069" ry="2.59" transform="translate(15.436 9.461)" fill="#4f5151"/>
              </g>
            </g>
            <g id="Grupo_1178881" data-name="Grupo 1178881" transform="translate(0 29.067)">
              <g id="Grupo_1178880" data-name="Grupo 1178880">
                <path id="Trazado_937414" data-name="Trazado 937414" d="M80.256,189.928h-4.9a.911.911,0,0,1-.911-.911v-16.3a.911.911,0,0,1,.911-.911h4.9a.911.911,0,0,1,.911.911v16.3A.911.911,0,0,1,80.256,189.928Z" transform="translate(-74.447 -171.804)" fill="#3d3d3f"/>
              </g>
              <path id="Trazado_937415" data-name="Trazado 937415" d="M94.43,174.79v16.273a1.006,1.006,0,0,1-1.011.715" transform="translate(-88.364 -173.994)" fill="none" stroke="#1d1d1b" stroke-linecap="round" stroke-linejoin="round" stroke-miterlimit="10" stroke-width="0.75"/>
            </g>
            <path id="Trazado_937416" data-name="Trazado 937416" d="M85.364,134l-2.216-1.888.731-22.241L87.7,90.663H85.141V87.987l4.044-5.114h1.189s9.753-11.893,14.986-16.651c0,0,27.771-3.746,42.221-3.509l1.368,1.606V75.678l-12.429,5.233,2.022.833.654,2.735,21.712,1.665,1.064,1.962,2.081,36.513-.535,2.022h-4.1a12.8,12.8,0,0,1,1.249,2.557c0,.476-.773.713-.773.713a10.712,10.712,0,0,0-7.969,1.962c-4.044,2.854-5.292,7.255-5.768,10.763s-.773,9.812-.773,9.812h-7.017Z" transform="translate(-80.83 -62.703)" fill="#fa5c62"/>
            <path id="Trazado_937417" data-name="Trazado 937417" d="M292.692,181.938H278.9V162.294h13.259a2.758,2.758,0,0,1,2.758,2.758V179.71A2.227,2.227,0,0,1,292.692,181.938Z" transform="translate(-224.431 -135.761)" fill="#b4d3f3"/>
            <g id="Grupo_1178883" data-name="Grupo 1178883" transform="translate(50.951 44.873)">
              <g id="Grupo_1178882" data-name="Grupo 1178882">
                <path id="Trazado_937418" data-name="Trazado 937418" d="M266.873,259.8l-1.183-.477.95-2.353V231.132h1.276v26.086Z" transform="translate(-265.69 -231.132)" fill="#3d3d3f"/>
              </g>
              <path id="Trazado_937419" data-name="Trazado 937419" d="M270.131,259.8l1.042-2.583V231.132" transform="translate(-268.948 -231.132)" fill="none" stroke="#1d1d1b" stroke-linecap="round" stroke-linejoin="round" stroke-miterlimit="10" stroke-width="0.75"/>
            </g>
            <g id="Grupo_1178889" data-name="Grupo 1178889" transform="translate(4.252 26.533)">
              <g id="Grupo_1178887" data-name="Grupo 1178887">
                <path id="Trazado_937420" data-name="Trazado 937420" d="M93.558,163.662l42.638-1.368v18.34l-1.725,1.641-42.459.892-1.389-.833-.217-1.7Z" transform="translate(-90.407 -162.294)" fill="#b4d3f3"/>
                <g id="Grupo_1178886" data-name="Grupo 1178886" transform="translate(1.209 13.356)">
                  <g id="Grupo_1178884" data-name="Grupo 1178884" transform="translate(0 0.585)">
                    <path id="Trazado_937421" data-name="Trazado 937421" d="M138.752,217.745a8.793,8.793,0,0,0-1.214-.234,4.281,4.281,0,0,0-8.037-.167c-2.631.481-9.719,2.424-9.719,2.424s-19.624.119-21.886.357-2.952,1.189-2.952,1.189l.4.238,34.323-.721,1.174-.025,5.38-.113,1.173-.025.408-.009,1.725-1.641S140.12,218.161,138.752,217.745Zm-8.042-.548a3.259,3.259,0,0,1,5.662.176A40.528,40.528,0,0,0,130.711,217.2Z" transform="translate(-94.945 -214.618)" fill="#8e8e8e"/>
                    <path id="Trazado_937422" data-name="Trazado 937422" d="M224.65,224.445l1.209-.146,5.662.177,1.166.136" transform="translate(-190.094 -221.72)" fill="none" stroke="#1d1d1b" stroke-linecap="round" stroke-linejoin="round" stroke-miterlimit="10" stroke-width="0.75"/>
                    <path id="Trazado_937423" data-name="Trazado 937423" d="M96.813,231.3l42.1-.764,1.571-1.725" transform="translate(-96.315 -225.028)" fill="none" stroke="#1d1d1b" stroke-linecap="round" stroke-linejoin="round" stroke-miterlimit="10" stroke-width="0.75"/>
                  </g>
                  <g id="Grupo_1178885" data-name="Grupo 1178885" transform="translate(37.18)">
                    <path id="Trazado_937424" data-name="Trazado 937424" d="M239.512,214.029s-.5-.986-.914-1.165a.9.9,0,0,0-.743,0s-.762-.476-.872-.416a2.251,2.251,0,0,0-.258.178s-.652-.278-.831-.184l-.179.094s-.595-.089-.773.179a.667.667,0,0,0-.427.51c-.049.382,0,.719.308.8,0,0,.238.332.654,0,0,0,.565.3.743,0a1.313,1.313,0,0,0,.764.2l.5-.9a5.7,5.7,0,0,1,1.863,1.567Z" transform="translate(-234.498 -212.424)" fill="#ffd367"/>
                    <path id="Trazado_937425" data-name="Trazado 937425" d="M246.673,214.077s-.346.363,0,.637" transform="translate(-243.316 -213.637)" fill="none" stroke="#1d1d1b" stroke-linecap="round" stroke-linejoin="round" stroke-miterlimit="10" stroke-width="0.75"/>
                    <path id="Trazado_937426" data-name="Trazado 937426" d="M241.426,213.184s-.617.991-.505,1.4" transform="translate(-239.2 -212.981)" fill="none" stroke="#1d1d1b" stroke-linecap="round" stroke-linejoin="round" stroke-miterlimit="10" stroke-width="0.75"/>
                    <path id="Trazado_937427" data-name="Trazado 937427" d="M238.374,212.85a6.406,6.406,0,0,0-.238,1.492" transform="translate(-237.159 -212.736)" fill="none" stroke="#1d1d1b" stroke-linecap="round" stroke-linejoin="round" stroke-miterlimit="10" stroke-width="0.75"/>
                    <path id="Trazado_937428" data-name="Trazado 937428" d="M236.176,213.184a9.72,9.72,0,0,0-.107,1.4" transform="translate(-235.641 -212.981)" fill="none" stroke="#1d1d1b" stroke-linecap="round" stroke-linejoin="round" stroke-miterlimit="10" stroke-width="0.75"/>
                  </g>
                </g>
              </g>
              <g id="Grupo_1178888" data-name="Grupo 1178888" transform="translate(7.552 0.617)">
                <path id="Trazado_937429" data-name="Trazado 937429" d="M118.754,184.627h5.376l13.631-20.018-5.086.15Z" transform="translate(-118.754 -164.609)" fill="#f5faff"/>
                <path id="Trazado_937430" data-name="Trazado 937430" d="M143.18,184.627H145.2l13.631-20.018-1.729.15Z" transform="translate(-136.672 -164.609)" fill="#f5faff"/>
              </g>
            </g>
            <g id="Grupo_1178890" data-name="Grupo 1178890" transform="translate(2.764 0.011)">
              <path id="Trazado_937431" data-name="Trazado 937431" d="M89.276,263.917l-2.218-2.288.595-18.732,1.13-3.152" transform="translate(-86.462 -192.589)" fill="none" stroke="#1d1d1b" stroke-linecap="round" stroke-linejoin="round" stroke-miterlimit="10" stroke-width="0.75"/>
              <path id="Trazado_937432" data-name="Trazado 937432" d="M99.639,163.066l45.4-1.665v1.249l-45.617,1.491Z" transform="translate(-95.534 -135.117)" fill="#1d1d1b" stroke="#1d1d1b" stroke-linecap="round" stroke-linejoin="round" stroke-miterlimit="10" stroke-width="0.75"/>
              <path id="Trazado_937433" data-name="Trazado 937433" d="M110.272,133.332s39.367-1.9,40.2-1.843,8.623,3.449,8.623,3.449l1.13,2.557" transform="translate(-103.491 -113.173)" fill="none" stroke="#1d1d1b" stroke-linecap="round" stroke-linejoin="round" stroke-miterlimit="10" stroke-width="0.75"/>
              <path id="Trazado_937434" data-name="Trazado 937434" d="M270.645,155.342l2.2-2.2,26.671,1.308" transform="translate(-221.137 -129.058)" fill="none" stroke="#1d1d1b" stroke-linecap="round" stroke-linejoin="round" stroke-miterlimit="10" stroke-width="0.75"/>
              <path id="Trazado_937435" data-name="Trazado 937435" d="M270.645,159.62l2.2-2.349s13.647.624,14.718.743,2.141,1.308,2.2,3.687,1.368,34.373,1.368,34.373" transform="translate(-221.137 -132.087)" fill="none" stroke="#1d1d1b" stroke-linecap="round" stroke-linejoin="round" stroke-miterlimit="10" stroke-width="0.75"/>
              <path id="Trazado_937436" data-name="Trazado 937436" d="M323.689,302.69l-12.964.06-1.843.772-1.8,7.4,2.334-6.386,1.784-1.07,12.9-.058Z" transform="translate(-247.867 -238.763)" fill="#1d1d1b" stroke="#1d1d1b" stroke-linecap="round" stroke-linejoin="round" stroke-miterlimit="10" stroke-width="0.75"/>
              <path id="Trazado_937437" data-name="Trazado 937437" d="M243.824,238.15l.456,3.719L244.7,262.7l1.219,1.739" transform="translate(-201.462 -191.418)" fill="none" stroke="#1d1d1b" stroke-linecap="round" stroke-linejoin="round" stroke-miterlimit="10" stroke-width="0.75"/>
              <path id="Trazado_937438" data-name="Trazado 937438" d="M85.545,250.262l1,.35,41.627.142,36.962-.492" transform="translate(-85.352 -200.303)" fill="none" stroke="#1d1d1b" stroke-linecap="round" stroke-linejoin="round" stroke-miterlimit="10" stroke-width="0.75"/>
              <path id="Trazado_937439" data-name="Trazado 937439" d="M84.82,270.861l.922.359,42.016.237,37.147-1.128" transform="translate(-84.82 -215.024)" fill="none" stroke="#1d1d1b" stroke-linecap="round" stroke-linejoin="round" stroke-miterlimit="10" stroke-width="0.75"/>
              <path id="Trazado_937440" data-name="Trazado 937440" d="M261.155,81.061a7.423,7.423,0,0,1,2.32-5.292c2.437-2.26,14.687-13.023,14.687-13.023" transform="translate(-214.175 -62.745)" fill="none" stroke="#1d1d1b" stroke-linecap="round" stroke-linejoin="round" stroke-miterlimit="10" stroke-width="0.75"/>
            </g>
            <g id="Grupo_1178899" data-name="Grupo 1178899" transform="translate(47.217 28.08)">
              <path id="Trazado_937441" data-name="Trazado 937441" d="M269.13,198.336a25.208,25.208,0,0,1,4.218,1.429c.416.416.922,2.349,1.219,2.765s2.471,2.527,2.4,3.241-1,3.092-2.633,2.408a8.615,8.615,0,0,1-2.111-1.106l-.149,1.3H258.736l-7.064-2.517s.268-1.159.476-2.379l5.976.387a31.67,31.67,0,0,1,2.8-3.538c.505-.3,3.34-1.474,3.34-1.474Z" transform="translate(-251.672 -190.28)" fill="#6074d7"/>
              <path id="Trazado_937442" data-name="Trazado 937442" d="M327.556,213.512s1.527.243,1.835-2.671l.461.472s-.213,2.622-2.087,2.7Z" transform="translate(-307.339 -199.454)" fill="#f5faff"/>
              <g id="Grupo_1178891" data-name="Grupo 1178891" transform="translate(10.912 6.881)">
                <path id="Trazado_937443" data-name="Trazado 937443" d="M294.2,195.824l-1.572,2.013,1.814-.743v.743a27.949,27.949,0,0,0-1.665,7.3h.883a26.858,26.858,0,0,1,.782-4.807c.565-1.784.951-2.742.951-2.742l.845-.409,1.474.8,1.581-3.122-1.26-.939Z" transform="translate(-292.63 -193.925)" fill="#f5faff"/>
                <path id="Trazado_937444" data-name="Trazado 937444" d="M305.192,207.284l-1.474-.268h-.895l.895-.416Z" transform="translate(-300.108 -203.223)" stroke="#1d1d1b" stroke-linecap="round" stroke-linejoin="round" stroke-miterlimit="10" stroke-width="0.75"/>
                <path id="Trazado_937445" data-name="Trazado 937445" d="M292.63,206.562l1.814-.193v-.55Z" transform="translate(-292.63 -202.65)" stroke="#1d1d1b" stroke-linecap="round" stroke-linejoin="round" stroke-miterlimit="10" stroke-width="0.75"/>
              </g>
              <g id="Grupo_1178893" data-name="Grupo 1178893" transform="translate(16.333 6.421)">
                <g id="Grupo_1178892" data-name="Grupo 1178892">
                  <path id="Trazado_937446" data-name="Trazado 937446" d="M318.14,197.165s-1.189-1.843-1.546-2.5-.773-.873-.8-1.73-.208-.857-.595-.56-.387,1.07-.327,1.427.149.752.149.752-1.872.383-2.007.826a.923.923,0,0,0,.163.8s-.393.654.22.981c0,0-.071.8.434.8,0,0-.089.595.773.476a9.306,9.306,0,0,0,1.784-.476l.684,1.011A2.035,2.035,0,0,0,318.14,197.165Z" transform="translate(-312.976 -192.199)" fill="#ffd367"/>
                  <path id="Trazado_937447" data-name="Trazado 937447" d="M325.773,213.363l.569-.179-.207.713Z" transform="translate(-322.364 -207.593)" stroke="#1d1d1b" stroke-linecap="round" stroke-linejoin="round" stroke-miterlimit="10" stroke-width="0.75"/>
                </g>
                <path id="Trazado_937448" data-name="Trazado 937448" d="M320.426,200.047l.54-.128-.618-.238Z" transform="translate(-318.385 -197.688)" fill="#1d1d1b" stroke="#1d1d1b" stroke-linecap="round" stroke-linejoin="round" stroke-miterlimit="10" stroke-width="0.75"/>
              </g>
              <path id="Trazado_937449" data-name="Trazado 937449" d="M300.36,199.735l.319,1.423a14.477,14.477,0,0,0,2.3-2.179Z" transform="translate(-287.388 -190.752)" fill="#ffd367"/>
              <path id="Trazado_937450" data-name="Trazado 937450" d="M313.553,180.752a3.575,3.575,0,0,1,0,1.817l-1.14.061-.182-2.019Z" transform="translate(-296.1 -177.278)" fill="#61676a"/>
              <path id="Trazado_937451" data-name="Trazado 937451" d="M295.1,177.718s-.217,3.769,1.686,4.661,2.944-2.2,2.944-2.2a1.044,1.044,0,0,0,1.253-.922c.174-1.13-.867-.951-1.164-.565,0,0,.208-1.843-1-2.319S295.226,175.852,295.1,177.718Z" transform="translate(-283.523 -173.964)" fill="#ffd367"/>
              <path id="Trazado_937452" data-name="Trazado 937452" d="M312.919,186.439a.622.622,0,0,1,.869,0" transform="translate(-296.601 -181.417)" fill="#1d1d1b" stroke="#1d1d1b" stroke-linecap="round" stroke-linejoin="round" stroke-miterlimit="10" stroke-width="0.75"/>
              <path id="Trazado_937453" data-name="Trazado 937453" d="M295.086,182.15a16.8,16.8,0,0,0,.387,4.163c.437,1.1,2.7,1.219,3.585.238s1.1-1.219.886-3.687l-.071-1.081h-.479a29.551,29.551,0,0,1-.122,3.073,2.285,2.285,0,0,0-2.414-.356s-1.027-.378-1.384.346Z" transform="translate(-283.518 -178.137)" fill="#61676a"/>
              <path id="Trazado_937454" data-name="Trazado 937454" d="M298.918,194.3l.733-.414s.654.533,1.011.414A2.4,2.4,0,0,1,298.918,194.3Z" transform="translate(-286.331 -187.017)" fill="#ffd367"/>
              <path id="Trazado_937455" data-name="Trazado 937455" d="M323.222,223.6l-2.022-2.735,1.9,3.84Z" transform="translate(-302.676 -206.808)" fill="#1d1d1b" stroke="#1d1d1b" stroke-linecap="round" stroke-linejoin="round" stroke-miterlimit="10" stroke-width="0.75"/>
              <path id="Trazado_937456" data-name="Trazado 937456" d="M326.2,210.533s-.274.93,0,.925a.785.785,0,0,0,.482-.213,2.182,2.182,0,0,0,1.07-1.814s.238-.3.119-.446-.4,0-.4,0" transform="translate(-306.255 -198.044)" fill="none" stroke="#1d1d1b" stroke-linecap="round" stroke-linejoin="round" stroke-miterlimit="10" stroke-width="0.75"/>
              <path id="Trazado_937457" data-name="Trazado 937457" d="M326.535,218.449l.6,1.422a1.8,1.8,0,0,0,.505,1.814" transform="translate(-306.59 -205.035)" fill="none" stroke="#1d1d1b" stroke-linecap="round" stroke-linejoin="round" stroke-miterlimit="10" stroke-width="0.75"/>
              <path id="Trazado_937458" data-name="Trazado 937458" d="M326.771,221.7a.646.646,0,0,0-.366.847" transform="translate(-306.459 -207.423)" fill="none" stroke="#1d1d1b" stroke-linecap="round" stroke-linejoin="round" stroke-miterlimit="10" stroke-width="0.75"/>
              <path id="Trazado_937459" data-name="Trazado 937459" d="M296.454,209.167s-.93,2.891-1.212,4.344a12.369,12.369,0,0,0-.193,2.812" transform="translate(-283.482 -198.226)" fill="none" stroke="#1d1d1b" stroke-linecap="round" stroke-linejoin="round" stroke-miterlimit="10" stroke-width="0.75"/>
              <ellipse id="Elipse_13651" data-name="Elipse 13651" cx="1.634" cy="1.031" rx="1.634" ry="1.031" transform="translate(13.917 12.971)" fill="#f5faff"/>
              <g id="Grupo_1178896" data-name="Grupo 1178896" transform="translate(11.944 4.121)">
                <path id="Trazado_937460" data-name="Trazado 937460" d="M300.53,184.577l-.171,1.895.656-.062" transform="translate(-299.332 -184.308)" fill="none" stroke="#1d1d1b" stroke-linecap="round" stroke-linejoin="round" stroke-miterlimit="10" stroke-width="0.75"/>
                <path id="Trazado_937461" data-name="Trazado 937461" d="M299.727,194.466a2.576,2.576,0,0,1-1.848-.58,3.744,3.744,0,0,1-1.377.587" transform="translate(-296.502 -191.137)" fill="none" stroke="#1d1d1b" stroke-linecap="round" stroke-linejoin="round" stroke-miterlimit="10" stroke-width="0.75"/>
                <path id="Trazado_937462" data-name="Trazado 937462" d="M298.51,186.406a.152.152,0,1,1-.152-.152A.152.152,0,0,1,298.51,186.406Z" transform="translate(-297.752 -185.538)" fill="#1d1d1b"/>
                <g id="Grupo_1178894" data-name="Grupo 1178894" transform="translate(0)">
                  <path id="Trazado_937463" data-name="Trazado 937463" d="M297.7,183.957c-.064.1-.319.034-.6.034s-.532.064-.6-.034.185-.39.6-.39S297.769,183.859,297.7,183.957Z" transform="translate(-296.502 -183.567)" fill="#1d1d1b"/>
                </g>
                <path id="Trazado_937464" data-name="Trazado 937464" d="M305.541,186.406a.152.152,0,1,1-.152-.152A.152.152,0,0,1,305.541,186.406Z" transform="translate(-302.91 -185.538)" fill="#1d1d1b"/>
                <g id="Grupo_1178895" data-name="Grupo 1178895" transform="translate(1.873)">
                  <path id="Trazado_937465" data-name="Trazado 937465" d="M304.735,183.957c-.064.1-.319.034-.6.034s-.532.064-.6-.034.185-.39.6-.39S304.8,183.859,304.735,183.957Z" transform="translate(-303.533 -183.567)" fill="#1d1d1b"/>
                </g>
              </g>
              <g id="Grupo_1178898" data-name="Grupo 1178898" transform="translate(10.377)">
                <g id="Grupo_1178897" data-name="Grupo 1178897">
                  <path id="Trazado_937466" data-name="Trazado 937466" d="M290.621,172.41s.089.178.446,0a2.723,2.723,0,0,1,2.022-.833c1.279.059,1.07.773,1.754.713a25.712,25.712,0,0,0,2.854-.717s.089-2.137-.535-2.792-2.735-.892-4.044-.476-1.605,2.5-1.605,2.5Z" transform="translate(-290.621 -168.099)" fill="#6074d7"/>
                  <path id="Trazado_937467" data-name="Trazado 937467" d="M293.969,176.94a2.414,2.414,0,0,1,2.468-.3c1.635.535,2.228,1.256,3.136,1.238" transform="translate(-293.077 -174.235)" fill="none" stroke="#1d1d1b" stroke-linecap="round" stroke-linejoin="round" stroke-miterlimit="10" stroke-width="0.75"/>
                </g>
                <path id="Trazado_937468" data-name="Trazado 937468" d="M300.306,170.365c0,.44-.566.8-1.264.8s-1.264-.357-1.264-.8.566-.8,1.264-.8S300.306,169.925,300.306,170.365Z" transform="translate(-295.87 -169.177)" fill="#f5faff"/>
                <path id="Trazado_937469" data-name="Trazado 937469" d="M310.044,168.491a1.812,1.812,0,0,1,.95,1.263c.119.862.25,1.632.25,1.632" transform="translate(-304.869 -168.387)" fill="none" stroke="#1d1d1b" stroke-linecap="round" stroke-linejoin="round" stroke-miterlimit="10" stroke-width="0.75"/>
              </g>
              <line id="Línea_27053" data-name="Línea 27053" x2="1.279" y2="1.308" transform="translate(21.616 10.941)" fill="none" stroke="#1d1d1b" stroke-linecap="round" stroke-linejoin="round" stroke-miterlimit="10" stroke-width="0.75"/>
            </g>
            <g id="Grupo_1178902" data-name="Grupo 1178902" transform="translate(48.911 27.009)">
              <g id="Grupo_1178900" data-name="Grupo 1178900" transform="translate(4.52 18.97)">
                <path id="Trazado_937470" data-name="Trazado 937470" d="M275,235.282l3.033,6.184a1.453,1.453,0,0,0-.833,1.784c.416,1.249,3.092,2.141,3.746,1.308s.476-2.973,0-3.211a6,6,0,0,0-1.784-.238l-2.835-5.828Z" transform="translate(-274.997 -235.282)" fill="#3d3d3f"/>
                <path id="Trazado_937471" data-name="Trazado 937471" d="M275,235.282l.375.764H276.7l-.372-.764Z" transform="translate(-274.997 -235.282)" fill="#1d1d1b" stroke="#1d1d1b" stroke-linecap="round" stroke-linejoin="round" stroke-miterlimit="10" stroke-width="0.75"/>
                <path id="Trazado_937472" data-name="Trazado 937472" d="M288.82,253.454h-.654v-1.345Z" transform="translate(-284.657 -247.626)" fill="#1d1d1b" stroke="#1d1d1b" stroke-linecap="round" stroke-linejoin="round" stroke-miterlimit="10" stroke-width="0.75"/>
                <path id="Trazado_937473" data-name="Trazado 937473" d="M295.348,259.611a5.193,5.193,0,0,1-.229,3.1" transform="translate(-289.758 -253.129)" fill="none" stroke="#1d1d1b" stroke-linecap="round" stroke-linejoin="round" stroke-miterlimit="10" stroke-width="0.75"/>
              </g>
              <g id="Grupo_1178901" data-name="Grupo 1178901">
                <path id="Trazado_937474" data-name="Trazado 937474" d="M263.842,183.049h-4.9a.911.911,0,0,1-.911-.911V164.99a.911.911,0,0,1,.911-.911h4.9a.911.911,0,0,1,.911.911v17.148A.911.911,0,0,1,263.842,183.049Z" transform="translate(-258.033 -164.079)" fill="#3d3d3f"/>
              </g>
              <path id="Trazado_937475" data-name="Trazado 937475" d="M278.017,167.2v17.032a1.02,1.02,0,0,1-1.011.749" transform="translate(-271.951 -166.371)" fill="none" stroke="#1d1d1b" stroke-linecap="round" stroke-linejoin="round" stroke-miterlimit="10" stroke-width="0.75"/>
            </g>
            <g id="Grupo_1178903" data-name="Grupo 1178903" transform="translate(7.409 56.236)">
              <path id="Trazado_937476" data-name="Trazado 937476" d="M131.01,288.6l-27.581-.538a1.2,1.2,0,0,1-1.171-1.218l.232-11.886a1.2,1.2,0,0,1,1.218-1.171l27.581.538a1.2,1.2,0,0,1,1.171,1.218l-.232,11.886A1.2,1.2,0,0,1,131.01,288.6Z" transform="translate(-102.257 -273.782)" fill="#4f5151"/>
              <path id="Trazado_937477" data-name="Trazado 937477" d="M132.666,290.427,107.146,290a1.145,1.145,0,0,1-1.122-1.167l.178-9.133a1.145,1.145,0,0,1,1.167-1.122l25.521.423a1.145,1.145,0,0,1,1.122,1.167l-.178,9.133A1.145,1.145,0,0,1,132.666,290.427Z" transform="translate(-105.02 -277.303)" fill="none" stroke="#1d1d1b" stroke-linecap="round" stroke-linejoin="round" stroke-miterlimit="10" stroke-width="0.75"/>
              <line id="Línea_27054" data-name="Línea 27054" x2="27.809" y2="0.539" transform="translate(1.146 4.251)" fill="none" stroke="#1d1d1b" stroke-linecap="round" stroke-linejoin="round" stroke-miterlimit="10" stroke-width="0.75"/>
              <line id="Línea_27055" data-name="Línea 27055" x2="27.751" y2="0.834" transform="translate(1.146 6.929)" fill="none" stroke="#1d1d1b" stroke-linecap="round" stroke-linejoin="round" stroke-miterlimit="10" stroke-width="0.75"/>
              <line id="Línea_27056" data-name="Línea 27056" x2="27.804" y2="0.777" transform="translate(1.042 9.545)" fill="none" stroke="#1d1d1b" stroke-linecap="round" stroke-linejoin="round" stroke-miterlimit="10" stroke-width="0.75"/>
            </g>
            <g id="Grupo_1178905" data-name="Grupo 1178905" transform="translate(72.506 27.762)">
              <g id="Grupo_1178904" data-name="Grupo 1178904">
                <path id="Trazado_937478" data-name="Trazado 937478" d="M353.117,166.906l-5.246.1a1.3,1.3,0,0,0-1.275,1.327l.259,12.944,6.977-14.177A1.3,1.3,0,0,0,353.117,166.906Z" transform="translate(-346.596 -166.906)" fill="#b4d3f3"/>
                <path id="Trazado_937479" data-name="Trazado 937479" d="M349.092,194.034a1.293,1.293,0,0,0,.976.419l5.246-.1a1.3,1.3,0,0,0,1.275-1.327l-.273-13.666Z" transform="translate(-348.427 -176.038)" fill="#b4d3f3"/>
                <path id="Trazado_937480" data-name="Trazado 937480" d="M355.157,168.729a1.3,1.3,0,0,0-.612-1.076l-6.977,14.177.055,2.764a1.29,1.29,0,0,0,.351.856l7.224-14.679Z" transform="translate(-347.308 -167.454)" fill="#f5faff"/>
              </g>
              <path id="Trazado_937481" data-name="Trazado 937481" d="M346.6,172.282l.314,15.707s.1,1.3,1.327,1.275,5.595,0,5.595,0" transform="translate(-346.597 -170.85)" fill="none" stroke="#1d1d1b" stroke-linecap="round" stroke-linejoin="round" stroke-miterlimit="10" stroke-width="0.75"/>
            </g>
            <g id="Grupo_1178909" data-name="Grupo 1178909" transform="translate(0.52 71.297)">
              <path id="Trazado_937482" data-name="Trazado 937482" d="M77.07,349.573V336.951l.669-1.115,45.626,2.185,16.368-.178-.624,14.094s-7.805,2.007-9.366,2.007-51.053-3.211-51.053-3.211Z" transform="translate(-76.891 -334.364)" fill="#3d3d3f"/>
              <g id="Grupo_1178906" data-name="Grupo 1178906" transform="translate(36.11 6.376)">
                <path id="Trazado_937483" data-name="Trazado 937483" d="M226.6,361.2l-13.5-.263a1.187,1.187,0,0,1-1.163-1.21l.084-4.316a1.187,1.187,0,0,1,1.21-1.163l13.5.263a1.187,1.187,0,0,1,1.163,1.21l-.084,4.316A1.187,1.187,0,0,1,226.6,361.2Z" transform="translate(-211.934 -354.243)" fill="#ffd367"/>
                <path id="Trazado_937484" data-name="Trazado 937484" d="M231.665,360.545a2.208,2.208,0,1,1-2.164-2.25A2.208,2.208,0,0,1,231.665,360.545Z" transform="translate(-223.17 -357.215)" fill="#f5faff"/>
                <circle id="Elipse_13652" data-name="Elipse 13652" cx="1.762" cy="1.762" r="1.762" transform="translate(1.517 1.467)" fill="none" stroke="#1d1d1b" stroke-miterlimit="10" stroke-width="1"/>
                <line id="Línea_27057" data-name="Línea 27057" x1="0.098" y2="5.039" transform="translate(15.2 1.077)" fill="none" stroke="#1d1d1b" stroke-linecap="round" stroke-linejoin="round" stroke-miterlimit="10" stroke-width="0.75"/>
                <line id="Línea_27058" data-name="Línea 27058" x2="14.057" y2="0.254" transform="translate(0.869 6.683)" fill="none" stroke="#1d1d1b" stroke-linecap="round" stroke-linejoin="round" stroke-miterlimit="10" stroke-width="0.75"/>
              </g>
              <g id="Grupo_1178907" data-name="Grupo 1178907" transform="translate(0 3.909)">
                <path id="Trazado_937485" data-name="Trazado 937485" d="M81.4,350.966l-5.007-.1.115-5.886,5.007.1a1.209,1.209,0,0,1,1.185,1.232l-.068,3.468A1.209,1.209,0,0,1,81.4,350.966Z" transform="translate(-76.398 -344.982)" fill="#ffd367"/>
                <path id="Trazado_937486" data-name="Trazado 937486" d="M88.138,349.418c-.024,1.219-.707,2.194-1.527,2.178s-1.464-1.017-1.44-2.236.707-2.194,1.527-2.178S88.162,348.2,88.138,349.418Z" transform="translate(-82.833 -346.595)" fill="#f5faff"/>
                <path id="Trazado_937487" data-name="Trazado 937487" d="M81.071,350.491c-.019.973-.564,1.751-1.218,1.738s-1.168-.812-1.149-1.785.564-1.751,1.218-1.738S81.09,349.518,81.071,350.491Z" transform="translate(-78.089 -347.714)" fill="none" stroke="#1d1d1b" stroke-miterlimit="10" stroke-width="1"/>
                <line id="Línea_27059" data-name="Línea 27059" x1="0.07" y2="3.57" transform="translate(6.238 1.279)" fill="none" stroke="#1d1d1b" stroke-linecap="round" stroke-linejoin="round" stroke-miterlimit="10" stroke-width="0.75"/>
                <line id="Línea_27060" data-name="Línea 27060" x2="5.058" y2="0.099" transform="translate(0 5.886)" fill="none" stroke="#1d1d1b" stroke-linecap="round" stroke-linejoin="round" stroke-miterlimit="10" stroke-width="0.75"/>
              </g>
              <g id="Grupo_1178908" data-name="Grupo 1178908" transform="translate(15.029 5.003)">
                <rect id="Rectángulo_455294" data-name="Rectángulo 455294" width="13.157" height="5.887" transform="translate(0.116 0) rotate(1.117)" fill="#b4d3f3"/>
                <path id="Trazado_937488" data-name="Trazado 937488" d="M132.809,355.69l13.155.257.115-5.886" transform="translate(-132.809 -349.803)" fill="none" stroke="#1d1d1b" stroke-linecap="round" stroke-linejoin="round" stroke-miterlimit="10" stroke-width="0.75"/>
                <rect id="Rectángulo_455295" data-name="Rectángulo 455295" width="11.418" height="4.192" transform="translate(0.95 0.73) rotate(1.117)" fill="none" stroke="#1d1d1b" stroke-linecap="round" stroke-linejoin="round" stroke-miterlimit="10" stroke-width="0.75"/>
              </g>
              <path id="Trazado_937489" data-name="Trazado 937489" d="M80.92,337.845l44.868,2.408,15.967-.223-.535,12.756" transform="translate(-79.715 -335.838)" fill="none" stroke="#1d1d1b" stroke-linecap="round" stroke-linejoin="round" stroke-miterlimit="10" stroke-width="0.75"/>
              <path id="Trazado_937490" data-name="Trazado 937490" d="M79.581,331.783l3.167-1.472,42.682,1.739,14.763-.87,1.382,2.609-16.368.178Z" transform="translate(-78.733 -330.311)" fill="#1d1d1b" stroke="#1d1d1b" stroke-linecap="round" stroke-linejoin="round" stroke-miterlimit="10" stroke-width="0.75"/>
              <path id="Trazado_937491" data-name="Trazado 937491" d="M77.07,387.4l52.732,3.241,7.493-1.5" transform="translate(-76.891 -372.187)" fill="none" stroke="#1d1d1b" stroke-linecap="round" stroke-linejoin="round" stroke-miterlimit="10" stroke-width="0.75"/>
            </g>
            <path id="Trazado_937492" data-name="Trazado 937492" d="M285.5,117.469l-2.022-.833,12.429-5.233" transform="translate(-227.788 -98.428)" fill="none" stroke="#1d1d1b" stroke-linecap="round" stroke-linejoin="round" stroke-miterlimit="10" stroke-width="0.75"/>
          </g>
          <line id="Línea_27061" data-name="Línea 27061" y1="1.502" x2="19.69" transform="translate(95.348 66.507)" fill="none" stroke="#1d1d1b" stroke-linecap="round" stroke-linejoin="round" stroke-miterlimit="10" stroke-width="0.75"/>
          <line id="Línea_27062" data-name="Línea 27062" y1="1.07" x2="24.696" transform="translate(89.688 59.299)" fill="none" stroke="#1d1d1b" stroke-linecap="round" stroke-linejoin="round" stroke-miterlimit="10" stroke-width="0.75"/>
          <line id="Línea_27063" data-name="Línea 27063" y2="6.797" transform="translate(95.712 67.981)" fill="none" stroke="#1d1d1b" stroke-linecap="round" stroke-linejoin="round" stroke-miterlimit="10" stroke-width="0.75"/>
          <path id="Trazado_937493" data-name="Trazado 937493" d="M408.35,294.527l-.993-15.064.5-14.044" transform="translate(-318.662 -211.412)" fill="none" stroke="#1d1d1b" stroke-linecap="round" stroke-linejoin="round" stroke-miterlimit="10" stroke-width="0.75"/>
          <line id="Línea_27064" data-name="Línea 27064" y2="50.072" transform="translate(88.695 3.936)" fill="none" stroke="#1d1d1b" stroke-linecap="round" stroke-linejoin="round" stroke-miterlimit="10" stroke-width="0.75"/>
          <line id="Línea_27065" data-name="Línea 27065" x2="69.747" y2="9.692" transform="translate(89.191 8.634)" fill="none" stroke="#1d1d1b" stroke-linecap="round" stroke-linejoin="round" stroke-miterlimit="10" stroke-width="0.75"/>
          <line id="Línea_27066" data-name="Línea 27066" y1="1.137" x2="70.647" transform="translate(88.695 48.833)" fill="none" stroke="#1d1d1b" stroke-linecap="round" stroke-linejoin="round" stroke-miterlimit="10" stroke-width="0.75"/>
          <ellipse id="Elipse_13653" data-name="Elipse 13653" cx="11.711" cy="22.667" rx="11.711" ry="22.667" transform="translate(104.572 42.079) rotate(-86.784)" fill="#fff"/>
        </g>
      </g>
    </g>
  </g>
</svg>
