<svg xmlns="http://www.w3.org/2000/svg" width="100" height="100" viewBox="0 0 100 100">
  <g id="Grupo_1177665" data-name="Grupo 1177665" transform="translate(-637 -6992)">
    <g id="Grupo_1098742" data-name="Grupo 1098742" transform="translate(637.242 6992)">
      <rect id="Rectángulo_400898" data-name="Rectángulo 400898" width="100" height="100" rx="50" transform="translate(-0.242)" fill="#fff" opacity="0.859"/>
      <g id="Rectángulo_400907" data-name="Rectángulo 400907" transform="translate(-0.242)" fill="none" stroke="#f3bc5b" stroke-linecap="round" stroke-width="3" stroke-dasharray="0 7">
        <rect width="100" height="100" rx="50" stroke="none"/>
        <rect x="1.5" y="1.5" width="97" height="97" rx="48.5" fill="none"/>
      </g>
    </g>
    <g id="Grupo_1107006" data-name="Grupo 1107006" transform="translate(645.398 7000.157)">
      <rect id="Rectángulo_400898-2" data-name="Rectángulo 400898" width="84" height="84" rx="42" transform="translate(-0.399 -0.157)" fill="#004e3d" opacity="0.859"/>
      <rect id="Rectángulo_400907-2" data-name="Rectángulo 400907" width="84" height="84" rx="42" transform="translate(-0.398 -0.157)" fill="none"/>
    </g>
    <g id="Grupo_1178935" data-name="Grupo 1178935" transform="translate(658.779 6958.884)">
      <g id="Grupo_1178914" data-name="Grupo 1178914" transform="translate(6.902 83.786)">
        <path id="Trazado_937494" data-name="Trazado 937494" d="M66.082,262.063l-3.117,2.128a.816.816,0,0,0-.356.674v6.34a.816.816,0,0,0,.816.816h5.313a.816.816,0,0,0,.816-.816v-6.34a.816.816,0,0,0-.356-.674Z" transform="translate(-62.609 -262.063)" fill="#91deb6"/>
      </g>
      <g id="Grupo_1178915" data-name="Grupo 1178915" transform="translate(8.737 83.786)">
        <path id="Trazado_937495" data-name="Trazado 937495" d="M84.372,264.864v6.34a.817.817,0,0,1-.817.816H82.262a.149.149,0,0,0,0-.022v-6.34a.813.813,0,0,0-.356-.673l-2.645-1.806,1.637-1.117,3.117,2.128A.818.818,0,0,1,84.372,264.864Z" transform="translate(-79.262 -262.062)" fill="#6ed5a1"/>
      </g>
      <g id="Grupo_1178933" data-name="Grupo 1178933" transform="translate(0.835 62.522)">
        <g id="Grupo_1178916" data-name="Grupo 1178916" transform="translate(49.292 7.91)">
          <path id="Trazado_937496" data-name="Trazado 937496" d="M454.713,140.93a7.4,7.4,0,0,1,3.369,2.927,14.094,14.094,0,0,1,2.049,9.259c-.043.523-.107,1.045-.172,1.566a25.451,25.451,0,0,0-.443,3.987c.064,1.64.829,3.13.389,4.8-.269.02-.462-.244-.6-.476-1.722-2.916-3.509-6.24-2.657-9.518Z" transform="translate(-454.713 -140.93)" fill="#918291"/>
        </g>
        <g id="Grupo_1178917" data-name="Grupo 1178917" transform="translate(49.291 7.91)">
          <path id="Trazado_937497" data-name="Trazado 937497" d="M459.959,154.682a25.278,25.278,0,0,0-.443,3.986c.064,1.641.828,3.13.389,4.8-.269.02-.462-.244-.6-.476-.427-.724-.858-1.472-1.251-2.239a13.155,13.155,0,0,1-.326-2.086,25.271,25.271,0,0,1,.443-3.986c.065-.521.129-1.043.172-1.566a14.09,14.09,0,0,0-2.049-9.259,8.659,8.659,0,0,0-1.387-1.656l-.2-1.271a7.4,7.4,0,0,1,3.369,2.927,14.1,14.1,0,0,1,2.049,9.259C460.087,153.639,460.022,154.16,459.959,154.682Z" transform="translate(-454.712 -140.929)" fill="#7a6d79"/>
        </g>
        <g id="Grupo_1178918" data-name="Grupo 1178918" transform="translate(0 0.74)">
          <path id="Trazado_937498" data-name="Trazado 937498" d="M57.444,83.587A9.8,9.8,0,0,0,50.1,80.417a12.93,12.93,0,0,0-5.915,1.2,6.959,6.959,0,0,1-3.45.835,18.523,18.523,0,0,1-2.086-.461,15.557,15.557,0,0,0-5.784-.242c-1.041.153-2.069.412-3.119.478a8.093,8.093,0,0,1-6.8-3c-1.511-1.862-3.036-3.673-5.668-3.288a6.014,6.014,0,0,0-3.193,1.51,9.613,9.613,0,0,0-2.063,3.407,7.786,7.786,0,0,1-2.459,3.6c-1.192.885-2.59,1.764-1.721,3.4,1.8,3.394,5.21,1.911,7.682.244a.718.718,0,0,1,1.009.208c.762,1.2,2.35,3.7,2.479,3.877,1.424,2.014,2.892,3.92,5.408,4.543l.495.114a2.07,2.07,0,0,1,1.562,1.568l.613,4.182v7.319l-.857,2.356a.552.552,0,0,0,.519.741h3.219a.552.552,0,0,0,.552-.552V101.446a.4.4,0,0,1,.585-.358c5.481,2.735,13.392,2.987,18.255-.89a10.74,10.74,0,0,0,4.352,2.335.4.4,0,0,1,.306.39v6.994l-.857,2.356a.552.552,0,0,0,.519.741H56.9a.552.552,0,0,0,.552-.552V100.181a22.924,22.924,0,0,1,1.623-4.269c1.425-3.833,1.2-9.21-1.636-12.326Z" transform="translate(-7.575 -75.891)" fill="#fdf6ec"/>
        </g>
        <g id="Grupo_1178919" data-name="Grupo 1178919" transform="translate(20.552 25.893)">
          <path id="Trazado_937499" data-name="Trazado 937499" d="M195.147,304.106a.4.4,0,0,0-.585.357V315.48a.552.552,0,0,1-.552.553h1.847a.553.553,0,0,0,.552-.553V304.675C195.977,304.5,195.555,304.31,195.147,304.106Z" transform="translate(-194.01 -304.063)" fill="#fef1da"/>
        </g>
        <g id="Grupo_1178920" data-name="Grupo 1178920" transform="translate(41.035 5.251)">
          <path id="Trazado_937500" data-name="Trazado 937500" d="M388.65,120a9.8,9.8,0,0,0-7.345-3.169,10.709,10.709,0,0,0-1.49.023A9.628,9.628,0,0,1,386.8,120c2.839,3.115,3.06,8.493,1.635,12.325a22.944,22.944,0,0,0-1.623,4.269v12.28a.553.553,0,0,1-.552.553h1.847a.553.553,0,0,0,.552-.553v-12.28a22.936,22.936,0,0,1,1.623-4.269C391.71,128.492,391.489,123.114,388.65,120Z" transform="translate(-379.815 -116.814)" fill="#fef1da"/>
        </g>
        <g id="Grupo_1178921" data-name="Grupo 1178921" transform="translate(18.629 34.767)">
          <path id="Trazado_937501" data-name="Trazado 937501" d="M177.452,384.56h3.433V387.1a.552.552,0,0,1-.552.552h-3.219a.552.552,0,0,1-.519-.741Z" transform="translate(-176.562 -384.56)" fill="#918291"/>
        </g>
        <g id="Grupo_1178922" data-name="Grupo 1178922" transform="translate(20.552 34.767)">
          <path id="Trazado_937502" data-name="Trazado 937502" d="M196.41,384.562v2.544a.553.553,0,0,1-.552.553H194.01a.552.552,0,0,0,.552-.553v-2.544Z" transform="translate(-194.01 -384.562)" fill="#7a6d79"/>
        </g>
        <g id="Grupo_1178923" data-name="Grupo 1178923" transform="translate(45.562 34.767)">
          <path id="Trazado_937503" data-name="Trazado 937503" d="M421.771,384.56h3.438V387.1a.552.552,0,0,1-.552.552h-3.22a.552.552,0,0,1-.519-.74Z" transform="translate(-420.885 -384.56)" fill="#918291"/>
        </g>
        <g id="Grupo_1178924" data-name="Grupo 1178924" transform="translate(27.935 19.999)">
          <path id="Trazado_937504" data-name="Trazado 937504" d="M263.25,250.937c-1.386.677-2.686,2.221-2.143,3.643a2.235,2.235,0,0,0,2.508,1.022,3.817,3.817,0,0,0,2.417-1.271c1.351-1.675.079-4.194-2.047-3.666A3.742,3.742,0,0,0,263.25,250.937Z" transform="translate(-260.98 -250.594)" fill="#918291"/>
        </g>
        <g id="Grupo_1178925" data-name="Grupo 1178925" transform="translate(28.965 19.999)">
          <path id="Trazado_937505" data-name="Trazado 937505" d="M274.344,254.329a3.818,3.818,0,0,1-2.417,1.271,3.126,3.126,0,0,1-1.6-.158,3.535,3.535,0,0,0,1.725-1.113,2.342,2.342,0,0,0-.417-3.427,3.792,3.792,0,0,1,.665-.24C274.424,250.135,275.7,252.653,274.344,254.329Z" transform="translate(-270.324 -250.591)" fill="#7a6d79"/>
        </g>
        <g id="Grupo_1178926" data-name="Grupo 1178926" transform="translate(28.444 5.251)">
          <path id="Trazado_937506" data-name="Trazado 937506" d="M282.276,125c-.371,1.606-1.217,3.383-2.831,3.716a6.871,6.871,0,0,1-2.162-.109,25.452,25.452,0,0,0-4.509.111,9.951,9.951,0,0,1-4.448-.511,4.238,4.238,0,0,1-2.718-3.326,7.256,7.256,0,0,1,1.284-3.865,6.876,6.876,0,0,0,.917-2.708c.139.028.279.058.417.09a18.571,18.571,0,0,0,2.086.462,6.96,6.96,0,0,0,3.45-.836,12.944,12.944,0,0,1,5.916-1.2,14.546,14.546,0,0,1,2.594.353A17.505,17.505,0,0,1,282.276,125Z" transform="translate(-265.596 -116.808)" fill="#918291"/>
        </g>
        <g id="Grupo_1178927" data-name="Grupo 1178927" transform="translate(40.971 5.288)">
          <path id="Trazado_937507" data-name="Trazado 937507" d="M383.391,125.3c-.372,1.607-1.218,3.383-2.832,3.716a4.069,4.069,0,0,1-1.322,0,6.435,6.435,0,0,0,1.844-3.481,19.349,19.349,0,0,0,.052-8.4,14.05,14.05,0,0,1,2.252.332A17.5,17.5,0,0,1,383.391,125.3Z" transform="translate(-379.237 -117.146)" fill="#7a6d79"/>
        </g>
        <g id="Grupo_1178928" data-name="Grupo 1178928" transform="translate(10.568 9.995)">
          <path id="Trazado_937508" data-name="Trazado 937508" d="M112.579,163.886a4.529,4.529,0,0,0-.434,2.728c.66,2.763-.36,3.6-3.135,3.981l-1.006.139a12.545,12.545,0,0,1-3.692-3.847c-.068-.1-.444-.668-.873-1.326a11.164,11.164,0,0,0,1.858-3.2C106.877,158.131,114.152,159.629,112.579,163.886Z" transform="translate(-103.439 -159.842)" fill="#918291"/>
        </g>
        <g id="Grupo_1178929" data-name="Grupo 1178929" transform="translate(15.674 9.995)">
          <path id="Trazado_937509" data-name="Trazado 937509" d="M153.794,163.886a4.52,4.52,0,0,0-.433,2.728c.653,2.735-.34,3.578-3.052,3.969,1.123-.618,1.437-1.684.968-3.652a4.913,4.913,0,0,1,.471-2.961,3.006,3.006,0,0,0-1.987-4.09c2.427-.311,5.039,1.283,4.034,4.006Z" transform="translate(-149.76 -159.841)" fill="#7a6d79"/>
        </g>
        <g id="Grupo_1178930" data-name="Grupo 1178930" transform="translate(10.17 0)">
          <path id="Trazado_937510" data-name="Trazado 937510" d="M99.834,72.743c.038-.985.953-1.682,1.807-2.176a24.778,24.778,0,0,1,2.681-1.343.581.581,0,0,1,.8.653,11.234,11.234,0,0,1-1.3,3.343,3.523,3.523,0,0,1-1.467,1.515l-.759.275-1.755-1.459v-.808Z" transform="translate(-99.834 -69.176)" fill="#fdf6ec"/>
        </g>
        <g id="Grupo_1178931" data-name="Grupo 1178931" transform="translate(12.706 0)">
          <path id="Trazado_937511" data-name="Trazado 937511" d="M125.584,69.88a11.243,11.243,0,0,1-1.305,3.342,3.543,3.543,0,0,1-1.445,1.5,6.352,6.352,0,0,0,.157-.737,11.222,11.222,0,0,0-.019-3.588.57.57,0,0,0-.108-.254q.94-.5,1.921-.92A.581.581,0,0,1,125.584,69.88Z" transform="translate(-122.834 -69.179)" fill="#fef1da"/>
        </g>
        <g id="Grupo_1178932" data-name="Grupo 1178932" transform="translate(47.487 34.767)">
          <path id="Trazado_937512" data-name="Trazado 937512" d="M440.747,384.562v2.544a.553.553,0,0,1-.552.553h-1.847a.552.552,0,0,0,.552-.553v-2.544Z" transform="translate(-438.347 -384.562)" fill="#7a6d79"/>
        </g>
      </g>
      <g id="Grupo_1178934" data-name="Grupo 1178934" transform="translate(0 61.698)">
        <circle id="Elipse_13654" data-name="Elipse 13654" cx="0.787" cy="0.787" r="0.787" transform="matrix(0.987, -0.16, 0.16, 0.987, 7.36, 7.001)"/>
        <path id="Trazado_937513" data-name="Trazado 937513" d="M257.134,243.213a4.565,4.565,0,0,0-.9.332,5.5,5.5,0,0,0-2.12,1.827,3.089,3.089,0,0,0-.432,2.851,2.755,2.755,0,0,0,2.712,1.6,4.95,4.95,0,0,0,3.625-1.623,3.23,3.23,0,0,0,.249-3.765A2.81,2.81,0,0,0,257.134,243.213Zm1.6,3.948a2.981,2.981,0,0,1-1.9.974c-.66.1-1.444-.059-1.613-.5-.339-.887.623-2.065,1.735-2.607.662-.323,1.463-.424,1.92.292a1.582,1.582,0,0,1-.142,1.842Z" transform="translate(-225.559 -223.118)"/>
        <path id="Trazado_937514" data-name="Trazado 937514" d="M56.367,82.686a14.829,14.829,0,0,0-2.18-9.776A8.307,8.307,0,0,0,50.7,69.781a10.7,10.7,0,0,0-7.3-2.815,13.726,13.726,0,0,0-6.3,1.274,6.294,6.294,0,0,1-3.019.769,17.5,17.5,0,0,1-1.992-.445,17.49,17.49,0,0,0-7.227-.06c-.366.067-.72.132-1.07.184.009-.067.021-.133.029-.2A.825.825,0,0,0,22.19,68.3c-.019.162-.047.324-.078.487a7.314,7.314,0,0,1-5.26-2.7c-.141-.174-.286-.352-.435-.532A12.053,12.053,0,0,0,17.1,63.4a1.406,1.406,0,0,0-1.928-1.585c-.7.3-1.388.631-2.058.991a5.044,5.044,0,0,0-2.688-.3,6.815,6.815,0,0,0-3.637,1.723,10.271,10.271,0,0,0-2.258,3.684,7.675,7.675,0,0,1-2.409,3.422C.968,72.173-.773,73.451.377,75.62a4.347,4.347,0,0,0,2.789,2.361c1.642.411,3.6-.165,5.995-1.759.424.667.88,1.383,1.282,2.014a3.1,3.1,0,0,0-.892,2.188V83.35L6.793,85.233a1.64,1.64,0,0,0-.716,1.355v1.155a.825.825,0,0,0,1.65,0l0-1.148,2.652-1.811,2.647,1.8v6.331h-5.3V91.546a.825.825,0,0,0-1.65,0v1.381a1.643,1.643,0,0,0,1.641,1.641h5.313a1.643,1.643,0,0,0,1.641-1.641v-6.34a1.64,1.64,0,0,0-.716-1.355L11.2,83.35V80.423a1.473,1.473,0,0,1,.185-.717c.115.177.192.3.219.334,1.54,2.179,3.149,4.19,5.883,4.867.057.014.26.061.511.118a1.251,1.251,0,0,1,.933.917l.6,4.089v7.114l-.807,2.219a1.376,1.376,0,0,0-.054.2H15.284a.825.825,0,1,0,0,1.649H54.9a.825.825,0,1,0,0-1.649H51.542V87.82a25.834,25.834,0,0,0,2.468,5.1,1.5,1.5,0,0,0,1.274.882c.031,0,.063,0,.094,0a.825.825,0,0,0,.738-.613,7.119,7.119,0,0,0-.116-3.4,10.281,10.281,0,0,1-.247-1.646,22.558,22.558,0,0,1,.438-3.853C56.262,83.76,56.322,83.235,56.367,82.686Zm-44.9-5.918-.97-1.524a1.543,1.543,0,0,0-2.166-.449c-1.993,1.344-3.595,1.878-4.761,1.586a2.74,2.74,0,0,1-1.732-1.533c-.422-.8-.111-1.183,1.262-2.191a9.232,9.232,0,0,0,2.948-4.1,8.9,8.9,0,0,1,1.868-3.13,5.224,5.224,0,0,1,2.75-1.3,4.014,4.014,0,0,1,.5-.041,2.9,2.9,0,0,0-.985,1.968.825.825,0,1,0,1.648.064c.018-.472.475-.961,1.4-1.494a24.073,24.073,0,0,1,2.145-1.1,10.353,10.353,0,0,1-1.1,2.622,2.694,2.694,0,0,1-1.1,1.182.825.825,0,1,0,.678,1.5A4.108,4.108,0,0,0,15.6,67.152a8.971,8.971,0,0,0,5.994,3.243,9.6,9.6,0,0,1-1.437,2.242,4.591,4.591,0,0,0-1.138-.609,5.032,5.032,0,0,0-6.526,2.721A10.175,10.175,0,0,1,11.463,76.768Zm7.516-2.933a15.445,15.445,0,0,1-5.757,3.215,11.792,11.792,0,0,0,.811-1.725,3.382,3.382,0,0,1,4.407-1.752A2.941,2.941,0,0,1,18.979,73.835Zm-2.217,8.632-.614.085c-.059-.038-.181-.113-.183-.111a14.134,14.134,0,0,1-3.013-3.354c-.018-.025-.065-.1-.137-.208a17.317,17.317,0,0,0,7.034-3.614,3.8,3.8,0,0,1-.261,1.5,4.724,4.724,0,0,0-.281,2.711,2.739,2.739,0,0,1-.035,2.065c-.492.721-1.739.814-2.51.921Zm6.2,17.094H20.405l.526-1.447h2.03v1.447Zm23.5-2.417-.807,2.219a1.362,1.362,0,0,0-.054.2H24.612V89.487a21.188,21.188,0,0,0,9.139,1.831,15.789,15.789,0,0,0,8.852-2.7,11.686,11.686,0,0,0,3.856,2v6.525Zm3.433,2.417H47.335l.535-1.481c.674-.006,1.348,0,2.021,0ZM51.567,83A23.336,23.336,0,0,0,49.9,87.425a.826.826,0,0,0-.01.128v8.912H48.109v-6.17a1.224,1.224,0,0,0-.933-1.191,10.356,10.356,0,0,1-5.682-4.01A12.467,12.467,0,0,1,39.93,82.1a.825.825,0,0,0-1.549.566,13.525,13.525,0,0,0,2.953,4.822,14.357,14.357,0,0,1-7.623,2.181,19.373,19.373,0,0,1-8.971-1.948,1.227,1.227,0,0,0-1.778,1.1v7.648H21.179V89.97a.82.82,0,0,0-.009-.12l-.613-4.182c0-.02-.007-.04-.011-.059a2.907,2.907,0,0,0-1.539-1.961,3.269,3.269,0,0,0,1.628-1.172,4.1,4.1,0,0,0,.277-3.379,3.656,3.656,0,0,1,.37-2.155l.035-.1a3.652,3.652,0,0,0-.081-2.94A11.047,11.047,0,0,0,23.366,70.4c.6-.058,1.2-.163,1.8-.273.371-.068.722-.133,1.077-.185a14.844,14.844,0,0,1,4.3.007,8.107,8.107,0,0,1-.7,1.649,7.943,7.943,0,0,0-1.378,4.325,5.041,5.041,0,0,0,3.222,4.016,10.744,10.744,0,0,0,4.816.573,24.638,24.638,0,0,1,4.363-.115,7.558,7.558,0,0,0,2.425.1,4.022,4.022,0,0,0,2.659-2.155.825.825,0,0,0-1.443-.8,2.412,2.412,0,0,1-1.549,1.339,6.062,6.062,0,0,1-1.9-.12,26.264,26.264,0,0,0-4.655.107,9.283,9.283,0,0,1-4.08-.449,3.414,3.414,0,0,1-2.213-2.636A5.325,5.325,0,0,1,31,72.943a12.13,12.13,0,0,0,1.166-2.664,13.126,13.126,0,0,0,1.737.368,7.629,7.629,0,0,0,3.881-.9,12.08,12.08,0,0,1,5.533-1.132c.676.037,1.923.221,1.945.225a16.621,16.621,0,0,1,.182,5.338.825.825,0,1,0,1.636.208,18.257,18.257,0,0,0-.059-5.048,8.127,8.127,0,0,1,3.076,2.178C52.121,73.738,53.278,78.4,51.567,83Zm3.156-.446a47.312,47.312,0,0,0-.617,5.653,11.7,11.7,0,0,0,.279,1.911l.037.181a12.114,12.114,0,0,1-1.749-5.671c.155-.343.307-.693.441-1.054a15.437,15.437,0,0,0,.644-7.994,14.175,14.175,0,0,1,.965,6.973Z" transform="translate(0 -61.698)"/>
        <path id="Trazado_937515" data-name="Trazado 937515" d="M218.578,435.34H190.415a.825.825,0,1,0,0,1.65h28.164a.825.825,0,1,0,0-1.65Z" transform="translate(-168.69 -394.151)"/>
      </g>
    </g>
  </g>
</svg>
