<svg xmlns="http://www.w3.org/2000/svg" width="50" height="50" viewBox="0 0 50 50">
  <g id="Grupo_1145882" data-name="Grupo 1145882" transform="translate(-179.668 -832)">
    <rect id="Rectángulo_409566" data-name="Rectángulo 409566" width="50" height="50" rx="25" transform="translate(179.668 832)" fill="#f3bc5b"/>
    <g id="Grupo_1174403" data-name="Grupo 1174403" transform="translate(181.602 833.213)">
      <path id="Trazado_927965" data-name="Trazado 927965" d="M38.181,17.452a13.253,13.253,0,0,0-2.041-3.029.712.712,0,0,0-.526-.235H32.99c.327-.021,3.122-.37,2.887-4.942a.712.712,0,0,1,1.052-.661,5.3,5.3,0,0,1,2.318,3.1A7.676,7.676,0,0,1,38.181,17.452Z" transform="translate(-7.799 0)" fill="#004e3d"/>
      <path id="Trazado_927966" data-name="Trazado 927966" d="M24.486,14.188H22.033a.712.712,0,0,0-.526.235,15.382,15.382,0,0,0-2.162,3.114,7.709,7.709,0,0,1-1.116-5.852,5.3,5.3,0,0,1,2.318-3.1.712.712,0,0,1,1.052.661c-.235,4.579,2.567,4.92,2.887,4.942Z" transform="translate(-3.476)" fill="#004e3d"/>
      <g id="Grupo_1174402" data-name="Grupo 1174402" transform="translate(6.001 14.188)">
        <path id="Trazado_927967" data-name="Trazado 927967" d="M39.953,23.027a13.073,13.073,0,0,1-3.612,3.029,7.216,7.216,0,0,1-2.83.818l-1.394.114c-.028.107-.064.213-.1.32l-.235.668c-.548,1.529-1.074,3-1.429,4.38A11.066,11.066,0,0,0,23.1,30.01a11.066,11.066,0,0,0-7.253,2.346c-.356-1.379-.882-2.851-1.429-4.38l-.235-.668a1.758,1.758,0,0,1-.078-.256l-1.486-.128A7.252,7.252,0,0,1,9.8,26.113a13.279,13.279,0,0,1-3.619-3.036A.713.713,0,0,1,6.825,21.9c.739.121,2.318-.54,4.217-1.771a4.463,4.463,0,0,1,3.818-.519c.313.107.626.242.931.377.028-.05.05-.092.078-.142a15.382,15.382,0,0,1,2.162-3.114.712.712,0,0,1,.526-.235h9.258a.712.712,0,0,1,.526.235,13.253,13.253,0,0,1,2.041,3.029l.064.128a8.628,8.628,0,0,1,.825-.327,4.465,4.465,0,0,1,3.825.519c1.891,1.223,3.463,1.891,4.217,1.771a.724.724,0,0,1,.732.363.711.711,0,0,1-.092.811Z" transform="translate(-6.001 -16.5)" fill="#004e3d"/>
        <path id="Trazado_927968" data-name="Trazado 927968" d="M26.872,37.5c-4.387,0-7.822,2.183-7.822,4.977s3.434,4.977,7.822,4.977,7.822-2.183,7.822-4.977S31.259,37.5,26.872,37.5Zm-2.844,5.688H22.605a.711.711,0,1,1,0-1.422h1.422a.711.711,0,0,1,0,1.422Zm7.11,0H29.716a.711.711,0,1,1,0-1.422h1.422a.711.711,0,0,1,0,1.422Z" transform="translate(-9.771 -22.568)" fill="#004e3d"/>
      </g>
    </g>
  </g>
</svg>
