<svg xmlns="http://www.w3.org/2000/svg" width="114" height="114" viewBox="0 0 114 114">
  <g id="Grupo_1176191" data-name="Grupo 1176191" transform="translate(-1234.5 -458)">
    <g id="Elipse_12108" data-name="Elipse 12108" transform="translate(1241.5 465)" fill="#f3bc5b" stroke="rgba(255,255,255,0.4)" stroke-width="7">
      <circle cx="50" cy="50" r="50" stroke="none"/>
      <circle cx="50" cy="50" r="53.5" fill="none"/>
    </g>
    <g id="Grupo_1176855" data-name="Grupo 1176855" transform="translate(1267.164 488.995)">
      <path id="Trazado_931419" data-name="Trazado 931419" d="M180.666,269.074a.76.76,0,0,0-.759.76v1.934a.76.76,0,1,0,1.519,0v-1.934A.76.76,0,0,0,180.666,269.074Zm0,0" transform="translate(-165.914 -247.158)" fill="#004e3d"/>
      <path id="Trazado_931420" data-name="Trazado 931420" d="M416.838,272.527a.76.76,0,0,0,.759-.76v-1.934a.759.759,0,1,0-1.519,0v1.934A.76.76,0,0,0,416.838,272.527Zm0,0" transform="translate(-382.917 -247.158)" fill="#004e3d"/>
      <path id="Trazado_931421" data-name="Trazado 931421" d="M281.323,532.351a.759.759,0,0,0-1.072.072,1.59,1.59,0,0,1-2.331,0,.759.759,0,0,0-1.143,1,3.106,3.106,0,0,0,4.618,0A.759.759,0,0,0,281.323,532.351Zm0,0" transform="translate(-254.75 -488.893)" fill="#004e3d"/>
      <path id="Trazado_931422" data-name="Trazado 931422" d="M183.34,433.551a2.8,2.8,0,0,0-1.083.24c-2.166.945-2.093,3.893-1.3,5.72s2.894,3.892,5.074,2.94c1.786-.779,2.355-3.292,1.3-5.72-.665-1.523-2.228-3.208-3.991-3.18Zm2.088,7.508c-1.325.578-2.63-1.136-3.075-2.156s-.819-3.14.511-3.721,2.63,1.136,3.075,2.156C186.634,438.931,186.4,440.635,185.428,441.059Zm0,0" transform="translate(-166.412 -398.285)" fill="#004e3d"/>
      <path id="Trazado_931423" data-name="Trazado 931423" d="M348.506,433.813c-2.167-.945-4.275,1.109-5.074,2.94-1.059,2.428-.49,4.941,1.3,5.72,2.167.946,4.276-1.109,5.074-2.94S350.671,434.758,348.506,433.813Zm-.1,5.113c-.449,1.028-1.72,2.747-3.074,2.156-.972-.425-1.206-2.128-.511-3.721.448-1.026,1.721-2.747,3.075-2.156C349.225,435.785,348.851,437.914,348.409,438.926Zm0,0" transform="translate(-315.678 -398.307)" fill="#004e3d"/>
      <path id="Trazado_931424" data-name="Trazado 931424" d="M47.049,8.18A8.883,8.883,0,0,0,45.878,8.1a13.842,13.842,0,0,0-6.821,2.125q-.454-.635-.95-1.218a11.246,11.246,0,0,0,1.681-6.278A2.672,2.672,0,0,0,38.043.247a2.7,2.7,0,0,0-3.149,1.009,13.746,13.746,0,0,1-2.561,2.771,3.939,3.939,0,0,0-.406.393A17.5,17.5,0,0,0,28.073,3.26a16.793,16.793,0,0,0-2.989-.272h-1.5a16.828,16.828,0,0,0-2.99.272,17.513,17.513,0,0,0-3.854,1.159,3.977,3.977,0,0,0-.407-.393,13.752,13.752,0,0,1-2.561-2.771A2.7,2.7,0,0,0,10.629.247,2.672,2.672,0,0,0,8.884,2.733a11.243,11.243,0,0,0,1.681,6.278q-.5.583-.95,1.218A13.843,13.843,0,0,0,2.794,8.1a8.887,8.887,0,0,0-1.171.076,2.556,2.556,0,0,0-2.17,2.165,10.786,10.786,0,0,0-.109,2c.1,2.234,1.091,5.952,6.508,6.617q-.208.9-.375,1.834c-.547,3.094-.909,5.787-1.1,8.232-.413,5.139-.084,9.209,1.006,12.441a13.5,13.5,0,0,0,6.266,7.776c3.16,1.8,7.311,2.682,12.69,2.682s9.531-.877,12.69-2.682a13.5,13.5,0,0,0,6.266-7.777c1.09-3.23,1.419-7.3,1.007-12.43,0,0,0,0,0-.006v0c-.2-2.444-.557-5.137-1.1-8.232q-.166-.94-.375-1.834c5.417-.665,6.412-4.383,6.508-6.618a10.79,10.79,0,0,0-.109-2,2.556,2.556,0,0,0-2.17-2.164ZM39.894,11.5a12.4,12.4,0,0,1,5.984-1.878,7.405,7.405,0,0,1,.97.063,1.032,1.032,0,0,1,.868.879q.049.339.075.673a6.753,6.753,0,0,0-6.454,1.787c-.041.042-.415.391-.394.435l0-.006c-.079-.167-1.011-1.974-1.045-1.953ZM33.308,5.192A15.277,15.277,0,0,0,36.158,2.1a1.171,1.171,0,0,1,1.361-.427,1.147,1.147,0,0,1,.75,1.066,9.809,9.809,0,0,1-1.53,5.578,2.449,2.449,0,0,1-3.124.722,2.346,2.346,0,0,1-.307-3.846Zm-2.17.541a3.8,3.8,0,0,0,.082,2.829,3.944,3.944,0,0,0,5.836,1.557,17.335,17.335,0,0,1,1.187,1.61A24.933,24.933,0,0,1,41.7,21.061c.428,2.423.741,4.592.947,6.584a7.814,7.814,0,0,0-5.02-.6h0a26.286,26.286,0,0,1-4.322.764,4.051,4.051,0,0,1-2.6-.935c-4.521-3.769-3.568-7.958-2.464-12.809.66-2.9,1.334-5.929.776-8.9-.01-.049-.018-.1-.028-.149a16,16,0,0,1,2.152.721ZM11.154,1.672a1.165,1.165,0,0,1,1.361.428,15.277,15.277,0,0,0,2.85,3.092,2.351,2.351,0,0,1-.334,3.859,2.448,2.448,0,0,1-3.1-.735A9.809,9.809,0,0,1,10.4,2.738a1.147,1.147,0,0,1,.75-1.066ZM.957,10.565a1.031,1.031,0,0,1,.868-.88,7.41,7.41,0,0,1,.97-.063A12.4,12.4,0,0,1,8.779,11.5a20.37,20.37,0,0,0-1.046,1.954l0,.006c-.008-.01-.171-.2-.248-.283a6.709,6.709,0,0,0-3.076-1.888,6.8,6.8,0,0,0-3.524-.051q.025-.334.075-.672Zm5.279,6.912C3,17.14,1.214,15.574.9,12.815l.014-.005a5.272,5.272,0,0,1,4.852.849,5.3,5.3,0,0,1,1.254,1.429l.006.01c-.218.566-.777,2.382-.793,2.381Zm18.1,32.932c-9.618,0-15.161-2.894-17.4-9.1.023-.04.046-.08.069-.119a18.255,18.255,0,0,1,6.81-6.454,22.119,22.119,0,0,1,21.5.26.772.772,0,0,0,1.04-.269.759.759,0,0,0-.269-1.04,23.641,23.641,0,0,0-23.011-.28l-.014.008a20.074,20.074,0,0,0-6.7,5.964,32.955,32.955,0,0,1-.5-9.875A6.291,6.291,0,0,1,8.9,28.447a11.445,11.445,0,0,1,3.453.421c2.145.492,4.363,1,6.588-.828a10.045,10.045,0,0,0,3.82-6.56,19.74,19.74,0,0,0-.646-6.861.759.759,0,0,0-1.483.33,22.857,22.857,0,0,1,.708,5.087,8.971,8.971,0,0,1-3.368,6.833c-1.645,1.352-3.249.983-5.281.517a14.068,14.068,0,0,0-3.769-.5,7.3,7.3,0,0,0-2.879.743l-.02.01c.206-1.992.519-4.162.947-6.584a23.285,23.285,0,0,1,4.643-10.942c.027.02.224.15.3.193A3.938,3.938,0,0,0,17.388,8.7a3.835,3.835,0,0,0,.147-2.97,15.877,15.877,0,0,1,2.146-.719,16.485,16.485,0,0,0,.131,6.049c.052.308.1.614.166.92a.77.77,0,0,0,.9.593.759.759,0,0,0,.592-.9,16.242,16.242,0,0,1-.341-6.088c.052-.3.118-.6.2-.9,0,0,0-.008,0-.011a14.922,14.922,0,0,1,2.259-.173h1.5a14.818,14.818,0,0,1,2.258.172c.083.306.151.617.2.93.458,2.722-.19,5.473-.792,8.119-1.113,4.891-2.264,9.948,2.977,14.317a6.262,6.262,0,0,0,5.459,1.07l.013,0a21.618,21.618,0,0,1,4.157-.705,6.123,6.123,0,0,1,3.373,1.045l.076.051a32.939,32.939,0,0,1-.5,9.876l0,0a20.489,20.489,0,0,0-3.673-3.923.76.76,0,0,0-.956,1.181,17.406,17.406,0,0,1,4.047,4.645l.016.029c-2.243,6.209-7.786,9.1-17.406,9.1Zm18.1-32.932q-.078-.274-.162-.546c-.19-.619-.4-1.231-.631-1.834l.006-.01a5.26,5.26,0,0,1,2.179-2.01,5.242,5.242,0,0,1,3.926-.268l.014,0c-.311,2.759-2.1,4.325-5.333,4.663Zm0,0" transform="translate(0 0)" fill="#004e3d"/>
    </g>
  </g>
</svg>
