<svg xmlns="http://www.w3.org/2000/svg" width="85" height="85" viewBox="0 0 85 85">
  <g id="Grupo_1158600" data-name="Grupo 1158600" transform="translate(14645.893 16099.787)" opacity="0.4">
    <rect id="Rectángulo_439064" data-name="Rectángulo 439064" width="11.919" height="1.324" transform="translate(-14645.893 -16094.489)" fill="#004e3d"/>
    <rect id="Rectángulo_439065" data-name="Rectángulo 439065" width="1.324" height="11.919" transform="translate(-14640.595 -16099.787)" fill="#004e3d"/>
    <rect id="Rectángulo_439066" data-name="Rectángulo 439066" width="11.919" height="1.324" transform="translate(-14627.623 -16094.489)" fill="#004e3d"/>
    <rect id="Rectángulo_439067" data-name="Rectángulo 439067" width="1.324" height="11.919" transform="translate(-14622.324 -16099.787)" fill="#004e3d"/>
    <rect id="Rectángulo_439068" data-name="Rectángulo 439068" width="11.919" height="1.324" transform="translate(-14609.353 -16094.489)" fill="#004e3d"/>
    <rect id="Rectángulo_439069" data-name="Rectángulo 439069" width="1.324" height="11.919" transform="translate(-14604.054 -16099.787)" fill="#004e3d"/>
    <rect id="Rectángulo_439070" data-name="Rectángulo 439070" width="11.919" height="1.324" transform="translate(-14591.081 -16094.489)" fill="#004e3d"/>
    <rect id="Rectángulo_439071" data-name="Rectángulo 439071" width="1.324" height="11.919" transform="translate(-14585.783 -16099.787)" fill="#004e3d"/>
    <rect id="Rectángulo_439072" data-name="Rectángulo 439072" width="11.919" height="1.324" transform="translate(-14572.812 -16094.489)" fill="#004e3d"/>
    <rect id="Rectángulo_439073" data-name="Rectángulo 439073" width="1.324" height="11.919" transform="translate(-14567.514 -16099.787)" fill="#004e3d"/>
    <rect id="Rectángulo_439074" data-name="Rectángulo 439074" width="11.919" height="1.324" transform="translate(-14645.893 -16076.344)" fill="#004e3d"/>
    <rect id="Rectángulo_439075" data-name="Rectángulo 439075" width="1.324" height="11.919" transform="translate(-14640.595 -16081.518)" fill="#004e3d"/>
    <rect id="Rectángulo_439076" data-name="Rectángulo 439076" width="11.919" height="1.324" transform="translate(-14627.623 -16076.344)" fill="#004e3d"/>
    <rect id="Rectángulo_439077" data-name="Rectángulo 439077" width="1.324" height="11.919" transform="translate(-14622.324 -16081.518)" fill="#004e3d"/>
    <rect id="Rectángulo_439078" data-name="Rectángulo 439078" width="11.919" height="1.324" transform="translate(-14609.353 -16076.344)" fill="#004e3d"/>
    <rect id="Rectángulo_439079" data-name="Rectángulo 439079" width="1.324" height="11.919" transform="translate(-14604.054 -16081.518)" fill="#004e3d"/>
    <rect id="Rectángulo_439080" data-name="Rectángulo 439080" width="11.919" height="1.324" transform="translate(-14591.081 -16076.344)" fill="#004e3d"/>
    <rect id="Rectángulo_439081" data-name="Rectángulo 439081" width="1.324" height="11.919" transform="translate(-14585.783 -16081.518)" fill="#004e3d"/>
    <rect id="Rectángulo_439082" data-name="Rectángulo 439082" width="11.919" height="1.324" transform="translate(-14572.812 -16076.344)" fill="#004e3d"/>
    <rect id="Rectángulo_439083" data-name="Rectángulo 439083" width="1.324" height="11.919" transform="translate(-14567.514 -16081.518)" fill="#004e3d"/>
    <rect id="Rectángulo_439084" data-name="Rectángulo 439084" width="11.919" height="1.324" transform="translate(-14645.893 -16057.948)" fill="#004e3d"/>
    <rect id="Rectángulo_439085" data-name="Rectángulo 439085" width="1.324" height="11.919" transform="translate(-14640.595 -16063.247)" fill="#004e3d"/>
    <rect id="Rectángulo_439086" data-name="Rectángulo 439086" width="11.919" height="1.324" transform="translate(-14627.623 -16057.948)" fill="#004e3d"/>
    <rect id="Rectángulo_439087" data-name="Rectángulo 439087" width="1.324" height="11.919" transform="translate(-14622.324 -16063.247)" fill="#004e3d"/>
    <rect id="Rectángulo_439088" data-name="Rectángulo 439088" width="11.919" height="1.324" transform="translate(-14609.353 -16057.948)" fill="#004e3d"/>
    <rect id="Rectángulo_439089" data-name="Rectángulo 439089" width="1.324" height="11.919" transform="translate(-14604.054 -16063.247)" fill="#004e3d"/>
    <rect id="Rectángulo_439090" data-name="Rectángulo 439090" width="11.919" height="1.324" transform="translate(-14591.081 -16057.948)" fill="#004e3d"/>
    <rect id="Rectángulo_439091" data-name="Rectángulo 439091" width="1.324" height="11.919" transform="translate(-14585.783 -16063.247)" fill="#004e3d"/>
    <rect id="Rectángulo_439092" data-name="Rectángulo 439092" width="11.919" height="1.324" transform="translate(-14572.812 -16057.948)" fill="#004e3d"/>
    <rect id="Rectángulo_439093" data-name="Rectángulo 439093" width="1.324" height="11.919" transform="translate(-14567.514 -16063.247)" fill="#004e3d"/>
    <rect id="Rectángulo_439094" data-name="Rectángulo 439094" width="11.919" height="1.324" transform="translate(-14645.893 -16039.555)" fill="#004e3d"/>
    <rect id="Rectángulo_439095" data-name="Rectángulo 439095" width="1.324" height="11.919" transform="translate(-14640.595 -16044.976)" fill="#004e3d"/>
    <rect id="Rectángulo_439096" data-name="Rectángulo 439096" width="11.919" height="1.324" transform="translate(-14627.623 -16039.555)" fill="#004e3d"/>
    <rect id="Rectángulo_439097" data-name="Rectángulo 439097" width="1.324" height="11.919" transform="translate(-14622.324 -16044.976)" fill="#004e3d"/>
    <rect id="Rectángulo_439098" data-name="Rectángulo 439098" width="11.919" height="1.324" transform="translate(-14609.353 -16039.555)" fill="#004e3d"/>
    <rect id="Rectángulo_439099" data-name="Rectángulo 439099" width="1.324" height="11.919" transform="translate(-14604.054 -16044.976)" fill="#004e3d"/>
    <rect id="Rectángulo_439100" data-name="Rectángulo 439100" width="11.919" height="1.324" transform="translate(-14591.081 -16039.555)" fill="#004e3d"/>
    <rect id="Rectángulo_439101" data-name="Rectángulo 439101" width="1.324" height="11.919" transform="translate(-14585.783 -16044.976)" fill="#004e3d"/>
    <rect id="Rectángulo_439102" data-name="Rectángulo 439102" width="11.919" height="1.324" transform="translate(-14572.812 -16039.555)" fill="#004e3d"/>
    <rect id="Rectángulo_439103" data-name="Rectángulo 439103" width="1.324" height="11.919" transform="translate(-14567.514 -16044.976)" fill="#004e3d"/>
    <rect id="Rectángulo_439104" data-name="Rectángulo 439104" width="11.919" height="1.324" transform="translate(-14645.893 -16021.408)" fill="#004e3d"/>
    <rect id="Rectángulo_439105" data-name="Rectángulo 439105" width="1.324" height="11.919" transform="translate(-14640.595 -16026.706)" fill="#004e3d"/>
    <rect id="Rectángulo_439106" data-name="Rectángulo 439106" width="11.919" height="1.324" transform="translate(-14627.623 -16021.408)" fill="#004e3d"/>
    <rect id="Rectángulo_439107" data-name="Rectángulo 439107" width="1.324" height="11.919" transform="translate(-14622.324 -16026.706)" fill="#004e3d"/>
    <rect id="Rectángulo_439108" data-name="Rectángulo 439108" width="11.919" height="1.324" transform="translate(-14609.353 -16021.408)" fill="#004e3d"/>
    <rect id="Rectángulo_439109" data-name="Rectángulo 439109" width="1.324" height="11.919" transform="translate(-14604.054 -16026.706)" fill="#004e3d"/>
    <rect id="Rectángulo_439110" data-name="Rectángulo 439110" width="11.919" height="1.324" transform="translate(-14591.081 -16021.408)" fill="#004e3d"/>
    <rect id="Rectángulo_439111" data-name="Rectángulo 439111" width="1.324" height="11.919" transform="translate(-14585.783 -16026.706)" fill="#004e3d"/>
    <rect id="Rectángulo_439112" data-name="Rectángulo 439112" width="11.919" height="1.324" transform="translate(-14572.812 -16021.408)" fill="#004e3d"/>
    <rect id="Rectángulo_439113" data-name="Rectángulo 439113" width="1.324" height="11.919" transform="translate(-14567.514 -16026.706)" fill="#004e3d"/>
  </g>
</svg>
