<svg xmlns="http://www.w3.org/2000/svg" width="60" height="60" viewBox="0 0 60 60">
  <g id="Grupo_1177108" data-name="Grupo 1177108" transform="translate(-513.711 -31420)">
    <path id="Trazado_929554" data-name="Trazado 929554" d="M6.667,0H53.333A6.667,6.667,0,0,1,60,6.667V53.333A6.667,6.667,0,0,1,53.333,60H6.667A6.667,6.667,0,0,1,0,53.333V6.667A6.667,6.667,0,0,1,6.667,0Z" transform="translate(513.711 31420)" fill="#dae4e3"/>
    <g id="Grupo_1178941" data-name="Grupo 1178941" transform="translate(522.583 31428.873)">
      <path id="Trazado_937552" data-name="Trazado 937552" d="M29.075,4.832a2.976,2.976,0,0,0-4.206,0L20.7,9.006,9.439,20.262,5.7,16.521a1.749,1.749,0,0,1,0-2.474L14.047,5.7a1.791,1.791,0,0,1,2.474,0l2.411,2.411a.612.612,0,1,0,.866-.866L17.387,4.832a2.976,2.976,0,0,0-4.206,0L4.832,13.181a2.977,2.977,0,0,0,0,4.206l4.174,4.174a.612.612,0,0,0,.866,0L25.736,5.7a1.791,1.791,0,0,1,2.474,0l8.349,8.349a1.758,1.758,0,0,1,0,2.474L34.1,18.983a.612.612,0,1,0,.866.866l2.462-2.462a2.977,2.977,0,0,0,0-4.206Z" transform="translate(0)" fill="#004e3d"/>
      <path id="Trazado_937553" data-name="Trazado 937553" d="M33.25,31.179a.612.612,0,0,0-.866,0L16.521,47.043a1.791,1.791,0,0,1-2.474,0L5.7,38.694a1.758,1.758,0,0,1,0-2.474l2.369-2.369a.612.612,0,1,0-.866-.866L4.832,35.354a2.977,2.977,0,0,0,0,4.206l8.349,8.349a2.976,2.976,0,0,0,4.206,0l4.174-4.174L32.817,32.478l3.742,3.742a1.751,1.751,0,0,1,0,2.474L28.21,47.042a1.752,1.752,0,0,1-2.474,0l-2.251-2.251a.612.612,0,1,0-.866.866l2.251,2.251a2.976,2.976,0,0,0,4.206,0l8.349-8.349a2.987,2.987,0,0,0,0-4.206Z" transform="translate(0 -10.484)" fill="#004e3d"/>
      <path id="Trazado_937554" data-name="Trazado 937554" d="M31.317,22.106a2.987,2.987,0,0,0-4.206,0L22.1,27.115a2.973,2.973,0,0,0,0,4.206l2.229,2.229a2.987,2.987,0,0,0,4.206,0l5.009-5.009a2.987,2.987,0,0,0,0-4.206Zm1.363,5.569-5.009,5.009a1.752,1.752,0,0,1-2.474,0l-2.229-2.229a1.751,1.751,0,0,1,0-2.474l5.009-5.009a1.751,1.751,0,0,1,2.474,0L32.68,25.2A1.751,1.751,0,0,1,32.68,27.675Z" transform="translate(-6.696 -6.7)" fill="#004e3d"/>
      <path id="Trazado_937555" data-name="Trazado 937555" d="M15.679,48.408a.59.59,0,1,0-.835,0,.59.59,0,0,0,.835,0Z" transform="translate(-4.152 -16.844)" fill="#004e3d"/>
      <path id="Trazado_937556" data-name="Trazado 937556" d="M15.679,42.118a.59.59,0,1,0,0,.835.59.59,0,0,0,0-.835Z" transform="translate(-4.152 -14.729)" fill="#004e3d"/>
      <path id="Trazado_937557" data-name="Trazado 937557" d="M20.3,47.573a.59.59,0,1,0,.835,0,.59.59,0,0,0-.835,0Z" transform="translate(-6.268 -16.844)" fill="#004e3d"/>
      <path id="Trazado_937558" data-name="Trazado 937558" d="M48.408,14.844a.59.59,0,1,0,0,.835.59.59,0,0,0,0-.835Z" transform="translate(-16.843 -4.153)" fill="#004e3d"/>
      <path id="Trazado_937559" data-name="Trazado 937559" d="M42.953,15.679a.59.59,0,1,0-.835,0,.59.59,0,0,0,.835,0Z" transform="translate(-14.728 -4.153)" fill="#004e3d"/>
      <path id="Trazado_937560" data-name="Trazado 937560" d="M48.408,21.134a.59.59,0,1,0-.835,0,.59.59,0,0,0,.835,0Z" transform="translate(-16.843 -6.268)" fill="#004e3d"/>
    </g>
  </g>
</svg>
