<svg xmlns="http://www.w3.org/2000/svg" width="110" height="144.339" viewBox="0 0 110 144.339">
  <g id="Grupo_1178721" data-name="Grupo 1178721" transform="translate(-704.668 -6140)">
    <path id="Trazado_925100" data-name="Trazado 925100" d="M12.222,0H97.778C104.528,0,110,7.18,110,16.038V128.3c0,8.857-5.472,16.038-12.222,16.038H12.222C5.472,144.339,0,137.159,0,128.3V16.038C0,7.18,5.472,0,12.222,0Z" transform="translate(704.668 6140)" fill="#f3bc5b"/>
    <g id="Layer_4" transform="translate(716.668 6169.288)">
      <g id="Grupo_1177271" data-name="Grupo 1177271" transform="translate(4 5.713)">
        <g id="Grupo_1177270" data-name="Grupo 1177270">
          <g id="Grupo_1177184" data-name="Grupo 1177184" transform="translate(42.32 2.457)">
            <g id="Grupo_1177181" data-name="Grupo 1177181" transform="translate(0.926 0.928)">
              <g id="Grupo_1177180" data-name="Grupo 1177180">
                <path id="Trazado_932956" data-name="Trazado 932956" d="M53.077,9.554H82.443V15.76H53.077Z" transform="translate(-53.077 -9.554)" fill="#d0a586"/>
              </g>
            </g>
            <g id="Grupo_1177183" data-name="Grupo 1177183">
              <g id="Grupo_1177182" data-name="Grupo 1177182">
                <path id="Trazado_932957" data-name="Trazado 932957" d="M82.318,16.561H52.952a.927.927,0,0,1-.926-.927V9.428a.927.927,0,0,1,.926-.927H82.319a.927.927,0,0,1,.926.927v6.206A.929.929,0,0,1,82.318,16.561ZM53.878,14.706H81.392V10.355H53.878Z" transform="translate(-52.026 -8.501)"/>
              </g>
            </g>
          </g>
          <g id="Grupo_1177189" data-name="Grupo 1177189" transform="translate(42.32 14.868)">
            <g id="Grupo_1177186" data-name="Grupo 1177186" transform="translate(0.926 0.929)">
              <g id="Grupo_1177185" data-name="Grupo 1177185">
                <path id="Trazado_932958" data-name="Trazado 932958" d="M53.077,23.64H82.443v6.207H53.077Z" transform="translate(-53.077 -23.64)" fill="#d0a586"/>
              </g>
            </g>
            <g id="Grupo_1177188" data-name="Grupo 1177188">
              <g id="Grupo_1177187" data-name="Grupo 1177187">
                <path id="Trazado_932959" data-name="Trazado 932959" d="M82.318,30.651H52.952a.927.927,0,0,1-.926-.927V23.513a.927.927,0,0,1,.926-.927H82.319a.927.927,0,0,1,.926.927v6.211A.929.929,0,0,1,82.318,30.651ZM53.878,28.8H81.392V24.44H53.878Z" transform="translate(-52.026 -22.586)"/>
              </g>
            </g>
          </g>
          <g id="Grupo_1177194" data-name="Grupo 1177194" transform="translate(7.211 2.457)">
            <g id="Grupo_1177191" data-name="Grupo 1177191" transform="translate(0.927 0.928)">
              <g id="Grupo_1177190" data-name="Grupo 1177190">
                <path id="Trazado_932960" data-name="Trazado 932960" d="M13.235,9.554H44.314V15.76H13.235Z" transform="translate(-13.235 -9.554)" fill="#d0a586"/>
              </g>
            </g>
            <g id="Grupo_1177193" data-name="Grupo 1177193">
              <g id="Grupo_1177192" data-name="Grupo 1177192">
                <path id="Trazado_932961" data-name="Trazado 932961" d="M44.189,16.561H13.109a.927.927,0,0,1-.926-.927V9.428a.927.927,0,0,1,.926-.927H44.189a.927.927,0,0,1,.926.927v6.206A.928.928,0,0,1,44.189,16.561ZM14.036,14.706H43.263V10.355H14.036Z" transform="translate(-12.183 -8.501)"/>
              </g>
            </g>
          </g>
          <g id="Grupo_1177199" data-name="Grupo 1177199" transform="translate(7.211 14.868)">
            <g id="Grupo_1177196" data-name="Grupo 1177196" transform="translate(0.927 0.929)">
              <g id="Grupo_1177195" data-name="Grupo 1177195">
                <path id="Trazado_932962" data-name="Trazado 932962" d="M13.235,23.64H44.314v6.207H13.235Z" transform="translate(-13.235 -23.64)" fill="#d0a586"/>
              </g>
            </g>
            <g id="Grupo_1177198" data-name="Grupo 1177198">
              <g id="Grupo_1177197" data-name="Grupo 1177197">
                <path id="Trazado_932963" data-name="Trazado 932963" d="M44.189,30.651H13.109a.927.927,0,0,1-.926-.927V23.513a.927.927,0,0,1,.926-.927H44.189a.927.927,0,0,1,.926.927v6.211A.927.927,0,0,1,44.189,30.651ZM14.036,28.8H43.263V24.44H14.036Z" transform="translate(-12.183 -22.586)"/>
              </g>
            </g>
          </g>
          <g id="Grupo_1177201" data-name="Grupo 1177201" transform="translate(7.211 14.868)">
            <g id="Grupo_1177200" data-name="Grupo 1177200">
              <path id="Trazado_932964" data-name="Trazado 932964" d="M44.189,30.651H13.109a.927.927,0,0,1-.926-.927V23.513a.927.927,0,0,1,.926-.927H44.189a.927.927,0,0,1,.926.927v6.211A.927.927,0,0,1,44.189,30.651ZM14.036,28.8H43.263V24.44H14.036Z" transform="translate(-12.183 -22.586)"/>
            </g>
          </g>
          <g id="Grupo_1177206" data-name="Grupo 1177206" transform="translate(7.211 2.457)">
            <g id="Grupo_1177203" data-name="Grupo 1177203" transform="translate(0.927 0.928)">
              <g id="Grupo_1177202" data-name="Grupo 1177202">
                <path id="Trazado_932965" data-name="Trazado 932965" d="M13.235,9.554H44.314V15.76H13.235Z" transform="translate(-13.235 -9.554)" fill="#d0a586"/>
              </g>
            </g>
            <g id="Grupo_1177205" data-name="Grupo 1177205">
              <g id="Grupo_1177204" data-name="Grupo 1177204">
                <path id="Trazado_932966" data-name="Trazado 932966" d="M44.189,16.561H13.109a.927.927,0,0,1-.926-.927V9.428a.927.927,0,0,1,.926-.927H44.189a.927.927,0,0,1,.926.927v6.206A.928.928,0,0,1,44.189,16.561ZM14.036,14.706H43.263V10.355H14.036Z" transform="translate(-12.183 -8.501)"/>
              </g>
            </g>
          </g>
          <g id="Grupo_1177208" data-name="Grupo 1177208" transform="translate(42.32 14.868)">
            <g id="Grupo_1177207" data-name="Grupo 1177207">
              <path id="Trazado_932967" data-name="Trazado 932967" d="M82.318,30.651H52.952a.927.927,0,0,1-.926-.927V23.513a.927.927,0,0,1,.926-.927H82.319a.927.927,0,0,1,.926.927v6.211A.929.929,0,0,1,82.318,30.651ZM53.878,28.8H81.392V24.44H53.878Z" transform="translate(-52.026 -22.586)"/>
            </g>
          </g>
          <g id="Grupo_1177213" data-name="Grupo 1177213" transform="translate(42.32 2.457)">
            <g id="Grupo_1177210" data-name="Grupo 1177210" transform="translate(0.926 0.928)">
              <g id="Grupo_1177209" data-name="Grupo 1177209">
                <path id="Trazado_932968" data-name="Trazado 932968" d="M53.077,9.554H82.443V15.76H53.077Z" transform="translate(-53.077 -9.554)" fill="#d0a586"/>
              </g>
            </g>
            <g id="Grupo_1177212" data-name="Grupo 1177212">
              <g id="Grupo_1177211" data-name="Grupo 1177211">
                <path id="Trazado_932969" data-name="Trazado 932969" d="M82.318,16.561H52.952a.927.927,0,0,1-.926-.927V9.428a.927.927,0,0,1,.926-.927H82.319a.927.927,0,0,1,.926.927v6.206A.929.929,0,0,1,82.318,16.561ZM53.878,14.706H81.392V10.355H53.878Z" transform="translate(-52.026 -8.501)"/>
              </g>
            </g>
          </g>
          <g id="Grupo_1177218" data-name="Grupo 1177218" transform="translate(38.331)">
            <g id="Grupo_1177215" data-name="Grupo 1177215" transform="translate(0.926 0.926)">
              <g id="Grupo_1177214" data-name="Grupo 1177214">
                <path id="Trazado_932970" data-name="Trazado 932970" d="M48.55,6.764h3.991V30.307H48.55Z" transform="translate(-48.55 -6.764)" fill="#aa8979"/>
              </g>
            </g>
            <g id="Grupo_1177217" data-name="Grupo 1177217">
              <g id="Grupo_1177216" data-name="Grupo 1177216">
                <path id="Trazado_932971" data-name="Trazado 932971" d="M52.416,31.111H48.425a.927.927,0,0,1-.926-.927V6.64a.927.927,0,0,1,.926-.927h3.991a.927.927,0,0,1,.926.927V30.184a.928.928,0,0,1-.926.928Zm-3.064-1.855h2.139V7.568H49.352Z" transform="translate(-47.499 -5.713)"/>
              </g>
            </g>
          </g>
          <g id="Grupo_1177223" data-name="Grupo 1177223" transform="translate(3.21 0.014)">
            <g id="Grupo_1177220" data-name="Grupo 1177220" transform="translate(0.927 0.926)">
              <g id="Grupo_1177219" data-name="Grupo 1177219">
                <path id="Trazado_932972" data-name="Trazado 932972" d="M8.695,6.78h3.984V30.288H8.695Z" transform="translate(-8.695 -6.78)" fill="#aa8979"/>
              </g>
            </g>
            <g id="Grupo_1177222" data-name="Grupo 1177222">
              <g id="Grupo_1177221" data-name="Grupo 1177221">
                <path id="Trazado_932973" data-name="Trazado 932973" d="M12.553,31.09H8.569a.927.927,0,0,1-.926-.927V6.656a.927.927,0,0,1,.926-.927h3.984a.927.927,0,0,1,.926.927V30.163a.927.927,0,0,1-.926.927ZM9.5,29.236h2.132V7.583H9.5Z" transform="translate(-7.643 -5.729)"/>
              </g>
            </g>
          </g>
          <g id="Grupo_1177228" data-name="Grupo 1177228" transform="translate(71.708 0.014)">
            <g id="Grupo_1177225" data-name="Grupo 1177225" transform="translate(0.927 0.926)">
              <g id="Grupo_1177224" data-name="Grupo 1177224">
                <path id="Trazado_932974" data-name="Trazado 932974" d="M86.429,6.78h3.983V30.288H86.429Z" transform="translate(-86.429 -6.78)" fill="#aa8979"/>
              </g>
            </g>
            <g id="Grupo_1177227" data-name="Grupo 1177227">
              <g id="Grupo_1177226" data-name="Grupo 1177226">
                <path id="Trazado_932975" data-name="Trazado 932975" d="M90.287,31.09H86.3a.927.927,0,0,1-.926-.927V6.656a.927.927,0,0,1,.926-.927h3.984a.927.927,0,0,1,.926.927V30.163a.927.927,0,0,1-.926.927Zm-3.058-1.854h2.132V7.583H87.229Z" transform="translate(-85.377 -5.729)"/>
              </g>
            </g>
          </g>
          <g id="Grupo_1177230" data-name="Grupo 1177230" transform="translate(48.026 29.556)">
            <g id="Grupo_1177229" data-name="Grupo 1177229">
              <path id="Trazado_932976" data-name="Trazado 932976" d="M59.919,41.108h-.492a.927.927,0,0,1,0-1.854h.492a.927.927,0,0,1,0,1.854Z" transform="translate(-58.501 -39.254)"/>
            </g>
          </g>
          <g id="Grupo_1177232" data-name="Grupo 1177232" transform="translate(70.692 39.213)">
            <g id="Grupo_1177231" data-name="Grupo 1177231">
              <path id="Trazado_932977" data-name="Trazado 932977" d="M90.077,52.067H85.15a.927.927,0,0,1,0-1.854h4.927a.927.927,0,0,1,0,1.854Z" transform="translate(-84.224 -50.213)"/>
            </g>
          </g>
          <g id="Grupo_1177234" data-name="Grupo 1177234" transform="translate(9.197 33.002)">
            <g id="Grupo_1177233" data-name="Grupo 1177233" transform="translate(0)">
              <path id="Trazado_932978" data-name="Trazado 932978" d="M26.4,45.019H15.363a.927.927,0,0,1,0-1.854H26.4a.927.927,0,0,1,0,1.854Z" transform="translate(-14.437 -43.165)"/>
            </g>
          </g>
          <g id="Grupo_1177237" data-name="Grupo 1177237" transform="translate(54.347 51.013)">
            <g id="Grupo_1177235" data-name="Grupo 1177235" transform="translate(0.928 0.926)">
              <path id="Trazado_932979" data-name="Trazado 932979" d="M71.617,86.314c.7-5.88-4.708-12.038-4.708-12.038l-.181-.353a32.137,32.137,0,0,0,3.193-9.267c.681,5.915,4.286,8.491,4.286,8.491l1.751,13.168H71.617Z" transform="translate(-66.728 -64.656)" fill="#d1bbac"/>
            </g>
            <g id="Grupo_1177236" data-name="Grupo 1177236">
              <path id="Trazado_932980" data-name="Trazado 932980" d="M75.832,87.117H71.491a.926.926,0,0,1-.92-1.035c.643-5.4-4.434-11.258-4.486-11.317a.9.9,0,0,1-.131-.195l-.18-.358a.927.927,0,0,1,.011-.855,31.038,31.038,0,0,0,3.1-9.015.912.912,0,0,1,.95-.738.931.931,0,0,1,.878.823c.622,5.392,3.773,7.744,3.908,7.843A.94.94,0,0,1,75,72.9L76.75,86.068a.919.919,0,0,1-.222.733.931.931,0,0,1-.7.315ZM72.48,85.262h2.3L73.211,73.51a12.7,12.7,0,0,1-3.428-5.084,28.835,28.835,0,0,1-2.117,5.337C68.6,74.89,72.557,79.975,72.48,85.262Z" transform="translate(-65.675 -63.605)" fill="#202328"/>
            </g>
          </g>
          <g id="Grupo_1177240" data-name="Grupo 1177240" transform="translate(3.691 37.503)">
            <g id="Grupo_1177238" data-name="Grupo 1177238" transform="translate(0.925 0.933)">
              <path id="Trazado_932981" data-name="Trazado 932981" d="M63.437,61.058q-.169.936-.346,1.775v0A32.164,32.164,0,0,1,59.9,72.1a36.563,36.563,0,0,0-4.556,12.391H50.22s2.01-6.648,2.779-9.2c.04-.131.077-.256.111-.369.016-.058.033-.111.046-.162.046-.162.081-.3.1-.395a1.44,1.44,0,0,0,.033-.157.155.155,0,0,0,0-.033v0c0-.5-2.56-4.55-2.659-6.638,0,.51-.279,2.49-4.325,2.994a26.459,26.459,0,0,1-7.3-.352V84.492H34.579s-.356-6.137-.947-10.127a20.782,20.782,0,0,0-.707-3.378c-.009-.03-.021-.058-.03-.085a2.593,2.593,0,0,0-.194-.419c-.034-.056-.067-.107-.1-.157-1-1.46-1.412.515-4.676-.212-.175-.04-.36-.088-.553-.143,0,0-9.325,12.4-11.989,13.832s-4.4-1.229-5.122-1.435.82-2.869.614-5.635-.716-2.05,0-6.557-1.638-6.456-1.638-6.456,6.249.205,6.456,4.1c0,0,.6-1.576,1.5-3.678,1.3-3.038,3.216-7.174,4.852-9.232.363-.457.707-.889,1.047-1.3a.122.122,0,0,0,.019-.019c2.245-2.674,4.394-4.175,11.469-3.909,4.551.171,8.315.291,11.732.279,2.525-.007,4.859-.083,7.178-.265l.523-.044c5.633-.482,11.884-2.12,9.425,11.4Z" transform="translate(-9.238 -49.332)" fill="#fcebdb"/>
            </g>
            <g id="Grupo_1177239" data-name="Grupo 1177239">
              <path id="Trazado_932982" data-name="Trazado 932982" d="M55.217,85.3H50.095a.927.927,0,0,1-.886-1.194l2.779-9.2,1-.1-.894-.24.141-.52c-.035-.055-.282-.515-.582-1.1-.463-.909-1.02-2-1.44-3.062A7.332,7.332,0,0,1,46.3,71.324a25.243,25.243,0,0,1-6.492-.2V84.369a.927.927,0,0,1-.926.927h-4.43a.928.928,0,0,1-.925-.873c0-.063-.36-6.143-.938-10.046a18.877,18.877,0,0,0-.666-3.207,1.755,1.755,0,0,0-.139-.326,2.112,2.112,0,0,0-.215-.294c.02.041-.143.1-.264.14a6.235,6.235,0,0,1-3.69.208c-1.929,2.542-9.376,12.226-11.918,13.6-2.56,1.384-4.506-.253-5.44-1.035a4.612,4.612,0,0,0-.443-.348c-1.146-.321-.8-1.646-.5-2.814a11.188,11.188,0,0,0,.508-3.619,15.6,15.6,0,0,0-.214-1.692c-.2-1.194-.282-1.909.223-5.08.618-3.876-1.242-5.532-1.321-5.6a.927.927,0,0,1-.261-1.041.963.963,0,0,1,.889-.592c.227.009,4.491.181,6.422,2.538.192-.471.411-.99.651-1.552,1.333-3.13,3.281-7.309,4.978-9.445.412-.52.738-.931,1.062-1.316a.81.81,0,0,1,.171-.159c2.567-2.985,5.218-4.334,12.062-4.1,4.747.176,8.359.29,11.7.28,2.662-.009,4.921-.091,7.109-.263L55,48.492c3.022-.308,6.147-.615,8.106,1.51,1.787,1.936,2.142,5.46,1.118,11.1q-.173.95-.352,1.8a32.843,32.843,0,0,1-3.282,9.512l-.3.566a34.737,34.737,0,0,0-4.159,11.566A.928.928,0,0,1,55.217,85.3ZM51.342,83.44h3.117a36.352,36.352,0,0,1,4.2-11.344l.3-.561a31.038,31.038,0,0,0,3.1-9.015q.176-.834.343-1.755c.886-4.871.665-8.074-.657-9.5-1.331-1.448-3.869-1.194-6.56-.927l-1.749.163c-2.233.176-4.535.263-7.246.271-3.368,0-7-.1-11.771-.28-6.941-.29-8.763,1.244-10.725,3.578-.012.013-.026.027-.041.045-.3.367-.614.755-.938,1.162a44.648,44.648,0,0,0-4.795,9.105c-.889,2.08-1.484,3.637-1.487,3.645a.907.907,0,0,1-1.009.583.927.927,0,0,1-.782-.864c-.094-1.777-2.015-2.583-3.574-2.941a9.177,9.177,0,0,1,.6,5.392c-.478,3.008-.389,3.528-.226,4.474a17.915,17.915,0,0,1,.235,1.873,12.918,12.918,0,0,1-.563,4.22c-.073.28-.159.611-.206.846.173.117.348.267.544.43,1.086.909,2.021,1.552,3.37.827,1.821-.986,7.988-8.658,11.687-13.575a.952.952,0,0,1,.994-.335c.168.049.331.091.486.122a4.254,4.254,0,0,0,2.711-.14,1.88,1.88,0,0,1,2.542.742,4.084,4.084,0,0,1,.392.76,20.712,20.712,0,0,1,.79,3.664c.464,3.13.78,7.49.9,9.336h2.632V70.052a.931.931,0,0,1,.324-.706.919.919,0,0,1,.747-.208,26.271,26.271,0,0,0,7.042.348c2.588-.326,3.512-1.325,3.514-2.08a.928.928,0,0,1,.906-.923.938.938,0,0,1,.946.882c.056,1.176,1.19,3.406,1.869,4.735.614,1.2.791,1.569.791,1.945,0,.023-.057.4-.063.42-.021.091-.06.24-.112.42,0,0-.111.375-.112.38ZM10.389,81.351s.008,0,.012,0S10.394,81.351,10.389,81.351Z" transform="translate(-8.188 -48.273)" fill="#202328"/>
            </g>
          </g>
          <g id="Grupo_1177243" data-name="Grupo 1177243" transform="translate(22.375 57.953)">
            <g id="Grupo_1177241" data-name="Grupo 1177241" transform="translate(0.926 0.926)">
              <path id="Trazado_932983" data-name="Trazado 932983" d="M36.15,77.123c-.093,3.856-2.366,10.127-2.366,10.127h-3l-.345-14.378c3.265.728,3.681-1.248,4.676.212l.1.157a2.523,2.523,0,0,1,.194.419c.009.027.021.056.03.085A20.672,20.672,0,0,1,36.15,77.123Z" transform="translate(-30.443 -72.531)" fill="#d1bbac"/>
            </g>
            <g id="Grupo_1177242" data-name="Grupo 1177242">
              <path id="Trazado_932984" data-name="Trazado 932984" d="M33.659,88.053h-3a.928.928,0,0,1-.926-.9l-.344-14.379a.923.923,0,0,1,.338-.738.939.939,0,0,1,.79-.19,4.275,4.275,0,0,0,2.7-.145,1.88,1.88,0,0,1,2.542.742,4.084,4.084,0,0,1,.392.76,20.711,20.711,0,0,1,.79,3.664.96.96,0,0,1,.011.159c-.1,3.963-2.327,10.159-2.422,10.422a.927.927,0,0,1-.871.611ZM31.567,86.2H33c.553-1.628,2-6.165,2.1-9.146a18.446,18.446,0,0,0-.654-3.126A1.755,1.755,0,0,0,34.3,73.6a2.112,2.112,0,0,0-.215-.294c.02.041-.143.1-.264.14a6.314,6.314,0,0,1-2.555.375Z" transform="translate(-29.392 -71.48)" fill="#202328"/>
            </g>
          </g>
          <g id="Grupo_1177245" data-name="Grupo 1177245" transform="translate(0 72.617)">
            <g id="Grupo_1177244" data-name="Grupo 1177244">
              <path id="Trazado_932985" data-name="Trazado 932985" d="M15.581,89.975H4.926a.927.927,0,0,1,0-1.854H15.581a.927.927,0,0,1,0,1.854Z" transform="translate(-4 -88.121)" fill="#202328"/>
            </g>
          </g>
          <g id="Grupo_1177248" data-name="Grupo 1177248" transform="translate(64.661 52.661)">
            <g id="Grupo_1177246" data-name="Grupo 1177246" transform="translate(0.925 0.923)">
              <path id="Trazado_932986" data-name="Trazado 932986" d="M78.429,67.2c1.076,2.229-.41,2.382,1.358,3.612a6.622,6.622,0,0,1,2.562,5.3s3.15-7.654-3.612-9.59Z" transform="translate(-78.429 -66.522)" fill="#9b8c89"/>
            </g>
            <g id="Grupo_1177247" data-name="Grupo 1177247">
              <path id="Trazado_932987" data-name="Trazado 932987" d="M82.223,76.913A.96.96,0,0,1,82,76.885a.93.93,0,0,1-.694-1,5.72,5.72,0,0,0-2.169-4.442,2.377,2.377,0,0,1-1.326-2.4,2.727,2.727,0,0,0-.336-1.569.931.931,0,0,1-.009-.787l.308-.679a.943.943,0,0,1,1.1-.507A6.5,6.5,0,0,1,83.2,68.9c1.574,3.252-.048,7.269-.117,7.441a.934.934,0,0,1-.858.575ZM79.538,67.74a4.265,4.265,0,0,1,.117,1.406c-.019.362-.02.389.535.778a6.594,6.594,0,0,1,1.837,2.027,5.479,5.479,0,0,0-.5-2.257,4.211,4.211,0,0,0-1.987-1.954Z" transform="translate(-77.379 -65.474)" fill="#202328"/>
            </g>
          </g>
          <g id="Grupo_1177250" data-name="Grupo 1177250" transform="translate(58.342 40.815)">
            <g id="Grupo_1177249" data-name="Grupo 1177249">
              <path id="Trazado_932988" data-name="Trazado 932988" d="M77.454,66.4a.93.93,0,0,1-.835-.524,12.543,12.543,0,0,1-.9-4.826,34.483,34.483,0,0,0-.482-4.469,3.236,3.236,0,0,0-3.942-2.651.928.928,0,0,1-.319-1.828,5.07,5.07,0,0,1,6.082,4.143,36.044,36.044,0,0,1,.511,4.691,11.111,11.111,0,0,0,.719,4.135.931.931,0,0,1-.834,1.33Z" transform="translate(-70.208 -52.031)" fill="#202328"/>
            </g>
          </g>
          <g id="Grupo_1177253" data-name="Grupo 1177253" transform="translate(40.759 55.714)">
            <g id="Grupo_1177251" data-name="Grupo 1177251" transform="translate(0.926 0.924)">
              <path id="Trazado_932989" data-name="Trazado 932989" d="M58.293,76.626v0a.16.16,0,0,1,0,.033,1.221,1.221,0,0,1-.033.157c-.023.1-.058.234-.1.395-.014.051-.03.1-.046.162-.034.113-.071.238-.111.369-.007.026-.016.048-.023.074a7.35,7.35,0,0,1-1.1.085c-4.625,0-5.573-4.919-5.573-4.919l0,0c4.046-.5,4.323-2.484,4.325-2.994.1,2.089,2.659,6.137,2.659,6.638Z" transform="translate(-51.306 -69.988)" fill="#ff8383"/>
            </g>
            <g id="Grupo_1177252" data-name="Grupo 1177252">
              <path id="Trazado_932990" data-name="Trazado 932990" d="M56.754,78.709c-4.263,0-6.1-3.713-6.482-5.672a.926.926,0,0,1,.794-1.094c2.591-.326,3.513-1.325,3.517-2.08a.928.928,0,0,1,.906-.923.938.938,0,0,1,.946.882c.056,1.176,1.19,3.406,1.869,4.736.614,1.2.791,1.569.791,1.945a1.552,1.552,0,0,1-.015.19c0,.023-.041.2-.048.231-.021.091-.06.24-.112.42,0,0-.111.375-.112.38-.1.348-.472.842-.83.891a9.1,9.1,0,0,1-1.224.1Zm1.011-1.62.011.077.234,0ZM52.371,73.6a4.651,4.651,0,0,0,4.765,3.243l.081-.3c-.1-.244-.313-.647-.566-1.14-.464-.914-1.022-2.008-1.443-3.071A6.405,6.405,0,0,1,52.371,73.6Zm5.8,2.909h.023Z" transform="translate(-50.255 -68.939)" fill="#202328"/>
            </g>
          </g>
          <g id="Grupo_1177255" data-name="Grupo 1177255" transform="translate(39.24 61.168)">
            <g id="Grupo_1177254" data-name="Grupo 1177254">
              <path id="Trazado_932991" data-name="Trazado 932991" d="M49.459,78.883a.927.927,0,0,1-.552-1.673l2.571-1.9a.928.928,0,0,1,1.1,1.493l-2.571,1.9A.931.931,0,0,1,49.459,78.883Z" transform="translate(-48.531 -75.129)" fill="#202328"/>
            </g>
          </g>
          <g id="Grupo_1177257" data-name="Grupo 1177257" transform="translate(43.313 63.175)">
            <g id="Grupo_1177256" data-name="Grupo 1177256">
              <path id="Trazado_932992" data-name="Trazado 932992" d="M54.081,82.84a.957.957,0,0,1-.2-.023.925.925,0,0,1-.708-1.1l.78-3.582a.926.926,0,0,1,1.809.4l-.78,3.582A.927.927,0,0,1,54.081,82.84Z" transform="translate(-53.153 -77.406)" fill="#202328"/>
            </g>
          </g>
          <g id="Grupo_1177259" data-name="Grupo 1177259" transform="translate(7.888 68.53)">
            <g id="Grupo_1177258" data-name="Grupo 1177258">
              <path id="Trazado_932993" data-name="Trazado 932993" d="M13.877,89.212a.907.907,0,0,1-.463-.127.926.926,0,0,1-.338-1.266,5.541,5.541,0,0,0,.5-3.257.926.926,0,0,1,1.824-.321,7.378,7.378,0,0,1-.725,4.51.929.929,0,0,1-.8.461Z" transform="translate(-12.951 -83.483)" fill="#202328"/>
            </g>
          </g>
          <g id="Grupo_1177262" data-name="Grupo 1177262" transform="translate(11.643 41.773)">
            <g id="Grupo_1177260" data-name="Grupo 1177260" transform="translate(0.927 0.927)">
              <path id="Trazado_932994" data-name="Trazado 932994" d="M28.036,61.94c-2.074,2.46-4.15,1.229-5.688,1s-2.486.107-4.083,1.776c1.3-3.038,3.216-7.174,4.852-9.232.363-.457.707-.889,1.047-1.3a.122.122,0,0,0,.019-.019,12,12,0,0,1,3.239,1.393c.767.692,2.689,3.919.614,6.377Z" transform="translate(-18.265 -54.17)" fill="#9b8c89"/>
            </g>
            <g id="Grupo_1177261" data-name="Grupo 1177261" transform="translate(0)">
              <path id="Trazado_932995" data-name="Trazado 932995" d="M18.14,65.521a.911.911,0,0,1-.51-.154.927.927,0,0,1-.343-1.135c1.336-3.13,3.282-7.309,4.979-9.445.412-.52.738-.931,1.062-1.316.019-.023.04-.045.061-.068a.918.918,0,0,1,.921-.248,11.828,11.828,0,0,1,3.606,1.6c1.2,1.081,3.1,4.822.7,7.663-2.056,2.438-4.25,1.873-5.7,1.506a7.5,7.5,0,0,0-.835-.185c-1.1-.172-1.776-.072-3.276,1.5a.935.935,0,0,1-.669.285Zm3.3-3.7a6.754,6.754,0,0,1,.921.072c.32.049.662.136,1.02.226,1.352.348,2.515.642,3.823-.9,1.744-2.067-.2-4.8-.527-5.093a8.765,8.765,0,0,0-2.3-1.013c-.193.235-.388.484-.59.738a33.344,33.344,0,0,0-3.465,6.12A4.1,4.1,0,0,1,21.44,61.825Z" transform="translate(-17.213 -53.119)" fill="#202328"/>
            </g>
          </g>
          <g id="Grupo_1177265" data-name="Grupo 1177265" transform="translate(37.621 37.867)">
            <g id="Grupo_1177263" data-name="Grupo 1177263" transform="translate(0.927 0.939)">
              <path id="Trazado_932996" data-name="Trazado 932996" d="M57.28,54.872c-4.3.449-3.535,10.923-7.916,4.854s1.518-9.708,1.518-9.708l0,0c2.525-.007,4.859-.083,7.178-.265.111.147,3.449,4.68-.783,5.121Z" transform="translate(-47.746 -49.751)" fill="#9b8c89"/>
            </g>
            <g id="Grupo_1177264" data-name="Grupo 1177264">
              <path id="Trazado_932997" data-name="Trazado 932997" d="M51.517,62.416c-1.226,0-2.256-1.2-3.027-2.271a7.8,7.8,0,0,1-1.672-6.165A8.123,8.123,0,0,1,50.272,49.1a.909.909,0,0,1,.483-.14c2.666-.009,4.925-.091,7.112-.263a.828.828,0,0,1,.817.371c.366.493,2.148,3.049,1.316,4.939a3.034,3.034,0,0,1-2.748,1.656c-1.328.136-2.117,1.932-2.815,3.514s-1.354,3.076-2.722,3.221a1.4,1.4,0,0,1-.2.014Zm-.467-11.6a6.158,6.158,0,0,0-2.416,3.537,6.037,6.037,0,0,0,1.358,4.7c1.066,1.474,1.52,1.5,1.529,1.5.32-.081.906-1.412,1.221-2.126.855-1.945,1.92-4.365,4.319-4.614h0c.476-.049,1.079-.185,1.242-.556.26-.592-.266-1.8-.826-2.678-1.989.141-4.054.218-6.427.232Z" transform="translate(-46.694 -48.685)" fill="#202328"/>
            </g>
          </g>
          <g id="Grupo_1177267" data-name="Grupo 1177267" transform="translate(7.78 55.157)">
            <g id="Grupo_1177266" data-name="Grupo 1177266">
              <path id="Trazado_932998" data-name="Trazado 932998" d="M14.891,71.025a2.8,2.8,0,0,0-2.062-2.718c.281,1.687.562,3.374.281,3.655S14.891,71.025,14.891,71.025Z" transform="translate(-12.829 -68.307)" fill="#e5d2c6"/>
            </g>
          </g>
          <g id="Grupo_1177269" data-name="Grupo 1177269" transform="translate(8.917 61.238)">
            <g id="Grupo_1177268" data-name="Grupo 1177268" transform="translate(0)">
              <path id="Trazado_932999" data-name="Trazado 932999" d="M15.045,77.06a.947.947,0,0,1-.926-.927.777.777,0,0,1,.278-.647.9.9,0,0,1,1.3,0,.841.841,0,0,1,.278.647.947.947,0,0,1-.928.927Z" transform="translate(-14.119 -75.208)" fill="#202328"/>
            </g>
          </g>
        </g>
      </g>
    </g>
  </g>
</svg>
