<svg xmlns="http://www.w3.org/2000/svg" width="85" height="85" viewBox="0 0 85 85">
  <g id="Grupo_1178792" data-name="Grupo 1178792" transform="translate(-64 -6445)">
    <rect id="Rectángulo_402033" data-name="Rectángulo 402033" width="85" height="85" rx="10" transform="translate(64 6445)" fill="#f3bc5b"/>
    <g id="Grupo_1178981" data-name="Grupo 1178981" transform="translate(78.309 6408.372)">
      <g id="Grupo_1178976" data-name="Grupo 1178976" transform="translate(7.929 69.761)">
        <path id="Trazado_937608" data-name="Trazado 937608" d="M428.034,170.948a9.5,9.5,0,0,1,8.2,7.883c1.509,7.373-5.09,3.443-6.273-1.372A46.953,46.953,0,0,0,428.034,170.948Z" transform="translate(-388.827 -170.948)" fill="#d8ad8f"/>
        <path id="Trazado_937609" data-name="Trazado 937609" d="M72,261.764l2.86,6.265.767-.853,2.185,2.83,2.149-8.243Z" transform="translate(-72.003 -251.763)" fill="#d8ad8f"/>
        <path id="Trazado_937610" data-name="Trazado 937610" d="M361.356,243.125V262.2a1.555,1.555,0,0,1-1.556,1.556h-1.926a1.555,1.555,0,0,1-1.556-1.556V243.125Z" transform="translate(-325.007 -235.177)" fill="#d8ad8f"/>
      </g>
      <path id="Trazado_937611" data-name="Trazado 937611" d="M323.18,316.338s1.015,5.76,8,4.642v-4.642Z" transform="translate(-287.591 -230.566)" fill="#ff8383"/>
      <path id="Trazado_937612" data-name="Trazado 937612" d="M167.278,241.7v19.075a1.556,1.556,0,0,1-1.556,1.556H163.8a1.556,1.556,0,0,1-1.556-1.556V241.7Z" transform="translate(-144.373 -164.151)" fill="#d8ad8f"/>
      <path id="Trazado_937613" data-name="Trazado 937613" d="M160.442,137.855a8.754,8.754,0,0,1-8.755,8.755H141.2a18.921,18.921,0,0,1-18.923-18.923v-.833l3.757-2.472c1.736.557,3.98,2.036,7.712,2.811a27.054,27.054,0,0,0,8.818.251,53.743,53.743,0,0,1,6.293-.435C156.824,127.011,160.442,129.852,160.442,137.855Z" transform="translate(-108.815 -59.75)" fill="#f9e8d4"/>
      <g id="Grupo_1178977" data-name="Grupo 1178977" transform="translate(13.465 64.633)">
        <path id="Trazado_937614" data-name="Trazado 937614" d="M185.478,181a8.754,8.754,0,0,1-8.755,8.755H166.24a18.938,18.938,0,0,1-15.825-8.543q.193.238.4.467a18.877,18.877,0,0,0,14.241,6.462h10.483a8.755,8.755,0,0,0,8.756-8.756,13.591,13.591,0,0,0-1.313-6.518C184.67,174.585,185.478,177.215,185.478,181Z" transform="translate(-147.317 -167.525)" fill="#efcdb1"/>
        <path id="Trazado_937615" data-name="Trazado 937615" d="M134.689,134.4c-.39,2.937-1.872,3.753-2.721,3.979a2.985,2.985,0,0,1-.757.1,4.252,4.252,0,0,1-3.079-1.6l-.277,1.139a7.316,7.316,0,0,1-.895,2.135,18.856,18.856,0,0,1-4.682-12.462v-.833l3.757-2.472c1.736.557,3.98,2.036,7.713,2.811.159.453.3.923.431,1.4A15.489,15.489,0,0,1,134.689,134.4Z" transform="translate(-122.279 -124.384)" fill="#efcdb1"/>
      </g>
      <g id="Grupo_1178978" data-name="Grupo 1178978" transform="translate(17.445 63.017)">
        <path id="Trazado_937616" data-name="Trazado 937616" d="M202.83,279.9v15.916a1.555,1.555,0,0,1-1.556,1.556h-1.926a1.555,1.555,0,0,1-1.556-1.556V278.825Z" transform="translate(-193.455 -260.202)" fill="#f9e8d4"/>
        <path id="Trazado_937617" data-name="Trazado 937617" d="M390.494,273.035v17.342a1.556,1.556,0,0,1-1.556,1.556h-1.926a1.556,1.556,0,0,1-1.556-1.556V275.449Z" transform="translate(-360.452 -255.049)" fill="#f9e8d4"/>
        <path id="Trazado_937618" data-name="Trazado 937618" d="M163.7,123.715c-.9.239-1.965-.543-2.908-1.963-.049-.073-.1-.149-.146-.227a14.952,14.952,0,0,1-1.683-4.025c-1.025-3.855-.564-7.322,1.028-7.746a1.653,1.653,0,0,1,1.292.263,4.794,4.794,0,0,1,1.206,1.13,13.644,13.644,0,0,1,2.238,4.82C165.749,119.824,165.289,123.292,163.7,123.715Z" transform="translate(-158.415 -109.712)" fill="#f9e8d4"/>
      </g>
      <path id="Trazado_937619" data-name="Trazado 937619" d="M162.5,114.685l-1.712,7.067c-.049-.073-.1-.149-.146-.227a14.952,14.952,0,0,1-1.683-4.025c-1.025-3.855-.564-7.322,1.028-7.746a1.653,1.653,0,0,1,1.292.263,4.794,4.794,0,0,1,1.206,1.13A7.334,7.334,0,0,1,162.5,114.685Z" transform="translate(-140.97 -46.694)" fill="#efcdb1"/>
      <path id="Trazado_937620" data-name="Trazado 937620" d="M13.739,116.98A11.81,11.81,0,0,1,11,122.653a2.011,2.011,0,0,1-1.774.709c-.954-.217-1.547-1.52-1.686-3.357a14.919,14.919,0,0,1,.379-4.346,16.385,16.385,0,0,1,.855-2.7c1.016-2.422,2.451-3.957,3.655-3.685a1.66,1.66,0,0,1,1.02.834C14.24,111.425,14.4,114.08,13.739,116.98Z" transform="translate(-6.684 -46.279)" fill="#f9e8d4"/>
      <path id="Trazado_937621" data-name="Trazado 937621" d="M23.684,110.11c.788,1.315.946,3.97.287,6.87a11.81,11.81,0,0,1-2.735,5.673l-1.169-4.826-.861-3.558a7.451,7.451,0,0,1-.2-1.308c1.016-2.422,2.451-3.957,3.655-3.685A1.661,1.661,0,0,1,23.684,110.11Z" transform="translate(-16.916 -46.279)" fill="#efcdb1"/>
      <path id="Trazado_937622" data-name="Trazado 937622" d="M50.188,94.681,47.7,104.956a5.672,5.672,0,0,1-11.024,0l-1.628-6.718-.861-3.557A5.666,5.666,0,0,1,39.7,87.674h4.978a5.667,5.667,0,0,1,5.512,7.007Z" transform="translate(-30.278 -27.083)" fill="#f9e8d4"/>
      <g id="Grupo_1178979" data-name="Grupo 1178979" transform="translate(3.927 60.591)">
        <path id="Trazado_937623" data-name="Trazado 937623" d="M41.416,92.556a4.816,4.816,0,0,1-2.461.69,5.015,5.015,0,0,1-2.6-.755,3.052,3.052,0,0,1-.693-.566,5.673,5.673,0,0,1,5.494-4.251H42.39l.405,1.257A3.081,3.081,0,0,1,41.416,92.556Z" transform="translate(-35.665 -87.674)" fill="#efcdb1"/>
        <path id="Trazado_937624" data-name="Trazado 937624" d="M119.024,91.648a3.116,3.116,0,0,1-.983.907,4.816,4.816,0,0,1-2.461.69,5.008,5.008,0,0,1-2.6-.755,3.076,3.076,0,0,1-1.342-3.6l.392-1.215h1.577A5.671,5.671,0,0,1,119.024,91.648Z" transform="translate(-103.139 -87.674)" fill="#efcdb1"/>
      </g>
      <g id="Grupo_1178980" data-name="Grupo 1178980" transform="translate(4.78 58.065)">
        <path id="Trazado_937625" data-name="Trazado 937625" d="M43.478,68.987l1.08-3.351a1.293,1.293,0,0,1,2.461,0l1.094,3.393a1.447,1.447,0,0,1-.643,1.693,3.138,3.138,0,0,1-3.373-.057A1.44,1.44,0,0,1,43.478,68.987Z" transform="translate(-43.407 -64.74)" fill="#b4732d"/>
        <path id="Trazado_937626" data-name="Trazado 937626" d="M126.58,68.987l1.08-3.351a1.293,1.293,0,0,1,2.461,0l1.094,3.393a1.447,1.447,0,0,1-.643,1.693,3.138,3.138,0,0,1-3.373-.057A1.44,1.44,0,0,1,126.58,68.987Z" transform="translate(-117.358 -64.74)" fill="#b4732d"/>
      </g>
      <path id="Trazado_937627" data-name="Trazado 937627" d="M32.389,86.035a18.137,18.137,0,0,1-4.742-.628V82.719a.826.826,0,0,0-1.652,0V98.634a.731.731,0,0,1-.73.73H23.337a.731.731,0,0,1-.73-.73V81.641a.826.826,0,1,0-1.652,0v.325a18.1,18.1,0,0,1-2.984-3.091,6.447,6.447,0,0,0,.254-.808l.7-2.88c1.059,1.718,2.307,2.7,3.484,2.7a2.068,2.068,0,0,0,.532-.069c.64-.17,1.495-.721,1.928-2.378a.826.826,0,1,0-1.6-.418c-.176.672-.458,1.12-.754,1.2-.562.149-1.883-.864-3-3.492l1.2-4.938a6.492,6.492,0,0,0,.009-3.008,12.391,12.391,0,0,1,2.234,4.7,15.818,15.818,0,0,1,.447,2.391.826.826,0,0,0,.82.739.846.846,0,0,0,.088,0,.826.826,0,0,0,.734-.908,17.475,17.475,0,0,0-.493-2.641c-.082-.308-.173-.614-.27-.916a24.9,24.9,0,0,0,5.628.613q1.02,0,2.085-.071a.826.826,0,0,0-.11-1.648,23.888,23.888,0,0,1-8.342-.792c-1.047-2.263-2.518-3.987-4.083-4.054l-.019-.023c-.007-.023-.012-.047-.019-.071l-1.094-3.393a2.119,2.119,0,0,0-4.033,0l-.341,1.057H9.518l-.341-1.057a2.086,2.086,0,0,0-2.016-1.469h0a2.087,2.087,0,0,0-2.016,1.468l-1.08,3.351a2.321,2.321,0,0,0-.109.6C2.478,63.679,1.117,66.187.432,69.2a14.647,14.647,0,0,0-.289,5.495c.307,1.806,1.1,2.942,2.219,3.2a2.1,2.1,0,0,0,.467.053A3.36,3.36,0,0,0,5.24,76.6l.355,1.465a6.468,6.468,0,0,0,2.284,3.575l2.159,4.728a.826.826,0,0,0,1.365.21l.105-.117,1.58,2.046a.826.826,0,0,0,1.453-.3l1.806-6.93a6.48,6.48,0,0,0,.694-.763c0,.01,0,.02,0,.03V96.627a2.385,2.385,0,0,0,2.382,2.382h1.563a2.386,2.386,0,0,0,2.352,2.006h1.927a2.385,2.385,0,0,0,2.382-2.382V87.113a19.807,19.807,0,0,0,4.742.574h3.032a7.083,7.083,0,0,0,.924,1.367,6.478,6.478,0,0,0,2.067,1.589v.31a.826.826,0,0,0,1.616.242,8.586,8.586,0,0,0,1.593.186v6.134h-.827a.731.731,0,0,1-.73-.73v-2.39a.826.826,0,0,0-1.652,0v2.39a2.385,2.385,0,0,0,2.382,2.382h.973A2.386,2.386,0,0,0,44,100.726H45.93a2.385,2.385,0,0,0,2.382-2.382V85.992a9.531,9.531,0,0,0,3.465-4.332,4.183,4.183,0,0,0,2.35.9,2.1,2.1,0,0,0,1.052-.267c1.159-.66,1.483-2.279.966-4.811a10.212,10.212,0,0,0-6.162-7.8,7.638,7.638,0,0,0-.607-.614c-2-1.8-4.959-2.633-9.329-2.633-1.406,0-2.959.085-4.745.26a.826.826,0,0,0,.161,1.644c1.733-.17,3.232-.253,4.584-.253,3.937,0,6.55.7,8.223,2.209a6.151,6.151,0,0,1,.583.6l0,0c1.323,1.569,1.944,3.887,1.944,7.2a7.877,7.877,0,0,1-2.489,5.771V81a.826.826,0,1,0-1.652,0V98.344a.731.731,0,0,1-.73.73H44a.731.731,0,0,1-.73-.73V83.417a.826.826,0,1,0-1.652,0v2.618ZM16.312,58.891a.446.446,0,0,1,.444.324l1.094,3.393a.625.625,0,0,1-.275.727,2.334,2.334,0,0,1-2.531-.053.617.617,0,0,1-.257-.716l1.08-3.351A.446.446,0,0,1,16.312,58.891ZM5.636,62.566l1.08-3.351a.467.467,0,0,1,.889,0L8.7,62.608a.625.625,0,0,1-.275.727,2.334,2.334,0,0,1-2.531-.053A.617.617,0,0,1,5.636,62.566ZM2.729,76.277c-.307-.07-.742-.6-.957-1.863a12.981,12.981,0,0,1,.271-4.852,15.344,15.344,0,0,1,.9-2.776,6.514,6.514,0,0,0,.161,1L4.73,74.5C3.924,75.847,3.139,76.371,2.729,76.277Zm4.471,1.4L4.711,67.4a4.839,4.839,0,0,1,.163-2.817c.055.04.111.078.17.113a4.218,4.218,0,0,0,2.177.635A4,4,0,0,0,9.26,64.76,2.259,2.259,0,0,0,10.271,62.1l-.221-.684h3.372l-.207.642a2.253,2.253,0,0,0,.98,2.64,4.218,4.218,0,0,0,2.177.635,4,4,0,0,0,2.039-.574,2.3,2.3,0,0,0,.465-.359,4.794,4.794,0,0,1,.232,3l-1.262,5.211,0,.014-1.223,5.05A4.865,4.865,0,0,1,15.077,80.2l-.022.019q-.073.062-.149.122A4.846,4.846,0,0,1,7.2,77.678Zm6.167,8.49-1.156-1.5a.826.826,0,0,0-1.189-.124l-.791-1.733c.082.022.165.043.249.061a6.486,6.486,0,0,0,3.824-.3Zm5.325,10.46V82.166a19.8,19.8,0,0,0,2.264,1.876V97.358H19.422A.731.731,0,0,1,18.691,96.628Zm18.673-8.941h4.257v2.038A5.283,5.283,0,0,1,37.364,87.686Zm17-6.832c-.314.179-1.142-.083-2.084-.906a9.708,9.708,0,0,0,.176-1.844,16.717,16.717,0,0,0-.782-5.456,9.009,9.009,0,0,1,2.855,5.16C54.952,79.9,54.623,80.706,54.361,80.855Z" transform="translate(0)"/>
      <path id="Trazado_937628" data-name="Trazado 937628" d="M73.183,174.666v-.1a.826.826,0,0,0-1.652,0v.1a.826.826,0,0,0,1.652,0Z" transform="translate(-63.654 -103.671)"/>
      <path id="Trazado_937629" data-name="Trazado 937629" d="M130.6,175.492a.826.826,0,0,0,.826-.826v-.1a.826.826,0,0,0-1.652,0v.1A.826.826,0,0,0,130.6,175.492Z" transform="translate(-115.481 -103.671)"/>
    </g>
  </g>
</svg>
