<svg xmlns="http://www.w3.org/2000/svg" width="114" height="114" viewBox="0 0 114 114">
  <g id="Grupo_1177676" data-name="Grupo 1177676" transform="translate(-1234.5 -458)">
    <g id="Elipse_12108" data-name="Elipse 12108" transform="translate(1241.5 465)" fill="#f3bc5b" stroke="rgba(255,255,255,0.4)" stroke-width="7">
      <circle cx="50" cy="50" r="50" stroke="none"/>
      <circle cx="50" cy="50" r="53.5" fill="none"/>
    </g>
    <g id="Grupo_1178860" data-name="Grupo 1178860" transform="translate(1267.101 490)">
      <path id="Trazado_937326" data-name="Trazado 937326" d="M46.8,8.786a5.259,5.259,0,0,0-.121-1.113l1.724-1.725a2.505,2.505,0,0,0-.4-3.863A6.57,6.57,0,0,0,44.467,1H38.652a8.2,8.2,0,0,0-8.2,8.2v.006a8.6,8.6,0,0,0-3.114,6.588v1.865c0,.261-.016.519-.04.776a8.459,8.459,0,0,1-2.767.473H16.077a7.364,7.364,0,0,0-4.32,1.394l-.526-.351a6.208,6.208,0,0,0-7.875.818A8.437,8.437,0,0,0,.867,26.776,8.539,8.539,0,0,0,1,28.3l.81,4.453A9.727,9.727,0,0,1,.949,38.8L.4,39.9l1.23.027.133,0a6,6,0,0,0,5.71-4.119l.03-.09a5.52,5.52,0,0,0,.254-2.383l-.234-2.081a6.07,6.07,0,0,1,1.135-4.235,17.2,17.2,0,0,0,.2,2.515l.025.161a13.565,13.565,0,0,1-.533,6.347l-.2.61A5.257,5.257,0,0,0,8.2,40.148,17.478,17.478,0,0,1,9.431,44.6,3.225,3.225,0,0,1,9.2,45.842a6.59,6.59,0,0,0-.546,2.53.9.9,0,0,0,.9.9h6.886A1.559,1.559,0,0,0,18,47.715V45.707a2.182,2.182,0,0,0-.229-.969,5.233,5.233,0,0,1-.55-2.329,5.171,5.171,0,0,1,1.525-3.682l1.01-1.01A7.344,7.344,0,0,0,21.2,35.641a41.323,41.323,0,0,0,5.581.395H27.9a7.2,7.2,0,0,1,.221,1.746v7.426a2.322,2.322,0,0,0-.779,1.728v.779A1.559,1.559,0,0,0,28.9,49.272H35.9a1.559,1.559,0,0,0,1.557-1.557v-.779a2.321,2.321,0,0,0-.775-1.725,22.643,22.643,0,0,1,1.088-6.95,26.723,26.723,0,0,0,1.242-8.271,11.932,11.932,0,0,0,1.526-5.039,12.182,12.182,0,0,0,3.089-7.008,4.469,4.469,0,0,0,3.771-.575l.171-.114a3.517,3.517,0,0,0,.954-4.91A8.984,8.984,0,0,1,46.8,8.786Zm.779-4.608a.939.939,0,0,1-.277.67l-1.27,1.271a3.937,3.937,0,0,0-.789-.856V2.63a5.25,5.25,0,0,1,1.919.763A.927.927,0,0,1,47.582,4.178ZM32.885,5.9a6.657,6.657,0,0,1,5.767-3.347h3.479l-1.051.788a3.9,3.9,0,0,0-3.62,3.884v.479a5.387,5.387,0,0,1-2.151,4.309,24.483,24.483,0,0,1,.548-2.949l.023-.093L34.37,8.6l-.024.093a26.071,26.071,0,0,0-.779,6.324,6.968,6.968,0,0,1-1.557,4.4V9.2A6.65,6.65,0,0,1,32.885,5.9ZM28.9,15.793A7.037,7.037,0,0,1,30.453,11.4v9.429a6.967,6.967,0,0,1-2.486,1.049,10.026,10.026,0,0,0,.929-4.222ZM26.56,23.579a8.574,8.574,0,0,0,8.564-8.564c0-.364.017-.727.033-1.091a6.93,6.93,0,0,0,3.859-6.216V7.229a2.339,2.339,0,0,1,2.336-2.336h.259l2.076-1.557V5.671l.011.47.409.22a2.644,2.644,0,0,1,1.138,2.424,5.877,5.877,0,0,0,.832,2.532,5.688,5.688,0,0,0-3.81,4.113L40.9,14.537a5.665,5.665,0,0,1-1.965-2.206l-1.393.7a7.227,7.227,0,0,0,2.505,2.813l.657.43a8.736,8.736,0,0,0-1.688,5.161v2.674c0,.076-.012.151-.014.227a10.655,10.655,0,0,1-7.559,3.139H28.226a4,4,0,0,1-3.33-6.223l.552-.828a9.975,9.975,0,0,0,1.514-.265,8.462,8.462,0,0,1-1.051,2.213L25.1,23.579Zm15.551-6.39a10.6,10.6,0,0,1-1.537,5.122v-.879a7.184,7.184,0,0,1,1.434-4.31ZM5.975,31.431l.234,2.083a3.974,3.974,0,0,1-.184,1.714l-.03.09a4.442,4.442,0,0,1-3.116,2.914,11.315,11.315,0,0,0,.467-5.761l-.81-4.453a7.023,7.023,0,0,1-.111-1.243A6.927,6.927,0,0,1,4.5,21.827a4.65,4.65,0,0,1,5.868-.582l.195.13A7.406,7.406,0,0,0,9.546,22.8H9.509A5.636,5.636,0,0,0,4,27.319l1.527.306a4.07,4.07,0,0,1,3.388-3.214c-.017.063-.032.126-.047.19A7.612,7.612,0,0,0,5.975,31.431ZM10.636,46.44c.038-.092.069-.188.1-.283h2.588v1.557H10.264a5.673,5.673,0,0,1,.372-1.275Zm4.246,1.275V46.157h1.557v1.557Zm3.77-11.1-1.01,1.01a6.72,6.72,0,0,0-1.981,4.784,6.8,6.8,0,0,0,.371,2.192H14.593a5.242,5.242,0,0,1-.491-2.192,5.171,5.171,0,0,1,1.525-3.682l1.01-1.01A7.267,7.267,0,0,0,18.3,35.141c.424.09.848.178,1.275.254A5.757,5.757,0,0,1,18.651,36.615Zm8.459-5.023-1.1,1.1a7.2,7.2,0,0,1,1.3,1.785h-.536a39.8,39.8,0,0,1-8.091-.847,7.158,7.158,0,0,0-1.138-5.119l-.463-.694-1.3.863.463.694a5.738,5.738,0,0,1-.717,7.239l-1.01,1.01a6.72,6.72,0,0,0-1.981,4.784,6.8,6.8,0,0,0,.371,2.192H10.988a18.815,18.815,0,0,0-1.328-5,3.66,3.66,0,0,1-.229-1.282,3.711,3.711,0,0,1,.191-1.173l.2-.61a15.14,15.14,0,0,0,.595-7.078L10.4,29.3a15.7,15.7,0,0,1-.185-2.4v-.564a5.868,5.868,0,0,1,5.867-5.869h7.479a5.551,5.551,0,0,0,4.671,8.564h3.218a12.165,12.165,0,0,0,7.262-2.408A10.373,10.373,0,0,1,35.891,31.5c.006-.3.012-.6.012-.918H34.346a21.649,21.649,0,0,1-1.178,7.6A20.615,20.615,0,0,0,32.026,44.6H29.674V37.782a8.692,8.692,0,0,0-2.564-6.189ZM28.9,47.715v-.779a.779.779,0,0,1,.779-.779H32.01a.779.779,0,0,1,.779.779v.779Zm7.007,0H34.346v-.779a2.309,2.309,0,0,0-.143-.779h.922a.779.779,0,0,1,.779.779Zm.373-9.882A24.41,24.41,0,0,0,35.14,44.6l-.016,0H33.583a19.024,19.024,0,0,1,1.07-5.945,22.508,22.508,0,0,0,1.106-4.979,11.938,11.938,0,0,0,1.61-1.44A25.722,25.722,0,0,1,36.276,37.832ZM46.708,15.959l-.171.114a2.983,2.983,0,0,1-2.834.237,4.036,4.036,0,0,1,3.208-3.589c.107.164.211.327.328.5a1.96,1.96,0,0,1-.53,2.74Z" transform="translate(0)" fill="#004e3d"/>
      <circle id="Elipse_13644" data-name="Elipse 13644" cx="0.779" cy="0.779" r="0.779" transform="translate(42.131 8.007)" fill="#004e3d"/>
    </g>
  </g>
</svg>
