<svg xmlns="http://www.w3.org/2000/svg" width="60" height="60" viewBox="0 0 60 60">
  <g id="Grupo_1177110" data-name="Grupo 1177110" transform="translate(-828.711 -31419.977)">
    <path id="Trazado_929556" data-name="Trazado 929556" d="M6.667,0H53.333A6.667,6.667,0,0,1,60,6.667V53.333A6.667,6.667,0,0,1,53.333,60H6.667A6.667,6.667,0,0,1,0,53.333V6.667A6.667,6.667,0,0,1,6.667,0Z" transform="translate(828.711 31419.977)" fill="#dae4e3"/>
    <g id="Grupo_1178940" data-name="Grupo 1178940" transform="translate(816.711 31380.051)">
      <path id="Trazado_937542" data-name="Trazado 937542" d="M75.851,64.776A1.851,1.851,0,1,0,74,62.925,1.853,1.853,0,0,0,75.851,64.776Zm0-2.468a.617.617,0,1,1-.617.617A.618.618,0,0,1,75.851,62.308Z" transform="translate(-43.979 -5.2)" fill="#004e3d"/>
      <path id="Trazado_937543" data-name="Trazado 937543" d="M48.384,96.117a.66.66,0,1,0-.66-.66A.66.66,0,0,0,48.384,96.117Z" transform="translate(-21.756 -33.721)" fill="#004e3d"/>
      <path id="Trazado_937544" data-name="Trazado 937544" d="M248.384,92.117a.66.66,0,1,0-.66-.66A.66.66,0,0,0,248.384,92.117Z" transform="translate(-190.904 -30.338)" fill="#004e3d"/>
      <path id="Trazado_937545" data-name="Trazado 937545" d="M58.96,137.117h1.913a.617.617,0,0,0,.617-.617V121.691a.617.617,0,0,0-.617-.617H34.341a.617.617,0,0,0-.617.617v9.3c-.22.176-.429.333-.59.442l-.644-.483v-6.787a.617.617,0,0,0-.617-.617h-.617v-1.234a.617.617,0,0,0-.812-.585l-5.553,1.851a.617.617,0,0,0-.378.356l-2.468,6.17a.621.621,0,0,0-.044.229v6.17a.617.617,0,0,0,.617.617h1.612a3.067,3.067,0,0,0,1.176,1.851H22.617a.617.617,0,1,0,0,1.234H60.873a.617.617,0,1,0,0-1.234h-3.1A3.082,3.082,0,0,0,58.96,137.117Zm0-1.234a3.057,3.057,0,0,0-.57-1.234h1.867v1.234Zm1.3-13.575v11.107H44.627a10.1,10.1,0,0,0-1.717-3.59.617.617,0,0,0-1.1.289,4.387,4.387,0,0,1-.986,2.045l-.583-2.221a.617.617,0,0,0-.937-.358l-1.044.691a14.7,14.7,0,0,0-.357-3.66.617.617,0,0,0-1.164-.108,21.86,21.86,0,0,1-1.784,3.2v-7.394h25.3Zm-15.5,12.341h3.787a3.057,3.057,0,0,0-.57,1.234H44.664A9.375,9.375,0,0,0,44.761,134.649Zm-.37,2.468h3.587a3.082,3.082,0,0,0,1.191,1.851H43.584A8.079,8.079,0,0,0,44.391,137.117ZM51,138.351a1.851,1.851,0,1,1,1.851-1.851A1.853,1.853,0,0,1,51,138.351Zm2.452-3.7h.032l-.016.019Zm-20.036-1.935a9.1,9.1,0,0,0,2.368-2.051A16.251,16.251,0,0,0,37,128.75a7.008,7.008,0,0,1-.156,2.623.617.617,0,0,0,.927.705l1.5-.994.642,2.444a.617.617,0,0,0,.985.323,6.974,6.974,0,0,0,1.72-2.213,6.37,6.37,0,0,1,.912,2.978,7.062,7.062,0,0,1-1.444,4.352H26.966a8.329,8.329,0,0,1,.516-2.384l.359.778a.617.617,0,0,0,.974.2,9.3,9.3,0,0,0,1.749-2.622,7.577,7.577,0,0,0,.842-3.262l1.33,1a.616.616,0,0,0,.68.039Zm-5.475,2.076a1.856,1.856,0,0,1,.879.743c-.1.154-.189.3-.272.416l-.434-.941A.611.611,0,0,0,27.942,134.79Zm2.08-11.248H28.887l1.134-.378ZM25.5,124.776H28.17v3.813l-4.557.912Zm-2.269,6.059,5.674-1.135a.617.617,0,0,0,.5-.6v-4.319h1.851v5.245l-.247-.185a.618.618,0,0,0-.957.684,5.452,5.452,0,0,1-.584,3.851,3.077,3.077,0,0,0-5.246,1.512h-.988Zm4.011,3.813a1.8,1.8,0,0,1,.2.014.616.616,0,0,0-.356.2,6.24,6.24,0,0,0-1.2,2.888,1.85,1.85,0,0,1,1.363-3.1Zm25.588,4.319a3.1,3.1,0,0,0,.636-.636,3.1,3.1,0,0,0,.636.636Zm3.1-.617a1.851,1.851,0,1,1,1.851-1.851A1.853,1.853,0,0,1,55.937,138.351Z" transform="translate(0 -55.944)" fill="#004e3d"/>
      <circle id="Elipse_13655" data-name="Elipse 13655" cx="0.617" cy="0.617" r="0.617" transform="translate(38.66 79.939)" fill="#004e3d"/>
      <path id="Trazado_937546" data-name="Trazado 937546" d="M91.851,208.776a1.853,1.853,0,0,0,1.851-1.851.617.617,0,0,0-1.234,0,.617.617,0,1,1-.617-.617.617.617,0,0,0,0-1.234,1.851,1.851,0,1,0,0,3.7Z" transform="translate(-57.51 -126.987)" fill="#004e3d"/>
      <path id="Trazado_937547" data-name="Trazado 937547" d="M54.617,182.308h.617a.617.617,0,1,0,0-1.234h-.617a.617.617,0,1,0,0,1.234Z" transform="translate(-27.064 -106.689)" fill="#004e3d"/>
      <path id="Trazado_937548" data-name="Trazado 937548" d="M170.617,57.033a.617.617,0,0,0,.617-.617v-.873a.617.617,0,1,0-1.234,0v.873A.617.617,0,0,0,170.617,57.033Z" transform="translate(-125.17 0)" fill="#004e3d"/>
      <path id="Trazado_937549" data-name="Trazado 937549" d="M170.617,79.67a.617.617,0,0,0,.617-.617V78.18a.617.617,0,1,0-1.234,0v.873A.617.617,0,0,0,170.617,79.67Z" transform="translate(-125.17 -19.145)" fill="#004e3d"/>
      <path id="Trazado_937550" data-name="Trazado 937550" d="M156.469,70.308h.873a.617.617,0,1,0,0-1.234h-.873a.617.617,0,1,0,0,1.234Z" transform="translate(-113.204 -11.966)" fill="#004e3d"/>
      <path id="Trazado_937551" data-name="Trazado 937551" d="M179.105,70.308h.873a.617.617,0,1,0,0-1.234h-.873a.617.617,0,1,0,0,1.234Z" transform="translate(-132.349 -11.966)" fill="#004e3d"/>
    </g>
  </g>
</svg>
