<svg xmlns="http://www.w3.org/2000/svg" width="100" height="100" viewBox="0 0 100 100">
  <g id="Grupo_1178478" data-name="Grupo 1178478" transform="translate(-637 -6992)">
    <g id="Grupo_1098742" data-name="Grupo 1098742" transform="translate(637.242 6992)">
      <rect id="Rectángulo_400898" data-name="Rectángulo 400898" width="100" height="100" rx="50" transform="translate(-0.242)" fill="#fff" opacity="0.859"/>
      <g id="Rectángulo_400907" data-name="Rectángulo 400907" transform="translate(-0.242)" fill="none" stroke="#f3bc5b" stroke-linecap="round" stroke-width="3" stroke-dasharray="0 7">
        <rect width="100" height="100" rx="50" stroke="none"/>
        <rect x="1.5" y="1.5" width="97" height="97" rx="48.5" fill="none"/>
      </g>
    </g>
    <g id="Grupo_1107006" data-name="Grupo 1107006" transform="translate(645.398 7000.157)">
      <rect id="Rectángulo_400898-2" data-name="Rectángulo 400898" width="84" height="84" rx="42" transform="translate(-0.399 -0.157)" fill="#004e3d" opacity="0.859"/>
      <rect id="Rectángulo_400907-2" data-name="Rectángulo 400907" width="84" height="84" rx="42" transform="translate(-0.398 -0.157)" fill="none"/>
    </g>
    <g id="Grupo_1178487" data-name="Grupo 1178487" transform="translate(652.573 7018.392)">
      <g id="Grupo_1178485" data-name="Grupo 1178485" transform="translate(12.611 0.692)">
        <g id="Grupo_1178484" data-name="Grupo 1178484" transform="translate(0)">
          <path id="Trazado_934226" data-name="Trazado 934226" d="M78.569,48.105v.241a4.987,4.987,0,0,0,4.987,4.987h28.2a4.987,4.987,0,0,0,4.987-4.987V12.488A4.987,4.987,0,0,0,111.76,7.5h-28.2a4.987,4.987,0,0,0-4.987,4.987V16.8" transform="translate(-73.114 -7.501)" fill="#f9f6f9"/>
          <path id="Trazado_934227" data-name="Trazado 934227" d="M81.078,48.346V12.488A4.987,4.987,0,0,1,86.065,7.5H83.557a4.987,4.987,0,0,0-4.987,4.987V48.346a4.987,4.987,0,0,0,4.987,4.987h2.508A4.987,4.987,0,0,1,81.078,48.346Z" transform="translate(-73.115 -7.501)" fill="#dddaec"/>
          <g id="Grupo_1178482" data-name="Grupo 1178482" transform="translate(0 4.824)">
            <path id="Trazado_934228" data-name="Trazado 934228" d="M24.874,62.57H23.04a.854.854,0,0,0,0,1.709h3.347a.855.855,0,0,0,.854-.854,1.383,1.383,0,1,1,2.767,0,3.625,3.625,0,0,1-3.621,3.621H23.04a3.621,3.621,0,0,1,0-7.242h1.834" transform="translate(-19.419 -59.803)" fill="#ffe07d"/>
            <path id="Trazado_934229" data-name="Trazado 934229" d="M24.874,165.714H23.04a.854.854,0,1,0,0,1.709h3.347a.855.855,0,0,0,.854-.854,1.383,1.383,0,1,1,2.767,0,3.625,3.625,0,0,1-3.621,3.621H23.04a3.621,3.621,0,1,1,0-7.242h1.834" transform="translate(-19.419 -153.434)" fill="#ffe07d"/>
            <path id="Trazado_934230" data-name="Trazado 934230" d="M24.874,268.858H23.04a.854.854,0,1,0,0,1.709h3.347a.855.855,0,0,0,.854-.854,1.383,1.383,0,1,1,2.767,0,3.625,3.625,0,0,1-3.621,3.621H23.04a3.621,3.621,0,0,1,0-7.242h1.834" transform="translate(-19.419 -247.065)" fill="#ffe07d"/>
            <path id="Trazado_934231" data-name="Trazado 934231" d="M24.874,372H23.04a.854.854,0,1,0,0,1.709h3.347a.855.855,0,0,0,.854-.854,1.383,1.383,0,1,1,2.767,0,3.625,3.625,0,0,1-3.621,3.621H23.04a3.621,3.621,0,0,1,0-7.242h1.834" transform="translate(-19.419 -340.696)" fill="#ffe07d"/>
          </g>
          <g id="Grupo_1178483" data-name="Grupo 1178483" transform="translate(0 4.824)">
            <path id="Trazado_934232" data-name="Trazado 934232" d="M20.941,372.86a3.625,3.625,0,0,0,3.621,3.62H23.04a3.62,3.62,0,0,1,0-7.241h1.522A3.625,3.625,0,0,0,20.941,372.86Z" transform="translate(-19.42 -340.701)" fill="#ffd064"/>
            <path id="Trazado_934233" data-name="Trazado 934233" d="M20.941,269.716a3.625,3.625,0,0,0,3.621,3.621H23.04a3.62,3.62,0,0,1,0-7.241h1.522A3.625,3.625,0,0,0,20.941,269.716Z" transform="translate(-19.42 -247.07)" fill="#ffd064"/>
            <path id="Trazado_934234" data-name="Trazado 934234" d="M20.941,166.572a3.625,3.625,0,0,0,3.621,3.62H23.04a3.62,3.62,0,0,1,0-7.241h1.522A3.625,3.625,0,0,0,20.941,166.572Z" transform="translate(-19.42 -153.439)" fill="#ffd064"/>
            <path id="Trazado_934235" data-name="Trazado 934235" d="M20.941,63.428a3.625,3.625,0,0,0,3.621,3.621H23.04a3.62,3.62,0,0,1,0-7.241h1.522A3.625,3.625,0,0,0,20.941,63.428Z" transform="translate(-19.42 -59.808)" fill="#ffd064"/>
          </g>
        </g>
      </g>
      <g id="Grupo_1178486" data-name="Grupo 1178486" transform="translate(11.919 0)">
        <path id="Trazado_934236" data-name="Trazado 934236" d="M51.257,0h-28.2a5.688,5.688,0,0,0-5.614,4.824H16.231a4.3,4.3,0,0,0-4,2.694.692.692,0,1,0,1.282.521,2.921,2.921,0,0,1,2.715-1.831h1.143V7.59H16.231a1.546,1.546,0,0,0,0,3.092h3.347a1.548,1.548,0,0,0,1.547-1.546.691.691,0,1,1,1.383,0,2.933,2.933,0,0,1-2.929,2.929H16.231a2.921,2.921,0,0,1-2.715-1.831.692.692,0,1,0-1.282.521,4.3,4.3,0,0,0,4,2.694h1.143v.887H16.232a4.313,4.313,0,1,0,0,8.625h1.143v.888H16.232a4.313,4.313,0,1,0,0,8.625h1.143v.888H16.232a4.313,4.313,0,1,0,0,8.625h1.162a5.685,5.685,0,0,0,5.659,5.227h28.2a5.685,5.685,0,0,0,5.679-5.679V5.679A5.685,5.685,0,0,0,51.257,0ZM16.069,9.137a.165.165,0,0,1,.162-.163h1.143V9.3H16.231A.164.164,0,0,1,16.069,9.137Zm.163,9.675a.163.163,0,0,1,0-.325h1.143v.325ZM13.3,18.649a2.932,2.932,0,0,1,2.929-2.929h1.143V17.1H16.232a1.546,1.546,0,0,0,0,3.092h3.347a1.548,1.548,0,0,0,1.546-1.546.692.692,0,0,1,1.383,0,2.932,2.932,0,0,1-2.929,2.929H16.232A2.933,2.933,0,0,1,13.3,18.649Zm2.929,9.676a.163.163,0,1,1,0-.325h1.143v.325ZM13.3,28.162a2.932,2.932,0,0,1,2.929-2.929h1.143v1.383H16.232a1.546,1.546,0,0,0,0,3.092h3.347a1.548,1.548,0,0,0,1.546-1.546.692.692,0,0,1,1.383,0,2.932,2.932,0,0,1-2.929,2.929H16.232A2.933,2.933,0,0,1,13.3,28.162Zm2.929,9.676a.163.163,0,0,1,0-.325h1.143v.325ZM13.3,37.675a2.932,2.932,0,0,1,2.929-2.929h1.143v1.383H16.232a1.546,1.546,0,1,0,0,3.092h3.347a1.548,1.548,0,0,0,1.546-1.546.692.692,0,0,1,1.383,0A2.932,2.932,0,0,1,19.579,40.6H16.232A2.933,2.933,0,0,1,13.3,37.675Zm42.25,3.861a4.3,4.3,0,0,1-4.3,4.3h-28.2a4.3,4.3,0,0,1-4.272-3.844h.8a4.317,4.317,0,0,0,4.313-4.313,2.075,2.075,0,0,0-4.15,0,.163.163,0,0,1-.163.163h-.821V32.475h.821a4.317,4.317,0,0,0,4.313-4.313,2.075,2.075,0,0,0-4.15,0,.163.163,0,0,1-.163.163h-.821V22.962h.821a4.317,4.317,0,0,0,4.313-4.313,2.075,2.075,0,0,0-4.15,0,.163.163,0,0,1-.163.163h-.821V13.449h.82a4.318,4.318,0,0,0,4.313-4.313,2.075,2.075,0,1,0-4.149,0,.165.165,0,0,1-.163.162h-.82V5.679a4.3,4.3,0,0,1,4.3-4.3h28.2a4.3,4.3,0,0,1,4.3,4.3V41.537Z" transform="translate(-11.919 0)"/>
        <path id="Trazado_934237" data-name="Trazado 934237" d="M214.432,129.078a.691.691,0,0,0,.893-.4l.254-.668h1.78l.251.666a.692.692,0,1,0,1.294-.488l-1.687-4.47-.007-.019a.792.792,0,0,0-.735-.492h0a.792.792,0,0,0-.735.494l-.006.016-1.7,4.47A.692.692,0,0,0,214.432,129.078Zm2.405-2.451h-.731l.367-.965Z" transform="translate(-195.349 -111.843)"/>
        <path id="Trazado_934238" data-name="Trazado 934238" d="M386.949,123.717l-.008-.019a.792.792,0,0,0-.735-.492h0a.792.792,0,0,0-.735.494l-.006.016-1.7,4.47a.692.692,0,1,0,1.293.492l.254-.668h1.78l.251.666a.692.692,0,0,0,1.294-.488Zm-1.112,2.909.367-.965.364.965Z" transform="translate(-349.426 -111.843)"/>
        <path id="Trazado_934239" data-name="Trazado 934239" d="M273.818,129.124a.692.692,0,0,0,.692-.692v-2.306l1.8,2.605a.749.749,0,0,0,.848.309.773.773,0,0,0,.53-.767l-.042-4.381a.692.692,0,0,0-.692-.685h-.007a.692.692,0,0,0-.685.7l.023,2.355-1.9-2.746a.692.692,0,0,0-1.261.393v4.525a.692.692,0,0,0,.692.692Z" transform="translate(-249.035 -111.844)"/>
        <path id="Trazado_934240" data-name="Trazado 934240" d="M144.658,128.583a.793.793,0,0,0,.753.541h0a.793.793,0,0,0,.751-.549l.007-.024.571-2,.378,1.979a.692.692,0,0,0,1.359-.26l-.846-4.425a.794.794,0,0,0-1.534-.087l-.007.024-.694,2.435-.72-2.441-.008-.024a.794.794,0,0,0-1.534.11l-.8,4.415a.692.692,0,0,0,1.361.246l.355-1.967.592,2.006.008.025Z" transform="translate(-130.303 -111.843)"/>
        <path id="Trazado_934241" data-name="Trazado 934241" d="M443.619,127.737l-.892,0V123.9a.692.692,0,0,0-1.383,0v4.53a.692.692,0,0,0,.575.682,3.984,3.984,0,0,0,.592.014l1.116,0a.692.692,0,1,0-.008-1.383Z" transform="translate(-401.737 -111.844)"/>
        <path id="Trazado_934242" data-name="Trazado 934242" d="M332.639,128.776a2.211,2.211,0,0,0,1.207.348h0a2.329,2.329,0,0,0,1.058-.245,2.047,2.047,0,0,0,1.235-1.864V123.9a.692.692,0,0,0-1.383,0v3.117c0,.193-.056.418-.474.628a.946.946,0,0,1-.435.1h0a.837.837,0,0,1-.464-.13c-.328-.209-.392-.376-.392-.592V123.9a.692.692,0,0,0-1.383,0v3.12A2.012,2.012,0,0,0,332.639,128.776Z" transform="translate(-302.123 -111.843)"/>
        <path id="Trazado_934243" data-name="Trazado 934243" d="M186.72,245.284H163.647a.692.692,0,1,0,0,1.383H186.72a.692.692,0,1,0,0-1.383Z" transform="translate(-149.025 -222.661)"/>
        <path id="Trazado_934244" data-name="Trazado 934244" d="M186.72,282.838H163.647a.692.692,0,1,0,0,1.383H186.72a.692.692,0,1,0,0-1.383Z" transform="translate(-149.025 -256.752)"/>
        <path id="Trazado_934245" data-name="Trazado 934245" d="M375.536,320.4h-3.889a.692.692,0,0,0,0,1.383h3.889a.692.692,0,0,0,0-1.383Z" transform="translate(-337.841 -290.846)"/>
        <path id="Trazado_934246" data-name="Trazado 934246" d="M163.648,321.779h16.417a.692.692,0,1,0,0-1.383H163.648a.692.692,0,1,0,0,1.383Z" transform="translate(-149.026 -290.846)"/>
        <path id="Trazado_934247" data-name="Trazado 934247" d="M186.72,357.946H163.647a.692.692,0,0,0,0,1.383H186.72a.692.692,0,0,0,0-1.383Z" transform="translate(-149.025 -324.933)"/>
        <path id="Trazado_934248" data-name="Trazado 934248" d="M186.72,395.5H163.647a.692.692,0,0,0,0,1.383H186.72a.692.692,0,0,0,0-1.383Z" transform="translate(-149.025 -359.023)"/>
      </g>
    </g>
  </g>
</svg>
