<svg xmlns="http://www.w3.org/2000/svg" width="114" height="114" viewBox="0 0 114 114">
  <g id="Grupo_1176191" data-name="Grupo 1176191" transform="translate(-1234.5 -458)">
    <g id="Elipse_12108" data-name="Elipse 12108" transform="translate(1241.5 465)" fill="#f3bc5b" stroke="rgba(255,255,255,0.4)" stroke-width="7">
      <circle cx="50" cy="50" r="50" stroke="none"/>
      <circle cx="50" cy="50" r="53.5" fill="none"/>
    </g>
    <path id="Trazado_933120" data-name="Trazado 933120" d="M82.829,5.184A3.708,3.708,0,0,0,80.125,4H55.356a.861.861,0,0,0-.861.861v6.673a.861.861,0,0,0,1.721,0V5.722H80.125a1.975,1.975,0,0,1,1.471.664l.011.011.073.073a2.422,2.422,0,0,1,.684,1.689v6.479a.861.861,0,0,0,.861.861H89.7a2.422,2.422,0,0,1,1.689.685l.073.073.011.011a1.973,1.973,0,0,1,.663,1.471v33.38l-2.152-.79a.861.861,0,0,0-.593,1.616L92.7,53.159a.861.861,0,0,0,1.157-.808V17.738a3.706,3.706,0,0,0-1.184-2.7Zm1.257,8.593v-4.9l4.9,4.9ZM59.6,52.926a.861.861,0,0,1-.861.861H55.356a.861.861,0,0,1-.861-.861V14.9a.861.861,0,0,1,1.721,0V52.066h2.527A.861.861,0,0,1,59.6,52.926Zm1.609-24.032a.861.861,0,0,1,.861-.861H86.283a.861.861,0,1,1,0,1.721H62.074a.861.861,0,0,1-.861-.861Zm0-11.331a.861.861,0,0,1,.861-.861H75.515a.861.861,0,1,1,0,1.721H62.074A.861.861,0,0,1,61.213,17.563Zm0,5.665a.861.861,0,0,1,.861-.861H86.283a.861.861,0,1,1,0,1.721H62.074a.861.861,0,0,1-.861-.861Zm0-11.331a.861.861,0,0,1,.861-.861H75.515a.861.861,0,1,1,0,1.721H62.074A.861.861,0,0,1,61.213,11.9ZM87.064,38.964l-2.728-.7a28.833,28.833,0,0,1-7.394-2.848h9.341a.861.861,0,1,0,0-1.721H62.074a.861.861,0,0,0,0,1.721h9.341a28.837,28.837,0,0,1-7.394,2.848l-2.728.7a.861.861,0,0,0-.648.834V51.487a10.322,10.322,0,0,0,.922,4.313.861.861,0,0,0,1.392.252l5.4-5.4,5.39,3.08a.861.861,0,0,0,1.053-.157L79.7,48.385l6.788,2.491-5.642-1.512A.861.861,0,0,0,80,49.6l-6.432,6.737-4.611-3.781a.861.861,0,0,0-1.241.158L63.83,58.032a.861.861,0,0,0,.079,1.108,33.03,33.03,0,0,0,6.843,4.913c.375.223.745.443,1.106.661l1.875,1.133a.86.86,0,0,0,.891,0L76.5,64.715c.361-.218.731-.438,1.107-.662,3.155-1.876,6.731-4,8.653-7.239A10.264,10.264,0,0,0,87.7,51.895a.861.861,0,0,0-.637-.863l-.309-.083a.861.861,0,0,0,.954-.856V39.8a.861.861,0,0,0-.648-.834Zm-18.5,15.5,4.524,3.71a.861.861,0,0,0,1.168-.071l6.63-6.945,2.353.631a5.776,5.776,0,0,1-.819,2.747c-1.366,2.3-4.558,4.186-7.123,5.7-.386.228-.758.448-1.11.661l-.014.008-.013-.008c-.352-.213-.724-.433-1.11-.661a31.06,31.06,0,0,1-5.763-4.026l1.276-1.747Zm16.21,1.469C83.08,58.8,79.7,60.8,76.726,62.574c-.379.226-.753.448-1.118.668l-1.429.864-1.43-.864c-.364-.22-.738-.442-1.117-.668a34.916,34.916,0,0,1-5.971-4.128l.606-.829a33.609,33.609,0,0,0,5.913,4.1c.38.225.748.442,1.095.652l.459.277a.86.86,0,0,0,.89,0l.459-.277c.347-.21.715-.427,1.1-.652,2.734-1.615,6.136-3.625,7.728-6.3a7.543,7.543,0,0,0,1.034-3.172l.994.266a8.539,8.539,0,0,1-1.155,3.424Zm-5.944-9.144L74.017,51.9l-5.372-3.07a.861.861,0,0,0-1.036.139L65.1,51.474V42.593l.02-.005a31.771,31.771,0,0,0,9.042-3.621l.014-.009.014.009a31.777,31.777,0,0,0,9.042,3.621l.02.005v5.264l-3.5-1.283a.861.861,0,0,0-.923.218Zm7.155,2.07-1.015-.373V41.924a.861.861,0,0,0-.648-.834l-.667-.17A30.113,30.113,0,0,1,75.1,37.507l-.47-.293a.861.861,0,0,0-.912,0l-.47.293A30.1,30.1,0,0,1,64.7,40.92l-.668.17a.861.861,0,0,0-.648.834v9.563a7.936,7.936,0,0,0,.151,1.556l-.841.841a8.783,8.783,0,0,1-.326-2.4V40.467l2.08-.531a29.535,29.535,0,0,0,8.269-3.291l1.463-.914,1.463.914a29.539,29.539,0,0,0,8.269,3.291l2.08.531v8.394Zm18.042-3.133a.828.828,0,0,0,.012-.09c0-.011,0-.021,0-.032s0-.029,0-.044V22.913a3.784,3.784,0,1,0-7.568,0V36.8a.861.861,0,1,0,1.721,0V30.2h4.125V44.7H98.2V40.169a.861.861,0,0,0-1.721,0v5.393c0,.014,0,.028,0,.043s0,.023,0,.034c0,.028.006.056.012.084v.009a.838.838,0,0,0,.025.095v0l2.638,8.063a1.16,1.16,0,0,0,2.206,0l2.638-8.064v0a.866.866,0,0,0,.025-.1v0Zm-3.768-24.877a2.065,2.065,0,0,1,2.062,2.062v1.5H98.2v-1.5a2.065,2.065,0,0,1,2.062-2.062ZM98.2,28.48V26.137h4.125V28.48Zm2.062,23.249-1.736-5.306H102Z" transform="translate(1212.349 479.747)" fill="#004e3d"/>
  </g>
</svg>
