<svg xmlns="http://www.w3.org/2000/svg" width="72" height="72" viewBox="0 0 72 72">
  <g id="Grupo_1114452" data-name="Grupo 1114452" transform="translate(-704.668 -6155)">
    <path id="Trazado_925100" data-name="Trazado 925100" d="M8,0H64a8,8,0,0,1,8,8V64a8,8,0,0,1-8,8H8a8,8,0,0,1-8-8V8A8,8,0,0,1,8,0Z" transform="translate(704.668 6155)" fill="#b2c9c4"/>
    <g id="Grupo_1174966" data-name="Grupo 1174966" transform="translate(714.546 6105.605)">
      <path id="Trazado_928098" data-name="Trazado 928098" d="M352.868,188.247l-4.024-8.163-1.476-2.953A2.041,2.041,0,0,0,345.542,176h-9.555V196.41h14.9a2.04,2.04,0,0,0,2.041-2.041v-5.641A2.065,2.065,0,0,0,352.868,188.247Z" transform="translate(-301.703 -98.771)" fill="#85e374"/>
      <g id="Grupo_1174964" data-name="Grupo 1174964" transform="translate(38.365 81.313)">
        <path id="Trazado_928099" data-name="Trazado 928099" d="M388.784,224.165h-12.8V216h8.775l3.866,7.732A2.073,2.073,0,0,1,388.784,224.165Z" transform="translate(-375.985 -216.002)" fill="#57555c"/>
        <path id="Trazado_928100" data-name="Trazado 928100" d="M392.084,340.078a5.017,5.017,0,0,1,.1,1.02,5.1,5.1,0,1,1-10.2,0,5.015,5.015,0,0,1,.1-1.02,5.1,5.1,0,0,1,10,0Z" transform="translate(-381.372 -323.753)" fill="#57555c"/>
      </g>
      <path id="Trazado_928101" data-name="Trazado 928101" d="M41.223,76.008H12.041A2.04,2.04,0,0,0,10,78.049v26.529a2.04,2.04,0,0,0,2.041,2.041H43.263V78.049A2.04,2.04,0,0,0,41.223,76.008Z" transform="translate(-8.98 -8.98)" fill="#f0e6de"/>
      <g id="Grupo_1174965" data-name="Grupo 1174965" transform="translate(0.858 89.349)">
        <path id="Trazado_928102" data-name="Trazado 928102" d="M80.1,340.078a5.016,5.016,0,0,1,.1,1.02,5.1,5.1,0,1,1-10.2,0,5.017,5.017,0,0,1,.1-1.02,5.1,5.1,0,0,1,10,0Z" transform="translate(-63.712 -331.789)" fill="#57555c"/>
        <rect id="Rectángulo_453446" data-name="Rectángulo 453446" width="4.288" height="4.288" transform="translate(0 0)" fill="#57555c"/>
      </g>
      <path id="Trazado_928103" data-name="Trazado 928103" d="M101.015,128.046a1.02,1.02,0,1,0-1.02-1.02A1.021,1.021,0,0,0,101.015,128.046Z" transform="translate(-89.792 -53.875)"/>
      <path id="Trazado_928104" data-name="Trazado 928104" d="M48.053,80.857,46.576,77.9a3.045,3.045,0,0,0-2.738-1.693H35.3V69.069a3.065,3.065,0,0,0-3.061-3.061H3.061A3.064,3.064,0,0,0,0,69.069V95.6a3.065,3.065,0,0,0,3.061,3.061H6.122a6.1,6.1,0,0,0,1.564,4.081H1.02a1.02,1.02,0,0,0,0,2.041h50.2a1.02,1.02,0,1,0,0-2.041H48.637A6.1,6.1,0,0,0,50.2,98.659c0-.058,0-.116,0-.174A3.066,3.066,0,0,0,52.242,95.6V89.958C52.242,88.767,52.478,89.879,48.053,80.857ZM46.51,82.334l3.061,6.122H39.386V82.334Zm-6.989,20.407H16.8a6.1,6.1,0,0,0,1.564-4.081H37.957A6.1,6.1,0,0,0,39.521,102.741ZM2.041,90.5H4.081v2.041H2.041Zm1.02,6.122a1.022,1.022,0,0,1-1.02-1.02v-1.02H5.1a1.02,1.02,0,0,0,1.02-1.02V89.476a1.02,1.02,0,0,0-1.02-1.02H2.041V69.069a1.022,1.022,0,0,1,1.02-1.02H32.243a1.022,1.022,0,0,1,1.02,1.02V96.619H18.016a6.122,6.122,0,0,0-11.544,0Zm5.1,2.041a4.028,4.028,0,0,1,.083-.818,4.081,4.081,0,0,1,8,0v0a4.012,4.012,0,0,1,.082.813,4.081,4.081,0,0,1-8.163,0Zm31.835,0a4.028,4.028,0,0,1,.083-.818,4.081,4.081,0,0,1,8,0v0a4.012,4.012,0,0,1,.082.813,4.081,4.081,0,0,1-8.163,0Zm9.781-2.236a6.122,6.122,0,0,0-11.471.195h-3V78.252h8.534a1.015,1.015,0,0,1,.913.564l.738,1.476H38.365a1.02,1.02,0,0,0-1.02,1.02v8.163a1.02,1.02,0,0,0,1.02,1.02H50.2v5.1A1.019,1.019,0,0,1,49.778,96.424Z"/>
      <path id="Trazado_928105" data-name="Trazado 928105" d="M141.014,128.046h12.856a1.02,1.02,0,0,0,0-2.041H141.014a1.02,1.02,0,1,0,0,2.041Z" transform="translate(-125.709 -53.875)"/>
      <path id="Trazado_928106" data-name="Trazado 928106" d="M189.788,166h-8.775a1.02,1.02,0,0,0,0,2.041h8.775a1.02,1.02,0,0,0,0-2.041Z" transform="translate(-161.627 -89.792)"/>
      <path id="Trazado_928107" data-name="Trazado 928107" d="M414.024,366a2.041,2.041,0,1,0,2.041,2.041A2.043,2.043,0,0,0,414.024,366Z" transform="translate(-369.945 -269.377)"/>
      <path id="Trazado_928108" data-name="Trazado 928108" d="M102.037,366a2.041,2.041,0,1,0,2.041,2.041A2.043,2.043,0,0,0,102.037,366Z" transform="translate(-89.792 -269.377)"/>
    </g>
  </g>
</svg>
