<svg xmlns="http://www.w3.org/2000/svg" width="90" height="120.994" viewBox="0 0 90 120.994">
  <g id="Grupo_1176264" data-name="Grupo 1176264" transform="translate(-704.668 -6142)">
    <path id="Trazado_925100" data-name="Trazado 925100" d="M10,0H80c5.523,0,10,6.019,10,13.444v94.106c0,7.425-4.477,13.444-10,13.444H10c-5.523,0-10-6.019-10-13.444V13.444C0,6.019,4.477,0,10,0Z" transform="translate(704.668 6142)" fill="#b2be91"/>
    <g id="Grupo_1179005" data-name="Grupo 1179005" transform="translate(722.668 6174.975)">
      <g id="Grupo_1178982" data-name="Grupo 1178982" transform="translate(45.607 40.206)">
        <path id="Trazado_937630" data-name="Trazado 937630" d="M432.243,381.693h-5.956A1.291,1.291,0,0,1,425,380.4v-4.65a1.291,1.291,0,0,1,1.288-1.288h5.956a1.291,1.291,0,0,1,1.288,1.288v4.65A1.291,1.291,0,0,1,432.243,381.693Z" transform="translate(-425 -374.467)" fill="#80e0b7"/>
      </g>
      <g id="Grupo_1178983" data-name="Grupo 1178983" transform="translate(45.607 28.828)">
        <path id="Trazado_937631" data-name="Trazado 937631" d="M432.243,275.658h-5.956A1.291,1.291,0,0,1,425,274.371v-4.65a1.291,1.291,0,0,1,1.288-1.288h5.956a1.291,1.291,0,0,1,1.288,1.288v4.65A1.291,1.291,0,0,1,432.243,275.658Z" transform="translate(-425 -268.433)" fill="#a4e7ff"/>
      </g>
      <g id="Grupo_1178984" data-name="Grupo 1178984" transform="translate(45.607 17.413)">
        <path id="Trazado_937632" data-name="Trazado 937632" d="M432.243,169.284h-5.956A1.291,1.291,0,0,1,425,168v-4.65a1.291,1.291,0,0,1,1.288-1.288h5.956a1.291,1.291,0,0,1,1.288,1.288V168A1.291,1.291,0,0,1,432.243,169.284Z" transform="translate(-425 -162.058)" fill="#fd7a6e"/>
      </g>
      <g id="Grupo_1178985" data-name="Grupo 1178985" transform="translate(45.607 17.413)">
        <path id="Trazado_937633" data-name="Trazado 937633" d="M430.866,162.058h-4.579A1.291,1.291,0,0,0,425,163.346V168a1.291,1.291,0,0,0,1.288,1.288h4.579Z" transform="translate(-425 -162.058)" fill="#f85647"/>
      </g>
      <g id="Grupo_1178986" data-name="Grupo 1178986" transform="translate(45.607 28.828)">
        <path id="Trazado_937634" data-name="Trazado 937634" d="M430.866,268.433h-4.579A1.291,1.291,0,0,0,425,269.721v4.65a1.291,1.291,0,0,0,1.288,1.288h4.579Z" transform="translate(-425 -268.433)" fill="#5ad6ff"/>
      </g>
      <g id="Grupo_1178987" data-name="Grupo 1178987" transform="translate(45.607 40.206)">
        <path id="Trazado_937635" data-name="Trazado 937635" d="M430.866,374.467h-4.579A1.291,1.291,0,0,0,425,375.755v4.65a1.291,1.291,0,0,0,1.288,1.288h4.579Z" transform="translate(-425 -374.467)" fill="#36d49b"/>
      </g>
      <g id="Grupo_1178988" data-name="Grupo 1178988" transform="translate(4.946 0.83)">
        <path id="Trazado_937636" data-name="Trazado 937636" d="M83.966,60.853h-32a5.889,5.889,0,0,1-5.872-5.872V13.4a5.889,5.889,0,0,1,5.872-5.872h32A5.889,5.889,0,0,1,89.837,13.4V54.981a5.889,5.889,0,0,1-5.872,5.872Z" transform="translate(-46.089 -7.525)" fill="#bd9cde"/>
      </g>
      <g id="Grupo_1178989" data-name="Grupo 1178989" transform="translate(4.946 0.83)">
        <path id="Trazado_937637" data-name="Trazado 937637" d="M57.81,54.981V13.4a5.889,5.889,0,0,1,5.872-5.872H51.961A5.889,5.889,0,0,0,46.089,13.4V54.981a5.889,5.889,0,0,0,5.872,5.872H63.682a5.889,5.889,0,0,1-5.872-5.872Z" transform="translate(-46.089 -7.525)" fill="#a57cd2"/>
      </g>
      <g id="Grupo_1178990" data-name="Grupo 1178990" transform="translate(0.805 9.822)">
        <path id="Trazado_937638" data-name="Trazado 937638" d="M16.862,93.293a1.978,1.978,0,0,1-1.973,1.973H9.473a1.973,1.973,0,1,1,0-3.945h5.417a1.978,1.978,0,0,1,1.973,1.973Z" transform="translate(-7.5 -91.32)" fill="#d9d9d9"/>
      </g>
      <g id="Grupo_1178991" data-name="Grupo 1178991" transform="translate(0.805 9.822)">
        <path id="Trazado_937639" data-name="Trazado 937639" d="M11.792,93.293a1.978,1.978,0,0,1,1.973-1.973H9.473a1.973,1.973,0,1,0,0,3.945h4.292A1.978,1.978,0,0,1,11.792,93.293Z" transform="translate(-7.5 -91.32)" fill="#c6c6c6"/>
      </g>
      <g id="Grupo_1178992" data-name="Grupo 1178992" transform="translate(0.805 41.22)">
        <path id="Trazado_937640" data-name="Trazado 937640" d="M16.862,385.889a1.978,1.978,0,0,1-1.973,1.973H9.473a1.973,1.973,0,1,1,0-3.945h5.417a1.978,1.978,0,0,1,1.973,1.973Z" transform="translate(-7.5 -383.916)" fill="#d9d9d9"/>
      </g>
      <g id="Grupo_1178993" data-name="Grupo 1178993" transform="translate(0.805 30.754)">
        <path id="Trazado_937641" data-name="Trazado 937641" d="M16.862,288.357a1.978,1.978,0,0,1-1.973,1.973H9.473a1.973,1.973,0,0,1,0-3.945h5.417a1.978,1.978,0,0,1,1.973,1.973Z" transform="translate(-7.5 -286.384)" fill="#d9d9d9"/>
      </g>
      <g id="Grupo_1178994" data-name="Grupo 1178994" transform="translate(0.805 20.288)">
        <path id="Trazado_937642" data-name="Trazado 937642" d="M16.862,190.825a1.978,1.978,0,0,1-1.973,1.973H9.473a1.973,1.973,0,0,1,0-3.945h5.417a1.978,1.978,0,0,1,1.973,1.973Z" transform="translate(-7.5 -188.852)" fill="#d9d9d9"/>
      </g>
      <g id="Grupo_1178995" data-name="Grupo 1178995" transform="translate(15.082 40.394)">
        <path id="Trazado_937643" data-name="Trazado 937643" d="M162.856,383.282H142.9a2.368,2.368,0,0,1-2.361-2.361v-2.342a2.368,2.368,0,0,1,2.361-2.361h19.953a2.368,2.368,0,0,1,2.361,2.361v2.342A2.368,2.368,0,0,1,162.856,383.282Z" transform="translate(-140.542 -376.217)" fill="#f0f0f0"/>
      </g>
      <g id="Grupo_1178996" data-name="Grupo 1178996" transform="translate(15.86 6.817)">
        <circle id="Elipse_13658" data-name="Elipse 13658" cx="11.56" cy="11.56" r="11.56" fill="#f0f0f0"/>
      </g>
      <g id="Grupo_1178997" data-name="Grupo 1178997" transform="translate(15.86 6.817)">
        <path id="Trazado_937644" data-name="Trazado 937644" d="M154.231,74.875c0-9.287,5.121-11.56,5.121-11.56a11.56,11.56,0,0,0,0,23.119S154.231,84.161,154.231,74.875Z" transform="translate(-147.792 -63.315)" fill="#d9d9d9"/>
      </g>
      <g id="Grupo_1178998" data-name="Grupo 1178998" transform="translate(15.082 40.394)">
        <path id="Trazado_937645" data-name="Trazado 937645" d="M147.708,380.92v-2.342a2.368,2.368,0,0,1,2.361-2.361H142.9a2.368,2.368,0,0,0-2.361,2.361v2.342a2.368,2.368,0,0,0,2.361,2.361h7.166A2.368,2.368,0,0,1,147.708,380.92Z" transform="translate(-140.542 -376.217)" fill="#d9d9d9"/>
      </g>
      <g id="Grupo_1178999" data-name="Grupo 1178999" transform="translate(20.676 12.102)">
        <path id="Trazado_937646" data-name="Trazado 937646" d="M193.156,123.621l.813.627a4.171,4.171,0,0,0,4.554.357,15.719,15.719,0,0,0,6.215-6.1,4.17,4.17,0,0,0-.341-4.584l-.671-.87a1.232,1.232,0,0,0-1.846-.119l-1.03,1.03a2.135,2.135,0,0,0,0,3.019l.186.186a.891.891,0,0,1,.124,1.109,10.2,10.2,0,0,1-2.7,2.783.9.9,0,0,1-1.153-.094l-.219-.219a2.135,2.135,0,0,0-3.019,0l-1.03,1.03A1.232,1.232,0,0,0,193.156,123.621Z" transform="translate(-192.677 -112.571)" fill="#6b7d8e"/>
      </g>
      <g id="Grupo_1179000" data-name="Grupo 1179000" transform="translate(20.676 20.037)">
        <path id="Trazado_937647" data-name="Trazado 937647" d="M193.156,189.626l.813.627a4.17,4.17,0,0,0,1.241.657,17.258,17.258,0,0,1-.854-4.4,2.137,2.137,0,0,0-.289.24l-1.03,1.03A1.232,1.232,0,0,0,193.156,189.626Z" transform="translate(-192.677 -186.51)" fill="#5f7080"/>
      </g>
      <g id="Grupo_1179001" data-name="Grupo 1179001" transform="translate(0.805 20.288)">
        <path id="Trazado_937648" data-name="Trazado 937648" d="M11.792,190.825a1.978,1.978,0,0,1,1.973-1.973H9.473a1.973,1.973,0,0,0,0,3.945h4.292A1.978,1.978,0,0,1,11.792,190.825Z" transform="translate(-7.5 -188.852)" fill="#c6c6c6"/>
      </g>
      <g id="Grupo_1179002" data-name="Grupo 1179002" transform="translate(0.805 30.754)">
        <path id="Trazado_937649" data-name="Trazado 937649" d="M11.792,288.357a1.978,1.978,0,0,1,1.973-1.973H9.473a1.973,1.973,0,0,0,0,3.945h4.292A1.978,1.978,0,0,1,11.792,288.357Z" transform="translate(-7.5 -286.384)" fill="#c6c6c6"/>
      </g>
      <g id="Grupo_1179003" data-name="Grupo 1179003" transform="translate(0.805 41.22)">
        <path id="Trazado_937650" data-name="Trazado 937650" d="M11.792,385.889a1.978,1.978,0,0,1,1.973-1.973H9.473a1.973,1.973,0,1,0,0,3.945h4.292A1.978,1.978,0,0,1,11.792,385.889Z" transform="translate(-7.5 -383.916)" fill="#c6c6c6"/>
      </g>
      <g id="Grupo_1179004" data-name="Grupo 1179004" transform="translate(0 0.025)">
        <path id="Trazado_937651" data-name="Trazado 937651" d="M52.85,25.443a2.1,2.1,0,0,0,2.093-2.093V18.7a2.1,2.1,0,0,0-2.093-2.093H49.5V6.7A6.684,6.684,0,0,0,42.822.025h-32A6.684,6.684,0,0,0,4.141,6.7V9.017H2.777a2.777,2.777,0,0,0,0,5.555H4.141v4.911H2.777a2.777,2.777,0,1,0,0,5.555H4.141v4.911H2.777a2.777,2.777,0,1,0,0,5.555H4.141v4.911H2.777a2.777,2.777,0,1,0,0,5.555H4.141v2.315a6.684,6.684,0,0,0,6.677,6.677h32A6.684,6.684,0,0,0,49.5,48.286v-.049H52.85a2.1,2.1,0,0,0,2.093-2.093v-4.65A2.1,2.1,0,0,0,52.85,39.4H49.5V36.858H52.85a2.1,2.1,0,0,0,2.093-2.093v-4.65a2.1,2.1,0,0,0-2.093-2.093H49.5v-2.58Zm0-7.226a.489.489,0,0,1,.483.483v4.65a.489.489,0,0,1-.483.483H49.5V18.218ZM1.61,11.794a1.169,1.169,0,0,1,1.168-1.168H8.194a1.168,1.168,0,0,1,0,2.335H2.777A1.169,1.169,0,0,1,1.61,11.794Zm0,10.466a1.169,1.169,0,0,1,1.168-1.168H8.194a1.168,1.168,0,0,1,0,2.335H2.777A1.169,1.169,0,0,1,1.61,22.261Zm0,10.466a1.169,1.169,0,0,1,1.168-1.168H8.194a1.168,1.168,0,1,1,0,2.335H2.777A1.169,1.169,0,0,1,1.61,32.727Zm0,10.466a1.169,1.169,0,0,1,1.168-1.168H8.194a1.168,1.168,0,1,1,0,2.335H2.777A1.169,1.169,0,0,1,1.61,43.193Zm46.28,5.093a5.073,5.073,0,0,1-5.067,5.067h-32a5.073,5.073,0,0,1-5.067-5.067V45.97H8.194a2.777,2.777,0,1,0,0-5.555H5.751V35.5H8.194a2.777,2.777,0,1,0,0-5.555H5.751V25.038H8.194a2.777,2.777,0,1,0,0-5.555H5.751V14.572H8.194a2.777,2.777,0,1,0,0-5.554H5.751V6.7a5.073,5.073,0,0,1,5.067-5.067h32A5.073,5.073,0,0,1,47.889,6.7V48.286Zm4.961-7.275a.489.489,0,0,1,.483.483v4.65a.489.489,0,0,1-.483.483H49.5V41.011Zm0-11.379a.489.489,0,0,1,.483.483v4.65a.489.489,0,0,1-.483.483H49.5V29.633Z" transform="translate(0 -0.025)"/>
        <path id="Trazado_937652" data-name="Trazado 937652" d="M156.161,368.717H136.208a3.17,3.17,0,0,0-3.166,3.166v2.342a3.17,3.17,0,0,0,3.166,3.166h13.54a.8.8,0,0,0,0-1.61h-13.54a1.558,1.558,0,0,1-1.556-1.556v-2.342a1.558,1.558,0,0,1,1.556-1.556h19.953a1.558,1.558,0,0,1,1.556,1.556v2.342a1.558,1.558,0,0,1-1.556,1.556h-3.193a.8.8,0,1,0,0,1.61h3.193a3.17,3.17,0,0,0,3.166-3.166v-2.342A3.17,3.17,0,0,0,156.161,368.717Z" transform="translate(-118.765 -329.153)"/>
        <path id="Trazado_937653" data-name="Trazado 937653" d="M143.914,75.786a.8.8,0,0,0,.157-1.127,10.659,10.659,0,0,1-2.17-6.479,10.753,10.753,0,1,1,4.3,8.6.8.8,0,1,0-.967,1.287,12.362,12.362,0,1,0-2.446-2.439A.805.805,0,0,0,143.914,75.786Z" transform="translate(-125.237 -49.828)"/>
        <path id="Trazado_937654" data-name="Trazado 937654" d="M191.3,113.709a.091.091,0,0,1-.117-.007l-.219-.219a2.943,2.943,0,0,0-4.157,0l-1.03,1.03a2.037,2.037,0,0,0,.2,3.053h0l.813.627a4.973,4.973,0,0,0,5.433.426,16.568,16.568,0,0,0,6.53-6.414,4.968,4.968,0,0,0-.406-5.469l-.671-.87a2.037,2.037,0,0,0-3.053-.2l-1.03,1.03a2.943,2.943,0,0,0,0,4.157l.186.186a.086.086,0,0,1,.015.106A9.349,9.349,0,0,1,191.3,113.709Zm3.848-1.694a1.706,1.706,0,0,0-.233-2.112l-.186-.186a1.33,1.33,0,0,1,0-1.881l1.03-1.03a.427.427,0,0,1,.64.041l.671.87a3.36,3.36,0,0,1,.276,3.7,14.961,14.961,0,0,1-5.9,5.789,3.365,3.365,0,0,1-3.675-.289l-.813-.627h0a.427.427,0,0,1-.041-.64l1.03-1.03a1.331,1.331,0,0,1,1.881,0l.219.219a1.7,1.7,0,0,0,2.189.18A10.956,10.956,0,0,0,195.143,112.015Z" transform="translate(-165.305 -93.8)"/>
      </g>
    </g>
  </g>
</svg>
