<svg xmlns="http://www.w3.org/2000/svg" width="124" height="124" viewBox="0 0 124 124">
  <g id="Grupo_1113092" data-name="Grupo 1113092" transform="translate(-1234.5 -458)">
    <g id="Elipse_12108" data-name="Elipse 12108" transform="translate(1241.5 465)" fill="#f3bc5b" stroke="rgba(255,255,255,0.4)" stroke-width="7">
      <circle cx="55" cy="55" r="55" stroke="none"/>
      <circle cx="55" cy="55" r="58.5" fill="none"/>
    </g>
    <g id="Grupo_1176760" data-name="Grupo 1176760" transform="translate(1264.201 487.99)">
      <path id="Trazado_930637" data-name="Trazado 930637" d="M13,48a3,3,0,1,0,3,3A3.009,3.009,0,0,0,13,48Zm0,4a1,1,0,1,1,1-1A1,1,0,0,1,13,52Z" fill="#004e3d"/>
      <path id="Trazado_930638" data-name="Trazado 930638" d="M51,48a3,3,0,1,0,3,3A3.009,3.009,0,0,0,51,48Zm0,4a1,1,0,1,1,1-1A1,1,0,0,1,51,52Z" fill="#004e3d"/>
      <path id="Trazado_930639" data-name="Trazado 930639" d="M59,34H55.62l-3.7-7.38v-.01l-1.47-2.94a2.97,2.97,0,0,0-2.68-1.66H40.01v-3a3.009,3.009,0,0,0-3-3H30.96a11,11,0,0,0-21.9,0H5.01a3.009,3.009,0,0,0-3,3v30a3.009,3.009,0,0,0,3,3H6.09a6.991,6.991,0,0,0,13.84,0H44.09a6.991,6.991,0,0,0,13.84,0h1.08a3.009,3.009,0,0,0,3-3v-12a3.009,3.009,0,0,0-3-3Zm1,8a2.006,2.006,0,0,1-2-2h2Zm-6.62-8H45V28h5.38ZM47.76,24a1,1,0,0,1,.9.56L49.38,26H45a2.006,2.006,0,0,0-2,2v6a2.006,2.006,0,0,0,2,2H59a1,1,0,0,1,1,1v1H57a1,1,0,0,0-1,1v1a4,4,0,0,0,4,4v2H55.89a6.978,6.978,0,0,0-9.78,0H40V24ZM44.08,50H19.92a6.739,6.739,0,0,0-.61-2H44.68a7.045,7.045,0,0,0-.61,2ZM20,8a9,9,0,1,1-9,9A9.014,9.014,0,0,1,20,8ZM4,19a1,1,0,0,1,1-1H9.05a11,11,0,0,0,21.9,0H37a1,1,0,0,1,1,1V46H17.89a6.978,6.978,0,0,0-9.78,0H4ZM4,49V48H6.68a7.045,7.045,0,0,0-.61,2H4.99a1,1,0,0,1-1-1Zm9,7a5,5,0,1,1,5-5A5,5,0,0,1,13,56Zm38,0a5,5,0,1,1,5-5A5,5,0,0,1,51,56Zm9-7a1,1,0,0,1-1,1H57.92a6.739,6.739,0,0,0-.61-2h2.68v1Z" fill="#004e3d"/>
      <path id="Trazado_930640" data-name="Trazado 930640" d="M44,40h3a1,1,0,0,0,0-2H44a1,1,0,0,0,0,2Z" fill="#004e3d"/>
      <path id="Trazado_930641" data-name="Trazado 930641" d="M17.43,21.72a1.012,1.012,0,0,0,.69.28h.04a.983.983,0,0,0,.71-.34l6.88-7.81a1,1,0,0,0-1.5-1.32l-6.18,7.03L15.7,17.28a1,1,0,0,0-1.38,1.44l3.12,3Z" fill="#004e3d"/>
    </g>
  </g>
</svg>
