<svg xmlns="http://www.w3.org/2000/svg" width="114" height="114" viewBox="0 0 114 114">
  <g id="Grupo_1177672" data-name="Grupo 1177672" transform="translate(-1234.5 -458)">
    <g id="Elipse_12108" data-name="Elipse 12108" transform="translate(1241.5 465)" fill="#f3bc5b" stroke="rgba(255,255,255,0.4)" stroke-width="7">
      <circle cx="50" cy="50" r="50" stroke="none"/>
      <circle cx="50" cy="50" r="53.5" fill="none"/>
    </g>
    <g id="competition" transform="translate(1263.611 487.126)">
      <g id="Grupo_1178859" data-name="Grupo 1178859" transform="translate(1 1.001)">
        <path id="Trazado_937315" data-name="Trazado 937315" d="M20.583,22.978H17.9a.9.9,0,0,1,0-1.792h2.688a1.792,1.792,0,0,0,1.792-1.792.9.9,0,1,1,1.792,0A3.587,3.587,0,0,1,20.583,22.978Z" transform="translate(11.668 12.853)" fill="#004e3d"/>
        <g id="Grupo_1178857" data-name="Grupo 1178857" transform="translate(21.501)">
          <path id="Trazado_937316" data-name="Trazado 937316" d="M20.07,7.518a.895.895,0,0,1-.634-1.528c2.044-2.041,7.529-3.148,10.858-3.195l3.37-1.7a.9.9,0,1,1,.8,1.6L30.912,4.49a.924.924,0,0,1-.4.093c-3.3,0-8.3,1.166-9.806,2.671a.887.887,0,0,1-.632.263Z" transform="translate(-8.112 -1.001)" fill="#004e3d"/>
          <path id="Trazado_937317" data-name="Trazado 937317" d="M32.841,18.751a.894.894,0,0,1-.64-.269l-3.736-3.815a6.386,6.386,0,0,1-3.9-1.428,3.538,3.538,0,0,1-1.455-2.365.9.9,0,0,1,.83-.959.912.912,0,0,1,.959.828,1.888,1.888,0,0,0,.79,1.1,4.426,4.426,0,0,0,3,1.011.9.9,0,0,1,.763.262l3.587,3.662,2.186-.991a.9.9,0,0,0,.109-1.064L30.175,4.552a.9.9,0,0,1,1.6-.81l5.112,10.089a2.636,2.636,0,0,1-.6,3.415.851.851,0,0,1-.192.118l-2.881,1.308a.925.925,0,0,1-.374.079Z" transform="translate(-4.994 0.78)" fill="#004e3d"/>
          <path id="Trazado_937318" data-name="Trazado 937318" d="M13.9,19.44a.9.9,0,1,1,0-1.792h3.4c1.1-.127,4.5-.627,5.782-1.349a.9.9,0,0,1,.883,1.561c-1.829,1.032-6.085,1.525-6.565,1.577Z" transform="translate(-13 11.018)" fill="#004e3d"/>
          <path id="Trazado_937319" data-name="Trazado 937319" d="M26.167,33.965a.9.9,0,0,1-.871-.686l-1.231-5.1a.891.891,0,0,1,.349-.937l1.673-1.2a.886.886,0,0,1,.412-.161l.516-.063-.082-5.44H22.979c-2.471,0-4.479-1.607-4.479-3.583v-.9a.9.9,0,0,1,1.792,0v.9c0,.971,1.231,1.792,2.688,1.792h4.836a.9.9,0,0,1,.9.882l.111,7.129a.9.9,0,0,1-.787.9l-1.088.133-1,.711.686,2.847L29.1,28.409a4.053,4.053,0,0,0,1.052-2.455V19.479a2.915,2.915,0,0,0-.7-1.94,2.079,2.079,0,0,0-1.561-.745h0l-4.008,0a.9.9,0,1,1,0-1.792l4.006,0h0a3.851,3.851,0,0,1,2.9,1.351,4.708,4.708,0,0,1,1.15,3.127v6.475a5.763,5.763,0,0,1-1.544,3.687l-3.555,4.021A.894.894,0,0,1,26.167,33.965Z" transform="translate(-8.646 10.082)" fill="#004e3d"/>
        </g>
        <g id="Grupo_1178858" data-name="Grupo 1178858" transform="translate(0 0.535)">
          <path id="Trazado_937320" data-name="Trazado 937320" d="M13.367,31.621H1.9a.9.9,0,0,1-.76-.419.889.889,0,0,1-.047-.864l2.272-4.71a1.009,1.009,0,0,1,.819-.507l2.4.036a.9.9,0,0,1,.625.265l.817.828,4.454,0-.495-.667a.9.9,0,1,1,1.439-1.066l1.557,2.1a.895.895,0,0,1-.72,1.428l-6.611,0a.9.9,0,0,1-.636-.265l-.822-.833-1.462-.022-1.4,2.91H13.367a3.641,3.641,0,0,0,3.306-1.412,3.636,3.636,0,0,0-.323-3.58l-1.265-2.356a.9.9,0,0,1,1.579-.847l1.265,2.354c1.062,1.974,1.161,3.874.281,5.347s-2.6,2.286-4.843,2.286Z" transform="translate(-1 14.428)" fill="#004e3d"/>
          <path id="Trazado_937321" data-name="Trazado 937321" d="M4.4,18.68H1.9a.9.9,0,0,1,0-1.792H4.4a2.748,2.748,0,0,0,1.98-1.12C11.528,7.874,17.849,4.443,27.469,4.348L29.892,1.6a.9.9,0,0,1,1.344,1.186L28.548,5.837a.9.9,0,0,1-.672.3c-9.29,0-15.081,3.073-19.992,10.609A4.538,4.538,0,0,1,4.4,18.68Z" transform="translate(-0.999 -1.299)" fill="#004e3d"/>
          <path id="Trazado_937322" data-name="Trazado 937322" d="M24.52,21.685a.9.9,0,0,1-.611-.24l-4.246-3.958c-2.8.3-5.911-1.609-6.436-4.1a.9.9,0,0,1,1.754-.369c.346,1.652,2.856,3.028,4.8,2.637a.889.889,0,0,1,.788.222l4.1,3.827,2.256-1.148a1.128,1.128,0,0,0,.165-1.383L20.46,5.694a.9.9,0,0,1,1.552-.9l6.608,11.437A2.886,2.886,0,0,1,28,20a.913.913,0,0,1-.158.1l-2.912,1.484a.913.913,0,0,1-.409.1Z" transform="translate(8.665 1.115)" fill="#004e3d"/>
          <path id="Trazado_937323" data-name="Trazado 937323" d="M23.164,12.382a.9.9,0,0,1-.763-1.365L24.194,8.1a.9.9,0,1,1,1.527.939l-1.794,2.915A.9.9,0,0,1,23.164,12.382Z" transform="translate(15.839 3.749)" fill="#004e3d"/>
          <path id="Trazado_937324" data-name="Trazado 937324" d="M17,47.881a.9.9,0,0,1-.869-.674l-1.417-5.526a.9.9,0,0,1,.161-.772l1.274-1.638a.9.9,0,0,1,.708-.346h.9V31.759H11.479A4.483,4.483,0,0,1,7,27.279V25.488a.9.9,0,0,1,1.792,0v1.792a2.691,2.691,0,0,0,2.688,2.688h7.167a.9.9,0,0,1,.9.9v8.959a.9.9,0,0,1-.9.9H17.292l-.735.944L17.39,44.9l2.931-4.083a4.7,4.7,0,0,0,1.012-2.616V29.967a1.792,1.792,0,0,0-1.792-1.792H14.876a1.424,1.424,0,0,1-1.234-.615,1.485,1.485,0,0,1-.045-1.435c1.2-2.675.486-8.125.48-8.179a.9.9,0,0,1,.125-.595l4.521-7.256a.9.9,0,1,1,1.521.948L15.889,18.03c.138,1.226.53,5.551-.469,8.351h4.123a3.587,3.587,0,0,1,3.583,3.583V38.2a6.356,6.356,0,0,1-1.4,3.73l-4,5.572A.9.9,0,0,1,17,47.881Z" transform="translate(3.751 5.331)" fill="#004e3d"/>
          <path id="Trazado_937325" data-name="Trazado 937325" d="M1.9,23.463a.9.9,0,0,1,0-1.792,40.174,40.174,0,0,0,10.636-1.48.9.9,0,1,1,.546,1.708A41.526,41.526,0,0,1,1.9,23.463Z" transform="translate(-0.999 13.626)" fill="#004e3d"/>
        </g>
      </g>
    </g>
  </g>
</svg>
